<svg width="30" height="30" viewBox="0 0 30 30" fill="none" xmlns="http://www.w3.org/2000/svg">
<g clip-path="url(#clip0_4021_57)">
<path d="M1.87497 30.0105C2.12141 30.011 2.3655 29.9626 2.59314 29.8682C2.82078 29.7738 3.02746 29.6352 3.20122 29.4605L10.6387 22.018L11.5487 22.9592C12.7578 24.2285 14.4213 24.9658 16.1737 25.0092C16.777 25.0103 17.376 24.9084 17.945 24.708C18.8288 24.3962 19.605 23.8382 20.1822 23.0998C20.7593 22.3614 21.1133 21.4734 21.2025 20.5405C21.3327 19.3094 21.2425 18.0649 20.9362 16.8655L20.8837 16.6155L25.1187 12.3817L25.6837 12.948C26.0995 13.3848 26.656 13.6608 27.2553 13.7276C27.8546 13.7944 28.4583 13.6475 28.96 13.313C29.2538 13.1031 29.4984 12.8317 29.677 12.5179C29.8555 12.204 29.9636 11.855 29.9938 11.4952C30.024 11.1353 29.9756 10.7732 29.8519 10.434C29.7282 10.0947 29.5322 9.78642 29.2775 9.53047L20.5687 0.801719C20.153 0.364935 19.5964 0.0888496 18.9971 0.0220817C18.3978 -0.0446862 17.7942 0.102145 17.2925 0.436719C16.9986 0.64663 16.754 0.917937 16.5755 1.23183C16.397 1.54572 16.2889 1.89468 16.2586 2.25452C16.2284 2.61435 16.2769 2.97645 16.4006 3.31571C16.5243 3.65497 16.7202 3.96326 16.975 4.21922L17.625 4.87547L13.4 9.10172C12.1737 8.78038 10.8993 8.68424 9.63872 8.81797C8.6658 8.91802 7.74183 9.29438 6.9759 9.90261C6.20998 10.5108 5.63408 11.3255 5.31622 12.2505C4.97335 13.1928 4.90613 14.2134 5.12242 15.1925C5.33871 16.1717 5.82956 17.069 6.53747 17.7792L8.03747 19.3242L0.548717 26.8105C0.286751 27.0728 0.108415 27.4068 0.0362436 27.7704C-0.0359274 28.134 0.0013064 28.5109 0.14324 28.8534C0.285173 29.1958 0.525436 29.4885 0.833666 29.6945C1.1419 29.9004 1.50426 30.0104 1.87497 30.0105ZM8.85122 13.5005C8.93437 13.2448 9.08986 13.0188 9.29885 12.8498C9.50784 12.6807 9.76136 12.5759 10.0287 12.548C10.8479 12.4622 11.6759 12.5257 12.4725 12.7355L13.5087 12.9992C13.8239 13.0795 14.1545 13.0764 14.4681 12.9903C14.7817 12.9042 15.0675 12.7379 15.2975 12.508L20.275 7.52797L22.4675 9.72797L17.5125 14.6842C17.2921 14.9047 17.1302 15.1766 17.0414 15.4754C16.9525 15.7742 16.9396 16.0904 17.0037 16.3955L17.285 17.7242C17.4922 18.5157 17.5549 19.338 17.47 20.1517C17.4581 20.3809 17.3771 20.6012 17.2377 20.7835C17.0982 20.9658 16.9068 21.1016 16.6887 21.173C16.2399 21.2785 15.7704 21.2553 15.3341 21.1061C14.8979 20.9568 14.5126 20.6876 14.2225 20.3292L9.21247 15.148C9.00121 14.9365 8.85493 14.669 8.79091 14.377C8.7269 14.0851 8.74782 13.7809 8.85122 13.5005Z" fill="#0B64B9"/>
</g>
<defs>
<clipPath id="clip0_4021_57">
<rect width="30" height="30" fill="white"/>
</clipPath>
</defs>
</svg>
