<svg width="70" height="70" viewBox="0 0 70 70" fill="none" xmlns="http://www.w3.org/2000/svg">
<path d="M59.5291 11.8096L52.5525 4.75713C49.5318 1.72252 45.43 0.0114844 41.1482 0H21.8749C13.0194 0.00970703 5.8429 7.18607 5.83319 16.0416V53.9582C5.8429 62.8139 13.0194 69.9903 21.8749 70H48.1249C56.9805 69.9903 64.157 62.8139 64.1666 53.9584V23.0912C64.1776 18.8646 62.5095 14.8065 59.5291 11.8096ZM55.4166 53.9584C55.4166 57.9854 52.152 61.25 48.1249 61.25H21.8749C17.8479 61.25 14.5833 57.9854 14.5833 53.9584V16.0416C14.5832 12.0146 17.8479 8.75 21.8749 8.75H37.9166V20.4166C37.9166 23.6383 40.5283 26.25 43.7499 26.25H55.4166V53.9584Z" fill="#0B64B9"/>
</svg>
