<svg width="30" height="30" viewBox="0 0 30 30" fill="none" xmlns="http://www.w3.org/2000/svg">
<g clip-path="url(#clip0_4021_67)">
<path d="M25.875 17.5314C25.0417 16.7374 23.9348 16.2945 22.7838 16.2945C21.6327 16.2945 20.5258 16.7374 19.6925 17.5314L19.1813 18.0314C15.9868 16.5747 13.4294 14.0084 11.9838 10.8089L12.4688 10.3164C13.2742 9.50099 13.7299 8.40363 13.739 7.25754C13.7481 6.11145 13.3099 5.00699 12.5175 4.17889L9.8275 1.28139C9.00346 0.493694 7.91007 0.0498593 6.77016 0.0403368C5.63024 0.0308142 4.52959 0.45632 3.6925 1.23014C3.6925 1.23014 2.35875 2.39264 2.3275 2.42264C-7.54125 12.7589 17.2313 37.5476 27.5775 27.6726C27.6075 27.6414 28.77 26.3089 28.77 26.3089C29.5709 25.4728 30.0094 24.3544 29.9905 23.1968C29.9715 22.0392 29.4966 20.9358 28.6688 20.1264L25.875 17.5314ZM26.0713 23.7089C26.04 23.7389 24.885 25.0626 24.885 25.0626C18.3188 30.9664 -1.1375 12.6589 4.9375 5.12514C4.9375 5.12514 6.26125 3.97014 6.2925 3.93889C6.39889 3.8258 6.54447 3.75764 6.69945 3.74835C6.85443 3.73905 7.00711 3.78933 7.12625 3.88889L9.8175 6.78014C9.87915 6.83773 9.9281 6.90756 9.96122 6.98515C9.99433 7.06274 10.0109 7.14639 10.0098 7.23075C10.0088 7.31511 9.99012 7.39832 9.95507 7.47505C9.92001 7.55179 9.86933 7.62036 9.80625 7.67639L8.42125 9.08389C8.1656 9.34378 7.99124 9.67255 7.91953 10.03C7.84783 10.3874 7.88187 10.758 8.0175 11.0964C8.94899 13.59 10.4057 15.8542 12.289 17.7355C14.1722 19.6168 16.4379 21.0712 18.9325 22.0001C19.2683 22.1286 19.634 22.1577 19.986 22.0842C20.3379 22.0106 20.6613 21.8374 20.9175 21.5851L22.335 20.1876C22.6975 19.9201 22.8863 19.9226 23.27 20.2376L26.0675 22.8301C26.1832 22.9471 26.248 23.105 26.248 23.2695C26.248 23.434 26.1832 23.5919 26.0675 23.7089H26.0713ZM18.75 10.0001V4.40764C18.7501 4.16045 18.8234 3.91883 18.9608 3.71332C19.0981 3.50781 19.2933 3.34763 19.5217 3.25304C19.7501 3.15846 20.0014 3.1337 20.2438 3.18191C20.4862 3.23012 20.7089 3.34913 20.8838 3.52389L22.3675 5.00764L26.7963 0.55264C27.1491 0.210168 27.6223 0.0199844 28.114 0.0230584C28.6056 0.0261323 29.0764 0.222218 29.4249 0.569075C29.7734 0.915931 29.9717 1.3858 29.9771 1.87746C29.9825 2.36912 29.7946 2.84322 29.4538 3.19764L25.0188 7.65889L26.4763 9.11639C26.651 9.29121 26.77 9.51391 26.8182 9.75635C26.8664 9.99879 26.8417 10.2501 26.7471 10.4785C26.6525 10.7068 26.4923 10.902 26.2868 11.0394C26.0813 11.1767 25.8397 11.2501 25.5925 11.2501H20C19.6685 11.2501 19.3505 11.1184 19.1161 10.884C18.8817 10.6496 18.75 10.3317 18.75 10.0001Z" fill="#0B64B9"/>
</g>
<defs>
<clipPath id="clip0_4021_67">
<rect width="30" height="30" fill="white"/>
</clipPath>
</defs>
</svg>
