<svg width="70" height="70" viewBox="0 0 70 70" fill="none" xmlns="http://www.w3.org/2000/svg">
<g clip-path="url(#clip0_4021_101)">
<path d="M21.7345 40.8849C9.30592 42.0084 -0.162876 52.5102 0.00212368 64.9882V65.621C0.00212368 68.0369 1.96065 69.9954 4.37659 69.9954C6.79252 69.9954 8.75105 68.0369 8.75105 65.621V64.8132C8.61954 57.1518 14.2735 50.6184 21.8744 49.6485C29.8979 48.8529 37.0473 54.7122 37.8429 62.7356C37.8899 63.21 37.9137 63.6863 37.9141 64.1629V65.6211C37.9141 68.0371 39.8726 69.9956 42.2885 69.9956C44.7045 69.9956 46.663 68.0371 46.663 65.6211V64.1629C46.6488 51.2633 36.18 40.8178 23.2806 40.832C22.7646 40.8326 22.249 40.8502 21.7345 40.8849Z" fill="#0B64B9"/>
<path d="M23.3326 34.9992C32.9963 34.9992 40.8304 27.1651 40.8304 17.5014C40.8304 7.83765 32.9963 0.00354004 23.3326 0.00354004C13.6688 0.00354004 5.83472 7.83765 5.83472 17.5014C5.84442 27.1613 13.6728 34.9897 23.3326 34.9992ZM23.3326 8.75246C28.1644 8.75246 32.0815 12.6695 32.0815 17.5014C32.0815 22.3333 28.1644 26.2503 23.3326 26.2503C18.5007 26.2503 14.5836 22.3333 14.5836 17.5014C14.5836 12.6695 18.5007 8.75246 23.3326 8.75246Z" fill="#0B64B9"/>
<path d="M64.1612 22.9691C60.7823 23.1373 58.175 26.0053 58.3285 29.3849C58.482 26.0053 55.8749 23.1373 52.4959 22.9691C49.117 23.1373 46.5097 26.0053 46.6632 29.3849C46.6632 34.4301 53.2424 40.3414 56.5204 42.972C57.5772 43.8181 59.0797 43.8181 60.1365 42.972C63.4145 40.3473 69.9937 34.4301 69.9937 29.3849C70.1473 26.0053 67.5401 23.1375 64.1612 22.9691Z" fill="#0B64B9"/>
</g>
<defs>
<clipPath id="clip0_4021_101">
<rect width="70" height="70" fill="white"/>
</clipPath>
</defs>
</svg>
