<svg width="30" height="30" viewBox="0 0 30 30" fill="none" xmlns="http://www.w3.org/2000/svg">
<g clip-path="url(#clip0_4021_52)">
<path d="M15.0001 1.03837e-05C13.1917 -0.00468335 11.4005 0.350674 9.73081 1.04536C8.06115 1.74005 6.54648 2.76018 5.27512 4.04626C2.69329 6.65348 1.24931 10.1772 1.25914 13.8465C1.26898 17.5157 2.73184 21.0317 5.32762 23.625L10.0001 27.9488C11.3277 29.2565 13.1143 29.9928 14.9779 30.0001C16.8414 30.0073 18.6337 29.2849 19.9714 27.9875L24.7301 23.5675C27.3038 20.9711 28.7478 17.4633 28.7478 13.8075C28.7478 10.1517 27.3038 6.64388 24.7301 4.04751C23.4583 2.7606 21.9429 1.7399 20.2723 1.04497C18.6017 0.350047 16.8095 -0.00518432 15.0001 1.03837e-05ZM22.1251 20.875L17.3751 25.2825C16.7286 25.9005 15.8666 26.2421 14.9723 26.2348C14.0779 26.2276 13.2216 25.8721 12.5851 25.2438L7.93262 20.92C6.0565 19.0277 5.00385 16.4709 5.00385 13.8063C5.00385 11.1416 6.0565 8.58478 7.93262 6.69251C8.85831 5.76006 9.95935 5.02001 11.1723 4.51499C12.3853 4.00997 13.6862 3.74997 15.0001 3.74997C16.314 3.74997 17.6149 4.00997 18.8279 4.51499C20.0409 5.02001 21.1419 5.76006 22.0676 6.69251C23.9408 8.57369 24.9972 11.1172 25.008 13.772C25.0188 16.4267 23.983 18.9787 22.1251 20.875ZM21.2501 12.66V17.5C21.2501 17.8315 21.1184 18.1495 20.884 18.3839C20.6496 18.6183 20.3316 18.75 20.0001 18.75H18.7501C18.4186 18.75 18.1007 18.6183 17.8662 18.3839C17.6318 18.1495 17.5001 17.8315 17.5001 17.5V15C17.5001 14.6685 17.3684 14.3505 17.134 14.1161C16.8996 13.8817 16.5816 13.75 16.2501 13.75H13.7501C13.4186 13.75 13.1007 13.8817 12.8662 14.1161C12.6318 14.3505 12.5001 14.6685 12.5001 15V17.5C12.5001 17.8315 12.3684 18.1495 12.134 18.3839C11.8996 18.6183 11.5816 18.75 11.2501 18.75H10.0001C9.6686 18.75 9.35066 18.6183 9.11624 18.3839C8.88182 18.1495 8.75012 17.8315 8.75012 17.5V12.66C8.75018 12.2563 8.848 11.8587 9.0352 11.501C9.22241 11.1434 9.49344 10.8364 9.82512 10.6063L13.5751 8.00376C13.9936 7.71344 14.4908 7.55787 15.0001 7.55787C15.5095 7.55787 16.0066 7.71344 16.4251 8.00376L20.1751 10.6063C20.5068 10.8364 20.7778 11.1434 20.965 11.501C21.1523 11.8587 21.2501 12.2563 21.2501 12.66Z" fill="#0B64B9"/>
</g>
<defs>
<clipPath id="clip0_4021_52">
<rect width="30" height="30" fill="white"/>
</clipPath>
</defs>
</svg>
