<svg width="282" height="94" viewBox="0 0 282 94" fill="none" xmlns="http://www.w3.org/2000/svg">
<g clip-path="url(#clip0_4054_19)">
<path fill-rule="evenodd" clip-rule="evenodd" d="M38.4135 0C43.2968 0.00433779 48.1844 0.121458 53.0677 0.33401C71.6538 1.14084 85.828 15.7202 87.1212 34.1688C87.4716 39.1703 87.7008 44.1934 87.7311 49.2166H77.1081C77.0778 44.4277 76.8572 39.6431 76.5285 34.9149C75.6158 21.8625 65.7973 11.5472 52.6093 10.9746C47.873 10.7664 43.1454 10.658 38.4178 10.6493V0H38.4135Z" fill="#022162"/>
<path d="M73.1071 36.4721C72.255 24.2785 63.1242 14.7788 50.9526 14.2496C42.2543 13.8722 33.037 13.7551 22.6043 14.2496C10.4327 14.8265 1.15484 24.2699 0.445484 36.4721C-0.108161 46.0977 -0.190342 55.5974 0.445484 64.8977C1.28028 77.0912 10.4241 86.6821 22.6043 87.1202C23.5645 87.1549 26.7869 87.1766 30.7446 87.1852V65.4312C30.7446 64.7068 30.9522 64.0952 31.3718 63.6093C31.787 63.1192 32.3969 62.8849 33.2187 62.8849H40.1522C40.4593 62.8849 40.7794 62.937 41.0995 63.0628C41.4152 63.1886 41.7093 63.3707 41.9602 63.6093C42.2068 63.8436 42.4187 64.1212 42.5831 64.4292C42.7518 64.7372 42.8339 65.0712 42.8339 65.4312V87.1852C46.7787 87.1722 49.9924 87.1505 50.9526 87.1202C63.1285 86.7124 71.9695 77.0652 73.1071 64.8977C73.8986 56.4433 73.8381 46.8871 73.1071 36.4721ZM43.4438 53.5413C43.2838 55.2417 42.1635 56.7122 40.3728 56.773C38.0112 56.851 35.6409 56.8597 33.2749 56.773C31.5188 56.7122 30.3207 55.3198 30.2039 53.6107C30.0439 51.2943 30.0698 48.9649 30.2039 46.6442C30.3077 44.9134 31.5621 43.5904 33.3052 43.508C35.6539 43.3995 37.9982 43.4082 40.3469 43.508C42.1073 43.5861 43.3184 44.9525 43.4395 46.6789C43.5952 48.9432 43.6558 51.277 43.4438 53.5413ZM51.9821 50.2099C51.9518 45.9805 51.9345 45.0132 51.6663 40.8229C51.4327 37.2182 49.7978 35.5568 46.4629 35.4267C42.0727 35.2575 41.2292 35.2662 36.839 35.2618V24.1484C41.3849 24.1528 45.9309 24.2612 50.4898 24.4564C57.3368 24.7557 62.0428 30.0782 62.51 36.7844C62.8214 41.2133 63.0333 45.7116 63.0636 50.2099H51.9821Z" fill="black"/>
<path d="M73.1071 36.4721C72.255 24.2785 63.1242 14.7788 50.9526 14.2496C42.2543 13.8722 33.037 13.7551 22.6043 14.2496C10.4327 14.8265 1.15484 24.2699 0.445484 36.4721C-0.108161 46.0977 -0.190342 55.5974 0.445484 64.8977C1.28028 77.0912 10.4241 86.6821 22.6043 87.1202C23.5645 87.1549 26.7869 87.1766 30.7446 87.1852V65.4312C30.7446 64.7068 30.9522 64.0952 31.3718 63.6093C31.787 63.1192 32.3969 62.8849 33.2187 62.8849H40.1522C40.4593 62.8849 40.7794 62.937 41.0995 63.0628C41.4152 63.1886 41.7093 63.3707 41.9602 63.6093C42.2068 63.8436 42.4187 64.1212 42.5831 64.4292C42.7518 64.7372 42.8339 65.0712 42.8339 65.4312V87.1852C46.7787 87.1722 49.9924 87.1505 50.9526 87.1202C63.1285 86.7124 71.9695 77.0652 73.1071 64.8977C73.8986 56.4433 73.8381 46.8871 73.1071 36.4721ZM43.4438 53.5413C43.2838 55.2417 42.1635 56.7122 40.3728 56.773C38.0112 56.851 35.6409 56.8597 33.2749 56.773C31.5188 56.7122 30.3207 55.3198 30.2039 53.6107C30.0439 51.2943 30.0698 48.9649 30.2039 46.6442C30.3077 44.9134 31.5621 43.5904 33.3052 43.508C35.6539 43.3995 37.9982 43.4082 40.3469 43.508C42.1073 43.5861 43.3184 44.9525 43.4395 46.6789C43.5952 48.9432 43.6558 51.277 43.4438 53.5413ZM51.9821 50.2099C51.9518 45.9805 51.9345 45.0132 51.6663 40.8229C51.4327 37.2182 49.7978 35.5568 46.4629 35.4267C42.0727 35.2575 41.2292 35.2662 36.839 35.2618V24.1484C41.3849 24.1528 45.9309 24.2612 50.4898 24.4564C57.3368 24.7557 62.0428 30.0782 62.51 36.7844C62.8214 41.2133 63.0333 45.7116 63.0636 50.2099H51.9821Z" fill="#022162"/>
<path fill-rule="evenodd" clip-rule="evenodd" d="M184.052 60.1393C184.052 61.7703 184.338 63.3145 184.909 64.772C185.48 66.2295 186.271 67.5048 187.288 68.5893C188.296 69.6694 189.507 70.5283 190.899 71.1616C192.284 71.7949 193.81 72.1116 195.458 72.1116C197.106 72.1116 198.551 71.7949 199.913 71.1616C201.289 70.5283 202.478 69.6737 203.465 68.5893C204.464 67.5092 205.247 66.2339 205.805 64.772C206.363 63.3145 206.639 61.7703 206.639 60.1393C206.639 58.5083 206.367 56.9857 205.805 55.5152C205.247 54.0447 204.459 52.7477 203.465 51.6372C202.478 50.5267 201.289 49.6375 199.913 48.9738C198.551 48.3101 197.054 47.9848 195.458 47.9848C193.862 47.9848 192.284 48.3101 190.899 48.9738C189.507 49.6375 188.296 50.5267 187.288 51.6372C186.271 52.7477 185.475 54.0447 184.909 55.5152C184.338 56.9857 184.052 58.5256 184.052 60.1393ZM158.55 52.0276C158.55 50.2101 158.827 48.4576 159.376 46.7702C159.926 45.0871 160.739 43.5949 161.798 42.3109C162.867 41.0139 164.16 39.9946 165.704 39.2311C167.24 38.4677 168.992 38.0772 170.947 38.0772H171.254C171.842 38.0772 172.3 38.2594 172.629 38.6195C172.954 38.9752 173.118 39.4567 173.118 40.0683V44.302C173.118 44.8919 172.967 45.3951 172.651 45.8029C172.335 46.2106 171.898 46.4145 171.349 46.4145C171.042 46.4145 170.657 46.4969 170.19 46.6487C169.723 46.8006 169.273 47.0478 168.849 47.3731C168.421 47.6985 168.053 48.1192 167.75 48.6268C167.443 49.1386 167.292 49.7416 167.292 50.4313V52.0233H171.716C172.305 52.0233 172.763 52.1751 173.092 52.4831C173.416 52.791 173.581 53.2986 173.581 54.0143V57.7795C173.581 58.4952 173.416 59.0245 173.092 59.3802C172.768 59.7359 172.309 59.9224 171.716 59.9224H167.292L167.261 77.5252C167.261 78.1802 167.049 78.666 166.621 79.0043C166.193 79.3427 165.717 79.5162 165.207 79.5162H160.466C159.848 79.5162 159.376 79.321 159.043 78.9436C158.706 78.5662 158.533 78.0977 158.533 77.5252L158.593 59.9224H155.54C154.951 59.9224 154.471 59.7402 154.104 59.3802C153.736 59.0245 153.554 58.4909 153.554 57.7795V54.0143C153.554 53.2986 153.736 52.791 154.104 52.4831C154.471 52.1751 154.947 52.0233 155.54 52.0233H158.563L158.55 52.0276ZM102.29 50.4053C102.29 49.876 102.442 49.4249 102.749 49.0692C103.056 48.7135 103.501 48.54 104.103 48.54H109.181C109.405 48.54 109.639 48.5791 109.873 48.6745C110.106 48.7656 110.322 48.9 110.504 49.0736C110.686 49.2471 110.841 49.4509 110.963 49.6765C111.084 49.9021 111.144 50.145 111.144 50.4096L111.114 77.6856C111.114 78.9089 110.474 79.5205 109.181 79.5205H104.103C102.87 79.5205 102.26 78.9089 102.26 77.6856L102.29 50.4096V50.4053ZM147.118 45.7898C148.381 47.2647 149.324 49.0042 149.969 50.9995C150.613 52.9906 150.942 55.1335 150.942 57.4238V77.369C150.942 78.0847 150.773 78.6226 150.436 78.9826C150.098 79.3427 149.61 79.5205 148.965 79.5205H144.428C143.623 79.5205 143.096 79.373 142.827 79.0737C142.559 78.7744 142.421 78.2452 142.421 77.4904V57.593C142.421 56.5389 142.244 55.5022 141.885 54.4958C141.526 53.4894 141.011 52.5958 140.327 51.7977C139.644 50.9995 138.788 50.3619 137.775 49.8847C137.3 49.6592 136.785 49.4856 136.236 49.3685C132.732 48.514 130.985 49.6592 130.505 49.8847C129.492 50.3619 128.636 50.9995 127.953 51.7977C127.269 52.5958 126.75 53.4894 126.395 54.4958C126.036 55.5022 125.859 56.5389 125.859 57.593V77.4904C125.859 78.2452 125.721 78.7744 125.453 79.0737C125.184 79.373 124.657 79.5205 123.852 79.5205H119.315C118.67 79.5205 118.182 79.3427 117.844 78.9826C117.507 78.6226 117.338 78.0847 117.338 77.369V57.4238C117.338 55.1335 117.667 52.9906 118.311 50.9995C118.956 49.0085 119.899 47.2647 121.162 45.7898C126.802 39.1443 141.089 38.6889 147.118 45.7898ZM104.129 34.3511C102.853 34.4118 101.931 35.3791 101.858 36.6458C101.758 38.3419 101.741 40.0509 101.858 41.747C101.944 42.9963 102.822 44.0157 104.107 44.0634C105.841 44.1241 107.576 44.1198 109.306 44.0634C110.617 44.02 111.438 42.9399 111.555 41.695C111.711 40.0379 111.668 38.3288 111.555 36.6718C111.469 35.4095 110.582 34.4075 109.293 34.3511C107.572 34.2773 105.859 34.2687 104.137 34.3511H104.129ZM175.445 60.1523C175.445 58.2957 175.679 56.5085 176.159 54.7864C176.639 53.0513 177.318 51.4507 178.192 49.9585C179.065 48.4706 180.116 47.1129 181.336 45.8983C182.547 44.6837 183.901 43.6426 185.385 42.7751C186.868 41.9075 188.469 41.2352 190.155 40.7537C191.855 40.2722 193.637 40.0293 195.489 40.0293C197.34 40.0293 199.079 40.2722 200.792 40.7537C202.5 41.2352 204.087 41.9075 205.562 42.7751C207.037 43.6426 208.391 44.6837 209.602 45.8983C210.822 47.1129 211.873 48.4706 212.747 49.9585C213.62 51.4463 214.304 53.0513 214.78 54.7864C215.26 56.5129 215.493 58.2957 215.493 60.1523C215.493 62.0089 215.26 63.8047 214.78 65.5181C214.3 67.2316 213.62 68.8366 212.747 70.3157C211.873 71.7949 210.822 73.144 209.602 74.3759C208.391 75.5992 207.037 76.6402 205.562 77.5078C204.087 78.3754 202.5 79.0477 200.792 79.5292C199.083 80.0107 197.31 80.2536 195.489 80.2536C193.668 80.2536 191.855 80.0107 190.155 79.5292C188.464 79.0477 186.868 78.3754 185.385 77.5078C183.901 76.6402 182.547 75.5992 181.336 74.3759C180.116 73.1396 179.065 71.7949 178.192 70.3157C177.318 68.8366 176.634 67.2359 176.159 65.5181C175.679 63.8047 175.445 62.0175 175.445 60.1523Z" fill="#022162"/>
<path d="M227.055 48.2059V55.9618H234.499C235.048 55.9618 235.589 55.8708 236.099 55.6625C236.567 55.4673 236.986 55.1984 237.345 54.8384C237.7 54.4827 237.968 54.0619 238.163 53.5978C238.37 53.0989 238.461 52.5784 238.461 52.0405C238.461 51.5026 238.375 50.9994 238.176 50.5092C237.99 50.0538 237.726 49.646 237.38 49.299C237.029 48.9476 236.623 48.683 236.164 48.5008C235.658 48.297 235.122 48.2145 234.577 48.2145H227.055V48.2059ZM227.055 63.1322V71.9987H234.767C235.096 71.9987 235.42 71.9813 235.749 71.9596C236.06 71.9379 236.368 71.8989 236.67 71.8382H236.705C237.181 71.7644 237.622 71.6039 238.029 71.348C238.448 71.0877 238.82 70.7581 239.127 70.3677C239.447 69.9686 239.685 69.5175 239.858 69.036C240.035 68.5371 240.118 68.0209 240.118 67.4917C240.118 66.9972 240.031 66.5114 239.858 66.0472C239.685 65.5831 239.447 65.1536 239.136 64.7719C238.833 64.3945 238.47 64.0779 238.059 63.8263C237.639 63.5747 237.189 63.4098 236.727 63.3274C236.394 63.2754 236.065 63.2277 235.732 63.1886C235.412 63.1496 235.087 63.1366 234.767 63.1366H227.055V63.1322ZM244.69 58.712C245.191 59.1371 245.654 59.6013 246.078 60.1044C246.662 60.7942 247.164 61.5446 247.583 62.3471C248.011 63.1582 248.34 64.0085 248.569 64.8977C248.807 65.8086 248.928 66.7456 248.928 67.6869C248.928 69.2528 248.639 70.7667 248.037 72.2112C247.453 73.608 246.653 74.879 245.615 75.9808C244.581 77.0782 243.362 77.9371 241.991 78.5618C240.572 79.2081 239.067 79.5247 237.509 79.5247H220.212C219.75 79.5247 219.317 79.3946 218.958 79.0953C218.556 78.757 218.396 78.2711 218.396 77.7549V42.5581C218.396 41.4129 219.053 40.6885 220.212 40.6885H235.935C237.449 40.6885 238.915 40.9748 240.308 41.5647C241.64 42.133 242.838 42.9138 243.868 43.9375C244.897 44.9612 245.684 46.1584 246.251 47.4945C246.848 48.8956 247.12 50.3791 247.12 51.8973C247.12 53.2984 246.874 54.6692 246.338 55.9662C245.922 56.9682 245.377 57.8922 244.69 58.7163V58.712Z" fill="#022162"/>
<mask id="mask0_4054_19" style="mask-type:luminance" maskUnits="userSpaceOnUse" x="218" y="40" width="31" height="40">
<path d="M227.055 48.2059V55.9618H234.499C235.048 55.9618 235.589 55.8708 236.099 55.6625C236.567 55.4673 236.986 55.1984 237.345 54.8384C237.7 54.4827 237.968 54.0619 238.163 53.5978C238.37 53.0989 238.461 52.5784 238.461 52.0405C238.461 51.5026 238.375 50.9994 238.176 50.5092C237.99 50.0538 237.726 49.646 237.38 49.299C237.029 48.9476 236.623 48.683 236.164 48.5008C235.658 48.297 235.122 48.2145 234.577 48.2145H227.055V48.2059ZM227.055 63.1322V71.9987H234.767C235.096 71.9987 235.42 71.9813 235.749 71.9596C236.06 71.9379 236.368 71.8989 236.67 71.8382H236.705C237.181 71.7644 237.622 71.6039 238.029 71.348C238.448 71.0877 238.82 70.7581 239.127 70.3677C239.447 69.9686 239.685 69.5175 239.858 69.036C240.035 68.5371 240.118 68.0209 240.118 67.4917C240.118 66.9972 240.031 66.5114 239.858 66.0472C239.685 65.5831 239.447 65.1536 239.136 64.7719C238.833 64.3945 238.47 64.0779 238.059 63.8263C237.639 63.5747 237.189 63.4098 236.727 63.3274C236.394 63.2754 236.065 63.2277 235.732 63.1886C235.412 63.1496 235.087 63.1366 234.767 63.1366H227.055V63.1322ZM244.69 58.712C245.191 59.1371 245.654 59.6013 246.078 60.1044C246.662 60.7942 247.164 61.5446 247.583 62.3471C248.011 63.1582 248.34 64.0085 248.569 64.8977C248.807 65.8086 248.928 66.7456 248.928 67.6869C248.928 69.2528 248.639 70.7667 248.037 72.2112C247.453 73.608 246.653 74.879 245.615 75.9808C244.581 77.0782 243.362 77.9371 241.991 78.5618C240.572 79.2081 239.067 79.5247 237.509 79.5247H220.212C219.75 79.5247 219.317 79.3946 218.958 79.0953C218.556 78.757 218.396 78.2711 218.396 77.7549V42.5581C218.396 41.4129 219.053 40.6885 220.212 40.6885H235.935C237.449 40.6885 238.915 40.9748 240.308 41.5647C241.64 42.133 242.838 42.9138 243.868 43.9375C244.897 44.9612 245.684 46.1584 246.251 47.4945C246.848 48.8956 247.12 50.3791 247.12 51.8973C247.12 53.2984 246.874 54.6692 246.338 55.9662C245.922 56.9682 245.377 57.8922 244.69 58.7163V58.712Z" fill="white"/>
</mask>
<g mask="url(#mask0_4054_19)">
<path d="M248.928 40.6797H218.396V79.516H248.928V40.6797Z" fill="#022162"/>
</g>
<path fill-rule="evenodd" clip-rule="evenodd" d="M267.969 48.4054C267.398 48.3881 266.827 48.3707 266.256 48.3664C265.676 48.3577 265.097 48.3577 264.513 48.3577H260.226V58.686H267.151C267.445 58.686 267.739 58.6686 268.029 58.6383H268.055C268.726 58.5949 269.374 58.4387 269.98 58.1481C270.546 57.8748 271.048 57.5104 271.468 57.0376C271.892 56.5648 272.207 56.0269 272.437 55.4326C272.67 54.821 272.787 54.179 272.787 53.5283C272.787 52.8777 272.666 52.2747 272.432 51.6891C272.194 51.0905 271.861 50.5483 271.425 50.0755C270.983 49.594 270.473 49.2036 269.889 48.9129C269.283 48.6093 268.639 48.4488 267.964 48.4054M275.361 64.3772L281.667 76.818L281.684 76.9091C281.706 77.0262 281.749 77.1346 281.801 77.2431C281.931 77.5033 282 77.7853 282 78.0803C282 79.0259 281.338 79.5247 280.434 79.5247H274.578C273.665 79.5247 273.029 79.0129 272.739 78.1714L266.844 66.4723C266.706 66.4723 266.571 66.481 266.433 66.4897C265.992 66.5114 265.546 66.5157 265.105 66.5157H260.226V77.7549C260.226 78.8958 259.495 79.5247 258.388 79.5247H253.362C252.899 79.5247 252.458 79.3946 252.108 79.0866C251.718 78.7439 251.571 78.2625 251.571 77.7549V42.5581C251.571 41.4259 252.207 40.6885 253.362 40.6885H268.764C270.503 40.6885 272.19 41.0095 273.786 41.7035C275.309 42.3629 276.684 43.2738 277.861 44.445C279.041 45.6205 279.95 46.9956 280.599 48.5312C281.269 50.1188 281.602 51.7889 281.602 53.5153C281.602 54.7126 281.442 55.8968 281.096 57.042C280.767 58.1394 280.296 59.1848 279.69 60.1565C279.089 61.1195 278.371 61.987 277.541 62.7592C276.874 63.3795 276.148 63.926 275.369 64.3902L275.361 64.3772Z" fill="#022162"/>
<mask id="mask1_4054_19" style="mask-type:luminance" maskUnits="userSpaceOnUse" x="251" y="40" width="31" height="40">
<path d="M267.969 48.4054C267.398 48.3881 266.827 48.3707 266.256 48.3664C265.676 48.3577 265.097 48.3577 264.513 48.3577H260.226V58.686H267.151C267.445 58.686 267.739 58.6686 268.029 58.6383H268.055C268.726 58.5949 269.374 58.4387 269.98 58.1481C270.546 57.8748 271.048 57.5104 271.468 57.0376C271.892 56.5648 272.207 56.0269 272.437 55.4326C272.67 54.821 272.787 54.179 272.787 53.5283C272.787 52.8777 272.666 52.2747 272.432 51.6891C272.194 51.0905 271.861 50.5483 271.425 50.0755C270.983 49.594 270.473 49.2036 269.889 48.9129C269.283 48.6093 268.639 48.4488 267.964 48.4054M275.361 64.3772L281.667 76.818L281.684 76.9091C281.706 77.0262 281.749 77.1346 281.801 77.2431C281.931 77.5033 282 77.7853 282 78.0803C282 79.0259 281.338 79.5247 280.434 79.5247H274.578C273.665 79.5247 273.029 79.0129 272.739 78.1714L266.844 66.4723C266.706 66.4723 266.571 66.481 266.433 66.4897C265.992 66.5114 265.546 66.5157 265.105 66.5157H260.226V77.7549C260.226 78.8958 259.495 79.5247 258.388 79.5247H253.362C252.899 79.5247 252.458 79.3946 252.108 79.0866C251.718 78.7439 251.571 78.2625 251.571 77.7549V42.5581C251.571 41.4259 252.207 40.6885 253.362 40.6885H268.764C270.503 40.6885 272.19 41.0095 273.786 41.7035C275.309 42.3629 276.684 43.2738 277.861 44.445C279.041 45.6205 279.95 46.9956 280.599 48.5312C281.269 50.1188 281.602 51.7889 281.602 53.5153C281.602 54.7126 281.442 55.8968 281.096 57.042C280.767 58.1394 280.296 59.1848 279.69 60.1565C279.089 61.1195 278.371 61.987 277.541 62.7592C276.874 63.3795 276.148 63.926 275.369 64.3902L275.361 64.3772Z" fill="white"/>
</mask>
<g mask="url(#mask1_4054_19)">
<path d="M281.996 40.6797H251.567V79.516H281.996V40.6797Z" fill="#022162"/>
</g>
<path fill-rule="evenodd" clip-rule="evenodd" d="M281.823 88.89C281.71 88.5387 281.546 88.235 281.325 87.9791C280.3 86.7689 277.9 86.8122 276.866 87.8923C275.772 86.7428 273.367 86.8426 272.402 87.9791C272.182 88.235 272.017 88.5387 271.905 88.89C271.792 89.2371 271.736 89.6101 271.736 90.0092V93.4968C271.736 93.6226 271.766 93.718 271.823 93.7787C271.883 93.8438 271.97 93.8742 272.082 93.8742H272.874C273.016 93.8742 273.107 93.8481 273.155 93.7961C273.202 93.744 273.224 93.6529 273.224 93.5185V90.0395C273.224 89.8574 273.254 89.6752 273.319 89.4973C273.38 89.3238 273.47 89.1677 273.592 89.0288C273.713 88.89 273.86 88.7772 274.037 88.6948C274.119 88.6558 274.426 88.4519 275.041 88.6037C275.136 88.6254 275.222 88.6558 275.309 88.6948C275.486 88.7772 275.633 88.89 275.754 89.0288C275.875 89.1677 275.962 89.3238 276.027 89.4973C276.087 89.6708 276.118 89.8487 276.122 90.0309V93.5185C276.122 93.6529 276.144 93.744 276.191 93.7961C276.234 93.8438 276.321 93.8698 276.446 93.8742H277.285C277.411 93.8698 277.493 93.8438 277.536 93.7961C277.584 93.744 277.61 93.6529 277.61 93.5185V90.0309C277.61 89.8487 277.64 89.6708 277.705 89.4973C277.766 89.3238 277.856 89.1677 277.977 89.0288C278.094 88.89 278.246 88.7772 278.423 88.6948C278.505 88.6558 278.812 88.4519 279.422 88.6037C279.517 88.6254 279.608 88.6558 279.69 88.6948C279.868 88.7772 280.019 88.89 280.14 89.0288C280.257 89.1677 280.348 89.3238 280.413 89.4973C280.473 89.6752 280.503 89.8574 280.503 90.0395V93.5185C280.503 93.6529 280.529 93.744 280.577 93.7961C280.625 93.8481 280.715 93.8742 280.854 93.8742H281.65C281.762 93.8742 281.849 93.8438 281.905 93.7787C281.965 93.718 281.996 93.6226 281.996 93.4968V90.0092C281.996 89.6101 281.935 89.2371 281.823 88.89ZM270.495 89.6405C270.417 89.3455 270.3 89.0679 270.149 88.8163C269.997 88.5604 269.82 88.3261 269.612 88.1179C269.405 87.914 269.171 87.7362 268.92 87.5844C268.665 87.4369 268.397 87.3197 268.103 87.2417C267.809 87.1592 267.506 87.1159 267.194 87.1159C266.883 87.1159 266.572 87.1592 266.282 87.2417C265.992 87.3197 265.719 87.4369 265.464 87.5844C265.213 87.7362 264.98 87.914 264.772 88.1179C264.565 88.3261 264.383 88.5604 264.236 88.8163C264.084 89.0679 263.968 89.3455 263.885 89.6405C263.803 89.9354 263.764 90.2434 263.764 90.5601C263.764 90.8767 263.803 91.1847 263.885 91.4797C263.968 91.7703 264.084 92.0436 264.236 92.2995C264.383 92.5511 264.565 92.781 264.772 92.9936C264.98 93.2018 265.213 93.3796 265.464 93.5315C265.719 93.679 265.992 93.7917 266.282 93.8742C266.572 93.9566 266.879 94 267.194 94C267.51 94 267.809 93.9566 268.103 93.8742C268.397 93.7917 268.665 93.679 268.92 93.5315C269.171 93.3796 269.405 93.2018 269.612 92.9936C269.82 92.781 269.997 92.5511 270.149 92.2995C270.3 92.0436 270.417 91.7703 270.495 91.4797C270.577 91.1847 270.62 90.8811 270.62 90.5601C270.62 90.2391 270.577 89.9354 270.495 89.6405ZM268.959 91.3496C268.864 91.6012 268.73 91.818 268.561 92.0046C268.393 92.1868 268.189 92.3342 267.951 92.4427C267.718 92.5511 267.463 92.6075 267.19 92.6075C266.918 92.6075 266.645 92.5511 266.411 92.4427C266.169 92.3342 265.966 92.1868 265.793 92.0046C265.616 91.818 265.482 91.6012 265.386 91.3496C265.287 91.1023 265.239 90.8377 265.239 90.5557C265.239 90.2738 265.287 90.0179 265.386 89.7663C265.482 89.5147 265.616 89.2934 265.793 89.1026C265.966 88.9117 266.169 88.7599 266.411 88.6471C266.645 88.5343 266.909 88.4779 267.19 88.4779C267.471 88.4779 267.718 88.5343 267.951 88.6471C268.189 88.7599 268.393 88.9117 268.561 89.1026C268.73 89.2934 268.864 89.5147 268.959 89.7663C269.059 90.0179 269.102 90.2825 269.102 90.5557C269.102 90.829 269.059 91.1023 268.959 91.3496ZM262.886 92.9242C262.878 92.8982 262.865 92.8721 262.847 92.8461L262.475 92.3169L262.35 92.1434C262.307 92.087 262.255 92.0523 262.199 92.0523C262.168 92.0523 262.138 92.0523 262.095 92.061C262.056 92.0696 262.008 92.0957 261.948 92.1347C261.77 92.2778 261.571 92.3993 261.355 92.5034C261.139 92.6075 260.884 92.6596 260.59 92.6596C260.317 92.6596 260.062 92.6032 259.82 92.4947C259.582 92.382 259.37 92.2345 259.192 92.0436C259.011 91.8571 258.868 91.6315 258.764 91.3756C258.66 91.124 258.609 90.8464 258.609 90.5557C258.609 90.2651 258.66 90.0048 258.764 89.7446C258.868 89.4886 259.011 89.2631 259.192 89.0679C259.374 88.8727 259.586 88.7209 259.824 88.6081C260.062 88.4953 260.317 88.4346 260.59 88.4346C260.84 88.4346 261.083 88.4823 261.321 88.5777C261.558 88.6731 261.766 88.7946 261.943 88.9464C262.017 89.0028 262.082 89.0332 262.142 89.0332C262.225 89.0332 262.302 88.9811 262.372 88.877L262.8 88.222C262.817 88.196 262.826 88.17 262.83 88.1439V88.0702C262.83 87.9921 262.808 87.9357 262.761 87.8967C262.713 87.862 262.666 87.8186 262.614 87.7709C262.35 87.567 262.043 87.4108 261.701 87.2937C261.355 87.1766 260.992 87.1159 260.603 87.1159C260.295 87.1159 259.997 87.1592 259.703 87.2417C259.413 87.3197 259.141 87.4369 258.885 87.5844C258.635 87.7362 258.405 87.914 258.193 88.1179C257.986 88.3305 257.804 88.5604 257.653 88.8163C257.501 89.0722 257.384 89.3455 257.302 89.6405C257.22 89.9311 257.177 90.2391 257.177 90.5557C257.177 90.8724 257.22 91.1847 257.302 91.4754C257.384 91.7703 257.501 92.0436 257.653 92.2995C257.804 92.5555 257.986 92.7854 258.193 92.9936C258.405 93.2018 258.635 93.3796 258.885 93.5315C259.141 93.679 259.413 93.7917 259.703 93.8742C259.997 93.9566 260.295 94 260.603 94C261.013 94 261.394 93.9349 261.736 93.8004C262.077 93.6659 262.398 93.4924 262.696 93.2755C262.757 93.2322 262.808 93.1844 262.847 93.1411C262.882 93.0977 262.904 93.05 262.904 92.9936C262.904 92.9719 262.899 92.9502 262.886 92.9242ZM256.1 89.4409C256.005 89.1026 255.849 88.7859 255.641 88.4953C255.49 88.2827 255.313 88.0875 255.109 87.9184C254.906 87.7492 254.69 87.606 254.461 87.4889C254.227 87.3675 253.98 87.2764 253.725 87.2113C253.466 87.1462 253.206 87.1159 252.942 87.1159C252.618 87.1159 252.311 87.1592 252.021 87.2417C251.727 87.3197 251.459 87.4369 251.212 87.5887C250.961 87.7362 250.736 87.9184 250.533 88.1309C250.33 88.3435 250.161 88.5734 250.018 88.8293C249.88 89.0809 249.768 89.3542 249.69 89.6448C249.616 89.9311 249.577 90.2347 249.577 90.5427C249.577 91.0286 249.672 91.4754 249.858 91.8961C250.044 92.3126 250.295 92.6769 250.611 92.9892C250.927 93.3016 251.299 93.5445 251.718 93.7223C252.142 93.9002 252.588 93.9913 253.055 93.9913C253.492 93.9913 253.89 93.9132 254.257 93.7614C254.621 93.6095 254.954 93.4013 255.261 93.1367C255.395 93.0413 255.46 92.9415 255.46 92.8418C255.46 92.8071 255.451 92.7637 255.429 92.7246C255.412 92.6899 255.382 92.6422 255.339 92.5902C255.295 92.5381 255.243 92.473 255.179 92.395C255.109 92.3212 255.031 92.2258 254.936 92.1087C254.897 92.061 254.858 92.0263 254.82 92.0046C254.781 91.9829 254.742 91.9742 254.711 91.9742C254.668 91.9742 254.629 91.9829 254.59 92.0046C254.551 92.0263 254.512 92.061 254.474 92.1C254.469 92.1 254.465 92.1 254.465 92.1043C254.387 92.1781 254.292 92.2475 254.188 92.3125C254.08 92.382 253.963 92.4427 253.838 92.4947C253.712 92.5468 253.578 92.5902 253.435 92.6205C253.293 92.6552 253.141 92.6683 252.981 92.6683C252.778 92.6683 252.57 92.6379 252.367 92.5685C252.159 92.4991 251.969 92.3993 251.796 92.2648C251.623 92.1304 251.472 91.9655 251.346 91.7747C251.221 91.5795 251.13 91.3582 251.087 91.1066H255.719C255.845 91.1066 255.944 91.098 256.013 91.0763C256.083 91.0589 256.134 91.0286 256.169 90.9895C256.204 90.9461 256.225 90.8898 256.234 90.8203C256.243 90.7553 256.247 90.6685 256.247 90.5688C256.247 90.1567 256.199 89.7793 256.1 89.4409ZM251.117 89.8487C251.173 89.6491 251.264 89.4626 251.381 89.2848C251.502 89.1156 251.645 88.9638 251.805 88.8336C251.969 88.7035 252.146 88.6037 252.341 88.5257C252.536 88.4519 252.735 88.4172 252.942 88.4172C253.176 88.4172 253.401 88.4519 253.604 88.5213C253.812 88.5907 253.993 88.6862 254.153 88.8163C254.313 88.9421 254.452 89.0939 254.564 89.2674C254.677 89.4453 254.759 89.6361 254.815 89.8487H251.117ZM248.284 85.3287C248.223 85.268 248.158 85.2419 248.085 85.2419H247.172C247.069 85.2419 246.991 85.268 246.943 85.3287C246.895 85.3894 246.87 85.4632 246.87 85.5543V93.5575C246.87 93.6659 246.895 93.744 246.943 93.7961C246.991 93.8481 247.068 93.8742 247.181 93.8742H248.055C248.154 93.8742 248.232 93.8481 248.288 93.7961C248.344 93.744 248.375 93.6659 248.375 93.5575V85.5543C248.375 85.4632 248.344 85.3894 248.284 85.3287ZM245.481 89.4409C245.382 89.1026 245.23 88.7859 245.023 88.4953C244.867 88.2827 244.69 88.0875 244.491 87.9184C244.287 87.7492 244.071 87.606 243.837 87.4889C243.608 87.3675 243.362 87.2764 243.106 87.2113C242.847 87.1462 242.587 87.1159 242.319 87.1159C241.995 87.1159 241.692 87.1592 241.398 87.2417C241.108 87.3197 240.84 87.4369 240.589 87.5887C240.343 87.7362 240.113 87.9184 239.914 88.1309C239.711 88.3435 239.538 88.5734 239.4 88.8293C239.257 89.0809 239.149 89.3542 239.071 89.6448C238.993 89.9311 238.958 90.2347 238.958 90.5427C238.958 91.0286 239.049 91.4754 239.235 91.8961C239.421 92.3126 239.672 92.6769 239.992 92.9892C240.308 93.3016 240.676 93.5445 241.1 93.7223C241.519 93.9002 241.965 93.9913 242.436 93.9913C242.873 93.9913 243.271 93.9132 243.634 93.7614C243.998 93.6095 244.335 93.4013 244.642 93.1367C244.772 93.0413 244.837 92.9415 244.837 92.8418C244.837 92.8071 244.828 92.7637 244.811 92.7246C244.793 92.6899 244.759 92.6422 244.72 92.5902C244.677 92.5381 244.625 92.473 244.555 92.395C244.491 92.3212 244.408 92.2258 244.318 92.1087C244.279 92.061 244.24 92.0263 244.201 92.0046C244.158 91.9829 244.123 91.9742 244.093 91.9742C244.049 91.9742 244.01 91.9829 243.972 92.0046C243.933 92.0263 243.894 92.061 243.85 92.1C243.85 92.1 243.849 92.1014 243.846 92.1043C243.768 92.1781 243.673 92.2475 243.569 92.3125C243.461 92.382 243.344 92.4427 243.219 92.4947C243.094 92.5468 242.959 92.5902 242.817 92.6205C242.67 92.6552 242.518 92.6683 242.363 92.6683C242.159 92.6683 241.952 92.6379 241.744 92.5685C241.541 92.4991 241.35 92.3993 241.177 92.2648C241.004 92.1304 240.853 91.9655 240.728 91.7747C240.598 91.5795 240.511 91.3582 240.468 91.1066H245.1C245.226 91.1066 245.321 91.098 245.39 91.0763C245.464 91.0589 245.516 91.0286 245.55 90.9895C245.585 90.9461 245.607 90.8898 245.615 90.8203C245.624 90.7553 245.628 90.6685 245.628 90.5688C245.628 90.1567 245.581 89.7793 245.481 89.4409ZM240.498 89.8487C240.555 89.6491 240.641 89.4626 240.762 89.2848C240.883 89.1156 241.022 88.9638 241.186 88.8336C241.346 88.7035 241.523 88.6037 241.718 88.5257C241.917 88.4519 242.116 88.4172 242.319 88.4172C242.557 88.4172 242.778 88.4519 242.985 88.5213C243.189 88.5907 243.375 88.6862 243.535 88.8163C243.695 88.9421 243.829 89.0939 243.946 89.2674C244.058 89.4453 244.14 89.6361 244.196 89.8487H240.498ZM238.111 87.2894C238.063 87.2417 237.994 87.22 237.903 87.22H237.15V85.9013C237.15 85.8015 237.133 85.7234 237.099 85.6627C237.068 85.6063 236.995 85.576 236.891 85.576C236.835 85.576 236.766 85.5846 236.679 85.6063C236.597 85.6237 236.51 85.6454 236.424 85.6757C236.333 85.7017 236.251 85.7321 236.164 85.7625C236.082 85.7928 236.009 85.8145 235.952 85.8362C235.862 85.8709 235.797 85.9056 235.749 85.9447C235.706 85.988 235.689 86.0401 235.689 86.1138C235.689 86.296 235.684 86.4826 235.68 86.6691C235.68 86.8513 235.676 87.0335 235.676 87.22H235.07C234.97 87.22 234.893 87.2417 234.845 87.285C234.793 87.3241 234.767 87.3978 234.767 87.4976V88.248C234.767 88.3521 234.793 88.4259 234.845 88.4736C234.893 88.517 234.97 88.5387 235.07 88.5387H235.671V91.2151L235.676 92.0826C235.676 92.3646 235.727 92.6162 235.831 92.8374C235.935 93.0587 236.082 93.2452 236.259 93.397C236.437 93.5488 236.649 93.6659 236.891 93.7484C237.133 93.8308 237.393 93.8698 237.665 93.8742C237.756 93.8742 237.83 93.8481 237.877 93.7961C237.929 93.7484 237.955 93.6746 237.955 93.5835V92.8548C237.955 92.781 237.933 92.716 237.89 92.6639C237.851 92.6119 237.795 92.5858 237.721 92.5858C237.518 92.5858 237.375 92.5338 237.285 92.434C237.194 92.3342 237.15 92.1651 237.15 91.9352V88.5387H237.903C237.994 88.5387 238.063 88.517 238.111 88.4693C238.158 88.4172 238.184 88.3391 238.184 88.2263V87.5106C238.184 87.4108 238.158 87.3371 238.111 87.2894Z" fill="#022162"/>
</g>
<defs>
<clipPath id="clip0_4054_19">
<rect width="282" height="94" fill="white"/>
</clipPath>
</defs>
</svg>
