<svg width="334" height="443" viewBox="0 0 334 443" fill="none" xmlns="http://www.w3.org/2000/svg">
<path opacity="0.08" d="M443.535 136.357C438.365 62.6273 382.969 5.18579 309.125 1.98585C256.354 -0.296072 200.433 -1.00425 137.138 1.98585C63.2946 5.4743 7.00641 62.5748 2.72904 136.357C-0.65612 194.559 -1.15471 252.001 2.72904 308.235C7.79366 381.965 63.2421 439.957 137.138 442.607C142.99 442.816 162.671 442.948 186.814 443V322.425C186.814 315.658 188.099 309.967 190.619 305.429C193.138 300.891 196.864 298.688 201.824 298.688H243.889C245.752 298.688 247.694 299.186 249.636 300.367C251.578 301.521 253.336 303.226 254.858 305.429C256.38 307.632 257.64 310.229 258.663 313.088C259.66 315.921 260.159 319.042 260.159 322.425V443C283.96 442.921 303.326 442.79 309.125 442.607C382.995 440.141 436.633 381.808 443.535 308.235C448.337 257.115 447.97 199.333 443.535 136.357ZM263.57 242.191C262.599 252.473 255.803 261.364 244.965 261.731C230.611 262.204 216.23 262.256 201.876 261.731C191.222 261.364 183.953 252.945 183.245 242.611C182.274 228.604 182.457 214.519 183.271 200.487C183.875 190.021 191.485 182.022 202.06 181.523C216.335 180.868 230.532 180.92 244.781 181.523C255.461 181.995 262.809 190.257 263.544 200.697C264.489 214.388 264.856 228.499 263.57 242.191ZM315.371 222.047C315.214 196.474 315.082 190.625 313.455 165.288C312.038 143.491 302.119 133.446 281.887 132.659C255.252 131.636 250.134 131.688 223.499 131.662V64.4633C251.079 64.4895 278.685 65.1452 306.318 66.3256C347.858 68.1354 376.409 100.318 379.243 140.868C381.132 167.648 382.418 194.848 382.602 222.047H315.371Z" fill="white"/>
</svg>
