<svg width="318" height="443" viewBox="0 0 318 443" fill="none" xmlns="http://www.w3.org/2000/svg">
<path opacity="0.08" d="M314.535 136.357C309.365 62.6273 253.969 5.18579 180.125 1.98585C127.354 -0.296072 71.4329 -1.00425 8.13829 1.98585C-65.7054 5.4743 -121.994 62.5748 -126.271 136.357C-129.656 194.559 -130.155 252.001 -126.271 308.235C-121.206 381.965 -65.7579 439.957 8.13829 442.607C13.9902 442.816 33.6713 442.948 57.8136 443V322.425C57.8136 315.658 59.0994 309.967 61.6186 305.429C64.1378 300.891 67.8641 298.688 72.8237 298.688H114.889C116.752 298.688 118.694 299.186 120.636 300.367C122.578 301.521 124.336 303.226 125.858 305.429C127.38 307.632 128.64 310.229 129.663 313.088C130.66 315.921 131.159 319.042 131.159 322.425V443C154.96 442.921 174.326 442.79 180.125 442.607C253.995 440.141 307.633 381.808 314.535 308.235C319.337 257.115 318.97 199.333 314.535 136.357ZM134.57 242.191C133.599 252.473 126.803 261.364 115.965 261.731C101.611 262.204 87.2304 262.256 72.8762 261.731C62.2222 261.364 54.9532 252.945 54.2447 242.611C53.2738 228.604 53.4575 214.519 54.271 200.487C54.8745 190.021 62.4846 182.022 73.0599 181.523C87.3353 180.868 101.532 180.92 115.781 181.523C126.461 181.995 133.809 190.257 134.544 200.697C135.489 214.388 135.856 228.499 134.57 242.191ZM186.371 222.047C186.214 196.474 186.082 190.625 184.455 165.288C183.038 143.491 173.119 133.446 152.887 132.659C126.252 131.636 121.134 131.688 94.4993 131.662V64.4633C122.079 64.4895 149.685 65.1452 177.318 66.3256C218.858 68.1354 247.409 100.318 250.243 140.868C252.132 167.648 253.418 194.848 253.602 222.047H186.371Z" fill="white"/>
</svg>
