<svg width="550" height="201" viewBox="0 0 550 201" fill="none" xmlns="http://www.w3.org/2000/svg">
<rect x="7.62939e-06" y="11.3127" width="307.439" height="117.12" rx="21.9599" fill="#74A9D7"/>
<rect x="240.894" width="308.77" height="139.745" rx="21.9599" fill="#0B64B9"/>
<circle cx="246.217" cy="72.5343" r="33.2726" fill="#84F4F8"/>
<path d="M33.2088 51.0564V35.7569H59.8627V106H42.735V51.0564H33.2088ZM120.577 50.0942H90.5558V63.373C91.8387 61.9617 93.6349 60.8071 95.9443 59.909C98.2536 59.0109 100.755 58.5618 103.45 58.5618C108.261 58.5618 112.238 59.6524 115.381 61.8334C118.589 64.0145 120.93 66.8371 122.406 70.3011C123.881 73.7651 124.619 77.5179 124.619 81.5592C124.619 89.0647 122.502 95.0305 118.268 99.4568C114.034 103.819 108.068 106 100.371 106C95.2386 106 90.7803 105.134 86.9955 103.402C83.2107 101.606 80.2919 99.1361 78.2392 95.9928C76.1864 92.8495 75.0638 89.225 74.8713 85.1195H90.9407C91.3256 87.1081 92.2557 88.776 93.7311 90.1231C95.2066 91.4061 97.2273 92.0476 99.7932 92.0476C102.808 92.0476 105.053 91.0854 106.529 89.1609C108.004 87.2364 108.742 84.6705 108.742 81.463C108.742 78.3197 107.972 75.9141 106.433 74.2463C104.893 72.5784 102.648 71.7445 99.697 71.7445C97.5159 71.7445 95.7198 72.2897 94.3085 73.3803C92.8972 74.4066 91.967 75.7858 91.518 77.5179H75.6411V35.6607H120.577V50.0942ZM133.701 69.9162C133.701 58.8826 135.818 50.1904 140.052 43.8397C144.35 37.4889 151.246 34.3135 160.74 34.3135C170.234 34.3135 177.098 37.4889 181.332 43.8397C185.63 50.1904 187.779 58.8826 187.779 69.9162C187.779 81.0781 185.63 89.8345 181.332 96.1852C177.098 102.536 170.234 105.711 160.74 105.711C151.246 105.711 144.35 102.536 140.052 96.1852C135.818 89.8345 133.701 81.0781 133.701 69.9162ZM171.613 69.9162C171.613 63.4372 170.908 58.4656 169.497 55.0016C168.085 51.4734 165.167 49.7093 160.74 49.7093C156.314 49.7093 153.395 51.4734 151.984 55.0016C150.573 58.4656 149.867 63.4372 149.867 69.9162C149.867 74.2783 150.124 77.9028 150.637 80.7895C151.15 83.612 152.176 85.9214 153.716 87.7175C155.32 89.4496 157.661 90.3156 160.74 90.3156C163.819 90.3156 166.129 89.4496 167.668 87.7175C169.272 85.9214 170.331 83.612 170.844 80.7895C171.357 77.9028 171.613 74.2783 171.613 69.9162Z" fill="#022162"/>
<path d="M9.89129 147.259V143.873H15.7899V159.418H11.9994V147.259H9.89129ZM18.2808 151.432C18.2808 148.991 18.7493 147.067 19.6862 145.661C20.6374 144.256 22.1635 143.553 24.2646 143.553C26.3656 143.553 27.8846 144.256 28.8216 145.661C29.7727 147.067 30.2483 148.991 30.2483 151.432C30.2483 153.902 29.7727 155.84 28.8216 157.246C27.8846 158.651 26.3656 159.354 24.2646 159.354C22.1635 159.354 20.6374 158.651 19.6862 157.246C18.7493 155.84 18.2808 153.902 18.2808 151.432ZM26.6708 151.432C26.6708 149.998 26.5147 148.898 26.2024 148.132C25.89 147.351 25.2441 146.96 24.2646 146.96C23.285 146.96 22.6391 147.351 22.3268 148.132C22.0144 148.898 21.8583 149.998 21.8583 151.432C21.8583 152.398 21.9151 153.2 22.0286 153.839C22.1422 154.463 22.3694 154.974 22.7101 155.372C23.065 155.755 23.5831 155.947 24.2646 155.947C24.946 155.947 25.4571 155.755 25.7978 155.372C26.1527 154.974 26.3869 154.463 26.5005 153.839C26.6141 153.2 26.6708 152.398 26.6708 151.432ZM32.1721 151.432C32.1721 148.991 32.6406 147.067 33.5776 145.661C34.5287 144.256 36.0548 143.553 38.1559 143.553C40.2569 143.553 41.7759 144.256 42.7129 145.661C43.664 147.067 44.1396 148.991 44.1396 151.432C44.1396 153.902 43.664 155.84 42.7129 157.246C41.7759 158.651 40.2569 159.354 38.1559 159.354C36.0548 159.354 34.5287 158.651 33.5776 157.246C32.6406 155.84 32.1721 153.902 32.1721 151.432ZM40.5622 151.432C40.5622 149.998 40.406 148.898 40.0937 148.132C39.7814 147.351 39.1354 146.96 38.1559 146.96C37.1763 146.96 36.5304 147.351 36.2181 148.132C35.9058 148.898 35.7496 149.998 35.7496 151.432C35.7496 152.398 35.8064 153.2 35.92 153.839C36.0335 154.463 36.2607 154.974 36.6014 155.372C36.9563 155.755 37.4745 155.947 38.1559 155.947C38.8373 155.947 39.3484 155.755 39.6891 155.372C40.044 154.974 40.2782 154.463 40.3918 153.839C40.5054 153.2 40.5622 152.398 40.5622 151.432ZM45.7653 147.791C45.7653 146.641 46.0918 145.754 46.7449 145.129C47.4121 144.504 48.271 144.192 49.3215 144.192C50.372 144.192 51.2238 144.504 51.8768 145.129C52.5299 145.754 52.8564 146.641 52.8564 147.791C52.8564 148.941 52.5299 149.828 51.8768 150.453C51.2238 151.077 50.372 151.39 49.3215 151.39C48.271 151.39 47.4121 151.077 46.7449 150.453C46.0918 149.828 45.7653 148.941 45.7653 147.791ZM60.2243 144.426L52.0259 159.418H48.5123L56.7107 144.426H60.2243ZM49.3002 146.322C48.6188 146.322 48.2781 146.811 48.2781 147.791C48.2781 148.756 48.6188 149.239 49.3002 149.239C49.6267 149.239 49.8823 149.118 50.0668 148.877C50.2514 148.636 50.3436 148.274 50.3436 147.791C50.3436 146.811 49.9958 146.322 49.3002 146.322ZM55.9015 156.053C55.9015 154.903 56.228 154.016 56.881 153.391C57.5341 152.767 58.3859 152.454 59.4364 152.454C60.4869 152.454 61.3387 152.767 61.9917 153.391C62.6447 154.016 62.9713 154.903 62.9713 156.053C62.9713 157.203 62.6447 158.09 61.9917 158.715C61.3387 159.34 60.4869 159.652 59.4364 159.652C58.3859 159.652 57.5341 159.34 56.881 158.715C56.228 158.09 55.9015 157.203 55.9015 156.053ZM59.4151 154.584C59.0886 154.584 58.833 154.705 58.6485 154.946C58.4781 155.187 58.393 155.556 58.393 156.053C58.393 157.019 58.7337 157.501 59.4151 157.501C59.7416 157.501 59.9971 157.381 60.1817 157.139C60.3662 156.898 60.4585 156.536 60.4585 156.053C60.4585 155.571 60.3662 155.209 60.1817 154.967C59.9971 154.712 59.7416 154.584 59.4151 154.584ZM75.4292 150.559H73.4701V159.418H69.8287V150.559H68.5085V147.535H69.8287V147.195C69.8287 145.732 70.2475 144.625 71.0851 143.873C71.9227 143.106 73.1507 142.723 74.7691 142.723C75.0388 142.723 75.2375 142.73 75.3653 142.744V145.832C74.6697 145.789 74.1799 145.889 73.896 146.13C73.6121 146.371 73.4701 146.804 73.4701 147.429V147.535H75.4292V150.559ZM78.9716 146.3C78.3327 146.3 77.8075 146.116 77.3958 145.747C76.9983 145.363 76.7995 144.895 76.7995 144.341C76.7995 143.773 76.9983 143.305 77.3958 142.936C77.8075 142.552 78.3327 142.361 78.9716 142.361C79.5962 142.361 80.1073 142.552 80.5048 142.936C80.9165 143.305 81.1223 143.773 81.1223 144.341C81.1223 144.895 80.9165 145.363 80.5048 145.747C80.1073 146.116 79.5962 146.3 78.9716 146.3ZM80.7816 147.535V159.418H77.1402V147.535H80.7816ZM87.0618 149.218C87.4025 148.664 87.8923 148.217 88.5311 147.876C89.17 147.535 89.9011 147.365 90.7245 147.365C91.704 147.365 92.5913 147.613 93.3863 148.11C94.1813 148.607 94.8059 149.317 95.2602 150.24C95.7287 151.163 95.9629 152.234 95.9629 153.455C95.9629 154.676 95.7287 155.755 95.2602 156.692C94.8059 157.615 94.1813 158.332 93.3863 158.843C92.5913 159.34 91.704 159.588 90.7245 159.588C89.8869 159.588 89.1558 159.425 88.5311 159.098C87.9065 158.758 87.4167 158.31 87.0618 157.757V159.418H83.4204V143.66H87.0618V149.218ZM92.2577 153.455C92.2577 152.547 92.0021 151.837 91.4911 151.326C90.9942 150.801 90.3766 150.538 89.6384 150.538C88.9144 150.538 88.2969 150.801 87.7858 151.326C87.2889 151.851 87.0405 152.568 87.0405 153.477C87.0405 154.385 87.2889 155.102 87.7858 155.627C88.2969 156.153 88.9144 156.415 89.6384 156.415C90.3624 156.415 90.98 156.153 91.4911 155.627C92.0021 155.088 92.2577 154.364 92.2577 153.455ZM101.515 149.516C101.94 148.863 102.473 148.352 103.112 147.983C103.751 147.599 104.46 147.408 105.241 147.408V151.262H104.24C103.332 151.262 102.65 151.461 102.196 151.858C101.742 152.241 101.515 152.923 101.515 153.902V159.418H97.8732V147.535H101.515V149.516ZM106.258 153.455C106.258 152.234 106.485 151.163 106.939 150.24C107.408 149.317 108.039 148.607 108.834 148.11C109.629 147.613 110.517 147.365 111.496 147.365C112.334 147.365 113.065 147.535 113.689 147.876C114.328 148.217 114.818 148.664 115.159 149.218V147.535H118.8V159.418H115.159V157.735C114.804 158.289 114.307 158.736 113.668 159.077C113.043 159.418 112.312 159.588 111.475 159.588C110.509 159.588 109.629 159.34 108.834 158.843C108.039 158.332 107.408 157.615 106.939 156.692C106.485 155.755 106.258 154.676 106.258 153.455ZM115.159 153.477C115.159 152.568 114.903 151.851 114.392 151.326C113.895 150.801 113.285 150.538 112.561 150.538C111.837 150.538 111.219 150.801 110.708 151.326C110.211 151.837 109.963 152.547 109.963 153.455C109.963 154.364 110.211 155.088 110.708 155.627C111.219 156.153 111.837 156.415 112.561 156.415C113.285 156.415 113.895 156.153 114.392 155.627C114.903 155.102 115.159 154.385 115.159 153.477ZM131.356 159.588C130.192 159.588 129.141 159.34 128.204 158.843C127.281 158.346 126.55 157.636 126.011 156.713C125.486 155.791 125.223 154.712 125.223 153.477C125.223 152.256 125.493 151.184 126.032 150.261C126.572 149.324 127.31 148.607 128.247 148.11C129.184 147.613 130.234 147.365 131.398 147.365C132.562 147.365 133.613 147.613 134.55 148.11C135.487 148.607 136.225 149.324 136.765 150.261C137.304 151.184 137.574 152.256 137.574 153.477C137.574 154.697 137.297 155.776 136.743 156.713C136.204 157.636 135.459 158.346 134.507 158.843C133.57 159.34 132.52 159.588 131.356 159.588ZM131.356 156.436C132.051 156.436 132.641 156.181 133.123 155.67C133.62 155.159 133.869 154.428 133.869 153.477C133.869 152.525 133.627 151.794 133.145 151.283C132.676 150.772 132.094 150.517 131.398 150.517C130.689 150.517 130.099 150.772 129.631 151.283C129.162 151.78 128.928 152.511 128.928 153.477C128.928 154.428 129.155 155.159 129.61 155.67C130.078 156.181 130.66 156.436 131.356 156.436ZM134.167 144.49L129.035 146.641V144.128L134.167 141.658V144.49ZM143.147 149.218C143.502 148.664 143.992 148.217 144.616 147.876C145.241 147.535 145.972 147.365 146.81 147.365C147.789 147.365 148.676 147.613 149.471 148.11C150.266 148.607 150.891 149.317 151.345 150.24C151.814 151.163 152.048 152.234 152.048 153.455C152.048 154.676 151.814 155.755 151.345 156.692C150.891 157.615 150.266 158.332 149.471 158.843C148.676 159.34 147.789 159.588 146.81 159.588C145.986 159.588 145.255 159.418 144.616 159.077C143.992 158.736 143.502 158.296 143.147 157.757V165.082H139.506V147.535H143.147V149.218ZM148.343 153.455C148.343 152.547 148.087 151.837 147.576 151.326C147.079 150.801 146.462 150.538 145.724 150.538C145 150.538 144.382 150.801 143.871 151.326C143.374 151.851 143.126 152.568 143.126 153.477C143.126 154.385 143.374 155.102 143.871 155.627C144.382 156.153 145 156.415 145.724 156.415C146.448 156.415 147.065 156.153 147.576 155.627C148.087 155.088 148.343 154.364 148.343 153.455ZM160.581 156.33V159.418H158.728C157.408 159.418 156.379 159.098 155.641 158.459C154.902 157.806 154.533 156.749 154.533 155.287V150.559H153.085V147.535H154.533V144.639H158.175V147.535H160.56V150.559H158.175V155.329C158.175 155.684 158.26 155.94 158.43 156.096C158.601 156.252 158.885 156.33 159.282 156.33H160.581ZM164.441 146.3C163.802 146.3 163.277 146.116 162.865 145.747C162.467 145.363 162.269 144.895 162.269 144.341C162.269 143.773 162.467 143.305 162.865 142.936C163.277 142.552 163.802 142.361 164.441 142.361C165.065 142.361 165.576 142.552 165.974 142.936C166.386 143.305 166.591 143.773 166.591 144.341C166.591 144.895 166.386 145.363 165.974 145.747C165.576 146.116 165.065 146.3 164.441 146.3ZM166.251 147.535V159.418H162.609V147.535H166.251ZM168.165 153.477C168.165 152.241 168.414 151.163 168.911 150.24C169.422 149.317 170.125 148.607 171.019 148.11C171.927 147.613 172.964 147.365 174.128 147.365C175.619 147.365 176.861 147.755 177.854 148.536C178.862 149.317 179.523 150.417 179.835 151.837H175.959C175.633 150.928 175.001 150.474 174.064 150.474C173.397 150.474 172.864 150.737 172.467 151.262C172.069 151.773 171.871 152.511 171.871 153.477C171.871 154.442 172.069 155.187 172.467 155.712C172.864 156.224 173.397 156.479 174.064 156.479C175.001 156.479 175.633 156.025 175.959 155.116H179.835C179.523 156.507 178.862 157.601 177.854 158.396C176.847 159.191 175.604 159.588 174.128 159.588C172.964 159.588 171.927 159.34 171.019 158.843C170.125 158.346 169.422 157.636 168.911 156.713C168.414 155.791 168.165 154.712 168.165 153.477ZM181.059 153.455C181.059 152.234 181.286 151.163 181.74 150.24C182.209 149.317 182.84 148.607 183.635 148.11C184.43 147.613 185.318 147.365 186.297 147.365C187.135 147.365 187.866 147.535 188.49 147.876C189.129 148.217 189.619 148.664 189.96 149.218V147.535H193.601V159.418H189.96V157.735C189.605 158.289 189.108 158.736 188.469 159.077C187.844 159.418 187.113 159.588 186.276 159.588C185.31 159.588 184.43 159.34 183.635 158.843C182.84 158.332 182.209 157.615 181.74 156.692C181.286 155.755 181.059 154.676 181.059 153.455ZM189.96 153.477C189.96 152.568 189.704 151.851 189.193 151.326C188.696 150.801 188.086 150.538 187.362 150.538C186.638 150.538 186.02 150.801 185.509 151.326C185.012 151.837 184.764 152.547 184.764 153.455C184.764 154.364 185.012 155.088 185.509 155.627C186.02 156.153 186.638 156.415 187.362 156.415C188.086 156.415 188.696 156.153 189.193 155.627C189.704 155.102 189.96 154.385 189.96 153.477ZM31.2071 176.469L27.3102 191.418H22.9022L20.5172 181.58L18.0471 191.418H13.6391L9.8487 176.469H13.7456L15.8963 187.35L18.5581 176.469H22.5615L25.1168 187.35L27.2889 176.469H31.2071ZM34.8646 178.3C34.2257 178.3 33.7005 178.116 33.2888 177.747C32.8913 177.363 32.6925 176.895 32.6925 176.341C32.6925 175.773 32.8913 175.305 33.2888 174.936C33.7005 174.552 34.2257 174.361 34.8646 174.361C35.4892 174.361 36.0003 174.552 36.3978 174.936C36.8094 175.305 37.0153 175.773 37.0153 176.341C37.0153 176.895 36.8094 177.363 36.3978 177.747C36.0003 178.116 35.4892 178.3 34.8646 178.3ZM36.6746 179.535V191.418H33.0332V179.535H36.6746ZM48.4701 182.431V185.455H39.1005V182.431H48.4701ZM61.3975 176.469V179.386H55.3072V182.538H59.8643V185.37H55.3072V191.418H51.6659V176.469H61.3975ZM65.1426 178.3C64.5038 178.3 63.9785 178.116 63.5668 177.747C63.1693 177.363 62.9706 176.895 62.9706 176.341C62.9706 175.773 63.1693 175.305 63.5668 174.936C63.9785 174.552 64.5038 174.361 65.1426 174.361C65.7673 174.361 66.2783 174.552 66.6758 174.936C67.0875 175.305 67.2934 175.773 67.2934 176.341C67.2934 176.895 67.0875 177.363 66.6758 177.747C66.2783 178.116 65.7673 178.3 65.1426 178.3ZM66.9527 179.535V191.418H63.3113V179.535H66.9527ZM81.4294 180.068C81.3158 179.543 81.1171 179.152 80.8332 178.897C80.5492 178.627 80.1446 178.492 79.6194 178.492C78.8102 178.492 78.2281 178.847 77.8732 179.557C77.5183 180.252 77.3338 181.36 77.3196 182.879C77.6319 182.382 78.0791 181.991 78.6611 181.707C79.2574 181.424 79.9104 181.282 80.6202 181.282C82.0115 181.282 83.1259 181.722 83.9635 182.602C84.8152 183.482 85.2411 184.71 85.2411 186.286C85.2411 187.322 85.0282 188.231 84.6023 189.011C84.1906 189.792 83.5802 190.403 82.771 190.843C81.976 191.283 81.0319 191.503 79.9388 191.503C77.7526 191.503 76.2336 190.821 75.3818 189.459C74.53 188.082 74.1041 186.108 74.1041 183.539C74.1041 180.841 74.5513 178.84 75.4457 177.534C76.3542 176.213 77.8023 175.553 79.7897 175.553C80.8545 175.553 81.7488 175.766 82.4728 176.192C83.2111 176.604 83.7647 177.15 84.1338 177.832C84.5171 178.513 84.7443 179.259 84.8152 180.068H81.4294ZM79.7472 184.156C79.1367 184.156 78.6256 184.341 78.214 184.71C77.8165 185.065 77.6177 185.576 77.6177 186.243C77.6177 186.925 77.8023 187.457 78.1714 187.84C78.5547 188.224 79.0941 188.415 79.7897 188.415C80.4144 188.415 80.9042 188.231 81.2591 187.862C81.6282 187.478 81.8127 186.96 81.8127 186.307C81.8127 185.64 81.6353 185.115 81.2804 184.731C80.9254 184.348 80.4144 184.156 79.7472 184.156Z" fill="#022162"/>
<path d="M247.468 61.7717V82.4198H242.439V70.0368L237.821 82.4198H233.762L229.114 70.0074V82.4198H224.085V61.7717H230.026L235.821 76.0665L241.556 61.7717H247.468ZM263.586 71.831C264.782 72.0859 265.743 72.684 266.468 73.6252C267.194 74.5468 267.557 75.6057 267.557 76.8019C267.557 78.5274 266.949 79.9001 265.733 80.9197C264.537 81.9198 262.86 82.4198 260.703 82.4198H251.085V61.7717H260.38C262.478 61.7717 264.115 62.2521 265.292 63.2129C266.488 64.1738 267.086 65.4778 267.086 67.1249C267.086 68.3406 266.762 69.3505 266.115 70.1545C265.488 70.9584 264.645 71.5173 263.586 71.831ZM256.115 70.125H259.409C260.233 70.125 260.86 69.9486 261.292 69.5956C261.743 69.223 261.968 68.6838 261.968 67.9779C261.968 67.272 261.743 66.7327 261.292 66.3601C260.86 65.9876 260.233 65.8013 259.409 65.8013H256.115V70.125ZM259.821 78.3608C260.664 78.3608 261.311 78.1745 261.762 77.8019C262.233 77.4097 262.468 76.8509 262.468 76.1254C262.468 75.3998 262.223 74.8312 261.733 74.4194C261.262 74.0076 260.605 73.8017 259.762 73.8017H256.115V78.3608H259.821Z" fill="#022162"/>
<path d="M300.74 101.915L295.204 91.8663H293.649V101.915H287.165V75.2952H298.048C300.146 75.2952 301.928 75.6618 303.394 76.3949C304.886 77.128 305.998 78.1393 306.731 79.4285C307.465 80.6925 307.831 82.1082 307.831 83.6756C307.831 85.4452 307.326 87.0252 306.314 88.4156C305.328 89.806 303.862 90.7919 301.916 91.3734L308.059 101.915H300.74ZM293.649 87.278H297.669C298.857 87.278 299.741 86.9873 300.323 86.4058C300.93 85.8244 301.233 85.0028 301.233 83.941C301.233 82.9298 300.93 82.1335 300.323 81.5521C299.741 80.9706 298.857 80.6799 297.669 80.6799H293.649V87.278ZM332.037 94.1795C332.037 95.5699 331.671 96.8591 330.937 98.0473C330.23 99.2102 329.168 100.171 327.752 100.929C326.362 101.662 324.706 102.067 322.785 102.143V105.214H320.358V102.105C317.678 101.877 315.517 101.081 313.873 99.7158C312.23 98.3254 311.358 96.442 311.257 94.0657H318.158C318.31 95.5825 319.043 96.5558 320.358 96.9855V90.9942C318.386 90.4886 316.806 89.9956 315.618 89.5153C314.455 89.035 313.431 88.2639 312.546 87.2022C311.661 86.1404 311.219 84.6868 311.219 82.8413C311.219 80.5409 312.066 78.6954 313.76 77.305C315.479 75.9146 317.678 75.1309 320.358 74.954V71.8824H322.785V74.954C325.439 75.1562 327.537 75.9272 329.079 77.2671C330.621 78.6069 331.481 80.465 331.658 82.8413H324.719C324.567 81.4762 323.922 80.5914 322.785 80.1869V86.0646C324.883 86.646 326.501 87.1642 327.638 87.6193C328.776 88.0743 329.787 88.8327 330.672 89.8945C331.582 90.931 332.037 92.3593 332.037 94.1795ZM318.083 82.538C318.083 83.17 318.272 83.7009 318.651 84.1306C319.056 84.5604 319.625 84.9396 320.358 85.2682V79.9973C319.65 80.1237 319.094 80.4018 318.689 80.8316C318.285 81.2361 318.083 81.8049 318.083 82.538ZM322.785 97.0993C323.543 96.9729 324.137 96.6695 324.567 96.1892C325.022 95.7089 325.249 95.1148 325.249 94.407C325.249 93.7497 325.035 93.2188 324.605 92.8143C324.2 92.3846 323.594 92.018 322.785 91.7147V97.0993ZM369.294 56.2504C368.837 54.1371 368.037 52.5664 366.895 51.5383C365.752 50.4531 364.125 49.9105 362.011 49.9105C358.756 49.9105 356.414 51.3384 354.986 54.1942C353.558 56.993 352.816 61.4481 352.758 67.5595C354.015 65.5605 355.814 63.9897 358.156 62.8474C360.555 61.7051 363.182 61.1339 366.038 61.1339C371.635 61.1339 376.119 62.9045 379.489 66.4458C382.916 69.987 384.629 74.9276 384.629 81.2675C384.629 85.437 383.773 89.0925 382.059 92.2339C380.403 95.3753 377.947 97.8313 374.691 99.6019C371.493 101.373 367.694 102.258 363.296 102.258C354.5 102.258 348.389 99.5163 344.962 94.0331C341.535 88.4928 339.822 80.5536 339.822 70.2155C339.822 59.3633 341.621 51.3099 345.219 46.0551C348.875 40.7433 354.7 38.0874 362.697 38.0874C366.98 38.0874 370.579 38.9441 373.492 40.6576C376.462 42.314 378.689 44.513 380.174 47.2546C381.717 49.9962 382.63 52.9948 382.916 56.2504H369.294ZM362.525 72.7C360.069 72.7 358.013 73.4425 356.357 74.9276C354.758 76.3555 353.958 78.4117 353.958 81.0962C353.958 83.8378 354.7 85.9796 356.185 87.5218C357.728 89.0639 359.898 89.835 362.697 89.835C365.21 89.835 367.18 89.0925 368.608 87.6075C370.093 86.0653 370.836 83.9806 370.836 81.3532C370.836 78.6687 370.122 76.5554 368.694 75.0132C367.266 73.4711 365.21 72.7 362.525 72.7ZM393.259 90.7774V78.9543L420.332 40.2292H436.696V78.0975H443.721V90.7774H436.696V101.915H422.045V90.7774H393.259ZM423.073 56.3361L408.68 78.0975H423.073V56.3361ZM456.37 95.9238L452.161 106.807H448.028L450.227 95.9238H456.37ZM466.613 93.8003C466.992 95.7974 468.155 96.7959 470.101 96.7959C471.441 96.7959 472.389 96.2019 472.945 95.0137C473.501 93.8255 473.779 91.8916 473.779 89.2119C473.223 89.9956 472.465 90.6023 471.504 91.0321C470.544 91.4619 469.469 91.6767 468.281 91.6767C466.663 91.6767 465.222 91.3481 463.958 90.6908C462.694 90.0082 461.696 89.0097 460.962 87.6951C460.255 86.3553 459.901 84.7374 459.901 82.8413C459.901 80.9706 460.28 79.3401 461.038 77.9497C461.822 76.5592 462.922 75.4848 464.337 74.7264C465.778 73.968 467.472 73.5888 469.419 73.5888C473.16 73.5888 475.777 74.7517 477.268 77.0775C478.76 79.4033 479.505 82.8287 479.505 87.3538C479.505 90.6402 479.202 93.3579 478.595 95.5067C478.014 97.6302 477.015 99.2481 475.6 100.36C474.209 101.473 472.301 102.029 469.874 102.029C467.952 102.029 466.309 101.65 464.944 100.891C463.604 100.133 462.568 99.1344 461.835 97.8956C461.127 96.6569 460.722 95.2918 460.621 93.8003H466.613ZM469.76 86.5575C470.822 86.5575 471.669 86.2415 472.301 85.6095C472.933 84.9522 473.249 84.0674 473.249 82.9551C473.249 81.7417 472.92 80.8063 472.263 80.149C471.605 79.4917 470.721 79.1631 469.608 79.1631C468.496 79.1631 467.611 79.5044 466.954 80.1869C466.322 80.8442 466.006 81.7543 466.006 82.9172C466.006 84.0042 466.322 84.889 466.954 85.5716C467.611 86.2289 468.546 86.5575 469.76 86.5575ZM482.965 87.6951C482.965 83.3469 483.799 79.9215 485.468 77.4188C487.162 74.916 489.879 73.6647 493.621 73.6647C497.362 73.6647 500.067 74.916 501.735 77.4188C503.429 79.9215 504.276 83.3469 504.276 87.6951C504.276 92.0939 503.429 95.5446 501.735 98.0473C500.067 100.55 497.362 101.801 493.621 101.801C489.879 101.801 487.162 100.55 485.468 98.0473C483.799 95.5446 482.965 92.0939 482.965 87.6951ZM497.906 87.6951C497.906 85.1418 497.627 83.1826 497.071 81.8175C496.515 80.4271 495.365 79.7319 493.621 79.7319C491.876 79.7319 490.726 80.4271 490.17 81.8175C489.614 83.1826 489.336 85.1418 489.336 87.6951C489.336 89.4142 489.437 90.8425 489.639 91.9801C489.841 93.0924 490.246 94.0025 490.852 94.7103C491.484 95.3929 492.407 95.7342 493.621 95.7342C494.834 95.7342 495.744 95.3929 496.351 94.7103C496.983 94.0025 497.4 93.0924 497.602 91.9801C497.804 90.8425 497.906 89.4142 497.906 87.6951Z" fill="white"/>
<path d="M359.205 18.4009C359.205 17.3236 359.405 16.3779 359.806 15.5637C360.22 14.7495 360.777 14.1232 361.478 13.6848C362.18 13.2464 362.963 13.0272 363.827 13.0272C364.566 13.0272 365.211 13.1775 365.762 13.4781C366.326 13.7787 366.758 14.1733 367.059 14.6618V13.1775H370.272V23.6619H367.059V22.1775C366.746 22.666 366.307 23.0606 365.744 23.3612C365.192 23.6619 364.547 23.8122 363.808 23.8122C362.956 23.8122 362.18 23.593 361.478 23.1546C360.777 22.7036 360.22 22.071 359.806 21.2568C359.405 20.4301 359.205 19.4781 359.205 18.4009ZM367.059 18.4197C367.059 17.618 366.833 16.9854 366.382 16.522C365.944 16.0585 365.405 15.8268 364.767 15.8268C364.128 15.8268 363.583 16.0585 363.132 16.522C362.693 16.9729 362.474 17.5992 362.474 18.4009C362.474 19.2026 362.693 19.8414 363.132 20.3174C363.583 20.7808 364.128 21.0126 364.767 21.0126C365.405 21.0126 365.944 20.7808 366.382 20.3174C366.833 19.8539 367.059 19.2213 367.059 18.4197ZM375.809 14.6618C376.122 14.1733 376.554 13.7787 377.106 13.4781C377.657 13.1775 378.302 13.0272 379.041 13.0272C379.905 13.0272 380.688 13.2464 381.39 13.6848C382.091 14.1232 382.642 14.7495 383.043 15.5637C383.456 16.3779 383.663 17.3236 383.663 18.4009C383.663 19.4781 383.456 20.4301 383.043 21.2568C382.642 22.071 382.091 22.7036 381.39 23.1546C380.688 23.593 379.905 23.8122 379.041 23.8122C378.314 23.8122 377.669 23.6619 377.106 23.3612C376.554 23.0606 376.122 22.6723 375.809 22.1963V28.6598H372.596V13.1775H375.809V14.6618ZM380.394 18.4009C380.394 17.5992 380.168 16.9729 379.717 16.522C379.279 16.0585 378.734 15.8268 378.083 15.8268C377.444 15.8268 376.899 16.0585 376.448 16.522C376.01 16.9854 375.79 17.618 375.79 18.4197C375.79 19.2213 376.01 19.8539 376.448 20.3174C376.899 20.7808 377.444 21.0126 378.083 21.0126C378.721 21.0126 379.266 20.7808 379.717 20.3174C380.168 19.8414 380.394 19.2026 380.394 18.4009ZM395.232 18.2506C395.232 18.5512 395.213 18.8643 395.175 19.19H387.904C387.954 19.8414 388.161 20.3424 388.524 20.6932C388.9 21.0314 389.357 21.2005 389.896 21.2005C390.697 21.2005 391.255 20.8623 391.568 20.1859H394.988C394.812 20.8748 394.493 21.4948 394.029 22.046C393.578 22.5971 393.008 23.0293 392.319 23.3424C391.631 23.6556 390.86 23.8122 390.008 23.8122C388.981 23.8122 388.067 23.593 387.265 23.1546C386.463 22.7161 385.837 22.0898 385.386 21.2756C384.935 20.4614 384.71 19.5094 384.71 18.4197C384.71 17.3299 384.929 16.3779 385.367 15.5637C385.818 14.7495 386.445 14.1232 387.246 13.6848C388.048 13.2464 388.969 13.0272 390.008 13.0272C391.023 13.0272 391.925 13.2401 392.714 13.666C393.503 14.0919 394.117 14.6994 394.555 15.4885C395.006 16.2777 395.232 17.1984 395.232 18.2506ZM391.944 17.405C391.944 16.8539 391.756 16.4155 391.38 16.0898C391.004 15.7641 390.534 15.6013 389.971 15.6013C389.432 15.6013 388.975 15.7579 388.599 16.071C388.236 16.3842 388.01 16.8288 387.923 17.405H391.944ZM403.315 13.0647C404.543 13.0647 405.52 13.4656 406.246 14.2672C406.985 15.0564 407.355 16.1462 407.355 17.5366V23.6619H404.161V17.9687C404.161 17.2673 403.979 16.7224 403.616 16.3341C403.253 15.9457 402.764 15.7516 402.15 15.7516C401.536 15.7516 401.048 15.9457 400.685 16.3341C400.321 16.7224 400.14 17.2673 400.14 17.9687V23.6619H396.927V13.1775H400.14V14.5679C400.465 14.1044 400.904 13.7411 401.455 13.4781C402.006 13.2025 402.626 13.0647 403.315 13.0647ZM408.949 18.4009C408.949 17.3236 409.149 16.3779 409.55 15.5637C409.963 14.7495 410.521 14.1232 411.222 13.6848C411.924 13.2464 412.707 13.0272 413.571 13.0272C414.31 13.0272 414.955 13.1775 415.506 13.4781C416.07 13.7787 416.502 14.1733 416.803 14.6618V13.1775H420.016V23.6619H416.803V22.1775C416.489 22.666 416.051 23.0606 415.487 23.3612C414.936 23.6619 414.291 23.8122 413.552 23.8122C412.7 23.8122 411.924 23.593 411.222 23.1546C410.521 22.7036 409.963 22.071 409.55 21.2568C409.149 20.4301 408.949 19.4781 408.949 18.4009ZM416.803 18.4197C416.803 17.618 416.577 16.9854 416.126 16.522C415.688 16.0585 415.149 15.8268 414.51 15.8268C413.871 15.8268 413.327 16.0585 412.876 16.522C412.437 16.9729 412.218 17.5992 412.218 18.4009C412.218 19.2026 412.437 19.8414 412.876 20.3174C413.327 20.7808 413.871 21.0126 414.51 21.0126C415.149 21.0126 415.688 20.7808 416.126 20.3174C416.577 19.8539 416.803 19.2213 416.803 18.4197ZM426.605 23.8122C425.691 23.8122 424.877 23.6556 424.163 23.3424C423.449 23.0293 422.885 22.6034 422.472 22.0648C422.058 21.5136 421.826 20.8998 421.776 20.2234H424.952C424.989 20.5867 425.158 20.8811 425.459 21.1065C425.76 21.332 426.129 21.4447 426.568 21.4447C426.968 21.4447 427.275 21.3696 427.488 21.2193C427.714 21.0564 427.826 20.8497 427.826 20.5992C427.826 20.2986 427.67 20.0794 427.357 19.9416C427.044 19.7913 426.536 19.6284 425.835 19.4531C425.083 19.2777 424.457 19.0961 423.956 18.9082C423.455 18.7078 423.023 18.4009 422.659 17.9875C422.296 17.5616 422.115 16.9917 422.115 16.2777C422.115 15.6764 422.277 15.1315 422.603 14.643C422.941 14.142 423.43 13.7474 424.069 13.4593C424.72 13.1712 425.49 13.0272 426.38 13.0272C427.695 13.0272 428.728 13.3528 429.48 14.0042C430.244 14.6556 430.682 15.5199 430.795 16.5971H427.826C427.776 16.2339 427.613 15.9457 427.338 15.7328C427.075 15.5199 426.724 15.4134 426.286 15.4134C425.91 15.4134 425.622 15.4885 425.421 15.6389C425.221 15.7766 425.121 15.9708 425.121 16.2213C425.121 16.522 425.277 16.7474 425.591 16.8977C425.916 17.0481 426.417 17.1984 427.094 17.3487C427.87 17.5491 428.503 17.7495 428.991 17.9499C429.48 18.1378 429.906 18.451 430.269 18.8894C430.645 19.3153 430.839 19.8915 430.852 20.618C430.852 21.2318 430.676 21.7829 430.325 22.2715C429.987 22.7475 429.492 23.1232 428.841 23.3988C428.202 23.6744 427.457 23.8122 426.605 23.8122Z" fill="white"/>
<path d="M368.38 117.807C368.693 117.318 369.126 116.924 369.677 116.623C370.228 116.323 370.873 116.172 371.612 116.172C372.476 116.172 373.259 116.392 373.961 116.83C374.662 117.268 375.213 117.895 375.614 118.709C376.028 119.523 376.234 120.469 376.234 121.546C376.234 122.623 376.028 123.575 375.614 124.402C375.213 125.216 374.662 125.849 373.961 126.3C373.259 126.738 372.476 126.957 371.612 126.957C370.886 126.957 370.24 126.807 369.677 126.506C369.126 126.206 368.693 125.817 368.38 125.341V131.805H365.167V116.323H368.38V117.807ZM372.965 121.546C372.965 120.744 372.739 120.118 372.288 119.667C371.85 119.204 371.305 118.972 370.654 118.972C370.015 118.972 369.47 119.204 369.019 119.667C368.581 120.131 368.362 120.763 368.362 121.565C368.362 122.366 368.581 122.999 369.019 123.463C369.47 123.926 370.015 124.158 370.654 124.158C371.293 124.158 371.838 123.926 372.288 123.463C372.739 122.987 372.965 122.348 372.965 121.546ZM385.079 108.957L380.043 130.321H376.943L381.978 108.957H385.079ZM399.812 116.21C401.114 116.21 402.148 116.604 402.912 117.394C403.689 118.183 404.077 119.279 404.077 120.682V126.807H400.883V121.114C400.883 120.437 400.701 119.918 400.338 119.554C399.987 119.179 399.498 118.991 398.872 118.991C398.246 118.991 397.751 119.179 397.388 119.554C397.037 119.918 396.862 120.437 396.862 121.114V126.807H393.668V121.114C393.668 120.437 393.486 119.918 393.123 119.554C392.772 119.179 392.283 118.991 391.657 118.991C391.031 118.991 390.536 119.179 390.173 119.554C389.822 119.918 389.647 120.437 389.647 121.114V126.807H386.434V116.323H389.647V117.638C389.972 117.199 390.398 116.855 390.924 116.604C391.45 116.341 392.045 116.21 392.709 116.21C393.498 116.21 394.2 116.379 394.814 116.717C395.44 117.055 395.929 117.538 396.279 118.164C396.643 117.588 397.137 117.118 397.764 116.755C398.39 116.392 399.073 116.21 399.812 116.21ZM416.207 121.396C416.207 121.696 416.188 122.009 416.151 122.335H408.879C408.929 122.987 409.136 123.488 409.499 123.838C409.875 124.177 410.332 124.346 410.871 124.346C411.673 124.346 412.23 124.007 412.543 123.331H415.963C415.787 124.02 415.468 124.64 415.005 125.191C414.554 125.742 413.984 126.174 413.295 126.488C412.606 126.801 411.835 126.957 410.984 126.957C409.956 126.957 409.042 126.738 408.24 126.3C407.439 125.861 406.812 125.235 406.361 124.421C405.911 123.607 405.685 122.655 405.685 121.565C405.685 120.475 405.904 119.523 406.343 118.709C406.794 117.895 407.42 117.268 408.222 116.83C409.023 116.392 409.944 116.172 410.984 116.172C411.998 116.172 412.9 116.385 413.689 116.811C414.478 117.237 415.092 117.845 415.531 118.634C415.982 119.423 416.207 120.344 416.207 121.396ZM412.919 120.55C412.919 119.999 412.731 119.561 412.355 119.235C411.979 118.909 411.51 118.746 410.946 118.746C410.407 118.746 409.95 118.903 409.574 119.216C409.211 119.529 408.986 119.974 408.898 120.55H412.919ZM410.946 113.993L408.034 115.533V113.316L410.946 111.832L413.858 113.316V115.533L410.946 113.993ZM422.167 126.957C421.253 126.957 420.439 126.801 419.725 126.488C419.011 126.174 418.447 125.749 418.034 125.21C417.62 124.659 417.388 124.045 417.338 123.369H420.514C420.551 123.732 420.72 124.026 421.021 124.252C421.322 124.477 421.691 124.59 422.13 124.59C422.53 124.59 422.837 124.515 423.05 124.364C423.276 124.202 423.388 123.995 423.388 123.744C423.388 123.444 423.232 123.225 422.919 123.087C422.606 122.936 422.098 122.774 421.397 122.598C420.645 122.423 420.019 122.241 419.518 122.053C419.017 121.853 418.585 121.546 418.221 121.133C417.858 120.707 417.677 120.137 417.677 119.423C417.677 118.822 417.839 118.277 418.165 117.788C418.503 117.287 418.992 116.893 419.631 116.604C420.282 116.316 421.052 116.172 421.942 116.172C423.257 116.172 424.29 116.498 425.042 117.149C425.806 117.801 426.244 118.665 426.357 119.742H423.388C423.338 119.379 423.176 119.091 422.9 118.878C422.637 118.665 422.286 118.559 421.848 118.559C421.472 118.559 421.184 118.634 420.983 118.784C420.783 118.922 420.683 119.116 420.683 119.366C420.683 119.667 420.839 119.893 421.153 120.043C421.478 120.193 421.979 120.344 422.656 120.494C423.432 120.694 424.065 120.895 424.553 121.095C425.042 121.283 425.468 121.596 425.831 122.035C426.207 122.46 426.401 123.037 426.414 123.763C426.414 124.377 426.238 124.928 425.887 125.417C425.549 125.893 425.054 126.268 424.403 126.544C423.764 126.82 423.019 126.957 422.167 126.957Z" fill="white"/>
</svg>
