<svg width="30" height="30" viewBox="0 0 30 30" fill="none" xmlns="http://www.w3.org/2000/svg">
<g clip-path="url(#clip0_4021_41)">
<path d="M8.74987 30.0008C10.1306 30.0008 11.2499 28.8815 11.2499 27.5008C11.2499 26.1201 10.1306 25.0008 8.74987 25.0008C7.36916 25.0008 6.24988 26.1201 6.24988 27.5008C6.24988 28.8815 7.36916 30.0008 8.74987 30.0008Z" fill="#0B64B9"/>
<path d="M21.25 30.0008C22.6307 30.0008 23.75 28.8815 23.75 27.5008C23.75 26.1201 22.6307 25.0008 21.25 25.0008C19.8693 25.0008 18.75 26.1201 18.75 27.5008C18.75 28.8815 19.8693 30.0008 21.25 30.0008Z" fill="#0B64B9"/>
<path d="M24.6875 16.4538C24.506 17.1135 24.113 17.6955 23.5688 18.1103C23.0246 18.5251 22.3593 18.7499 21.675 18.75H9.02125C8.91904 18.7492 8.82081 18.7103 8.74571 18.641C8.6706 18.5716 8.62401 18.4768 8.615 18.375L7.545 10H11.875C12.3723 10 12.8492 9.80246 13.2008 9.45083C13.5525 9.09919 13.75 8.62228 13.75 8.125C13.75 7.62772 13.5525 7.15081 13.2008 6.79917C12.8492 6.44754 12.3723 6.25 11.875 6.25H7.06625L6.73875 3.67375C6.61992 2.66178 6.13372 1.72865 5.37241 1.05145C4.6111 0.374242 3.62767 9.12527e-05 2.60875 0L1.875 0C1.37772 0 0.900805 0.197544 0.549175 0.549175C0.197544 0.900805 0 1.37772 0 1.875C0 2.37228 0.197544 2.84919 0.549175 3.20083C0.900805 3.55246 1.37772 3.75 1.875 3.75H2.60875C2.71096 3.75085 2.80919 3.78972 2.88429 3.85905C2.9594 3.92838 3.00599 4.02319 3.015 4.125L4.89 18.825C5.00857 19.8374 5.49483 20.771 6.25643 21.4485C7.01803 22.126 8.00192 22.5002 9.02125 22.5H21.6738C23.1788 22.4991 24.642 22.0044 25.8388 21.0917C27.0356 20.1789 27.8998 18.8987 28.2987 17.4475L28.3188 17.3725C28.3952 17.0946 28.4066 16.8028 28.352 16.5198C28.2974 16.2368 28.1783 15.9702 28.0039 15.7407C27.8296 15.5112 27.6047 15.325 27.3466 15.1965C27.0886 15.0681 26.8045 15.0008 26.5162 15C26.106 14.9999 25.7071 15.1344 25.3806 15.3827C25.0542 15.6311 24.8181 15.9796 24.7087 16.375L24.6875 16.4538Z" fill="#0B64B9"/>
<path d="M26.7661 3.10762L21.3986 8.47512L20.3349 7.37387C20.1642 7.19634 19.9603 7.05416 19.7347 6.95544C19.5091 6.85672 19.2663 6.80341 19.0201 6.79853C18.7739 6.79366 18.5292 6.83732 18.2999 6.92703C18.0706 7.01674 17.8612 7.15074 17.6836 7.32137C17.5061 7.49201 17.3639 7.69594 17.2652 7.92153C17.1665 8.14711 17.1132 8.38993 17.1083 8.63612C17.0984 9.13333 17.2865 9.61408 17.6311 9.97262L19.2099 11.6151C19.4836 11.9057 19.8125 12.1387 20.1774 12.3006C20.5423 12.4624 20.9358 12.5498 21.3349 12.5576H21.3849C22.1772 12.5556 22.9367 12.2412 23.4986 11.6826L29.4161 5.76387C29.5952 5.59091 29.738 5.38401 29.8363 5.15526C29.9346 4.9265 29.9863 4.68046 29.9884 4.4315C29.9906 4.18254 29.9432 3.93564 29.8489 3.70521C29.7546 3.47478 29.6154 3.26543 29.4393 3.08938C29.2633 2.91333 29.0539 2.77411 28.8235 2.67983C28.5931 2.58556 28.3462 2.53811 28.0972 2.54028C27.8483 2.54244 27.6022 2.59417 27.3735 2.69243C27.1447 2.7907 26.9378 2.93354 26.7649 3.11262L26.7661 3.10762Z" fill="#0B64B9"/>
</g>
<defs>
<clipPath id="clip0_4021_41">
<rect width="30" height="30" fill="white"/>
</clipPath>
</defs>
</svg>
