<svg width="637" height="244" viewBox="0 0 637 244" fill="none" xmlns="http://www.w3.org/2000/svg">
<rect y="11.3127" width="371.988" height="117.12" rx="21.9599" fill="#74A9D7"/>
<rect x="305.443" width="331.395" height="139.745" rx="21.9599" fill="#0B64B9"/>
<circle cx="310.766" cy="72.5343" r="33.2726" fill="#84F4F8"/>
<path d="M69.782 157.906V154.52H75.6806V170.065H71.8901V157.906H69.782ZM78.1715 162.08C78.1715 159.638 78.64 157.714 79.5769 156.309C80.5281 154.903 82.0542 154.201 84.1553 154.201C86.2563 154.201 87.7753 154.903 88.7123 156.309C89.6634 157.714 90.139 159.638 90.139 162.08C90.139 164.55 89.6634 166.487 88.7123 167.893C87.7753 169.298 86.2563 170.001 84.1553 170.001C82.0542 170.001 80.5281 169.298 79.5769 167.893C78.64 166.487 78.1715 164.55 78.1715 162.08ZM86.5615 162.08C86.5615 160.646 86.4054 159.545 86.0931 158.779C85.7807 157.998 85.1348 157.608 84.1553 157.608C83.1757 157.608 82.5298 157.998 82.2175 158.779C81.9051 159.545 81.749 160.646 81.749 162.08C81.749 163.045 81.8058 163.847 81.9193 164.486C82.0329 165.11 82.26 165.621 82.6008 166.019C82.9557 166.402 83.4738 166.594 84.1553 166.594C84.8367 166.594 85.3477 166.402 85.6885 166.019C86.0434 165.621 86.2776 165.11 86.3912 164.486C86.5047 163.847 86.5615 163.045 86.5615 162.08ZM92.0628 162.08C92.0628 159.638 92.5313 157.714 93.4683 156.309C94.4194 154.903 95.9455 154.201 98.0466 154.201C100.148 154.201 101.667 154.903 102.604 156.309C103.555 157.714 104.03 159.638 104.03 162.08C104.03 164.55 103.555 166.487 102.604 167.893C101.667 169.298 100.148 170.001 98.0466 170.001C95.9455 170.001 94.4194 169.298 93.4683 167.893C92.5313 166.487 92.0628 164.55 92.0628 162.08ZM100.453 162.08C100.453 160.646 100.297 159.545 99.9844 158.779C99.672 157.998 99.0261 157.608 98.0466 157.608C97.067 157.608 96.4211 157.998 96.1088 158.779C95.7965 159.545 95.6403 160.646 95.6403 162.08C95.6403 163.045 95.6971 163.847 95.8107 164.486C95.9242 165.11 96.1514 165.621 96.4921 166.019C96.847 166.402 97.3651 166.594 98.0466 166.594C98.728 166.594 99.2391 166.402 99.5798 166.019C99.9347 165.621 100.169 165.11 100.282 164.486C100.396 163.847 100.453 163.045 100.453 162.08ZM105.656 158.438C105.656 157.288 105.983 156.401 106.636 155.776C107.303 155.152 108.162 154.839 109.212 154.839C110.263 154.839 111.115 155.152 111.768 155.776C112.421 156.401 112.747 157.288 112.747 158.438C112.747 159.588 112.421 160.475 111.768 161.1C111.115 161.725 110.263 162.037 109.212 162.037C108.162 162.037 107.303 161.725 106.636 161.1C105.983 160.475 105.656 159.588 105.656 158.438ZM120.115 155.074L111.917 170.065H108.403L116.601 155.074H120.115ZM109.191 156.969C108.509 156.969 108.169 157.459 108.169 158.438C108.169 159.404 108.509 159.886 109.191 159.886C109.517 159.886 109.773 159.766 109.958 159.524C110.142 159.283 110.234 158.921 110.234 158.438C110.234 157.459 109.887 156.969 109.191 156.969ZM115.792 166.7C115.792 165.551 116.119 164.663 116.772 164.039C117.425 163.414 118.277 163.102 119.327 163.102C120.378 163.102 121.229 163.414 121.882 164.039C122.535 164.663 122.862 165.551 122.862 166.7C122.862 167.85 122.535 168.738 121.882 169.362C121.229 169.987 120.378 170.299 119.327 170.299C118.277 170.299 117.425 169.987 116.772 169.362C116.119 168.738 115.792 167.85 115.792 166.7ZM119.306 165.231C118.979 165.231 118.724 165.352 118.539 165.593C118.369 165.834 118.284 166.204 118.284 166.7C118.284 167.666 118.624 168.148 119.306 168.148C119.632 168.148 119.888 168.028 120.072 167.786C120.257 167.545 120.349 167.183 120.349 166.7C120.349 166.218 120.257 165.856 120.072 165.614C119.888 165.359 119.632 165.231 119.306 165.231ZM135.32 161.206H133.361V170.065H129.719V161.206H128.399V158.183H129.719V157.842C129.719 156.38 130.138 155.272 130.976 154.52C131.813 153.753 133.041 153.37 134.66 153.37C134.929 153.37 135.128 153.377 135.256 153.391V156.479C134.56 156.436 134.071 156.536 133.787 156.777C133.503 157.019 133.361 157.452 133.361 158.076V158.183H135.32V161.206ZM138.862 156.948C138.223 156.948 137.698 156.763 137.286 156.394C136.889 156.011 136.69 155.542 136.69 154.988C136.69 154.421 136.889 153.952 137.286 153.583C137.698 153.2 138.223 153.008 138.862 153.008C139.487 153.008 139.998 153.2 140.395 153.583C140.807 153.952 141.013 154.421 141.013 154.988C141.013 155.542 140.807 156.011 140.395 156.394C139.998 156.763 139.487 156.948 138.862 156.948ZM140.672 158.183V170.065H137.031V158.183H140.672ZM146.952 159.865C147.293 159.311 147.783 158.864 148.422 158.523C149.061 158.183 149.792 158.012 150.615 158.012C151.595 158.012 152.482 158.261 153.277 158.758C154.072 159.254 154.697 159.964 155.151 160.887C155.619 161.81 155.854 162.882 155.854 164.102C155.854 165.323 155.619 166.402 155.151 167.339C154.697 168.262 154.072 168.979 153.277 169.49C152.482 169.987 151.595 170.235 150.615 170.235C149.778 170.235 149.046 170.072 148.422 169.746C147.797 169.405 147.307 168.958 146.952 168.404V170.065H143.311V154.307H146.952V159.865ZM152.148 164.102C152.148 163.194 151.893 162.484 151.382 161.973C150.885 161.448 150.267 161.185 149.529 161.185C148.805 161.185 148.188 161.448 147.677 161.973C147.18 162.498 146.931 163.215 146.931 164.124C146.931 165.032 147.18 165.749 147.677 166.275C148.188 166.8 148.805 167.062 149.529 167.062C150.253 167.062 150.871 166.8 151.382 166.275C151.893 165.735 152.148 165.011 152.148 164.102ZM161.405 160.163C161.831 159.51 162.364 158.999 163.002 158.63C163.641 158.247 164.351 158.055 165.132 158.055V161.909H164.131C163.222 161.909 162.541 162.108 162.087 162.505C161.632 162.889 161.405 163.57 161.405 164.55V170.065H157.764V158.183H161.405V160.163ZM166.148 164.102C166.148 162.882 166.375 161.81 166.83 160.887C167.298 159.964 167.93 159.254 168.725 158.758C169.52 158.261 170.407 158.012 171.387 158.012C172.224 158.012 172.955 158.183 173.58 158.523C174.219 158.864 174.709 159.311 175.049 159.865V158.183H178.691V170.065H175.049V168.383C174.694 168.936 174.198 169.384 173.559 169.724C172.934 170.065 172.203 170.235 171.365 170.235C170.4 170.235 169.52 169.987 168.725 169.49C167.93 168.979 167.298 168.262 166.83 167.339C166.375 166.402 166.148 165.323 166.148 164.102ZM175.049 164.124C175.049 163.215 174.794 162.498 174.283 161.973C173.786 161.448 173.175 161.185 172.451 161.185C171.727 161.185 171.11 161.448 170.599 161.973C170.102 162.484 169.854 163.194 169.854 164.102C169.854 165.011 170.102 165.735 170.599 166.275C171.11 166.8 171.727 167.062 172.451 167.062C173.175 167.062 173.786 166.8 174.283 166.275C174.794 165.749 175.049 165.032 175.049 164.124ZM191.247 170.235C190.082 170.235 189.032 169.987 188.095 169.49C187.172 168.993 186.441 168.283 185.902 167.361C185.376 166.438 185.114 165.359 185.114 164.124C185.114 162.903 185.383 161.831 185.923 160.908C186.462 159.971 187.201 159.254 188.138 158.758C189.074 158.261 190.125 158.012 191.289 158.012C192.453 158.012 193.504 158.261 194.441 158.758C195.378 159.254 196.116 159.971 196.655 160.908C197.195 161.831 197.464 162.903 197.464 164.124C197.464 165.345 197.188 166.424 196.634 167.361C196.095 168.283 195.349 168.993 194.398 169.49C193.461 169.987 192.411 170.235 191.247 170.235ZM191.247 167.084C191.942 167.084 192.531 166.828 193.014 166.317C193.511 165.806 193.759 165.075 193.759 164.124C193.759 163.173 193.518 162.442 193.035 161.93C192.567 161.419 191.985 161.164 191.289 161.164C190.579 161.164 189.99 161.419 189.522 161.93C189.053 162.427 188.819 163.158 188.819 164.124C188.819 165.075 189.046 165.806 189.5 166.317C189.969 166.828 190.551 167.084 191.247 167.084ZM194.057 155.138L188.925 157.288V154.776L194.057 152.305V155.138ZM203.038 159.865C203.393 159.311 203.882 158.864 204.507 158.523C205.132 158.183 205.863 158.012 206.7 158.012C207.68 158.012 208.567 158.261 209.362 158.758C210.157 159.254 210.782 159.964 211.236 160.887C211.704 161.81 211.939 162.882 211.939 164.102C211.939 165.323 211.704 166.402 211.236 167.339C210.782 168.262 210.157 168.979 209.362 169.49C208.567 169.987 207.68 170.235 206.7 170.235C205.877 170.235 205.146 170.065 204.507 169.724C203.882 169.384 203.393 168.943 203.038 168.404V175.729H199.396V158.183H203.038V159.865ZM208.233 164.102C208.233 163.194 207.978 162.484 207.467 161.973C206.97 161.448 206.352 161.185 205.614 161.185C204.89 161.185 204.273 161.448 203.762 161.973C203.265 162.498 203.016 163.215 203.016 164.124C203.016 165.032 203.265 165.749 203.762 166.275C204.273 166.8 204.89 167.062 205.614 167.062C206.338 167.062 206.956 166.8 207.467 166.275C207.978 165.735 208.233 165.011 208.233 164.102ZM220.472 166.977V170.065H218.619C217.299 170.065 216.27 169.746 215.531 169.107C214.793 168.454 214.424 167.396 214.424 165.934V161.206H212.976V158.183H214.424V155.287H218.065V158.183H220.45V161.206H218.065V165.976C218.065 166.331 218.151 166.587 218.321 166.743C218.491 166.899 218.775 166.977 219.173 166.977H220.472ZM224.331 156.948C223.692 156.948 223.167 156.763 222.756 156.394C222.358 156.011 222.159 155.542 222.159 154.988C222.159 154.421 222.358 153.952 222.756 153.583C223.167 153.2 223.692 153.008 224.331 153.008C224.956 153.008 225.467 153.2 225.865 153.583C226.276 153.952 226.482 154.421 226.482 154.988C226.482 155.542 226.276 156.011 225.865 156.394C225.467 156.763 224.956 156.948 224.331 156.948ZM226.141 158.183V170.065H222.5V158.183H226.141ZM228.056 164.124C228.056 162.889 228.305 161.81 228.801 160.887C229.313 159.964 230.015 159.254 230.91 158.758C231.818 158.261 232.855 158.012 234.019 158.012C235.509 158.012 236.751 158.403 237.745 159.183C238.753 159.964 239.413 161.064 239.726 162.484H235.85C235.523 161.576 234.892 161.121 233.955 161.121C233.288 161.121 232.755 161.384 232.358 161.909C231.96 162.42 231.761 163.158 231.761 164.124C231.761 165.089 231.96 165.834 232.358 166.36C232.755 166.871 233.288 167.126 233.955 167.126C234.892 167.126 235.523 166.672 235.85 165.763H239.726C239.413 167.155 238.753 168.248 237.745 169.043C236.737 169.838 235.495 170.235 234.019 170.235C232.855 170.235 231.818 169.987 230.91 169.49C230.015 168.993 229.313 168.283 228.801 167.361C228.305 166.438 228.056 165.359 228.056 164.124ZM240.949 164.102C240.949 162.882 241.176 161.81 241.631 160.887C242.099 159.964 242.731 159.254 243.526 158.758C244.321 158.261 245.208 158.012 246.188 158.012C247.025 158.012 247.756 158.183 248.381 158.523C249.02 158.864 249.51 159.311 249.85 159.865V158.183H253.492V170.065H249.85V168.383C249.495 168.936 248.999 169.384 248.36 169.724C247.735 170.065 247.004 170.235 246.166 170.235C245.201 170.235 244.321 169.987 243.526 169.49C242.731 168.979 242.099 168.262 241.631 167.339C241.176 166.402 240.949 165.323 240.949 164.102ZM249.85 164.124C249.85 163.215 249.595 162.498 249.084 161.973C248.587 161.448 247.976 161.185 247.252 161.185C246.528 161.185 245.911 161.448 245.4 161.973C244.903 162.484 244.655 163.194 244.655 164.102C244.655 165.011 244.903 165.735 245.4 166.275C245.911 166.8 246.528 167.062 247.252 167.062C247.976 167.062 248.587 166.8 249.084 166.275C249.595 165.749 249.85 165.032 249.85 164.124ZM70.293 190.907C70.3498 189.388 70.8467 188.216 71.7837 187.393C72.7206 186.57 73.9912 186.158 75.5954 186.158C76.6601 186.158 77.5687 186.343 78.3211 186.712C79.0877 187.081 79.6626 187.585 80.0459 188.224C80.4434 188.862 80.6422 189.579 80.6422 190.374C80.6422 191.311 80.4079 192.078 79.9394 192.674C79.471 193.256 78.9244 193.654 78.2998 193.867V193.952C79.109 194.221 79.7478 194.669 80.2163 195.293C80.6848 195.918 80.919 196.72 80.919 197.7C80.919 198.58 80.7131 199.361 80.3015 200.042C79.904 200.709 79.3148 201.234 78.534 201.618C77.7674 202.001 76.8517 202.193 75.787 202.193C74.0835 202.193 72.7206 201.774 71.6985 200.936C70.6905 200.099 70.1582 198.835 70.1014 197.146H73.6363C73.6505 197.771 73.8279 198.267 74.1686 198.637C74.5094 198.991 75.0062 199.169 75.6593 199.169C76.2129 199.169 76.6388 199.013 76.9369 198.7C77.2492 198.374 77.4054 197.948 77.4054 197.423C77.4054 196.741 77.1854 196.252 76.7453 195.953C76.3194 195.641 75.6309 195.485 74.6797 195.485H73.9983V192.525H74.6797C75.4037 192.525 75.9858 192.404 76.4259 192.163C76.8801 191.907 77.1073 191.46 77.1073 190.821C77.1073 190.31 76.9653 189.913 76.6814 189.629C76.3975 189.345 76.0071 189.203 75.5102 189.203C74.9707 189.203 74.5661 189.366 74.2964 189.693C74.0409 190.019 73.8918 190.424 73.8492 190.907H70.293ZM91.5744 191.865C91.9293 191.311 92.4191 190.864 93.0437 190.523C93.6683 190.183 94.3995 190.012 95.237 190.012C96.2166 190.012 97.1038 190.261 97.8988 190.758C98.6938 191.254 99.3185 191.964 99.7728 192.887C100.241 193.81 100.475 194.882 100.475 196.102C100.475 197.323 100.241 198.402 99.7728 199.339C99.3185 200.262 98.6938 200.979 97.8988 201.49C97.1038 201.987 96.2166 202.235 95.237 202.235C94.4136 202.235 93.6825 202.065 93.0437 201.724C92.4191 201.384 91.9293 200.943 91.5744 200.404V207.729H87.933V190.183H91.5744V191.865ZM96.7702 196.102C96.7702 195.194 96.5147 194.484 96.0036 193.973C95.5068 193.448 94.8892 193.185 94.151 193.185C93.427 193.185 92.8095 193.448 92.2984 193.973C91.8015 194.498 91.5531 195.215 91.5531 196.124C91.5531 197.032 91.8015 197.749 92.2984 198.275C92.8095 198.8 93.427 199.062 94.151 199.062C94.875 199.062 95.4926 198.8 96.0036 198.275C96.5147 197.735 96.7702 197.011 96.7702 196.102ZM107.795 202.235C106.631 202.235 105.58 201.987 104.643 201.49C103.72 200.993 102.989 200.283 102.45 199.361C101.924 198.438 101.662 197.359 101.662 196.124C101.662 194.903 101.932 193.831 102.471 192.908C103.01 191.971 103.749 191.254 104.686 190.758C105.623 190.261 106.673 190.012 107.837 190.012C109.001 190.012 110.052 190.261 110.989 190.758C111.926 191.254 112.664 191.971 113.203 192.908C113.743 193.831 114.013 194.903 114.013 196.124C114.013 197.345 113.736 198.424 113.182 199.361C112.643 200.283 111.897 200.993 110.946 201.49C110.009 201.987 108.959 202.235 107.795 202.235ZM107.795 199.084C108.49 199.084 109.079 198.828 109.562 198.317C110.059 197.806 110.307 197.075 110.307 196.124C110.307 195.173 110.066 194.442 109.583 193.93C109.115 193.419 108.533 193.164 107.837 193.164C107.127 193.164 106.538 193.419 106.07 193.93C105.601 194.427 105.367 195.158 105.367 196.124C105.367 197.075 105.594 197.806 106.048 198.317C106.517 198.828 107.099 199.084 107.795 199.084ZM123.185 190.055C124.576 190.055 125.683 190.509 126.506 191.418C127.344 192.312 127.763 193.547 127.763 195.123V202.065H124.143V195.613C124.143 194.818 123.937 194.2 123.525 193.76C123.114 193.32 122.56 193.1 121.864 193.1C121.169 193.1 120.615 193.32 120.203 193.76C119.792 194.2 119.586 194.818 119.586 195.613V202.065H115.944V190.183H119.586V191.758C119.955 191.233 120.452 190.821 121.076 190.523C121.701 190.211 122.404 190.055 123.185 190.055ZM136.916 198.977V202.065H135.063C133.743 202.065 132.714 201.746 131.975 201.107C131.237 200.454 130.868 199.396 130.868 197.934V193.206H129.42V190.183H130.868V187.287H134.51V190.183H136.895V193.206H134.51V197.976C134.51 198.331 134.595 198.587 134.765 198.743C134.935 198.899 135.219 198.977 135.617 198.977H136.916ZM144.353 202.235C143.189 202.235 142.138 201.987 141.201 201.49C140.279 200.993 139.547 200.283 139.008 199.361C138.483 198.438 138.22 197.359 138.22 196.124C138.22 194.903 138.49 193.831 139.029 192.908C139.569 191.971 140.307 191.254 141.244 190.758C142.181 190.261 143.231 190.012 144.395 190.012C145.56 190.012 146.61 190.261 147.547 190.758C148.484 191.254 149.222 191.971 149.762 192.908C150.301 193.831 150.571 194.903 150.571 196.124C150.571 197.345 150.294 198.424 149.74 199.361C149.201 200.283 148.456 200.993 147.504 201.49C146.568 201.987 145.517 202.235 144.353 202.235ZM144.353 199.084C145.049 199.084 145.638 198.828 146.12 198.317C146.617 197.806 146.866 197.075 146.866 196.124C146.866 195.173 146.624 194.442 146.142 193.93C145.673 193.419 145.091 193.164 144.395 193.164C143.686 193.164 143.097 193.419 142.628 193.93C142.16 194.427 141.925 195.158 141.925 196.124C141.925 197.075 142.152 197.806 142.607 198.317C143.075 198.828 143.657 199.084 144.353 199.084ZM157.337 202.235C156.3 202.235 155.377 202.058 154.568 201.703C153.759 201.348 153.12 200.865 152.652 200.255C152.183 199.63 151.921 198.935 151.864 198.168H155.463C155.505 198.58 155.697 198.913 156.038 199.169C156.378 199.424 156.797 199.552 157.294 199.552C157.748 199.552 158.096 199.467 158.337 199.297C158.593 199.112 158.721 198.878 158.721 198.594C158.721 198.253 158.543 198.005 158.188 197.849C157.833 197.678 157.258 197.494 156.463 197.295C155.612 197.096 154.902 196.89 154.334 196.677C153.766 196.45 153.276 196.102 152.865 195.634C152.453 195.151 152.247 194.505 152.247 193.696C152.247 193.015 152.432 192.397 152.801 191.844C153.184 191.276 153.738 190.829 154.462 190.502C155.2 190.176 156.073 190.012 157.081 190.012C158.572 190.012 159.743 190.381 160.595 191.12C161.461 191.858 161.957 192.837 162.085 194.058H158.721C158.664 193.647 158.479 193.32 158.167 193.079C157.869 192.837 157.471 192.717 156.975 192.717C156.549 192.717 156.222 192.802 155.995 192.972C155.768 193.128 155.654 193.348 155.654 193.632C155.654 193.973 155.832 194.229 156.187 194.399C156.556 194.569 157.124 194.74 157.89 194.91C158.77 195.137 159.487 195.364 160.041 195.591C160.595 195.804 161.077 196.159 161.489 196.656C161.915 197.139 162.135 197.792 162.149 198.615C162.149 199.311 161.95 199.935 161.553 200.489C161.17 201.029 160.609 201.454 159.871 201.767C159.147 202.079 158.302 202.235 157.337 202.235ZM168.165 196.102C168.165 194.882 168.393 193.81 168.847 192.887C169.315 191.964 169.947 191.254 170.742 190.758C171.537 190.261 172.424 190.012 173.404 190.012C174.185 190.012 174.895 190.176 175.533 190.502C176.186 190.829 176.697 191.269 177.067 191.822V186.307H180.708V202.065H177.067V200.361C176.726 200.929 176.236 201.384 175.597 201.724C174.973 202.065 174.241 202.235 173.404 202.235C172.424 202.235 171.537 201.987 170.742 201.49C169.947 200.979 169.315 200.262 168.847 199.339C168.393 198.402 168.165 197.323 168.165 196.102ZM177.067 196.124C177.067 195.215 176.811 194.498 176.3 193.973C175.803 193.448 175.193 193.185 174.469 193.185C173.745 193.185 173.127 193.448 172.616 193.973C172.119 194.484 171.871 195.194 171.871 196.102C171.871 197.011 172.119 197.735 172.616 198.275C173.127 198.8 173.745 199.062 174.469 199.062C175.193 199.062 175.803 198.8 176.3 198.275C176.811 197.749 177.067 197.032 177.067 196.124ZM194.543 195.932C194.543 196.273 194.522 196.628 194.479 196.997H186.238C186.295 197.735 186.529 198.303 186.941 198.7C187.367 199.084 187.885 199.275 188.496 199.275C189.404 199.275 190.036 198.892 190.391 198.125H194.266C194.068 198.906 193.706 199.609 193.18 200.234C192.669 200.858 192.023 201.348 191.243 201.703C190.462 202.058 189.589 202.235 188.623 202.235C187.459 202.235 186.423 201.987 185.514 201.49C184.606 200.993 183.896 200.283 183.385 199.361C182.874 198.438 182.618 197.359 182.618 196.124C182.618 194.889 182.867 193.81 183.364 192.887C183.875 191.964 184.584 191.254 185.493 190.758C186.402 190.261 187.445 190.012 188.623 190.012C189.773 190.012 190.795 190.254 191.69 190.736C192.584 191.219 193.28 191.907 193.777 192.802C194.288 193.696 194.543 194.74 194.543 195.932ZM190.817 194.974C190.817 194.349 190.604 193.852 190.178 193.483C189.752 193.114 189.22 192.93 188.581 192.93C187.97 192.93 187.452 193.107 187.026 193.462C186.615 193.817 186.359 194.321 186.26 194.974H190.817ZM221.547 187.116L217.65 202.065H213.242L210.857 192.227L208.387 202.065H203.979L200.189 187.116H204.086L206.236 197.998L208.898 187.116H212.902L215.457 197.998L217.629 187.116H221.547ZM225.205 188.948C224.566 188.948 224.041 188.763 223.629 188.394C223.231 188.011 223.033 187.542 223.033 186.988C223.033 186.421 223.231 185.952 223.629 185.583C224.041 185.2 224.566 185.008 225.205 185.008C225.829 185.008 226.34 185.2 226.738 185.583C227.15 185.952 227.355 186.421 227.355 186.988C227.355 187.542 227.15 188.011 226.738 188.394C226.34 188.763 225.829 188.948 225.205 188.948ZM227.015 190.183V202.065H223.373V190.183H227.015ZM238.81 193.079V196.102H229.441V193.079H238.81ZM251.738 187.116V190.034H245.647V193.185H250.204V196.017H245.647V202.065H242.006V187.116H251.738ZM255.483 188.948C254.844 188.948 254.319 188.763 253.907 188.394C253.51 188.011 253.311 187.542 253.311 186.988C253.311 186.421 253.51 185.952 253.907 185.583C254.319 185.2 254.844 185.008 255.483 185.008C256.107 185.008 256.618 185.2 257.016 185.583C257.428 185.952 257.634 186.421 257.634 186.988C257.634 187.542 257.428 188.011 257.016 188.394C256.618 188.763 256.107 188.948 255.483 188.948ZM257.293 190.183V202.065H253.651V190.183H257.293ZM271.77 190.715C271.656 190.19 271.457 189.799 271.173 189.544C270.889 189.274 270.485 189.139 269.96 189.139C269.15 189.139 268.568 189.494 268.213 190.204C267.858 190.9 267.674 192.007 267.66 193.526C267.972 193.029 268.419 192.639 269.001 192.355C269.598 192.071 270.251 191.929 270.96 191.929C272.352 191.929 273.466 192.369 274.304 193.249C275.155 194.129 275.581 195.357 275.581 196.933C275.581 197.969 275.368 198.878 274.942 199.659C274.531 200.439 273.92 201.05 273.111 201.49C272.316 201.93 271.372 202.15 270.279 202.15C268.093 202.15 266.574 201.469 265.722 200.106C264.87 198.729 264.444 196.756 264.444 194.186C264.444 191.489 264.891 189.487 265.786 188.181C266.694 186.861 268.142 186.201 270.13 186.201C271.195 186.201 272.089 186.414 272.813 186.839C273.551 187.251 274.105 187.798 274.474 188.479C274.857 189.16 275.084 189.906 275.155 190.715H271.77ZM270.087 194.804C269.477 194.804 268.966 194.988 268.554 195.357C268.157 195.712 267.958 196.223 267.958 196.89C267.958 197.572 268.142 198.104 268.512 198.487C268.895 198.871 269.434 199.062 270.13 199.062C270.755 199.062 271.244 198.878 271.599 198.509C271.968 198.125 272.153 197.607 272.153 196.954C272.153 196.287 271.975 195.762 271.621 195.378C271.266 194.995 270.755 194.804 270.087 194.804ZM281.791 196.124C281.791 194.889 282.04 193.81 282.537 192.887C283.048 191.964 283.751 191.254 284.645 190.758C285.553 190.261 286.59 190.012 287.754 190.012C289.245 190.012 290.487 190.403 291.48 191.183C292.488 191.964 293.149 193.064 293.461 194.484H289.585C289.259 193.576 288.627 193.121 287.69 193.121C287.023 193.121 286.49 193.384 286.093 193.909C285.695 194.42 285.497 195.158 285.497 196.124C285.497 197.089 285.695 197.834 286.093 198.36C286.49 198.871 287.023 199.126 287.69 199.126C288.627 199.126 289.259 198.672 289.585 197.763H293.461C293.149 199.155 292.488 200.248 291.48 201.043C290.472 201.838 289.23 202.235 287.754 202.235C286.59 202.235 285.553 201.987 284.645 201.49C283.751 200.993 283.048 200.283 282.537 199.361C282.04 198.438 281.791 197.359 281.791 196.124ZM300.817 202.235C299.653 202.235 298.603 201.987 297.666 201.49C296.743 200.993 296.012 200.283 295.472 199.361C294.947 198.438 294.685 197.359 294.685 196.124C294.685 194.903 294.954 193.831 295.494 192.908C296.033 191.971 296.771 191.254 297.708 190.758C298.645 190.261 299.696 190.012 300.86 190.012C302.024 190.012 303.075 190.261 304.012 190.758C304.949 191.254 305.687 191.971 306.226 192.908C306.766 193.831 307.035 194.903 307.035 196.124C307.035 197.345 306.759 198.424 306.205 199.361C305.665 200.283 304.92 200.993 303.969 201.49C303.032 201.987 301.982 202.235 300.817 202.235ZM300.817 199.084C301.513 199.084 302.102 198.828 302.585 198.317C303.082 197.806 303.33 197.075 303.33 196.124C303.33 195.173 303.089 194.442 302.606 193.93C302.138 193.419 301.556 193.164 300.86 193.164C300.15 193.164 299.561 193.419 299.093 193.93C298.624 194.427 298.39 195.158 298.39 196.124C298.39 197.075 298.617 197.806 299.071 198.317C299.54 198.828 300.122 199.084 300.817 199.084ZM324.129 190.055C325.605 190.055 326.776 190.502 327.642 191.396C328.523 192.291 328.963 193.533 328.963 195.123V202.065H325.343V195.613C325.343 194.846 325.137 194.257 324.725 193.845C324.328 193.419 323.774 193.206 323.064 193.206C322.354 193.206 321.794 193.419 321.382 193.845C320.984 194.257 320.786 194.846 320.786 195.613V202.065H317.166V195.613C317.166 194.846 316.96 194.257 316.548 193.845C316.151 193.419 315.597 193.206 314.887 193.206C314.177 193.206 313.616 193.419 313.205 193.845C312.807 194.257 312.609 194.846 312.609 195.613V202.065H308.967V190.183H312.609V191.673C312.978 191.176 313.46 190.786 314.057 190.502C314.653 190.204 315.327 190.055 316.08 190.055C316.974 190.055 317.769 190.247 318.465 190.63C319.174 191.013 319.728 191.56 320.125 192.269C320.537 191.616 321.098 191.084 321.808 190.672C322.518 190.261 323.291 190.055 324.129 190.055ZM342.645 198.977V202.065H340.792C339.472 202.065 338.442 201.746 337.704 201.107C336.966 200.454 336.597 199.396 336.597 197.934V193.206H335.149V190.183H336.597V187.287H340.238V190.183H342.623V193.206H340.238V197.976C340.238 198.331 340.323 198.587 340.494 198.743C340.664 198.899 340.948 198.977 341.346 198.977H342.645ZM355.874 195.932C355.874 196.273 355.852 196.628 355.81 196.997H347.569C347.626 197.735 347.86 198.303 348.272 198.7C348.698 199.084 349.216 199.275 349.826 199.275C350.735 199.275 351.366 198.892 351.721 198.125H355.597C355.398 198.906 355.036 199.609 354.511 200.234C354 200.858 353.354 201.348 352.573 201.703C351.792 202.058 350.919 202.235 349.954 202.235C348.79 202.235 347.753 201.987 346.845 201.49C345.936 200.993 345.227 200.283 344.715 199.361C344.204 198.438 343.949 197.359 343.949 196.124C343.949 194.889 344.197 193.81 344.694 192.887C345.205 191.964 345.915 191.254 346.824 190.758C347.732 190.261 348.776 190.012 349.954 190.012C351.104 190.012 352.126 190.254 353.02 190.736C353.915 191.219 354.61 191.907 355.107 192.802C355.618 193.696 355.874 194.74 355.874 195.932ZM352.147 194.974C352.147 194.349 351.934 193.852 351.508 193.483C351.082 193.114 350.55 192.93 349.911 192.93C349.301 192.93 348.783 193.107 348.357 193.462C347.945 193.817 347.69 194.321 347.59 194.974H352.147ZM357.071 196.124C357.071 194.889 357.319 193.81 357.816 192.887C358.327 191.964 359.03 191.254 359.924 190.758C360.833 190.261 361.869 190.012 363.033 190.012C364.524 190.012 365.766 190.403 366.76 191.183C367.768 191.964 368.428 193.064 368.74 194.484H364.865C364.538 193.576 363.906 193.121 362.969 193.121C362.302 193.121 361.77 193.384 361.372 193.909C360.975 194.42 360.776 195.158 360.776 196.124C360.776 197.089 360.975 197.834 361.372 198.36C361.77 198.871 362.302 199.126 362.969 199.126C363.906 199.126 364.538 198.672 364.865 197.763H368.74C368.428 199.155 367.768 200.248 366.76 201.043C365.752 201.838 364.51 202.235 363.033 202.235C361.869 202.235 360.833 201.987 359.924 201.49C359.03 200.993 358.327 200.283 357.816 199.361C357.319 198.438 357.071 197.359 357.071 196.124ZM377.928 190.055C379.319 190.055 380.427 190.509 381.25 191.418C382.088 192.312 382.506 193.547 382.506 195.123V202.065H378.886V195.613C378.886 194.818 378.68 194.2 378.269 193.76C377.857 193.32 377.303 193.1 376.608 193.1C375.912 193.1 375.358 193.32 374.947 193.76C374.535 194.2 374.329 194.818 374.329 195.613V202.065H370.688V190.183H374.329V191.758C374.698 191.233 375.195 190.821 375.82 190.523C376.445 190.211 377.147 190.055 377.928 190.055ZM390.446 202.235C389.281 202.235 388.231 201.987 387.294 201.49C386.371 200.993 385.64 200.283 385.101 199.361C384.575 198.438 384.313 197.359 384.313 196.124C384.313 194.903 384.582 193.831 385.122 192.908C385.661 191.971 386.4 191.254 387.337 190.758C388.273 190.261 389.324 190.012 390.488 190.012C391.652 190.012 392.703 190.261 393.64 190.758C394.577 191.254 395.315 191.971 395.854 192.908C396.394 193.831 396.664 194.903 396.664 196.124C396.664 197.345 396.387 198.424 395.833 199.361C395.294 200.283 394.548 200.993 393.597 201.49C392.66 201.987 391.61 202.235 390.446 202.235ZM390.446 199.084C391.141 199.084 391.73 198.828 392.213 198.317C392.71 197.806 392.958 197.075 392.958 196.124C392.958 195.173 392.717 194.442 392.234 193.93C391.766 193.419 391.184 193.164 390.488 193.164C389.778 193.164 389.189 193.419 388.721 193.93C388.252 194.427 388.018 195.158 388.018 196.124C388.018 197.075 388.245 197.806 388.699 198.317C389.168 198.828 389.75 199.084 390.446 199.084ZM402.237 186.307V202.065H398.595V186.307H402.237ZM410.284 202.235C409.12 202.235 408.07 201.987 407.133 201.49C406.21 200.993 405.479 200.283 404.939 199.361C404.414 198.438 404.152 197.359 404.152 196.124C404.152 194.903 404.421 193.831 404.961 192.908C405.5 191.971 406.238 191.254 407.175 190.758C408.112 190.261 409.163 190.012 410.327 190.012C411.491 190.012 412.542 190.261 413.478 190.758C414.415 191.254 415.154 191.971 415.693 192.908C416.233 193.831 416.502 194.903 416.502 196.124C416.502 197.345 416.225 198.424 415.672 199.361C415.132 200.283 414.387 200.993 413.436 201.49C412.499 201.987 411.448 202.235 410.284 202.235ZM410.284 199.084C410.98 199.084 411.569 198.828 412.052 198.317C412.549 197.806 412.797 197.075 412.797 196.124C412.797 195.173 412.556 194.442 412.073 193.93C411.605 193.419 411.023 193.164 410.327 193.164C409.617 193.164 409.028 193.419 408.559 193.93C408.091 194.427 407.857 195.158 407.857 196.124C407.857 197.075 408.084 197.806 408.538 198.317C409.007 198.828 409.589 199.084 410.284 199.084ZM422.949 190.012C423.786 190.012 424.517 190.183 425.142 190.523C425.781 190.864 426.27 191.311 426.611 191.865V190.183H430.253V202.044C430.253 203.137 430.033 204.123 429.592 205.004C429.167 205.898 428.506 206.608 427.612 207.133C426.732 207.658 425.632 207.921 424.311 207.921C422.551 207.921 421.124 207.502 420.031 206.665C418.938 205.841 418.313 204.72 418.157 203.3H421.756C421.87 203.754 422.139 204.109 422.565 204.365C422.991 204.634 423.516 204.769 424.141 204.769C424.893 204.769 425.49 204.549 425.93 204.109C426.384 203.683 426.611 202.995 426.611 202.044V200.361C426.256 200.915 425.767 201.369 425.142 201.724C424.517 202.065 423.786 202.235 422.949 202.235C421.969 202.235 421.082 201.987 420.287 201.49C419.492 200.979 418.86 200.262 418.392 199.339C417.937 198.402 417.71 197.323 417.71 196.102C417.71 194.882 417.937 193.81 418.392 192.887C418.86 191.964 419.492 191.254 420.287 190.758C421.082 190.261 421.969 190.012 422.949 190.012ZM426.611 196.124C426.611 195.215 426.356 194.498 425.845 193.973C425.348 193.448 424.737 193.185 424.013 193.185C423.289 193.185 422.672 193.448 422.161 193.973C421.664 194.484 421.415 195.194 421.415 196.102C421.415 197.011 421.664 197.735 422.161 198.275C422.672 198.8 423.289 199.062 424.013 199.062C424.737 199.062 425.348 198.8 425.845 198.275C426.356 197.749 426.611 197.032 426.611 196.124ZM434.718 188.948C434.079 188.948 433.554 188.763 433.142 188.394C432.745 188.011 432.546 187.542 432.546 186.988C432.546 186.421 432.745 185.952 433.142 185.583C433.554 185.2 434.079 185.008 434.718 185.008C435.343 185.008 435.854 185.2 436.251 185.583C436.663 185.952 436.869 186.421 436.869 186.988C436.869 187.542 436.663 188.011 436.251 188.394C435.854 188.763 435.343 188.948 434.718 188.948ZM436.528 190.183V202.065H432.887V190.183H436.528ZM438.443 196.102C438.443 194.882 438.67 193.81 439.125 192.887C439.593 191.964 440.225 191.254 441.02 190.758C441.815 190.261 442.702 190.012 443.682 190.012C444.519 190.012 445.25 190.183 445.875 190.523C446.514 190.864 447.003 191.311 447.344 191.865V190.183H450.986V202.065H447.344V200.383C446.989 200.936 446.492 201.384 445.854 201.724C445.229 202.065 444.498 202.235 443.66 202.235C442.695 202.235 441.815 201.987 441.02 201.49C440.225 200.979 439.593 200.262 439.125 199.339C438.67 198.402 438.443 197.323 438.443 196.102ZM447.344 196.124C447.344 195.215 447.089 194.498 446.578 193.973C446.081 193.448 445.47 193.185 444.746 193.185C444.022 193.185 443.405 193.448 442.894 193.973C442.397 194.484 442.148 195.194 442.148 196.102C442.148 197.011 442.397 197.735 442.894 198.275C443.405 198.8 444.022 199.062 444.746 199.062C445.47 199.062 446.081 198.8 446.578 198.275C447.089 197.749 447.344 197.032 447.344 196.124ZM475.062 187.116V202.065H471.42V193.1L468.077 202.065H465.138L461.774 193.079V202.065H458.132V187.116H462.434L466.629 197.465L470.781 187.116H475.062ZM483.089 202.214C481.996 202.214 481.016 202.037 480.15 201.682C479.284 201.327 478.589 200.801 478.063 200.106C477.552 199.41 477.283 198.573 477.254 197.593H481.13C481.187 198.147 481.378 198.573 481.705 198.871C482.031 199.155 482.457 199.297 482.982 199.297C483.522 199.297 483.948 199.176 484.26 198.935C484.572 198.679 484.729 198.331 484.729 197.891C484.729 197.522 484.601 197.217 484.345 196.976C484.104 196.734 483.799 196.535 483.43 196.379C483.075 196.223 482.564 196.046 481.896 195.847C480.931 195.549 480.143 195.251 479.533 194.953C478.922 194.654 478.397 194.214 477.957 193.632C477.517 193.05 477.297 192.291 477.297 191.354C477.297 189.963 477.801 188.877 478.809 188.096C479.817 187.301 481.13 186.903 482.748 186.903C484.395 186.903 485.722 187.301 486.73 188.096C487.738 188.877 488.278 189.97 488.349 191.375H484.409C484.381 190.892 484.203 190.516 483.877 190.247C483.55 189.963 483.132 189.821 482.62 189.821C482.18 189.821 481.825 189.941 481.556 190.183C481.286 190.41 481.151 190.743 481.151 191.183C481.151 191.666 481.378 192.042 481.833 192.312C482.287 192.582 482.997 192.873 483.962 193.185C484.927 193.512 485.708 193.824 486.304 194.122C486.915 194.42 487.44 194.853 487.88 195.421C488.32 195.989 488.54 196.72 488.54 197.614C488.54 198.466 488.32 199.24 487.88 199.935C487.454 200.631 486.83 201.185 486.006 201.596C485.183 202.008 484.21 202.214 483.089 202.214ZM503.728 187.116V202.065H500.087V195.911H494.423V202.065H490.781V187.116H494.423V192.972H500.087V187.116H503.728ZM81.281 219.116V222.034H77.3202V234.065H73.6789V222.034H69.7181V219.116H81.281ZM97.1416 219.116L91.8392 234.065H87.2822L81.9799 219.116H85.8555L89.5607 230.402L93.2873 219.116H97.1416ZM102.452 228.124C102.452 226.889 102.7 225.81 103.197 224.887C103.708 223.964 104.411 223.254 105.305 222.758C106.214 222.261 107.25 222.012 108.414 222.012C109.905 222.012 111.147 222.403 112.141 223.183C113.149 223.964 113.809 225.064 114.121 226.484H110.246C109.919 225.576 109.288 225.121 108.351 225.121C107.683 225.121 107.151 225.384 106.754 225.909C106.356 226.42 106.157 227.158 106.157 228.124C106.157 229.089 106.356 229.834 106.754 230.36C107.151 230.871 107.683 231.126 108.351 231.126C109.288 231.126 109.919 230.672 110.246 229.763H114.121C113.809 231.155 113.149 232.248 112.141 233.043C111.133 233.838 109.891 234.235 108.414 234.235C107.25 234.235 106.214 233.987 105.305 233.49C104.411 232.993 103.708 232.283 103.197 231.361C102.7 230.438 102.452 229.359 102.452 228.124ZM121.478 234.235C120.314 234.235 119.263 233.987 118.326 233.49C117.404 232.993 116.673 232.283 116.133 231.361C115.608 230.438 115.345 229.359 115.345 228.124C115.345 226.903 115.615 225.831 116.154 224.908C116.694 223.971 117.432 223.254 118.369 222.758C119.306 222.261 120.356 222.012 121.521 222.012C122.685 222.012 123.735 222.261 124.672 222.758C125.609 223.254 126.347 223.971 126.887 224.908C127.426 225.831 127.696 226.903 127.696 228.124C127.696 229.345 127.419 230.424 126.865 231.361C126.326 232.283 125.581 232.993 124.63 233.49C123.693 233.987 122.642 234.235 121.478 234.235ZM121.478 231.084C122.174 231.084 122.763 230.828 123.245 230.317C123.742 229.806 123.991 229.075 123.991 228.124C123.991 227.173 123.749 226.442 123.267 225.93C122.798 225.419 122.216 225.164 121.521 225.164C120.811 225.164 120.222 225.419 119.753 225.93C119.285 226.427 119.05 227.158 119.05 228.124C119.05 229.075 119.278 229.806 119.732 230.317C120.2 230.828 120.782 231.084 121.478 231.084ZM144.789 222.055C146.266 222.055 147.437 222.502 148.303 223.396C149.183 224.291 149.623 225.533 149.623 227.123V234.065H146.003V227.613C146.003 226.846 145.797 226.257 145.386 225.845C144.988 225.419 144.435 225.206 143.725 225.206C143.015 225.206 142.454 225.419 142.042 225.845C141.645 226.257 141.446 226.846 141.446 227.613V234.065H137.826V227.613C137.826 226.846 137.62 226.257 137.209 225.845C136.811 225.419 136.257 225.206 135.548 225.206C134.838 225.206 134.277 225.419 133.865 225.845C133.468 226.257 133.269 226.846 133.269 227.613V234.065H129.628V222.183H133.269V223.673C133.638 223.176 134.121 222.786 134.717 222.502C135.313 222.204 135.988 222.055 136.74 222.055C137.634 222.055 138.429 222.247 139.125 222.63C139.835 223.013 140.389 223.56 140.786 224.269C141.198 223.616 141.759 223.084 142.468 222.672C143.178 222.261 143.952 222.055 144.789 222.055ZM164.008 222.715C163.894 222.19 163.696 221.799 163.412 221.544C163.128 221.274 162.723 221.139 162.198 221.139C161.389 221.139 160.807 221.494 160.452 222.204C160.097 222.9 159.912 224.007 159.898 225.526C160.21 225.029 160.658 224.639 161.24 224.355C161.836 224.071 162.489 223.929 163.199 223.929C164.59 223.929 165.704 224.369 166.542 225.249C167.394 226.129 167.82 227.357 167.82 228.933C167.82 229.969 167.607 230.878 167.181 231.659C166.769 232.439 166.159 233.05 165.349 233.49C164.554 233.93 163.61 234.15 162.517 234.15C160.331 234.15 158.812 233.469 157.96 232.106C157.108 230.729 156.683 228.756 156.683 226.186C156.683 223.489 157.13 221.487 158.024 220.181C158.933 218.861 160.381 218.201 162.368 218.201C163.433 218.201 164.327 218.414 165.051 218.839C165.79 219.251 166.343 219.798 166.712 220.479C167.096 221.16 167.323 221.906 167.394 222.715H164.008ZM162.326 226.804C161.715 226.804 161.204 226.988 160.792 227.357C160.395 227.712 160.196 228.223 160.196 228.89C160.196 229.572 160.381 230.104 160.75 230.487C161.133 230.871 161.673 231.062 162.368 231.062C162.993 231.062 163.483 230.878 163.838 230.509C164.207 230.125 164.391 229.607 164.391 228.954C164.391 228.287 164.214 227.762 163.859 227.378C163.504 226.995 162.993 226.804 162.326 226.804ZM172.434 225.718C171.1 225.008 170.433 223.893 170.433 222.374C170.433 221.608 170.632 220.912 171.029 220.287C171.427 219.649 172.03 219.145 172.839 218.776C173.648 218.392 174.642 218.201 175.82 218.201C176.999 218.201 177.985 218.392 178.78 218.776C179.589 219.145 180.193 219.649 180.59 220.287C180.988 220.912 181.187 221.608 181.187 222.374C181.187 223.141 181.002 223.808 180.633 224.376C180.278 224.944 179.795 225.391 179.185 225.718C179.951 226.087 180.541 226.598 180.952 227.251C181.364 227.89 181.57 228.642 181.57 229.508C181.57 230.516 181.314 231.389 180.803 232.127C180.292 232.851 179.597 233.405 178.716 233.788C177.85 234.171 176.885 234.363 175.82 234.363C174.756 234.363 173.783 234.171 172.903 233.788C172.037 233.405 171.348 232.851 170.837 232.127C170.326 231.389 170.071 230.516 170.071 229.508C170.071 228.628 170.277 227.868 170.688 227.229C171.1 226.576 171.682 226.072 172.434 225.718ZM177.652 222.928C177.652 222.346 177.481 221.899 177.141 221.586C176.814 221.26 176.374 221.097 175.82 221.097C175.267 221.097 174.819 221.26 174.479 221.586C174.152 221.913 173.989 222.367 173.989 222.949C173.989 223.503 174.159 223.943 174.5 224.269C174.841 224.582 175.281 224.738 175.82 224.738C176.36 224.738 176.8 224.575 177.141 224.248C177.481 223.922 177.652 223.482 177.652 222.928ZM175.82 227.293C175.153 227.293 174.614 227.478 174.202 227.847C173.79 228.202 173.584 228.699 173.584 229.338C173.584 229.934 173.783 230.424 174.181 230.807C174.592 231.19 175.139 231.382 175.82 231.382C176.502 231.382 177.034 231.19 177.417 230.807C177.815 230.424 178.014 229.934 178.014 229.338C178.014 228.713 177.808 228.216 177.396 227.847C176.999 227.478 176.473 227.293 175.82 227.293ZM187.838 228.124C187.838 226.889 188.086 225.81 188.583 224.887C189.094 223.964 189.797 223.254 190.691 222.758C191.6 222.261 192.636 222.012 193.8 222.012C195.291 222.012 196.533 222.403 197.527 223.183C198.535 223.964 199.195 225.064 199.507 226.484H195.632C195.305 225.576 194.673 225.121 193.736 225.121C193.069 225.121 192.537 225.384 192.139 225.909C191.742 226.42 191.543 227.158 191.543 228.124C191.543 229.089 191.742 229.834 192.139 230.36C192.537 230.871 193.069 231.126 193.736 231.126C194.673 231.126 195.305 230.672 195.632 229.763H199.507C199.195 231.155 198.535 232.248 197.527 233.043C196.519 233.838 195.277 234.235 193.8 234.235C192.636 234.235 191.6 233.987 190.691 233.49C189.797 232.993 189.094 232.283 188.583 231.361C188.086 230.438 187.838 229.359 187.838 228.124ZM200.731 228.102C200.731 226.882 200.958 225.81 201.412 224.887C201.881 223.964 202.513 223.254 203.308 222.758C204.103 222.261 204.99 222.012 205.969 222.012C206.807 222.012 207.538 222.183 208.163 222.523C208.802 222.864 209.291 223.311 209.632 223.865V222.183H213.273V234.065H209.632V232.383C209.277 232.936 208.78 233.384 208.142 233.724C207.517 234.065 206.786 234.235 205.948 234.235C204.983 234.235 204.103 233.987 203.308 233.49C202.513 232.979 201.881 232.262 201.412 231.339C200.958 230.402 200.731 229.323 200.731 228.102ZM209.632 228.124C209.632 227.215 209.377 226.498 208.866 225.973C208.369 225.448 207.758 225.185 207.034 225.185C206.31 225.185 205.693 225.448 205.182 225.973C204.685 226.484 204.436 227.194 204.436 228.102C204.436 229.011 204.685 229.735 205.182 230.275C205.693 230.8 206.31 231.062 207.034 231.062C207.758 231.062 208.369 230.8 208.866 230.275C209.377 229.749 209.632 229.032 209.632 228.124ZM223.148 222.055C224.539 222.055 225.647 222.509 226.47 223.418C227.307 224.312 227.726 225.547 227.726 227.123V234.065H224.106V227.613C224.106 226.818 223.9 226.2 223.489 225.76C223.077 225.32 222.523 225.1 221.828 225.1C221.132 225.1 220.578 225.32 220.167 225.76C219.755 226.2 219.549 226.818 219.549 227.613V234.065H215.908V222.183H219.549V223.758C219.918 223.233 220.415 222.821 221.04 222.523C221.664 222.211 222.367 222.055 223.148 222.055ZM229.533 228.102C229.533 226.882 229.76 225.81 230.214 224.887C230.683 223.964 231.314 223.254 232.109 222.758C232.904 222.261 233.792 222.012 234.771 222.012C235.609 222.012 236.34 222.183 236.964 222.523C237.603 222.864 238.093 223.311 238.434 223.865V222.183H242.075V234.065H238.434V232.383C238.079 232.936 237.582 233.384 236.943 233.724C236.318 234.065 235.587 234.235 234.75 234.235C233.784 234.235 232.904 233.987 232.109 233.49C231.314 232.979 230.683 232.262 230.214 231.339C229.76 230.402 229.533 229.323 229.533 228.102ZM238.434 228.124C238.434 227.215 238.178 226.498 237.667 225.973C237.17 225.448 236.56 225.185 235.836 225.185C235.112 225.185 234.494 225.448 233.983 225.973C233.486 226.484 233.238 227.194 233.238 228.102C233.238 229.011 233.486 229.735 233.983 230.275C234.494 230.8 235.112 231.062 235.836 231.062C236.56 231.062 237.17 230.8 237.667 230.275C238.178 229.749 238.434 229.032 238.434 228.124ZM246.541 220.948C245.902 220.948 245.377 220.763 244.965 220.394C244.567 220.011 244.369 219.542 244.369 218.988C244.369 218.421 244.567 217.952 244.965 217.583C245.377 217.2 245.902 217.008 246.541 217.008C247.165 217.008 247.676 217.2 248.074 217.583C248.486 217.952 248.692 218.421 248.692 218.988C248.692 219.542 248.486 220.011 248.074 220.394C247.676 220.763 247.165 220.948 246.541 220.948ZM248.351 222.183V234.065H244.709V222.183H248.351ZM255.823 234.235C254.787 234.235 253.864 234.058 253.055 233.703C252.246 233.348 251.607 232.865 251.139 232.255C250.67 231.63 250.408 230.935 250.351 230.168H253.95C253.992 230.58 254.184 230.913 254.525 231.169C254.865 231.424 255.284 231.552 255.781 231.552C256.235 231.552 256.583 231.467 256.824 231.297C257.08 231.112 257.208 230.878 257.208 230.594C257.208 230.253 257.03 230.005 256.675 229.849C256.32 229.678 255.745 229.494 254.95 229.295C254.099 229.096 253.389 228.89 252.821 228.677C252.253 228.45 251.763 228.102 251.352 227.634C250.94 227.151 250.734 226.505 250.734 225.696C250.734 225.015 250.919 224.397 251.288 223.844C251.671 223.276 252.225 222.829 252.949 222.502C253.687 222.176 254.56 222.012 255.568 222.012C257.059 222.012 258.23 222.381 259.082 223.12C259.948 223.858 260.444 224.837 260.572 226.058H257.208C257.151 225.647 256.966 225.32 256.654 225.079C256.356 224.837 255.958 224.717 255.461 224.717C255.036 224.717 254.709 224.802 254.482 224.972C254.255 225.128 254.141 225.348 254.141 225.632C254.141 225.973 254.319 226.229 254.674 226.399C255.043 226.569 255.611 226.74 256.377 226.91C257.257 227.137 257.974 227.364 258.528 227.591C259.082 227.804 259.564 228.159 259.976 228.656C260.402 229.139 260.622 229.792 260.636 230.615C260.636 231.311 260.437 231.935 260.04 232.489C259.656 233.029 259.096 233.454 258.358 233.767C257.634 234.079 256.789 234.235 255.823 234.235ZM273.339 225.206H271.38V234.065H267.738V225.206H266.418V222.183H267.738V221.842C267.738 220.38 268.157 219.272 268.995 218.52C269.832 217.753 271.06 217.37 272.679 217.37C272.948 217.37 273.147 217.377 273.275 217.391V220.479C272.579 220.436 272.09 220.536 271.806 220.777C271.522 221.019 271.38 221.452 271.38 222.076V222.183H273.339V225.206ZM286.251 227.932C286.251 228.273 286.23 228.628 286.187 228.997H277.946C278.003 229.735 278.237 230.303 278.649 230.7C279.075 231.084 279.593 231.275 280.203 231.275C281.112 231.275 281.743 230.892 282.098 230.125H285.974C285.775 230.906 285.413 231.609 284.888 232.234C284.377 232.858 283.731 233.348 282.95 233.703C282.169 234.058 281.296 234.235 280.331 234.235C279.167 234.235 278.131 233.987 277.222 233.49C276.313 232.993 275.604 232.283 275.093 231.361C274.581 230.438 274.326 229.359 274.326 228.124C274.326 226.889 274.574 225.81 275.071 224.887C275.582 223.964 276.292 223.254 277.201 222.758C278.109 222.261 279.153 222.012 280.331 222.012C281.481 222.012 282.503 222.254 283.397 222.736C284.292 223.219 284.987 223.907 285.484 224.802C285.995 225.696 286.251 226.74 286.251 227.932ZM282.524 226.974C282.524 226.349 282.311 225.852 281.885 225.483C281.46 225.114 280.927 224.93 280.288 224.93C279.678 224.93 279.16 225.107 278.734 225.462C278.322 225.817 278.067 226.321 277.967 226.974H282.524ZM287.448 228.124C287.448 226.889 287.696 225.81 288.193 224.887C288.704 223.964 289.407 223.254 290.301 222.758C291.21 222.261 292.246 222.012 293.41 222.012C294.901 222.012 296.143 222.403 297.137 223.183C298.145 223.964 298.805 225.064 299.117 226.484H295.242C294.915 225.576 294.283 225.121 293.346 225.121C292.679 225.121 292.147 225.384 291.749 225.909C291.352 226.42 291.153 227.158 291.153 228.124C291.153 229.089 291.352 229.834 291.749 230.36C292.147 230.871 292.679 231.126 293.346 231.126C294.283 231.126 294.915 230.672 295.242 229.763H299.117C298.805 231.155 298.145 232.248 297.137 233.043C296.129 233.838 294.887 234.235 293.41 234.235C292.246 234.235 291.21 233.987 290.301 233.49C289.407 232.993 288.704 232.283 288.193 231.361C287.696 230.438 287.448 229.359 287.448 228.124ZM308.369 222.055C309.732 222.055 310.825 222.509 311.648 223.418C312.472 224.312 312.883 225.547 312.883 227.123V234.065H309.263V227.613C309.263 226.818 309.057 226.2 308.646 225.76C308.234 225.32 307.68 225.1 306.985 225.1C306.289 225.1 305.736 225.32 305.324 225.76C304.912 226.2 304.706 226.818 304.706 227.613V234.065H301.065V218.307H304.706V223.78C305.075 223.254 305.579 222.836 306.218 222.523C306.857 222.211 307.574 222.055 308.369 222.055ZM314.69 228.102C314.69 226.882 314.917 225.81 315.371 224.887C315.84 223.964 316.471 223.254 317.266 222.758C318.061 222.261 318.949 222.012 319.928 222.012C320.766 222.012 321.497 222.183 322.122 222.523C322.76 222.864 323.25 223.311 323.591 223.865V222.183H327.232V234.065H323.591V232.383C323.236 232.936 322.739 233.384 322.1 233.724C321.476 234.065 320.744 234.235 319.907 234.235C318.942 234.235 318.061 233.987 317.266 233.49C316.471 232.979 315.84 232.262 315.371 231.339C314.917 230.402 314.69 229.323 314.69 228.102ZM323.591 228.124C323.591 227.215 323.335 226.498 322.824 225.973C322.327 225.448 321.717 225.185 320.993 225.185C320.269 225.185 319.651 225.448 319.14 225.973C318.643 226.484 318.395 227.194 318.395 228.102C318.395 229.011 318.643 229.735 319.14 230.275C319.651 230.8 320.269 231.062 320.993 231.062C321.717 231.062 322.327 230.8 322.824 230.275C323.335 229.749 323.591 229.032 323.591 228.124ZM329.143 228.102C329.143 226.882 329.37 225.81 329.824 224.887C330.292 223.964 330.924 223.254 331.719 222.758C332.514 222.261 333.401 222.012 334.381 222.012C335.162 222.012 335.872 222.176 336.51 222.502C337.163 222.829 337.675 223.269 338.044 223.822V218.307H341.685V234.065H338.044V232.361C337.703 232.929 337.213 233.384 336.574 233.724C335.95 234.065 335.219 234.235 334.381 234.235C333.401 234.235 332.514 233.987 331.719 233.49C330.924 232.979 330.292 232.262 329.824 231.339C329.37 230.402 329.143 229.323 329.143 228.102ZM338.044 228.124C338.044 227.215 337.788 226.498 337.277 225.973C336.78 225.448 336.17 225.185 335.446 225.185C334.722 225.185 334.104 225.448 333.593 225.973C333.096 226.484 332.848 227.194 332.848 228.102C332.848 229.011 333.096 229.735 333.593 230.275C334.104 230.8 334.722 231.062 335.446 231.062C336.17 231.062 336.78 230.8 337.277 230.275C337.788 229.749 338.044 229.032 338.044 228.124ZM349.728 234.235C348.564 234.235 347.514 233.987 346.577 233.49C345.654 232.993 344.923 232.283 344.383 231.361C343.858 230.438 343.595 229.359 343.595 228.124C343.595 226.903 343.865 225.831 344.405 224.908C344.944 223.971 345.682 223.254 346.619 222.758C347.556 222.261 348.607 222.012 349.771 222.012C350.935 222.012 351.985 222.261 352.922 222.758C353.859 223.254 354.597 223.971 355.137 224.908C355.676 225.831 355.946 226.903 355.946 228.124C355.946 229.345 355.669 230.424 355.116 231.361C354.576 232.283 353.831 232.993 352.88 233.49C351.943 233.987 350.892 234.235 349.728 234.235ZM349.728 231.084C350.424 231.084 351.013 230.828 351.496 230.317C351.992 229.806 352.241 229.075 352.241 228.124C352.241 227.173 352 226.442 351.517 225.93C351.048 225.419 350.466 225.164 349.771 225.164C349.061 225.164 348.472 225.419 348.003 225.93C347.535 226.427 347.301 227.158 347.301 228.124C347.301 229.075 347.528 229.806 347.982 230.317C348.45 230.828 349.033 231.084 349.728 231.084ZM362.712 234.235C361.675 234.235 360.753 234.058 359.944 233.703C359.134 233.348 358.495 232.865 358.027 232.255C357.559 231.63 357.296 230.935 357.239 230.168H360.838C360.88 230.58 361.072 230.913 361.413 231.169C361.754 231.424 362.172 231.552 362.669 231.552C363.123 231.552 363.471 231.467 363.713 231.297C363.968 231.112 364.096 230.878 364.096 230.594C364.096 230.253 363.918 230.005 363.564 229.849C363.209 229.678 362.634 229.494 361.839 229.295C360.987 229.096 360.277 228.89 359.709 228.677C359.141 228.45 358.652 228.102 358.24 227.634C357.828 227.151 357.622 226.505 357.622 225.696C357.622 225.015 357.807 224.397 358.176 223.844C358.559 223.276 359.113 222.829 359.837 222.502C360.575 222.176 361.448 222.012 362.456 222.012C363.947 222.012 365.118 222.381 365.97 223.12C366.836 223.858 367.333 224.837 367.46 226.058H364.096C364.039 225.647 363.855 225.32 363.542 225.079C363.244 224.837 362.847 224.717 362.35 224.717C361.924 224.717 361.597 224.802 361.37 224.972C361.143 225.128 361.03 225.348 361.03 225.632C361.03 225.973 361.207 226.229 361.562 226.399C361.931 226.569 362.499 226.74 363.265 226.91C364.146 227.137 364.863 227.364 365.416 227.591C365.97 227.804 366.453 228.159 366.864 228.656C367.29 229.139 367.51 229.792 367.524 230.615C367.524 231.311 367.326 231.935 366.928 232.489C366.545 233.029 365.984 233.454 365.246 233.767C364.522 234.079 363.677 234.235 362.712 234.235ZM385.466 227.932C385.466 228.273 385.444 228.628 385.402 228.997H377.161C377.218 229.735 377.452 230.303 377.863 230.7C378.289 231.084 378.808 231.275 379.418 231.275C380.327 231.275 380.958 230.892 381.313 230.125H385.189C384.99 230.906 384.628 231.609 384.103 232.234C383.592 232.858 382.946 233.348 382.165 233.703C381.384 234.058 380.511 234.235 379.546 234.235C378.382 234.235 377.345 233.987 376.437 233.49C375.528 232.993 374.818 232.283 374.307 231.361C373.796 230.438 373.541 229.359 373.541 228.124C373.541 226.889 373.789 225.81 374.286 224.887C374.797 223.964 375.507 223.254 376.415 222.758C377.324 222.261 378.367 222.012 379.546 222.012C380.696 222.012 381.718 222.254 382.612 222.736C383.507 223.219 384.202 223.907 384.699 224.802C385.21 225.696 385.466 226.74 385.466 227.932ZM381.739 226.974C381.739 226.349 381.526 225.852 381.1 225.483C380.674 225.114 380.142 224.93 379.503 224.93C378.893 224.93 378.375 225.107 377.949 225.462C377.537 225.817 377.281 226.321 377.182 226.974H381.739ZM402.695 228.252H398.99V232.042H395.541V228.252H391.835V224.993H395.541V221.182H398.99V224.993H402.695V228.252ZM404.994 231.297V228.358L411.723 218.733H415.79V228.145H417.536V231.297H415.79V234.065H412.149V231.297H404.994ZM412.404 222.736L408.827 228.145H412.404V222.736ZM418.937 221.906V218.52H424.835V234.065H421.045V221.906H418.937ZM431.477 228.124C431.477 226.889 431.725 225.81 432.222 224.887C432.733 223.964 433.436 223.254 434.33 222.758C435.239 222.261 436.275 222.012 437.439 222.012C438.93 222.012 440.172 222.403 441.166 223.183C442.174 223.964 442.834 225.064 443.146 226.484H439.27C438.944 225.576 438.312 225.121 437.375 225.121C436.708 225.121 436.176 225.384 435.778 225.909C435.381 226.42 435.182 227.158 435.182 228.124C435.182 229.089 435.381 229.834 435.778 230.36C436.176 230.871 436.708 231.126 437.375 231.126C438.312 231.126 438.944 230.672 439.27 229.763H443.146C442.834 231.155 442.174 232.248 441.166 233.043C440.158 233.838 438.916 234.235 437.439 234.235C436.275 234.235 435.239 233.987 434.33 233.49C433.436 232.993 432.733 232.283 432.222 231.361C431.725 230.438 431.477 229.359 431.477 228.124ZM444.37 228.102C444.37 226.882 444.597 225.81 445.051 224.887C445.52 223.964 446.151 223.254 446.946 222.758C447.741 222.261 448.629 222.012 449.608 222.012C450.446 222.012 451.177 222.183 451.802 222.523C452.44 222.864 452.93 223.311 453.271 223.865V222.183H456.912V234.065H453.271V232.383C452.916 232.936 452.419 233.384 451.78 233.724C451.156 234.065 450.425 234.235 449.587 234.235C448.622 234.235 447.741 233.987 446.946 233.49C446.151 232.979 445.52 232.262 445.051 231.339C444.597 230.402 444.37 229.323 444.37 228.102ZM453.271 228.124C453.271 227.215 453.015 226.498 452.504 225.973C452.007 225.448 451.397 225.185 450.673 225.185C449.949 225.185 449.331 225.448 448.82 225.973C448.323 226.484 448.075 227.194 448.075 228.102C448.075 229.011 448.323 229.735 448.82 230.275C449.331 230.8 449.949 231.062 450.673 231.062C451.397 231.062 452.007 230.8 452.504 230.275C453.015 229.749 453.271 229.032 453.271 228.124ZM466.787 222.055C468.178 222.055 469.285 222.509 470.109 223.418C470.946 224.312 471.365 225.547 471.365 227.123V234.065H467.745V227.613C467.745 226.818 467.539 226.2 467.127 225.76C466.716 225.32 466.162 225.1 465.466 225.1C464.771 225.1 464.217 225.32 463.805 225.76C463.394 226.2 463.188 226.818 463.188 227.613V234.065H459.547V222.183H463.188V223.758C463.557 223.233 464.054 222.821 464.679 222.523C465.303 222.211 466.006 222.055 466.787 222.055ZM473.171 228.102C473.171 226.882 473.399 225.81 473.853 224.887C474.321 223.964 474.953 223.254 475.748 222.758C476.543 222.261 477.43 222.012 478.41 222.012C479.247 222.012 479.979 222.183 480.603 222.523C481.242 222.864 481.732 223.311 482.072 223.865V222.183H485.714V234.065H482.072V232.383C481.718 232.936 481.221 233.384 480.582 233.724C479.957 234.065 479.226 234.235 478.389 234.235C477.423 234.235 476.543 233.987 475.748 233.49C474.953 232.979 474.321 232.262 473.853 231.339C473.399 230.402 473.171 229.323 473.171 228.102ZM482.072 228.124C482.072 227.215 481.817 226.498 481.306 225.973C480.809 225.448 480.199 225.185 479.475 225.185C478.751 225.185 478.133 225.448 477.622 225.973C477.125 226.484 476.877 227.194 476.877 228.102C476.877 229.011 477.125 229.735 477.622 230.275C478.133 230.8 478.751 231.062 479.475 231.062C480.199 231.062 480.809 230.8 481.306 230.275C481.817 229.749 482.072 229.032 482.072 228.124ZM490.18 220.948C489.541 220.948 489.015 220.763 488.604 220.394C488.206 220.011 488.007 219.542 488.007 218.988C488.007 218.421 488.206 217.952 488.604 217.583C489.015 217.2 489.541 217.008 490.18 217.008C490.804 217.008 491.315 217.2 491.713 217.583C492.124 217.952 492.33 218.421 492.33 218.988C492.33 219.542 492.124 220.011 491.713 220.394C491.315 220.763 490.804 220.948 490.18 220.948ZM491.99 222.183V234.065H488.348V222.183H491.99ZM499.462 234.235C498.426 234.235 497.503 234.058 496.694 233.703C495.885 233.348 495.246 232.865 494.777 232.255C494.309 231.63 494.046 230.935 493.99 230.168H497.588C497.631 230.58 497.823 230.913 498.163 231.169C498.504 231.424 498.923 231.552 499.42 231.552C499.874 231.552 500.222 231.467 500.463 231.297C500.719 231.112 500.846 230.878 500.846 230.594C500.846 230.253 500.669 230.005 500.314 229.849C499.959 229.678 499.384 229.494 498.589 229.295C497.737 229.096 497.028 228.89 496.46 228.677C495.892 228.45 495.402 228.102 494.99 227.634C494.579 227.151 494.373 226.505 494.373 225.696C494.373 225.015 494.557 224.397 494.927 223.844C495.31 223.276 495.863 222.829 496.587 222.502C497.326 222.176 498.199 222.012 499.207 222.012C500.697 222.012 501.869 222.381 502.72 223.12C503.586 223.858 504.083 224.837 504.211 226.058H500.846C500.79 225.647 500.605 225.32 500.293 225.079C499.995 224.837 499.597 224.717 499.1 224.717C498.674 224.717 498.348 224.802 498.121 224.972C497.894 225.128 497.78 225.348 497.78 225.632C497.78 225.973 497.957 226.229 498.312 226.399C498.681 226.569 499.249 226.74 500.016 226.91C500.896 227.137 501.613 227.364 502.167 227.591C502.72 227.804 503.203 228.159 503.615 228.656C504.041 229.139 504.261 229.792 504.275 230.615C504.275 231.311 504.076 231.935 503.679 232.489C503.295 233.029 502.734 233.454 501.996 233.767C501.272 234.079 500.428 234.235 499.462 234.235ZM510.291 228.102C510.291 226.882 510.518 225.81 510.973 224.887C511.441 223.964 512.073 223.254 512.868 222.758C513.663 222.261 514.55 222.012 515.53 222.012C516.367 222.012 517.098 222.183 517.723 222.523C518.362 222.864 518.852 223.311 519.192 223.865V222.183H522.834V234.065H519.192V232.383C518.837 232.936 518.34 233.384 517.702 233.724C517.077 234.065 516.346 234.235 515.508 234.235C514.543 234.235 513.663 233.987 512.868 233.49C512.073 232.979 511.441 232.262 510.973 231.339C510.518 230.402 510.291 229.323 510.291 228.102ZM519.192 228.124C519.192 227.215 518.937 226.498 518.426 225.973C517.929 225.448 517.318 225.185 516.594 225.185C515.87 225.185 515.253 225.448 514.742 225.973C514.245 226.484 513.996 227.194 513.996 228.102C513.996 229.011 514.245 229.735 514.742 230.275C515.253 230.8 515.87 231.062 516.594 231.062C517.318 231.062 517.929 230.8 518.426 230.275C518.937 229.749 519.192 229.032 519.192 228.124ZM529.109 223.865C529.45 223.311 529.94 222.864 530.579 222.523C531.217 222.183 531.949 222.012 532.772 222.012C533.752 222.012 534.639 222.261 535.434 222.758C536.229 223.254 536.853 223.964 537.308 224.887C537.776 225.81 538.01 226.882 538.01 228.102C538.01 229.323 537.776 230.402 537.308 231.339C536.853 232.262 536.229 232.979 535.434 233.49C534.639 233.987 533.752 234.235 532.772 234.235C531.934 234.235 531.203 234.072 530.579 233.746C529.954 233.405 529.464 232.958 529.109 232.404V234.065H525.468V218.307H529.109V223.865ZM534.305 228.102C534.305 227.194 534.05 226.484 533.539 225.973C533.042 225.448 532.424 225.185 531.686 225.185C530.962 225.185 530.344 225.448 529.833 225.973C529.336 226.498 529.088 227.215 529.088 228.124C529.088 229.032 529.336 229.749 529.833 230.275C530.344 230.8 530.962 231.062 531.686 231.062C532.41 231.062 533.028 230.8 533.539 230.275C534.05 229.735 534.305 229.011 534.305 228.102ZM551.122 227.932C551.122 228.273 551.1 228.628 551.058 228.997H542.817C542.874 229.735 543.108 230.303 543.52 230.7C543.945 231.084 544.464 231.275 545.074 231.275C545.983 231.275 546.614 230.892 546.969 230.125H550.845C550.646 230.906 550.284 231.609 549.759 232.234C549.248 232.858 548.602 233.348 547.821 233.703C547.04 234.058 546.167 234.235 545.202 234.235C544.038 234.235 543.001 233.987 542.093 233.49C541.184 232.993 540.474 232.283 539.963 231.361C539.452 230.438 539.197 229.359 539.197 228.124C539.197 226.889 539.445 225.81 539.942 224.887C540.453 223.964 541.163 223.254 542.071 222.758C542.98 222.261 544.023 222.012 545.202 222.012C546.352 222.012 547.374 222.254 548.268 222.736C549.163 223.219 549.858 223.907 550.355 224.802C550.866 225.696 551.122 226.74 551.122 227.932ZM547.395 226.974C547.395 226.349 547.182 225.852 546.756 225.483C546.33 225.114 545.798 224.93 545.159 224.93C544.549 224.93 544.031 225.107 543.605 225.462C543.193 225.817 542.937 226.321 542.838 226.974H547.395ZM556.684 224.163C557.11 223.51 557.642 222.999 558.281 222.63C558.92 222.247 559.63 222.055 560.411 222.055V225.909H559.41C558.501 225.909 557.82 226.108 557.365 226.505C556.911 226.889 556.684 227.57 556.684 228.55V234.065H553.043V222.183H556.684V224.163ZM568.774 230.977V234.065H566.921C565.601 234.065 564.571 233.746 563.833 233.107C563.095 232.454 562.726 231.396 562.726 229.934V225.206H561.278V222.183H562.726V219.287H566.367V222.183H568.752V225.206H566.367V229.976C566.367 230.331 566.452 230.587 566.623 230.743C566.793 230.899 567.077 230.977 567.475 230.977H568.774ZM576.211 234.235C575.047 234.235 573.996 233.987 573.059 233.49C572.136 232.993 571.405 232.283 570.866 231.361C570.341 230.438 570.078 229.359 570.078 228.124C570.078 226.903 570.348 225.831 570.887 224.908C571.427 223.971 572.165 223.254 573.102 222.758C574.039 222.261 575.089 222.012 576.253 222.012C577.417 222.012 578.468 222.261 579.405 222.758C580.342 223.254 581.08 223.971 581.619 224.908C582.159 225.831 582.429 226.903 582.429 228.124C582.429 229.345 582.152 230.424 581.598 231.361C581.059 232.283 580.313 232.993 579.362 233.49C578.425 233.987 577.375 234.235 576.211 234.235ZM576.211 231.084C576.906 231.084 577.495 230.828 577.978 230.317C578.475 229.806 578.723 229.075 578.723 228.124C578.723 227.173 578.482 226.442 577.999 225.93C577.531 225.419 576.949 225.164 576.253 225.164C575.543 225.164 574.954 225.419 574.486 225.93C574.017 226.427 573.783 227.158 573.783 228.124C573.783 229.075 574.01 229.806 574.465 230.317C574.933 230.828 575.515 231.084 576.211 231.084ZM589.194 234.235C588.158 234.235 587.235 234.058 586.426 233.703C585.617 233.348 584.978 232.865 584.51 232.255C584.041 231.63 583.778 230.935 583.722 230.168H587.32C587.363 230.58 587.555 230.913 587.895 231.169C588.236 231.424 588.655 231.552 589.152 231.552C589.606 231.552 589.954 231.467 590.195 231.297C590.451 231.112 590.578 230.878 590.578 230.594C590.578 230.253 590.401 230.005 590.046 229.849C589.691 229.678 589.116 229.494 588.321 229.295C587.469 229.096 586.76 228.89 586.192 228.677C585.624 228.45 585.134 228.102 584.722 227.634C584.311 227.151 584.105 226.505 584.105 225.696C584.105 225.015 584.289 224.397 584.659 223.844C585.042 223.276 585.596 222.829 586.32 222.502C587.058 222.176 587.931 222.012 588.939 222.012C590.429 222.012 591.601 222.381 592.452 223.12C593.318 223.858 593.815 224.837 593.943 226.058H590.578C590.522 225.647 590.337 225.32 590.025 225.079C589.727 224.837 589.329 224.717 588.832 224.717C588.406 224.717 588.08 224.802 587.853 224.972C587.626 225.128 587.512 225.348 587.512 225.632C587.512 225.973 587.69 226.229 588.044 226.399C588.414 226.569 588.981 226.74 589.748 226.91C590.628 227.137 591.345 227.364 591.899 227.591C592.452 227.804 592.935 228.159 593.347 228.656C593.773 229.139 593.993 229.792 594.007 230.615C594.007 231.311 593.808 231.935 593.411 232.489C593.027 233.029 592.467 233.454 591.728 233.767C591.004 234.079 590.16 234.235 589.194 234.235Z" fill="#022162"/>
<path d="M39.1979 51.0564V35.7569H65.8518V106H48.7241V51.0564H39.1979ZM77.1077 69.9162C77.1077 58.8826 79.2246 50.1904 83.4585 43.8397C87.7565 37.4889 94.6525 34.3135 104.147 34.3135C113.641 34.3135 120.505 37.4889 124.738 43.8397C129.036 50.1904 131.185 58.8826 131.185 69.9162C131.185 81.0781 129.036 89.8345 124.738 96.1852C120.505 102.536 113.641 105.711 104.147 105.711C94.6525 105.711 87.7565 102.536 83.4585 96.1852C79.2246 89.8345 77.1077 81.0781 77.1077 69.9162ZM115.02 69.9162C115.02 63.4372 114.314 58.4656 112.903 55.0016C111.492 51.4734 108.573 49.7093 104.147 49.7093C99.7202 49.7093 96.8015 51.4734 95.3902 55.0016C93.9789 58.4656 93.2733 63.4372 93.2733 69.9162C93.2733 74.2783 93.5299 77.9028 94.0431 80.7895C94.5562 83.612 95.5826 85.9214 97.1222 87.7175C98.7259 89.4496 101.067 90.3156 104.147 90.3156C107.226 90.3156 109.535 89.4496 111.075 87.7175C112.678 85.9214 113.737 83.612 114.25 80.7895C114.763 77.9028 115.02 74.2783 115.02 69.9162ZM139.878 69.9162C139.878 58.8826 141.995 50.1904 146.229 43.8397C150.527 37.4889 157.423 34.3135 166.917 34.3135C176.411 34.3135 183.275 37.4889 187.509 43.8397C191.807 50.1904 193.956 58.8826 193.956 69.9162C193.956 81.0781 191.807 89.8345 187.509 96.1852C183.275 102.536 176.411 105.711 166.917 105.711C157.423 105.711 150.527 102.536 146.229 96.1852C141.995 89.8345 139.878 81.0781 139.878 69.9162ZM177.791 69.9162C177.791 63.4372 177.085 58.4656 175.674 55.0016C174.262 51.4734 171.344 49.7093 166.917 49.7093C162.491 49.7093 159.572 51.4734 158.161 55.0016C156.75 58.4656 156.044 63.4372 156.044 69.9162C156.044 74.2783 156.301 77.9028 156.814 80.7895C157.327 83.612 158.353 85.9214 159.893 87.7175C161.497 89.4496 163.838 90.3156 166.917 90.3156C169.996 90.3156 172.306 89.4496 173.845 87.7175C175.449 85.9214 176.508 83.612 177.021 80.7895C177.534 77.9028 177.791 74.2783 177.791 69.9162ZM202.649 69.9162C202.649 58.8826 204.766 50.1904 209 43.8397C213.298 37.4889 220.194 34.3135 229.688 34.3135C239.182 34.3135 246.046 37.4889 250.28 43.8397C254.578 50.1904 256.727 58.8826 256.727 69.9162C256.727 81.0781 254.578 89.8345 250.28 96.1852C246.046 102.536 239.182 105.711 229.688 105.711C220.194 105.711 213.298 102.536 209 96.1852C204.766 89.8345 202.649 81.0781 202.649 69.9162ZM240.561 69.9162C240.561 63.4372 239.856 58.4656 238.444 55.0016C237.033 51.4734 234.114 49.7093 229.688 49.7093C225.262 49.7093 222.343 51.4734 220.932 55.0016C219.52 58.4656 218.815 63.4372 218.815 69.9162C218.815 74.2783 219.071 77.9028 219.585 80.7895C220.098 83.612 221.124 85.9214 222.664 87.7175C224.267 89.4496 226.609 90.3156 229.688 90.3156C232.767 90.3156 235.077 89.4496 236.616 87.7175C238.22 85.9214 239.278 83.612 239.791 80.7895C240.305 77.9028 240.561 74.2783 240.561 69.9162Z" fill="#022162"/>
<path d="M312.017 61.7717V82.4198H306.987V70.0368L302.37 82.4198H298.311L293.663 70.0074V82.4198H288.634V61.7717H294.575L300.369 76.0665L306.105 61.7717H312.017ZM328.135 71.831C329.331 72.0859 330.292 72.684 331.017 73.6252C331.743 74.5468 332.105 75.6057 332.105 76.8019C332.105 78.5274 331.498 79.9001 330.282 80.9197C329.086 81.9198 327.409 82.4198 325.252 82.4198H315.634V61.7717H324.929C327.027 61.7717 328.664 62.2521 329.841 63.2129C331.037 64.1738 331.635 65.4778 331.635 67.1249C331.635 68.3406 331.311 69.3505 330.664 70.1545C330.037 70.9584 329.194 71.5173 328.135 71.831ZM320.664 70.125H323.958C324.782 70.125 325.409 69.9486 325.84 69.5956C326.291 69.223 326.517 68.6838 326.517 67.9779C326.517 67.272 326.291 66.7327 325.84 66.3601C325.409 65.9876 324.782 65.8013 323.958 65.8013H320.664V70.125ZM324.37 78.3608C325.213 78.3608 325.86 78.1745 326.311 77.8019C326.782 77.4097 327.017 76.8509 327.017 76.1254C327.017 75.3998 326.772 74.8312 326.282 74.4194C325.811 74.0076 325.154 73.8017 324.311 73.8017H320.664V78.3608H324.37Z" fill="#022162"/>
<path d="M365.289 101.915L359.753 91.8665H358.198V101.915H351.714V75.2954H362.597C364.695 75.2954 366.477 75.6619 367.943 76.395C369.435 77.1282 370.547 78.1394 371.28 79.4287C372.013 80.6927 372.38 82.1083 372.38 83.6757C372.38 85.4453 371.874 87.0253 370.863 88.4157C369.877 89.8061 368.411 90.7921 366.465 91.3735L372.608 101.915H365.289ZM358.198 87.2781H362.217C363.406 87.2781 364.29 86.9874 364.872 86.406C365.479 85.8245 365.782 85.0029 365.782 83.9412C365.782 82.9299 365.479 82.1336 364.872 81.5522C364.29 80.9707 363.406 80.68 362.217 80.68H358.198V87.2781ZM396.586 94.1796C396.586 95.57 396.22 96.8593 395.486 98.0474C394.779 99.2103 393.717 100.171 392.301 100.929C390.911 101.662 389.255 102.067 387.334 102.143V105.214H384.907V102.105C382.227 101.877 380.066 101.081 378.422 99.7159C376.779 98.3255 375.907 96.4421 375.806 94.0658H382.707C382.859 95.5826 383.592 96.5559 384.907 96.9857V90.9943C382.935 90.4887 381.355 89.9957 380.167 89.5154C379.004 89.0351 377.98 88.264 377.095 87.2023C376.21 86.1405 375.768 84.6869 375.768 82.8415C375.768 80.541 376.615 78.6955 378.309 77.3051C380.028 75.9147 382.227 75.131 384.907 74.9541V71.8826H387.334V74.9541C389.988 75.1563 392.086 75.9274 393.628 77.2672C395.17 78.6071 396.03 80.4651 396.207 82.8415H389.268C389.116 81.4763 388.471 80.5915 387.334 80.1871V86.0647C389.432 86.6461 391.05 87.1644 392.187 87.6194C393.325 88.0744 394.336 88.8328 395.221 89.8946C396.131 90.9311 396.586 92.3594 396.586 94.1796ZM382.632 82.5381C382.632 83.1701 382.821 83.701 383.2 84.1308C383.605 84.5605 384.174 84.9397 384.907 85.2684V79.9975C384.199 80.1239 383.643 80.4019 383.238 80.8317C382.834 81.2362 382.632 81.805 382.632 82.5381ZM387.334 97.0994C388.092 96.973 388.686 96.6697 389.116 96.1893C389.571 95.709 389.798 95.1149 389.798 94.4071C389.798 93.7498 389.584 93.2189 389.154 92.8145C388.749 92.3847 388.143 92.0181 387.334 91.7148V97.0994ZM401.372 52.9949V39.3726H425.104V101.915H409.854V52.9949H401.372ZM435.468 90.7775V78.9544L462.542 40.2294H478.906V78.0977H485.931V90.7775H478.906V101.915H464.255V90.7775H435.468ZM465.283 56.3362L450.89 78.0977H465.283V56.3362ZM508.871 83.5809C509.728 88.0931 512.355 90.3492 516.753 90.3492C519.78 90.3492 521.922 89.0069 523.179 86.3225C524.435 83.638 525.064 79.2686 525.064 73.2142C523.807 74.9848 522.094 76.3556 519.923 77.3266C517.753 78.2976 515.325 78.7831 512.641 78.7831C508.985 78.7831 505.73 78.0405 502.874 76.5555C500.018 75.0134 497.762 72.7573 496.106 69.7872C494.506 66.76 493.707 63.1046 493.707 58.8208C493.707 54.5942 494.563 50.9102 496.277 47.7688C498.047 44.6273 500.532 42.1999 503.731 40.4864C506.986 38.7729 510.813 37.9161 515.211 37.9161C523.664 37.9161 529.576 40.5435 532.946 45.7982C536.316 51.053 538.001 58.7923 538.001 69.0161C538.001 76.4413 537.315 82.5813 535.944 87.4362C534.631 92.234 532.375 95.8895 529.176 98.4026C526.035 100.916 521.722 102.172 516.239 102.172C511.898 102.172 508.186 101.316 505.101 99.6021C502.074 97.8886 499.732 95.6325 498.076 92.8337C496.477 90.035 495.563 86.9507 495.334 83.5809H508.871ZM515.982 67.217C518.381 67.217 520.294 66.503 521.722 65.0751C523.15 63.5901 523.864 61.591 523.864 59.0778C523.864 56.3362 523.122 54.2229 521.637 52.7379C520.152 51.2529 518.153 50.5104 515.639 50.5104C513.126 50.5104 511.127 51.2814 509.642 52.8236C508.214 54.3086 507.5 56.3648 507.5 58.9922C507.5 61.4482 508.214 63.4473 509.642 64.9894C511.127 66.4744 513.24 67.217 515.982 67.217ZM551.29 95.9239L547.081 106.807H542.948L545.147 95.9239H551.29ZM561.533 93.8004C561.912 95.7975 563.075 96.7961 565.021 96.7961C566.361 96.7961 567.309 96.202 567.865 95.0138C568.421 93.8257 568.699 91.8917 568.699 89.212C568.143 89.9957 567.385 90.6025 566.424 91.0322C565.464 91.462 564.389 91.6769 563.201 91.6769C561.583 91.6769 560.142 91.3482 558.878 90.6909C557.614 90.0084 556.616 89.0098 555.882 87.6952C555.175 86.3554 554.821 84.7375 554.821 82.8415C554.821 80.9707 555.2 79.3402 555.958 77.9498C556.742 76.5594 557.842 75.485 559.257 74.7266C560.698 73.9682 562.392 73.589 564.339 73.589C568.08 73.589 570.697 74.7518 572.188 77.0776C573.68 79.4034 574.425 82.8288 574.425 87.354C574.425 90.6404 574.122 93.358 573.515 95.5068C572.934 97.6303 571.935 99.2482 570.52 100.361C569.129 101.473 567.221 102.029 564.794 102.029C562.872 102.029 561.229 101.65 559.864 100.891C558.524 100.133 557.488 99.1345 556.755 97.8958C556.047 96.657 555.642 95.2919 555.541 93.8004H561.533ZM564.68 86.5576C565.742 86.5576 566.589 86.2416 567.221 85.6096C567.853 84.9524 568.169 84.0676 568.169 82.9552C568.169 81.7418 567.84 80.8064 567.183 80.1491C566.525 79.4919 565.641 79.1632 564.528 79.1632C563.416 79.1632 562.531 79.5045 561.874 80.1871C561.242 80.8443 560.926 81.7544 560.926 82.9173C560.926 84.0044 561.242 84.8892 561.874 85.5717C562.531 86.229 563.467 86.5576 564.68 86.5576ZM577.885 87.6952C577.885 83.3471 578.719 79.9216 580.388 77.4189C582.082 74.9162 584.799 73.6648 588.541 73.6648C592.282 73.6648 594.987 74.9162 596.655 77.4189C598.349 79.9216 599.196 83.3471 599.196 87.6952C599.196 92.094 598.349 95.5447 596.655 98.0474C594.987 100.55 592.282 101.802 588.541 101.802C584.799 101.802 582.082 100.55 580.388 98.0474C578.719 95.5447 577.885 92.094 577.885 87.6952ZM592.826 87.6952C592.826 85.142 592.547 83.1827 591.991 81.8176C591.435 80.4272 590.285 79.732 588.541 79.732C586.796 79.732 585.646 80.4272 585.09 81.8176C584.534 83.1827 584.256 85.142 584.256 87.6952C584.256 89.4143 584.357 90.8426 584.559 91.9802C584.761 93.0925 585.166 94.0026 585.772 94.7105C586.404 95.393 587.327 95.7343 588.541 95.7343C589.754 95.7343 590.664 95.393 591.271 94.7105C591.903 94.0026 592.32 93.0925 592.522 91.9802C592.724 90.8426 592.826 89.4143 592.826 87.6952Z" fill="white"/>
<path d="M435.067 21.0626C435.067 19.9854 435.267 19.0396 435.668 18.2254C436.081 17.4112 436.639 16.7849 437.34 16.3465C438.041 15.9081 438.824 15.6889 439.689 15.6889C440.428 15.6889 441.073 15.8392 441.624 16.1398C442.188 16.4405 442.62 16.835 442.92 17.3236V15.8392H446.133V26.3236H442.92V24.8393C442.607 25.3278 442.169 25.7224 441.605 26.023C441.054 26.3236 440.409 26.4739 439.67 26.4739C438.818 26.4739 438.041 26.2547 437.34 25.8163C436.639 25.3654 436.081 24.7328 435.668 23.9186C435.267 23.0919 435.067 22.1399 435.067 21.0626ZM442.92 21.0814C442.92 20.2797 442.695 19.6472 442.244 19.1837C441.806 18.7202 441.267 18.4885 440.628 18.4885C439.989 18.4885 439.444 18.7202 438.993 19.1837C438.555 19.6346 438.336 20.2609 438.336 21.0626C438.336 21.8643 438.555 22.5031 438.993 22.9791C439.444 23.4426 439.989 23.6743 440.628 23.6743C441.267 23.6743 441.806 23.4426 442.244 22.9791C442.695 22.5157 442.92 21.8831 442.92 21.0814ZM451.671 17.3236C451.984 16.835 452.416 16.4405 452.967 16.1398C453.518 15.8392 454.163 15.6889 454.903 15.6889C455.767 15.6889 456.55 15.9081 457.251 16.3465C457.953 16.7849 458.504 17.4112 458.905 18.2254C459.318 19.0396 459.525 19.9854 459.525 21.0626C459.525 22.1399 459.318 23.0919 458.905 23.9186C458.504 24.7328 457.953 25.3654 457.251 25.8163C456.55 26.2547 455.767 26.4739 454.903 26.4739C454.176 26.4739 453.531 26.3236 452.967 26.023C452.416 25.7224 451.984 25.334 451.671 24.858V31.3215H448.458V15.8392H451.671V17.3236ZM456.255 21.0626C456.255 20.2609 456.03 19.6346 455.579 19.1837C455.141 18.7202 454.596 18.4885 453.944 18.4885C453.305 18.4885 452.761 18.7202 452.31 19.1837C451.871 19.6472 451.652 20.2797 451.652 21.0814C451.652 21.8831 451.871 22.5157 452.31 22.9791C452.761 23.4426 453.305 23.6743 453.944 23.6743C454.583 23.6743 455.128 23.4426 455.579 22.9791C456.03 22.5031 456.255 21.8643 456.255 21.0626ZM471.093 20.9123C471.093 21.2129 471.075 21.5261 471.037 21.8518H463.766C463.816 22.5031 464.022 23.0042 464.386 23.3549C464.761 23.6931 465.219 23.8622 465.757 23.8622C466.559 23.8622 467.116 23.524 467.43 22.8476H470.849C470.674 23.5365 470.354 24.1566 469.891 24.7077C469.44 25.2589 468.87 25.691 468.181 26.0042C467.492 26.3173 466.722 26.4739 465.87 26.4739C464.843 26.4739 463.928 26.2547 463.127 25.8163C462.325 25.3779 461.699 24.7516 461.248 23.9374C460.797 23.1232 460.571 22.1712 460.571 21.0814C460.571 19.9916 460.791 19.0396 461.229 18.2254C461.68 17.4112 462.306 16.7849 463.108 16.3465C463.91 15.9081 464.83 15.6889 465.87 15.6889C466.885 15.6889 467.787 15.9018 468.576 16.3277C469.365 16.7536 469.979 17.3611 470.417 18.1503C470.868 18.9394 471.093 19.8601 471.093 20.9123ZM467.805 20.0668C467.805 19.5156 467.617 19.0772 467.242 18.7515C466.866 18.4259 466.396 18.263 465.832 18.263C465.294 18.263 464.837 18.4196 464.461 18.7328C464.098 19.0459 463.872 19.4906 463.784 20.0668H467.805ZM479.177 15.7265C480.404 15.7265 481.381 16.1273 482.108 16.929C482.847 17.7181 483.216 18.8079 483.216 20.1983V26.3236H480.022V20.6305C480.022 19.929 479.841 19.3841 479.477 18.9958C479.114 18.6075 478.626 18.4133 478.012 18.4133C477.398 18.4133 476.91 18.6075 476.546 18.9958C476.183 19.3841 476.001 19.929 476.001 20.6305V26.3236H472.788V15.8392H476.001V17.2296C476.327 16.7661 476.765 16.4029 477.317 16.1398C477.868 15.8643 478.488 15.7265 479.177 15.7265ZM484.81 21.0626C484.81 19.9854 485.011 19.0396 485.412 18.2254C485.825 17.4112 486.382 16.7849 487.084 16.3465C487.785 15.9081 488.568 15.6889 489.432 15.6889C490.171 15.6889 490.817 15.8392 491.368 16.1398C491.931 16.4405 492.364 16.835 492.664 17.3236V15.8392H495.877V26.3236H492.664V24.8393C492.351 25.3278 491.913 25.7224 491.349 26.023C490.798 26.3236 490.153 26.4739 489.414 26.4739C488.562 26.4739 487.785 26.2547 487.084 25.8163C486.382 25.3654 485.825 24.7328 485.412 23.9186C485.011 23.0919 484.81 22.1399 484.81 21.0626ZM492.664 21.0814C492.664 20.2797 492.439 19.6472 491.988 19.1837C491.549 18.7202 491.011 18.4885 490.372 18.4885C489.733 18.4885 489.188 18.7202 488.737 19.1837C488.299 19.6346 488.08 20.2609 488.08 21.0626C488.08 21.8643 488.299 22.5031 488.737 22.9791C489.188 23.4426 489.733 23.6743 490.372 23.6743C491.011 23.6743 491.549 23.4426 491.988 22.9791C492.439 22.5157 492.664 21.8831 492.664 21.0814ZM502.467 26.4739C501.552 26.4739 500.738 26.3173 500.024 26.0042C499.31 25.691 498.746 25.2651 498.333 24.7265C497.92 24.1754 497.688 23.5616 497.638 22.8852H500.813C500.851 23.2484 501.02 23.5428 501.321 23.7683C501.621 23.9937 501.991 24.1065 502.429 24.1065C502.83 24.1065 503.137 24.0313 503.35 23.881C503.575 23.7182 503.688 23.5115 503.688 23.261C503.688 22.9603 503.531 22.7411 503.218 22.6033C502.905 22.453 502.398 22.2902 501.696 22.1148C500.945 21.9395 500.319 21.7578 499.817 21.5699C499.316 21.3695 498.884 21.0626 498.521 20.6493C498.158 20.2234 497.976 19.6534 497.976 18.9394C497.976 18.3382 498.139 17.7933 498.465 17.3048C498.803 16.8037 499.291 16.4092 499.93 16.121C500.582 15.8329 501.352 15.6889 502.241 15.6889C503.557 15.6889 504.59 16.0146 505.342 16.6659C506.106 17.3173 506.544 18.1816 506.657 19.2589H503.688C503.638 18.8956 503.475 18.6075 503.2 18.3945C502.936 18.1816 502.586 18.0751 502.147 18.0751C501.772 18.0751 501.483 18.1503 501.283 18.3006C501.083 18.4384 500.982 18.6325 500.982 18.8831C500.982 19.1837 501.139 19.4092 501.452 19.5595C501.778 19.7098 502.279 19.8601 502.955 20.0104C503.732 20.2108 504.364 20.4113 504.853 20.6117C505.342 20.7996 505.767 21.1127 506.131 21.5511C506.506 21.977 506.701 22.5532 506.713 23.2798C506.713 23.8935 506.538 24.4447 506.187 24.9332C505.849 25.4092 505.354 25.785 504.703 26.0606C504.064 26.3361 503.319 26.4739 502.467 26.4739Z" fill="white"/>
<path d="M444.242 120.469C444.555 119.98 444.987 119.586 445.538 119.285C446.09 118.984 446.735 118.834 447.474 118.834C448.338 118.834 449.121 119.053 449.822 119.492C450.524 119.93 451.075 120.556 451.476 121.371C451.889 122.185 452.096 123.131 452.096 124.208C452.096 125.285 451.889 126.237 451.476 127.064C451.075 127.878 450.524 128.51 449.822 128.961C449.121 129.4 448.338 129.619 447.474 129.619C446.747 129.619 446.102 129.469 445.538 129.168C444.987 128.867 444.555 128.479 444.242 128.003V134.467H441.029V118.984H444.242V120.469ZM448.826 124.208C448.826 123.406 448.601 122.78 448.15 122.329C447.712 121.865 447.167 121.634 446.515 121.634C445.877 121.634 445.332 121.865 444.881 122.329C444.442 122.792 444.223 123.425 444.223 124.227C444.223 125.028 444.442 125.661 444.881 126.124C445.332 126.588 445.877 126.819 446.515 126.819C447.154 126.819 447.699 126.588 448.15 126.124C448.601 125.648 448.826 125.009 448.826 124.208ZM460.94 111.619L455.905 132.982H452.804L457.84 111.619H460.94ZM475.673 118.872C476.976 118.872 478.009 119.266 478.773 120.055C479.55 120.844 479.938 121.941 479.938 123.343V129.469H476.744V123.776C476.744 123.099 476.563 122.579 476.199 122.216C475.849 121.84 475.36 121.652 474.734 121.652C474.107 121.652 473.613 121.84 473.249 122.216C472.899 122.579 472.723 123.099 472.723 123.776V129.469H469.529V123.776C469.529 123.099 469.348 122.579 468.984 122.216C468.634 121.84 468.145 121.652 467.519 121.652C466.892 121.652 466.398 121.84 466.034 122.216C465.684 122.579 465.508 123.099 465.508 123.776V129.469H462.295V118.984H465.508V120.3C465.834 119.861 466.26 119.517 466.786 119.266C467.312 119.003 467.907 118.872 468.571 118.872C469.36 118.872 470.062 119.041 470.675 119.379C471.302 119.717 471.79 120.199 472.141 120.826C472.504 120.249 472.999 119.78 473.625 119.417C474.252 119.053 474.934 118.872 475.673 118.872ZM492.069 124.057C492.069 124.358 492.05 124.671 492.012 124.997H484.741C484.791 125.648 484.998 126.149 485.361 126.5C485.737 126.838 486.194 127.007 486.732 127.007C487.534 127.007 488.092 126.669 488.405 125.993H491.824C491.649 126.682 491.33 127.302 490.866 127.853C490.415 128.404 489.845 128.836 489.156 129.149C488.467 129.462 487.697 129.619 486.845 129.619C485.818 129.619 484.904 129.4 484.102 128.961C483.3 128.523 482.674 127.897 482.223 127.083C481.772 126.268 481.547 125.316 481.547 124.227C481.547 123.137 481.766 122.185 482.204 121.371C482.655 120.556 483.281 119.93 484.083 119.492C484.885 119.053 485.806 118.834 486.845 118.834C487.86 118.834 488.762 119.047 489.551 119.473C490.34 119.899 490.954 120.506 491.392 121.295C491.843 122.085 492.069 123.005 492.069 124.057ZM488.78 123.212C488.78 122.661 488.593 122.222 488.217 121.897C487.841 121.571 487.371 121.408 486.808 121.408C486.269 121.408 485.812 121.565 485.436 121.878C485.073 122.191 484.847 122.636 484.76 123.212H488.78ZM486.808 116.654L483.895 118.195V115.978L486.808 114.494L489.72 115.978V118.195L486.808 116.654ZM498.029 129.619C497.114 129.619 496.3 129.462 495.586 129.149C494.872 128.836 494.308 128.41 493.895 127.872C493.482 127.321 493.25 126.707 493.2 126.03H496.375C496.413 126.394 496.582 126.688 496.883 126.913C497.183 127.139 497.553 127.252 497.991 127.252C498.392 127.252 498.699 127.176 498.912 127.026C499.137 126.863 499.25 126.657 499.25 126.406C499.25 126.105 499.093 125.886 498.78 125.748C498.467 125.598 497.96 125.435 497.258 125.26C496.507 125.085 495.881 124.903 495.379 124.715C494.878 124.515 494.446 124.208 494.083 123.794C493.72 123.369 493.538 122.799 493.538 122.085C493.538 121.483 493.701 120.938 494.027 120.45C494.365 119.949 494.853 119.554 495.492 119.266C496.144 118.978 496.914 118.834 497.803 118.834C499.119 118.834 500.152 119.16 500.904 119.811C501.668 120.462 502.106 121.327 502.219 122.404H499.25C499.2 122.041 499.037 121.753 498.762 121.54C498.498 121.327 498.148 121.22 497.709 121.22C497.334 121.22 497.045 121.295 496.845 121.446C496.645 121.584 496.544 121.778 496.544 122.028C496.544 122.329 496.701 122.554 497.014 122.705C497.34 122.855 497.841 123.005 498.517 123.156C499.294 123.356 499.926 123.556 500.415 123.757C500.904 123.945 501.329 124.258 501.693 124.696C502.068 125.122 502.263 125.698 502.275 126.425C502.275 127.039 502.1 127.59 501.749 128.078C501.411 128.554 500.916 128.93 500.265 129.206C499.626 129.481 498.881 129.619 498.029 129.619Z" fill="white"/>
</svg>
