<svg width="550" height="236" viewBox="0 0 550 236" fill="none" xmlns="http://www.w3.org/2000/svg">
<rect y="11.3126" width="307.439" height="117.12" rx="21.9599" fill="#74A9D7"/>
<rect x="240.894" width="308.77" height="139.745" rx="21.9599" fill="#0B64B9"/>
<circle cx="246.217" cy="72.5342" r="33.2726" fill="#84F4F8"/>
<path d="M3.90222 150.586V147.2H9.80079V162.745H6.01037V150.586H3.90222ZM12.2917 154.76C12.2917 152.318 12.7602 150.394 13.6972 148.989C14.6483 147.583 16.1744 146.881 18.2755 146.881C20.3765 146.881 21.8956 147.583 22.8325 148.989C23.7837 150.394 24.2592 152.318 24.2592 154.76C24.2592 157.23 23.7837 159.168 22.8325 160.573C21.8956 161.978 20.3765 162.681 18.2755 162.681C16.1744 162.681 14.6483 161.978 13.6972 160.573C12.7602 159.168 12.2917 157.23 12.2917 154.76ZM20.6818 154.76C20.6818 153.326 20.5256 152.226 20.2133 151.459C19.901 150.678 19.255 150.288 18.2755 150.288C17.2959 150.288 16.65 150.678 16.3377 151.459C16.0254 152.226 15.8692 153.326 15.8692 154.76C15.8692 155.725 15.926 156.527 16.0396 157.166C16.1531 157.79 16.3803 158.302 16.721 158.699C17.0759 159.082 17.5941 159.274 18.2755 159.274C18.9569 159.274 19.468 159.082 19.8087 158.699C20.1636 158.302 20.3978 157.79 20.5114 157.166C20.625 156.527 20.6818 155.725 20.6818 154.76ZM26.1831 154.76C26.1831 152.318 26.6515 150.394 27.5885 148.989C28.5397 147.583 30.0658 146.881 32.1668 146.881C34.2679 146.881 35.7869 147.583 36.7238 148.989C37.675 150.394 38.1506 152.318 38.1506 154.76C38.1506 157.23 37.675 159.168 36.7238 160.573C35.7869 161.978 34.2679 162.681 32.1668 162.681C30.0658 162.681 28.5397 161.978 27.5885 160.573C26.6515 159.168 26.1831 157.23 26.1831 154.76ZM34.5731 154.76C34.5731 153.326 34.4169 152.226 34.1046 151.459C33.7923 150.678 33.1464 150.288 32.1668 150.288C31.1873 150.288 30.5413 150.678 30.229 151.459C29.9167 152.226 29.7605 153.326 29.7605 154.76C29.7605 155.725 29.8173 156.527 29.9309 157.166C30.0445 157.79 30.2716 158.302 30.6123 158.699C30.9672 159.082 31.4854 159.274 32.1668 159.274C32.8482 159.274 33.3593 159.082 33.7 158.699C34.0549 158.302 34.2892 157.79 34.4027 157.166C34.5163 156.527 34.5731 155.725 34.5731 154.76ZM39.7763 151.118C39.7763 149.968 40.1028 149.081 40.7558 148.456C41.423 147.832 42.2819 147.519 43.3324 147.519C44.383 147.519 45.2347 147.832 45.8878 148.456C46.5408 149.081 46.8673 149.968 46.8673 151.118C46.8673 152.268 46.5408 153.155 45.8878 153.78C45.2347 154.405 44.383 154.717 43.3324 154.717C42.2819 154.717 41.423 154.405 40.7558 153.78C40.1028 153.155 39.7763 152.268 39.7763 151.118ZM54.2352 147.754L46.0368 162.745H42.5232L50.7216 147.754H54.2352ZM43.3111 149.649C42.6297 149.649 42.289 150.139 42.289 151.118C42.289 152.084 42.6297 152.566 43.3111 152.566C43.6377 152.566 43.8932 152.446 44.0777 152.204C44.2623 151.963 44.3546 151.601 44.3546 151.118C44.3546 150.139 44.0068 149.649 43.3111 149.649ZM49.9124 159.38C49.9124 158.231 50.2389 157.343 50.892 156.719C51.545 156.094 52.3968 155.782 53.4473 155.782C54.4978 155.782 55.3496 156.094 56.0027 156.719C56.6557 157.343 56.9822 158.231 56.9822 159.38C56.9822 160.53 56.6557 161.418 56.0027 162.042C55.3496 162.667 54.4978 162.979 53.4473 162.979C52.3968 162.979 51.545 162.667 50.892 162.042C50.2389 161.418 49.9124 160.53 49.9124 159.38ZM53.426 157.911C53.0995 157.911 52.844 158.032 52.6594 158.273C52.4891 158.514 52.4039 158.884 52.4039 159.38C52.4039 160.346 52.7446 160.828 53.426 160.828C53.7525 160.828 54.0081 160.708 54.1926 160.466C54.3772 160.225 54.4694 159.863 54.4694 159.38C54.4694 158.898 54.3772 158.536 54.1926 158.294C54.0081 158.039 53.7525 157.911 53.426 157.911ZM69.4401 153.886H67.481V162.745H63.8397V153.886H62.5194V150.863H63.8397V150.522C63.8397 149.06 64.2585 147.952 65.0961 147.2C65.9336 146.433 67.1616 146.05 68.78 146.05C69.0497 146.05 69.2485 146.057 69.3762 146.071V149.159C68.6806 149.117 68.1909 149.216 67.9069 149.457C67.623 149.699 67.481 150.132 67.481 150.756V150.863H69.4401V153.886ZM72.9825 149.628C72.3437 149.628 71.8184 149.443 71.4067 149.074C71.0092 148.691 70.8105 148.222 70.8105 147.669C70.8105 147.101 71.0092 146.632 71.4067 146.263C71.8184 145.88 72.3437 145.688 72.9825 145.688C73.6071 145.688 74.1182 145.88 74.5157 146.263C74.9274 146.632 75.1332 147.101 75.1332 147.669C75.1332 148.222 74.9274 148.691 74.5157 149.074C74.1182 149.443 73.6071 149.628 72.9825 149.628ZM74.7925 150.863V162.745H71.1512V150.863H74.7925ZM81.0727 152.545C81.4134 151.991 81.9032 151.544 82.5421 151.203C83.1809 150.863 83.912 150.692 84.7354 150.692C85.7149 150.692 86.6022 150.941 87.3972 151.438C88.1922 151.934 88.8168 152.644 89.2711 153.567C89.7396 154.49 89.9738 155.562 89.9738 156.783C89.9738 158.003 89.7396 159.082 89.2711 160.019C88.8168 160.942 88.1922 161.659 87.3972 162.17C86.6022 162.667 85.7149 162.915 84.7354 162.915C83.8978 162.915 83.1667 162.752 82.5421 162.426C81.9174 162.085 81.4276 161.638 81.0727 161.084V162.745H77.4314V146.987H81.0727V152.545ZM86.2686 156.783C86.2686 155.874 86.0131 155.164 85.502 154.653C85.0051 154.128 84.3876 153.865 83.6494 153.865C82.9254 153.865 82.3078 154.128 81.7967 154.653C81.2999 155.178 81.0514 155.895 81.0514 156.804C81.0514 157.712 81.2999 158.429 81.7967 158.955C82.3078 159.48 82.9254 159.742 83.6494 159.742C84.3734 159.742 84.9909 159.48 85.502 158.955C86.0131 158.415 86.2686 157.691 86.2686 156.783ZM95.5255 152.843C95.9514 152.19 96.4838 151.679 97.1226 151.31C97.7615 150.927 98.4713 150.735 99.2521 150.735V154.589H98.2512C97.3427 154.589 96.6612 154.788 96.207 155.185C95.7527 155.569 95.5255 156.25 95.5255 157.23V162.745H91.8842V150.863H95.5255V152.843ZM100.269 156.783C100.269 155.562 100.496 154.49 100.95 153.567C101.418 152.644 102.05 151.934 102.845 151.438C103.64 150.941 104.527 150.692 105.507 150.692C106.345 150.692 107.076 150.863 107.7 151.203C108.339 151.544 108.829 151.991 109.17 152.545V150.863H112.811V162.745H109.17V161.063C108.815 161.616 108.318 162.064 107.679 162.404C107.054 162.745 106.323 162.915 105.486 162.915C104.52 162.915 103.64 162.667 102.845 162.17C102.05 161.659 101.418 160.942 100.95 160.019C100.496 159.082 100.269 158.003 100.269 156.783ZM109.17 156.804C109.17 155.895 108.914 155.178 108.403 154.653C107.906 154.128 107.296 153.865 106.572 153.865C105.848 153.865 105.23 154.128 104.719 154.653C104.222 155.164 103.974 155.874 103.974 156.783C103.974 157.691 104.222 158.415 104.719 158.955C105.23 159.48 105.848 159.742 106.572 159.742C107.296 159.742 107.906 159.48 108.403 158.955C108.914 158.429 109.17 157.712 109.17 156.804ZM125.367 162.915C124.203 162.915 123.152 162.667 122.215 162.17C121.292 161.673 120.561 160.963 120.022 160.041C119.497 159.118 119.234 158.039 119.234 156.804C119.234 155.583 119.504 154.511 120.043 153.588C120.583 152.651 121.321 151.934 122.258 151.438C123.195 150.941 124.245 150.692 125.409 150.692C126.573 150.692 127.624 150.941 128.561 151.438C129.498 151.934 130.236 152.651 130.776 153.588C131.315 154.511 131.585 155.583 131.585 156.804C131.585 158.025 131.308 159.104 130.754 160.041C130.215 160.963 129.469 161.673 128.518 162.17C127.581 162.667 126.531 162.915 125.367 162.915ZM125.367 159.764C126.062 159.764 126.652 159.508 127.134 158.997C127.631 158.486 127.879 157.755 127.879 156.804C127.879 155.853 127.638 155.122 127.155 154.611C126.687 154.099 126.105 153.844 125.409 153.844C124.7 153.844 124.11 154.099 123.642 154.611C123.173 155.107 122.939 155.838 122.939 156.804C122.939 157.755 123.166 158.486 123.621 158.997C124.089 159.508 124.671 159.764 125.367 159.764ZM128.178 147.818L123.046 149.968V147.456L128.178 144.985V147.818ZM137.158 152.545C137.513 151.991 138.003 151.544 138.627 151.203C139.252 150.863 139.983 150.692 140.821 150.692C141.8 150.692 142.687 150.941 143.482 151.438C144.277 151.934 144.902 152.644 145.356 153.567C145.825 154.49 146.059 155.562 146.059 156.783C146.059 158.003 145.825 159.082 145.356 160.019C144.902 160.942 144.277 161.659 143.482 162.17C142.687 162.667 141.8 162.915 140.821 162.915C139.997 162.915 139.266 162.745 138.627 162.404C138.003 162.064 137.513 161.623 137.158 161.084V168.409H133.517V150.863H137.158V152.545ZM142.354 156.783C142.354 155.874 142.098 155.164 141.587 154.653C141.09 154.128 140.473 153.865 139.735 153.865C139.011 153.865 138.393 154.128 137.882 154.653C137.385 155.178 137.137 155.895 137.137 156.804C137.137 157.712 137.385 158.429 137.882 158.955C138.393 159.48 139.011 159.742 139.735 159.742C140.459 159.742 141.076 159.48 141.587 158.955C142.098 158.415 142.354 157.691 142.354 156.783ZM154.592 159.657V162.745H152.739C151.419 162.745 150.39 162.426 149.652 161.787C148.913 161.134 148.544 160.076 148.544 158.614V153.886H147.096V150.863H148.544V147.967H152.186V150.863H154.571V153.886H152.186V158.656C152.186 159.011 152.271 159.267 152.441 159.423C152.612 159.579 152.895 159.657 153.293 159.657H154.592ZM158.452 149.628C157.813 149.628 157.287 149.443 156.876 149.074C156.478 148.691 156.28 148.222 156.28 147.669C156.28 147.101 156.478 146.632 156.876 146.263C157.287 145.88 157.813 145.688 158.452 145.688C159.076 145.688 159.587 145.88 159.985 146.263C160.396 146.632 160.602 147.101 160.602 147.669C160.602 148.222 160.396 148.691 159.985 149.074C159.587 149.443 159.076 149.628 158.452 149.628ZM160.262 150.863V162.745H156.62V150.863H160.262ZM162.176 156.804C162.176 155.569 162.425 154.49 162.922 153.567C163.433 152.644 164.135 151.934 165.03 151.438C165.938 150.941 166.975 150.692 168.139 150.692C169.629 150.692 170.872 151.083 171.865 151.864C172.873 152.644 173.533 153.745 173.846 155.164H169.97C169.644 154.256 169.012 153.801 168.075 153.801C167.408 153.801 166.875 154.064 166.478 154.589C166.08 155.1 165.882 155.838 165.882 156.804C165.882 157.769 166.08 158.514 166.478 159.04C166.875 159.551 167.408 159.806 168.075 159.806C169.012 159.806 169.644 159.352 169.97 158.444H173.846C173.533 159.835 172.873 160.928 171.865 161.723C170.857 162.518 169.615 162.915 168.139 162.915C166.975 162.915 165.938 162.667 165.03 162.17C164.135 161.673 163.433 160.963 162.922 160.041C162.425 159.118 162.176 158.039 162.176 156.804ZM175.07 156.783C175.07 155.562 175.297 154.49 175.751 153.567C176.219 152.644 176.851 151.934 177.646 151.438C178.441 150.941 179.328 150.692 180.308 150.692C181.146 150.692 181.877 150.863 182.501 151.203C183.14 151.544 183.63 151.991 183.971 152.545V150.863H187.612V162.745H183.971V161.063C183.616 161.616 183.119 162.064 182.48 162.404C181.855 162.745 181.124 162.915 180.287 162.915C179.321 162.915 178.441 162.667 177.646 162.17C176.851 161.659 176.219 160.942 175.751 160.019C175.297 159.082 175.07 158.003 175.07 156.783ZM183.971 156.804C183.971 155.895 183.715 155.178 183.204 154.653C182.707 154.128 182.097 153.865 181.373 153.865C180.649 153.865 180.031 154.128 179.52 154.653C179.023 155.164 178.775 155.874 178.775 156.783C178.775 157.691 179.023 158.415 179.52 158.955C180.031 159.48 180.649 159.742 181.373 159.742C182.097 159.742 182.707 159.48 183.204 158.955C183.715 158.429 183.971 157.712 183.971 156.804ZM4.15776 191.828C4.64043 191.444 4.86047 191.267 4.81788 191.295C6.20912 190.145 7.30224 189.201 8.09723 188.463C8.90642 187.725 9.58785 186.951 10.1415 186.142C10.6952 185.333 10.972 184.545 10.972 183.778C10.972 183.196 10.8371 182.742 10.5674 182.415C10.2977 182.089 9.89307 181.926 9.35361 181.926C8.81415 181.926 8.38826 182.132 8.07594 182.543C7.77782 182.941 7.62875 183.509 7.62875 184.247H4.11517C4.14356 183.04 4.39909 182.032 4.88177 181.223C5.37864 180.414 6.02457 179.818 6.81956 179.434C7.62875 179.051 8.52312 178.859 9.50267 178.859C11.192 178.859 12.4626 179.292 13.3144 180.158C14.1804 181.024 14.6133 182.153 14.6133 183.544C14.6133 185.063 14.0952 186.476 13.0588 187.782C12.0225 189.074 10.7023 190.337 9.09807 191.572H14.8476V194.532H4.15776V191.828ZM24.9668 184.545C25.3217 183.991 25.8115 183.544 26.4361 183.203C27.0607 182.863 27.7919 182.692 28.6294 182.692C29.609 182.692 30.4962 182.941 31.2912 183.438C32.0862 183.934 32.7109 184.644 33.1652 185.567C33.6336 186.49 33.8679 187.562 33.8679 188.783C33.8679 190.003 33.6336 191.082 33.1652 192.019C32.7109 192.942 32.0862 193.659 31.2912 194.17C30.4962 194.667 29.609 194.915 28.6294 194.915C27.806 194.915 27.0749 194.745 26.4361 194.404C25.8115 194.064 25.3217 193.623 24.9668 193.084V200.409H21.3254V182.863H24.9668V184.545ZM30.1626 188.783C30.1626 187.874 29.9071 187.164 29.396 186.653C28.8992 186.128 28.2816 185.865 27.5434 185.865C26.8194 185.865 26.2019 186.128 25.6908 186.653C25.1939 187.178 24.9455 187.895 24.9455 188.804C24.9455 189.712 25.1939 190.429 25.6908 190.955C26.2019 191.48 26.8194 191.742 27.5434 191.742C28.2674 191.742 28.885 191.48 29.396 190.955C29.9071 190.415 30.1626 189.691 30.1626 188.783ZM41.187 194.915C40.0229 194.915 38.9724 194.667 38.0354 194.17C37.1127 193.673 36.3816 192.963 35.8421 192.041C35.3168 191.118 35.0542 190.039 35.0542 188.804C35.0542 187.583 35.3239 186.511 35.8634 185.588C36.4029 184.651 37.1411 183.934 38.078 183.438C39.015 182.941 40.0655 182.692 41.2296 182.692C42.3937 182.692 43.4442 182.941 44.3812 183.438C45.3181 183.934 46.0564 184.651 46.5958 185.588C47.1353 186.511 47.405 187.583 47.405 188.804C47.405 190.025 47.1282 191.104 46.5745 192.041C46.0351 192.963 45.2898 193.673 44.3386 194.17C43.4016 194.667 42.3511 194.915 41.187 194.915ZM41.187 191.764C41.8826 191.764 42.4718 191.508 42.9545 190.997C43.4513 190.486 43.6998 189.755 43.6998 188.804C43.6998 187.853 43.4584 187.122 42.9758 186.611C42.5073 186.099 41.9252 185.844 41.2296 185.844C40.5198 185.844 39.9306 186.099 39.4622 186.611C38.9937 187.107 38.7594 187.838 38.7594 188.804C38.7594 189.755 38.9866 190.486 39.4409 190.997C39.9094 191.508 40.4914 191.764 41.187 191.764ZM56.5769 182.735C57.9682 182.735 59.0755 183.189 59.8989 184.098C60.7365 184.992 61.1552 186.227 61.1552 187.803V194.745H57.5352V188.293C57.5352 187.498 57.3293 186.88 56.9176 186.44C56.506 186 55.9523 185.78 55.2567 185.78C54.5611 185.78 54.0074 186 53.5957 186.44C53.184 186.88 52.9782 187.498 52.9782 188.293V194.745H49.3368V182.863H52.9782V184.438C53.3473 183.913 53.8441 183.502 54.4688 183.203C55.0934 182.891 55.7961 182.735 56.5769 182.735ZM70.3082 191.657V194.745H68.4556C67.1353 194.745 66.1061 194.426 65.3679 193.787C64.6297 193.134 64.2606 192.076 64.2606 190.614V185.886H62.8126V182.863H64.2606V179.967H67.9019V182.863H70.2869V185.886H67.9019V190.656C67.9019 191.011 67.9871 191.267 68.1575 191.423C68.3278 191.579 68.6118 191.657 69.0092 191.657H70.3082ZM77.7453 194.915C76.5812 194.915 75.5307 194.667 74.5937 194.17C73.671 193.673 72.9399 192.963 72.4004 192.041C71.8751 191.118 71.6125 190.039 71.6125 188.804C71.6125 187.583 71.8822 186.511 72.4217 185.588C72.9611 184.651 73.6994 183.934 74.6363 183.438C75.5733 182.941 76.6238 182.692 77.7879 182.692C78.952 182.692 80.0025 182.941 80.9395 183.438C81.8764 183.934 82.6146 184.651 83.1541 185.588C83.6936 186.511 83.9633 187.583 83.9633 188.804C83.9633 190.025 83.6865 191.104 83.1328 192.041C82.5933 192.963 81.848 193.673 80.8969 194.17C79.9599 194.667 78.9094 194.915 77.7453 194.915ZM77.7453 191.764C78.4409 191.764 79.0301 191.508 79.5127 190.997C80.0096 190.486 80.2581 189.755 80.2581 188.804C80.2581 187.853 80.0167 187.122 79.534 186.611C79.0656 186.099 78.4835 185.844 77.7879 185.844C77.0781 185.844 76.4889 186.099 76.0205 186.611C75.552 187.107 75.3177 187.838 75.3177 188.804C75.3177 189.755 75.5449 190.486 75.9992 190.997C76.4676 191.508 77.0497 191.764 77.7453 191.764ZM90.7289 194.915C89.6926 194.915 88.7699 194.738 87.9607 194.383C87.1515 194.028 86.5126 193.545 86.0442 192.935C85.5757 192.31 85.3131 191.615 85.2563 190.848H88.855C88.8976 191.26 89.0893 191.593 89.43 191.849C89.7707 192.104 90.1895 192.232 90.6864 192.232C91.1406 192.232 91.4885 192.147 91.7298 191.977C91.9853 191.792 92.1131 191.558 92.1131 191.274C92.1131 190.933 91.9356 190.685 91.5807 190.529C91.2258 190.358 90.6509 190.174 89.8559 189.975C89.0041 189.776 88.2943 189.57 87.7264 189.357C87.1586 189.13 86.6688 188.783 86.2571 188.314C85.8454 187.831 85.6396 187.185 85.6396 186.376C85.6396 185.695 85.8241 185.077 86.1932 184.524C86.5765 183.956 87.1302 183.509 87.8542 183.182C88.5924 182.856 89.4655 182.692 90.4734 182.692C91.964 182.692 93.1352 183.061 93.987 183.8C94.853 184.538 95.3498 185.517 95.4776 186.738H92.1131C92.0563 186.327 91.8718 186 91.5594 185.759C91.2613 185.517 90.8638 185.397 90.3669 185.397C89.9411 185.397 89.6145 185.482 89.3874 185.652C89.1603 185.808 89.0467 186.028 89.0467 186.312C89.0467 186.653 89.2241 186.909 89.579 187.079C89.9482 187.249 90.516 187.42 91.2826 187.59C92.1628 187.817 92.8797 188.044 93.4333 188.271C93.987 188.484 94.4697 188.839 94.8814 189.336C95.3073 189.819 95.5273 190.472 95.5415 191.295C95.5415 191.991 95.3428 192.616 94.9453 193.169C94.562 193.709 94.0012 194.135 93.263 194.447C92.539 194.759 91.6943 194.915 90.7289 194.915ZM101.558 188.783C101.558 187.562 101.785 186.49 102.239 185.567C102.708 184.644 103.339 183.934 104.134 183.438C104.929 182.941 105.817 182.692 106.796 182.692C107.577 182.692 108.287 182.856 108.926 183.182C109.579 183.509 110.09 183.949 110.459 184.502V178.987H114.1V194.745H110.459V193.041C110.118 193.609 109.628 194.064 108.99 194.404C108.365 194.745 107.634 194.915 106.796 194.915C105.817 194.915 104.929 194.667 104.134 194.17C103.339 193.659 102.708 192.942 102.239 192.019C101.785 191.082 101.558 190.003 101.558 188.783ZM110.459 188.804C110.459 187.895 110.203 187.178 109.692 186.653C109.195 186.128 108.585 185.865 107.861 185.865C107.137 185.865 106.519 186.128 106.008 186.653C105.512 187.164 105.263 187.874 105.263 188.783C105.263 189.691 105.512 190.415 106.008 190.955C106.519 191.48 107.137 191.742 107.861 191.742C108.585 191.742 109.195 191.48 109.692 190.955C110.203 190.429 110.459 189.712 110.459 188.804ZM127.936 188.612C127.936 188.953 127.914 189.308 127.872 189.677H119.631C119.687 190.415 119.922 190.983 120.333 191.38C120.759 191.764 121.277 191.955 121.888 191.955C122.796 191.955 123.428 191.572 123.783 190.806H127.659C127.46 191.586 127.098 192.289 126.573 192.914C126.062 193.538 125.416 194.028 124.635 194.383C123.854 194.738 122.981 194.915 122.016 194.915C120.852 194.915 119.815 194.667 118.907 194.17C117.998 193.673 117.288 192.963 116.777 192.041C116.266 191.118 116.011 190.039 116.011 188.804C116.011 187.569 116.259 186.49 116.756 185.567C117.267 184.644 117.977 183.934 118.885 183.438C119.794 182.941 120.837 182.692 122.016 182.692C123.166 182.692 124.188 182.934 125.082 183.416C125.976 183.899 126.672 184.588 127.169 185.482C127.68 186.376 127.936 187.42 127.936 188.612ZM124.209 187.654C124.209 187.029 123.996 186.532 123.57 186.163C123.144 185.794 122.612 185.61 121.973 185.61C121.363 185.61 120.844 185.787 120.419 186.142C120.007 186.497 119.751 187.001 119.652 187.654H124.209ZM154.94 179.796L151.043 194.745H146.635L144.25 184.907L141.78 194.745H137.372L133.581 179.796H137.478L139.629 190.678L142.291 179.796H146.294L148.849 190.678L151.021 179.796H154.94ZM158.597 181.628C157.958 181.628 157.433 181.443 157.021 181.074C156.624 180.691 156.425 180.222 156.425 179.669C156.425 179.101 156.624 178.632 157.021 178.263C157.433 177.88 157.958 177.688 158.597 177.688C159.222 177.688 159.733 177.88 160.13 178.263C160.542 178.632 160.748 179.101 160.748 179.669C160.748 180.222 160.542 180.691 160.13 181.074C159.733 181.443 159.222 181.628 158.597 181.628ZM160.407 182.863V194.745H156.766V182.863H160.407ZM172.203 185.759V188.783H162.833V185.759H172.203ZM185.13 179.796V182.714H179.04V185.865H183.597V188.697H179.04V194.745H175.398V179.796H185.13ZM188.875 181.628C188.236 181.628 187.711 181.443 187.299 181.074C186.902 180.691 186.703 180.222 186.703 179.669C186.703 179.101 186.902 178.632 187.299 178.263C187.711 177.88 188.236 177.688 188.875 177.688C189.5 177.688 190.011 177.88 190.408 178.263C190.82 178.632 191.026 179.101 191.026 179.669C191.026 180.222 190.82 180.691 190.408 181.074C190.011 181.443 189.5 181.628 188.875 181.628ZM190.685 182.863V194.745H187.044V182.863H190.685ZM205.162 183.395C205.048 182.87 204.85 182.479 204.566 182.224C204.282 181.954 203.877 181.819 203.352 181.819C202.543 181.819 201.961 182.174 201.606 182.884C201.251 183.58 201.066 184.687 201.052 186.206C201.364 185.709 201.812 185.319 202.394 185.035C202.99 184.751 203.643 184.609 204.353 184.609C205.744 184.609 206.858 185.049 207.696 185.929C208.548 186.809 208.974 188.037 208.974 189.613C208.974 190.649 208.761 191.558 208.335 192.339C207.923 193.12 207.313 193.73 206.504 194.17C205.709 194.61 204.764 194.83 203.671 194.83C201.485 194.83 199.966 194.149 199.114 192.786C198.263 191.409 197.837 189.436 197.837 186.866C197.837 184.169 198.284 182.167 199.178 180.861C200.087 179.541 201.535 178.881 203.522 178.881C204.587 178.881 205.481 179.094 206.205 179.519C206.944 179.931 207.497 180.478 207.866 181.159C208.25 181.841 208.477 182.586 208.548 183.395H205.162ZM203.48 187.484C202.869 187.484 202.358 187.668 201.947 188.037C201.549 188.392 201.35 188.903 201.35 189.57C201.35 190.252 201.535 190.784 201.904 191.168C202.287 191.551 202.827 191.742 203.522 191.742C204.147 191.742 204.637 191.558 204.992 191.189C205.361 190.806 205.545 190.287 205.545 189.634C205.545 188.967 205.368 188.442 205.013 188.059C204.658 187.675 204.147 187.484 203.48 187.484ZM215.184 188.804C215.184 187.569 215.432 186.49 215.929 185.567C216.44 184.644 217.143 183.934 218.037 183.438C218.946 182.941 219.982 182.692 221.146 182.692C222.637 182.692 223.879 183.083 224.873 183.864C225.881 184.644 226.541 185.745 226.853 187.164H222.978C222.651 186.256 222.019 185.801 221.082 185.801C220.415 185.801 219.883 186.064 219.485 186.589C219.088 187.1 218.889 187.838 218.889 188.804C218.889 189.769 219.088 190.514 219.485 191.04C219.883 191.551 220.415 191.806 221.082 191.806C222.019 191.806 222.651 191.352 222.978 190.444H226.853C226.541 191.835 225.881 192.928 224.873 193.723C223.865 194.518 222.623 194.915 221.146 194.915C219.982 194.915 218.946 194.667 218.037 194.17C217.143 193.673 216.44 192.963 215.929 192.041C215.432 191.118 215.184 190.039 215.184 188.804ZM234.21 194.915C233.046 194.915 231.995 194.667 231.058 194.17C230.135 193.673 229.404 192.963 228.865 192.041C228.34 191.118 228.077 190.039 228.077 188.804C228.077 187.583 228.347 186.511 228.886 185.588C229.426 184.651 230.164 183.934 231.101 183.438C232.038 182.941 233.088 182.692 234.252 182.692C235.416 182.692 236.467 182.941 237.404 183.438C238.341 183.934 239.079 184.651 239.619 185.588C240.158 186.511 240.428 187.583 240.428 188.804C240.428 190.025 240.151 191.104 239.597 192.041C239.058 192.963 238.313 193.673 237.361 194.17C236.424 194.667 235.374 194.915 234.21 194.915ZM234.21 191.764C234.905 191.764 235.495 191.508 235.977 190.997C236.474 190.486 236.723 189.755 236.723 188.804C236.723 187.853 236.481 187.122 235.999 186.611C235.53 186.099 234.948 185.844 234.252 185.844C233.543 185.844 232.953 186.099 232.485 186.611C232.016 187.107 231.782 187.838 231.782 188.804C231.782 189.755 232.009 190.486 232.464 190.997C232.932 191.508 233.514 191.764 234.21 191.764ZM257.521 182.735C258.998 182.735 260.169 183.182 261.035 184.076C261.915 184.971 262.355 186.213 262.355 187.803V194.745H258.735V188.293C258.735 187.526 258.529 186.937 258.118 186.525C257.72 186.099 257.166 185.886 256.457 185.886C255.747 185.886 255.186 186.099 254.774 186.525C254.377 186.937 254.178 187.526 254.178 188.293V194.745H250.558V188.293C250.558 187.526 250.352 186.937 249.94 186.525C249.543 186.099 248.989 185.886 248.279 185.886C247.57 185.886 247.009 186.099 246.597 186.525C246.2 186.937 246.001 187.526 246.001 188.293V194.745H242.36V182.863H246.001V184.353C246.37 183.856 246.853 183.466 247.449 183.182C248.045 182.884 248.72 182.735 249.472 182.735C250.366 182.735 251.161 182.927 251.857 183.31C252.567 183.693 253.12 184.24 253.518 184.95C253.93 184.297 254.49 183.764 255.2 183.352C255.91 182.941 256.684 182.735 257.521 182.735ZM276.037 191.657V194.745H274.184C272.864 194.745 271.835 194.426 271.097 193.787C270.358 193.134 269.989 192.076 269.989 190.614V185.886H268.541V182.863H269.989V179.967H273.631V182.863H276.016V185.886H273.631V190.656C273.631 191.011 273.716 191.267 273.886 191.423C274.057 191.579 274.34 191.657 274.738 191.657H276.037ZM289.266 188.612C289.266 188.953 289.245 189.308 289.202 189.677H280.961C281.018 190.415 281.252 190.983 281.664 191.38C282.09 191.764 282.608 191.955 283.219 191.955C284.127 191.955 284.759 191.572 285.114 190.806H288.989C288.791 191.586 288.429 192.289 287.903 192.914C287.392 193.538 286.746 194.028 285.966 194.383C285.185 194.738 284.312 194.915 283.346 194.915C282.182 194.915 281.146 194.667 280.237 194.17C279.329 193.673 278.619 192.963 278.108 192.041C277.597 191.118 277.341 190.039 277.341 188.804C277.341 187.569 277.59 186.49 278.087 185.567C278.598 184.644 279.307 183.934 280.216 183.438C281.125 182.941 282.168 182.692 283.346 182.692C284.496 182.692 285.518 182.934 286.413 183.416C287.307 183.899 288.003 184.588 288.5 185.482C289.011 186.376 289.266 187.42 289.266 188.612ZM285.54 187.654C285.54 187.029 285.327 186.532 284.901 186.163C284.475 185.794 283.943 185.61 283.304 185.61C282.693 185.61 282.175 185.787 281.749 186.142C281.338 186.497 281.082 187.001 280.983 187.654H285.54ZM290.463 188.804C290.463 187.569 290.712 186.49 291.208 185.567C291.72 184.644 292.422 183.934 293.317 183.438C294.225 182.941 295.262 182.692 296.426 182.692C297.916 182.692 299.158 183.083 300.152 183.864C301.16 184.644 301.82 185.745 302.133 187.164H298.257C297.93 186.256 297.299 185.801 296.362 185.801C295.695 185.801 295.162 186.064 294.765 186.589C294.367 187.1 294.168 187.838 294.168 188.804C294.168 189.769 294.367 190.514 294.765 191.04C295.162 191.551 295.695 191.806 296.362 191.806C297.299 191.806 297.93 191.352 298.257 190.444H302.133C301.82 191.835 301.16 192.928 300.152 193.723C299.144 194.518 297.902 194.915 296.426 194.915C295.262 194.915 294.225 194.667 293.317 194.17C292.422 193.673 291.72 192.963 291.208 192.041C290.712 191.118 290.463 190.039 290.463 188.804ZM311.32 182.735C312.712 182.735 313.819 183.189 314.642 184.098C315.48 184.992 315.899 186.227 315.899 187.803V194.745H312.279V188.293C312.279 187.498 312.073 186.88 311.661 186.44C311.249 186 310.696 185.78 310 185.78C309.305 185.78 308.751 186 308.339 186.44C307.928 186.88 307.722 187.498 307.722 188.293V194.745H304.08V182.863H307.722V184.438C308.091 183.913 308.588 183.502 309.212 183.203C309.837 182.891 310.54 182.735 311.32 182.735ZM323.838 194.915C322.674 194.915 321.623 194.667 320.686 194.17C319.764 193.673 319.032 192.963 318.493 192.041C317.968 191.118 317.705 190.039 317.705 188.804C317.705 187.583 317.975 186.511 318.514 185.588C319.054 184.651 319.792 183.934 320.729 183.438C321.666 182.941 322.716 182.692 323.88 182.692C325.045 182.692 326.095 182.941 327.032 183.438C327.969 183.934 328.707 184.651 329.247 185.588C329.786 186.511 330.056 187.583 330.056 188.804C330.056 190.025 329.779 191.104 329.225 192.041C328.686 192.963 327.941 193.673 326.989 194.17C326.053 194.667 325.002 194.915 323.838 194.915ZM323.838 191.764C324.534 191.764 325.123 191.508 325.605 190.997C326.102 190.486 326.351 189.755 326.351 188.804C326.351 187.853 326.109 187.122 325.627 186.611C325.158 186.099 324.576 185.844 323.88 185.844C323.171 185.844 322.582 186.099 322.113 186.611C321.645 187.107 321.41 187.838 321.41 188.804C321.41 189.755 321.637 190.486 322.092 190.997C322.56 191.508 323.142 191.764 323.838 191.764ZM335.629 178.987V194.745H331.988V178.987H335.629ZM343.677 194.915C342.513 194.915 341.462 194.667 340.525 194.17C339.602 193.673 338.871 192.963 338.332 192.041C337.807 191.118 337.544 190.039 337.544 188.804C337.544 187.583 337.814 186.511 338.353 185.588C338.893 184.651 339.631 183.934 340.568 183.438C341.505 182.941 342.555 182.692 343.719 182.692C344.883 182.692 345.934 182.941 346.871 183.438C347.808 183.934 348.546 184.651 349.086 185.588C349.625 186.511 349.895 187.583 349.895 188.804C349.895 190.025 349.618 191.104 349.064 192.041C348.525 192.963 347.779 193.673 346.828 194.17C345.891 194.667 344.841 194.915 343.677 194.915ZM343.677 191.764C344.372 191.764 344.961 191.508 345.444 190.997C345.941 190.486 346.189 189.755 346.189 188.804C346.189 187.853 345.948 187.122 345.465 186.611C344.997 186.099 344.415 185.844 343.719 185.844C343.009 185.844 342.42 186.099 341.952 186.611C341.483 187.107 341.249 187.838 341.249 188.804C341.249 189.755 341.476 190.486 341.931 190.997C342.399 191.508 342.981 191.764 343.677 191.764ZM356.341 182.692C357.179 182.692 357.91 182.863 358.534 183.203C359.173 183.544 359.663 183.991 360.004 184.545V182.863H363.645V194.724C363.645 195.817 363.425 196.803 362.985 197.684C362.559 198.578 361.899 199.288 361.004 199.813C360.124 200.338 359.024 200.601 357.704 200.601C355.943 200.601 354.517 200.182 353.424 199.345C352.33 198.521 351.706 197.4 351.55 195.98H355.148C355.262 196.434 355.532 196.789 355.958 197.045C356.384 197.315 356.909 197.449 357.533 197.449C358.286 197.449 358.882 197.229 359.322 196.789C359.776 196.363 360.004 195.675 360.004 194.724V193.041C359.649 193.595 359.159 194.049 358.534 194.404C357.91 194.745 357.179 194.915 356.341 194.915C355.361 194.915 354.474 194.667 353.679 194.17C352.884 193.659 352.252 192.942 351.784 192.019C351.33 191.082 351.103 190.003 351.103 188.783C351.103 187.562 351.33 186.49 351.784 185.567C352.252 184.644 352.884 183.934 353.679 183.438C354.474 182.941 355.361 182.692 356.341 182.692ZM360.004 188.804C360.004 187.895 359.748 187.178 359.237 186.653C358.74 186.128 358.13 185.865 357.406 185.865C356.682 185.865 356.064 186.128 355.553 186.653C355.056 187.164 354.808 187.874 354.808 188.783C354.808 189.691 355.056 190.415 355.553 190.955C356.064 191.48 356.682 191.742 357.406 191.742C358.13 191.742 358.74 191.48 359.237 190.955C359.748 190.429 360.004 189.712 360.004 188.804ZM368.111 181.628C367.472 181.628 366.947 181.443 366.535 181.074C366.137 180.691 365.939 180.222 365.939 179.669C365.939 179.101 366.137 178.632 366.535 178.263C366.947 177.88 367.472 177.688 368.111 177.688C368.735 177.688 369.246 177.88 369.644 178.263C370.056 178.632 370.261 179.101 370.261 179.669C370.261 180.222 370.056 180.691 369.644 181.074C369.246 181.443 368.735 181.628 368.111 181.628ZM369.921 182.863V194.745H366.279V182.863H369.921ZM371.836 188.783C371.836 187.562 372.063 186.49 372.517 185.567C372.985 184.644 373.617 183.934 374.412 183.438C375.207 182.941 376.094 182.692 377.074 182.692C377.912 182.692 378.643 182.863 379.267 183.203C379.906 183.544 380.396 183.991 380.737 184.545V182.863H384.378V194.745H380.737V193.063C380.382 193.616 379.885 194.064 379.246 194.404C378.621 194.745 377.89 194.915 377.053 194.915C376.087 194.915 375.207 194.667 374.412 194.17C373.617 193.659 372.985 192.942 372.517 192.019C372.063 191.082 371.836 190.003 371.836 188.783ZM380.737 188.804C380.737 187.895 380.481 187.178 379.97 186.653C379.473 186.128 378.863 185.865 378.139 185.865C377.415 185.865 376.797 186.128 376.286 186.653C375.789 187.164 375.541 187.874 375.541 188.783C375.541 189.691 375.789 190.415 376.286 190.955C376.797 191.48 377.415 191.742 378.139 191.742C378.863 191.742 379.473 191.48 379.97 190.955C380.481 190.429 380.737 189.712 380.737 188.804ZM408.454 179.796V194.745H404.813V185.78L401.469 194.745H398.531L395.166 185.759V194.745H391.525V179.796H395.826L400.021 190.145L404.174 179.796H408.454ZM416.481 194.894C415.388 194.894 414.409 194.717 413.543 194.362C412.677 194.007 411.981 193.482 411.456 192.786C410.945 192.09 410.675 191.253 410.647 190.273H414.522C414.579 190.827 414.771 191.253 415.097 191.551C415.424 191.835 415.85 191.977 416.375 191.977C416.914 191.977 417.34 191.856 417.653 191.615C417.965 191.359 418.121 191.011 418.121 190.571C418.121 190.202 417.993 189.897 417.738 189.656C417.496 189.414 417.191 189.216 416.822 189.059C416.467 188.903 415.956 188.726 415.289 188.527C414.324 188.229 413.536 187.931 412.925 187.633C412.315 187.335 411.789 186.894 411.349 186.312C410.909 185.73 410.689 184.971 410.689 184.034C410.689 182.643 411.193 181.557 412.201 180.776C413.209 179.981 414.522 179.583 416.141 179.583C417.787 179.583 419.115 179.981 420.123 180.776C421.131 181.557 421.67 182.65 421.741 184.055H417.802C417.773 183.572 417.596 183.196 417.269 182.927C416.943 182.643 416.524 182.501 416.013 182.501C415.573 182.501 415.218 182.621 414.948 182.863C414.678 183.09 414.544 183.423 414.544 183.864C414.544 184.346 414.771 184.722 415.225 184.992C415.679 185.262 416.389 185.553 417.354 185.865C418.32 186.192 419.101 186.504 419.697 186.802C420.307 187.1 420.833 187.533 421.273 188.101C421.713 188.669 421.933 189.4 421.933 190.294C421.933 191.146 421.713 191.92 421.273 192.616C420.847 193.311 420.222 193.865 419.399 194.277C418.575 194.688 417.603 194.894 416.481 194.894ZM437.121 179.796V194.745H433.479V188.591H427.815V194.745H424.174V179.796H427.815V185.652H433.479V179.796H437.121ZM15.4012 211.796V214.714H11.4405V226.745H7.79911V214.714H3.83834V211.796H15.4012ZM31.2618 211.796L25.9595 226.745H21.4025L16.1001 211.796H19.9757L23.681 223.082L27.4075 211.796H31.2618ZM36.5723 220.804C36.5723 219.569 36.8207 218.49 37.3176 217.567C37.8286 216.644 38.5314 215.934 39.4257 215.438C40.3343 214.941 41.3706 214.692 42.5347 214.692C44.0253 214.692 45.2675 215.083 46.2613 215.864C47.2692 216.644 47.9293 217.745 48.2416 219.164H44.3661C44.0395 218.256 43.4078 217.801 42.4708 217.801C41.8036 217.801 41.2713 218.064 40.8738 218.589C40.4763 219.1 40.2775 219.838 40.2775 220.804C40.2775 221.769 40.4763 222.514 40.8738 223.04C41.2713 223.551 41.8036 223.806 42.4708 223.806C43.4078 223.806 44.0395 223.352 44.3661 222.444H48.2416C47.9293 223.835 47.2692 224.928 46.2613 225.723C45.2533 226.518 44.0111 226.915 42.5347 226.915C41.3706 226.915 40.3343 226.667 39.4257 226.17C38.5314 225.673 37.8286 224.963 37.3176 224.041C36.8207 223.118 36.5723 222.039 36.5723 220.804ZM55.5982 226.915C54.4341 226.915 53.3836 226.667 52.4466 226.17C51.5239 225.673 50.7928 224.963 50.2533 224.041C49.728 223.118 49.4654 222.039 49.4654 220.804C49.4654 219.583 49.7351 218.511 50.2746 217.588C50.8141 216.651 51.5523 215.934 52.4892 215.438C53.4262 214.941 54.4767 214.692 55.6408 214.692C56.8049 214.692 57.8554 214.941 58.7924 215.438C59.7294 215.934 60.4676 216.651 61.007 217.588C61.5465 218.511 61.8162 219.583 61.8162 220.804C61.8162 222.025 61.5394 223.104 60.9857 224.041C60.4463 224.963 59.701 225.673 58.7498 226.17C57.8128 226.667 56.7623 226.915 55.5982 226.915ZM55.5982 223.764C56.2938 223.764 56.883 223.508 57.3657 222.997C57.8625 222.486 58.111 221.755 58.111 220.804C58.111 219.853 57.8696 219.122 57.387 218.611C56.9185 218.099 56.3364 217.844 55.6408 217.844C54.931 217.844 54.3418 218.099 53.8734 218.611C53.4049 219.107 53.1707 219.838 53.1707 220.804C53.1707 221.755 53.3978 222.486 53.8521 222.997C54.3206 223.508 54.9026 223.764 55.5982 223.764ZM78.9097 214.735C80.3861 214.735 81.5573 215.182 82.4233 216.076C83.3034 216.971 83.7435 218.213 83.7435 219.803V226.745H80.1235V220.293C80.1235 219.526 79.9176 218.937 79.5059 218.525C79.1084 218.099 78.5548 217.886 77.845 217.886C77.1351 217.886 76.5744 218.099 76.1627 218.525C75.7652 218.937 75.5664 219.526 75.5664 220.293V226.745H71.9464V220.293C71.9464 219.526 71.7405 218.937 71.3288 218.525C70.9314 218.099 70.3777 217.886 69.6679 217.886C68.9581 217.886 68.3973 218.099 67.9856 218.525C67.5881 218.937 67.3894 219.526 67.3894 220.293V226.745H63.748V214.863H67.3894V216.353C67.7585 215.856 68.2411 215.466 68.8374 215.182C69.4336 214.884 70.108 214.735 70.8604 214.735C71.7547 214.735 72.5497 214.927 73.2454 215.31C73.9552 215.693 74.5088 216.24 74.9063 216.95C75.318 216.297 75.8788 215.764 76.5886 215.352C77.2984 214.941 78.0721 214.735 78.9097 214.735ZM101.386 214.373H94.7423V217.312C95.0262 216.999 95.4237 216.744 95.9348 216.545C96.4459 216.346 96.9995 216.247 97.5958 216.247C98.6605 216.247 99.5407 216.488 100.236 216.971C100.946 217.454 101.464 218.078 101.791 218.845C102.117 219.611 102.281 220.442 102.281 221.336C102.281 222.997 101.812 224.317 100.875 225.297C99.9381 226.262 98.6179 226.745 96.9143 226.745C95.7786 226.745 94.792 226.553 93.9544 226.17C93.1168 225.773 92.4709 225.226 92.0166 224.53C91.5623 223.835 91.3139 223.033 91.2713 222.124H94.8275C94.9127 222.564 95.1185 222.933 95.445 223.231C95.7715 223.515 96.2187 223.657 96.7866 223.657C97.4538 223.657 97.9507 223.444 98.2772 223.018C98.6037 222.593 98.767 222.025 98.767 221.315C98.767 220.619 98.5966 220.087 98.2559 219.718C97.9152 219.349 97.4183 219.164 96.7653 219.164C96.2826 219.164 95.8851 219.285 95.5728 219.526C95.2605 219.753 95.0546 220.059 94.9552 220.442H91.4417V211.179H101.386V214.373ZM104.376 223.977V221.038L111.105 211.413H115.172V220.825H116.918V223.977H115.172V226.745H111.531V223.977H104.376ZM111.786 215.416L108.209 220.825H111.786V215.416ZM122.852 220.804C122.852 219.569 123.101 218.49 123.598 217.567C124.109 216.644 124.811 215.934 125.706 215.438C126.614 214.941 127.651 214.692 128.815 214.692C130.305 214.692 131.548 215.083 132.541 215.864C133.549 216.644 134.209 217.745 134.522 219.164H130.646C130.32 218.256 129.688 217.801 128.751 217.801C128.084 217.801 127.551 218.064 127.154 218.589C126.756 219.1 126.558 219.838 126.558 220.804C126.558 221.769 126.756 222.514 127.154 223.04C127.551 223.551 128.084 223.806 128.751 223.806C129.688 223.806 130.32 223.352 130.646 222.444H134.522C134.209 223.835 133.549 224.928 132.541 225.723C131.533 226.518 130.291 226.915 128.815 226.915C127.651 226.915 126.614 226.667 125.706 226.17C124.811 225.673 124.109 224.963 123.598 224.041C123.101 223.118 122.852 222.039 122.852 220.804ZM135.745 220.783C135.745 219.562 135.973 218.49 136.427 217.567C136.895 216.644 137.527 215.934 138.322 215.438C139.117 214.941 140.004 214.692 140.984 214.692C141.822 214.692 142.553 214.863 143.177 215.203C143.816 215.544 144.306 215.991 144.647 216.545V214.863H148.288V226.745H144.647V225.063C144.292 225.616 143.795 226.064 143.156 226.404C142.531 226.745 141.8 226.915 140.963 226.915C139.997 226.915 139.117 226.667 138.322 226.17C137.527 225.659 136.895 224.942 136.427 224.019C135.973 223.082 135.745 222.003 135.745 220.783ZM144.647 220.804C144.647 219.895 144.391 219.178 143.88 218.653C143.383 218.128 142.773 217.865 142.049 217.865C141.325 217.865 140.707 218.128 140.196 218.653C139.699 219.164 139.451 219.874 139.451 220.783C139.451 221.691 139.699 222.415 140.196 222.955C140.707 223.48 141.325 223.742 142.049 223.742C142.773 223.742 143.383 223.48 143.88 222.955C144.391 222.429 144.647 221.712 144.647 220.804ZM158.162 214.735C159.554 214.735 160.661 215.189 161.484 216.098C162.322 216.992 162.741 218.227 162.741 219.803V226.745H159.121V220.293C159.121 219.498 158.915 218.88 158.503 218.44C158.091 218 157.538 217.78 156.842 217.78C156.147 217.78 155.593 218 155.181 218.44C154.769 218.88 154.564 219.498 154.564 220.293V226.745H150.922V214.863H154.564V216.438C154.933 215.913 155.43 215.502 156.054 215.203C156.679 214.891 157.382 214.735 158.162 214.735ZM164.547 220.783C164.547 219.562 164.774 218.49 165.229 217.567C165.697 216.644 166.329 215.934 167.124 215.438C167.919 214.941 168.806 214.692 169.786 214.692C170.623 214.692 171.354 214.863 171.979 215.203C172.618 215.544 173.107 215.991 173.448 216.545V214.863H177.09V226.745H173.448V225.063C173.093 225.616 172.596 226.064 171.958 226.404C171.333 226.745 170.602 226.915 169.764 226.915C168.799 226.915 167.919 226.667 167.124 226.17C166.329 225.659 165.697 224.942 165.229 224.019C164.774 223.082 164.547 222.003 164.547 220.783ZM173.448 220.804C173.448 219.895 173.193 219.178 172.682 218.653C172.185 218.128 171.574 217.865 170.85 217.865C170.126 217.865 169.509 218.128 168.998 218.653C168.501 219.164 168.252 219.874 168.252 220.783C168.252 221.691 168.501 222.415 168.998 222.955C169.509 223.48 170.126 223.742 170.85 223.742C171.574 223.742 172.185 223.48 172.682 222.955C173.193 222.429 173.448 221.712 173.448 220.804ZM181.555 213.628C180.916 213.628 180.391 213.443 179.979 213.074C179.582 212.691 179.383 212.222 179.383 211.669C179.383 211.101 179.582 210.632 179.979 210.263C180.391 209.88 180.916 209.688 181.555 209.688C182.18 209.688 182.691 209.88 183.088 210.263C183.5 210.632 183.706 211.101 183.706 211.669C183.706 212.222 183.5 212.691 183.088 213.074C182.691 213.443 182.18 213.628 181.555 213.628ZM183.365 214.863V226.745H179.724V214.863H183.365ZM190.838 226.915C189.802 226.915 188.879 226.738 188.07 226.383C187.26 226.028 186.622 225.545 186.153 224.935C185.685 224.31 185.422 223.615 185.365 222.848H188.964C189.007 223.26 189.198 223.593 189.539 223.849C189.88 224.104 190.298 224.232 190.795 224.232C191.25 224.232 191.597 224.147 191.839 223.977C192.094 223.792 192.222 223.558 192.222 223.274C192.222 222.933 192.045 222.685 191.69 222.529C191.335 222.358 190.76 222.174 189.965 221.975C189.113 221.776 188.403 221.57 187.835 221.357C187.268 221.13 186.778 220.783 186.366 220.314C185.954 219.831 185.749 219.185 185.749 218.376C185.749 217.695 185.933 217.077 186.302 216.524C186.686 215.956 187.239 215.509 187.963 215.182C188.701 214.856 189.574 214.692 190.582 214.692C192.073 214.692 193.244 215.061 194.096 215.8C194.962 216.538 195.459 217.517 195.587 218.738H192.222C192.165 218.327 191.981 218 191.668 217.759C191.37 217.517 190.973 217.397 190.476 217.397C190.05 217.397 189.724 217.482 189.496 217.652C189.269 217.808 189.156 218.028 189.156 218.312C189.156 218.653 189.333 218.909 189.688 219.079C190.057 219.249 190.625 219.42 191.392 219.59C192.272 219.817 192.989 220.044 193.542 220.271C194.096 220.484 194.579 220.839 194.99 221.336C195.416 221.819 195.636 222.472 195.65 223.295C195.65 223.991 195.452 224.616 195.054 225.169C194.671 225.709 194.11 226.135 193.372 226.447C192.648 226.759 191.803 226.915 190.838 226.915ZM208.353 217.886H206.394V226.745H202.753V217.886H201.433V214.863H202.753V214.522C202.753 213.06 203.172 211.952 204.009 211.2C204.847 210.433 206.075 210.05 207.693 210.05C207.963 210.05 208.162 210.057 208.289 210.071V213.159C207.594 213.117 207.104 213.216 206.82 213.457C206.536 213.699 206.394 214.132 206.394 214.756V214.863H208.353V217.886ZM221.265 220.612C221.265 220.953 221.244 221.308 221.201 221.677H212.96C213.017 222.415 213.251 222.983 213.663 223.38C214.089 223.764 214.607 223.955 215.218 223.955C216.126 223.955 216.758 223.572 217.113 222.806H220.988C220.79 223.586 220.428 224.289 219.902 224.914C219.391 225.538 218.745 226.028 217.965 226.383C217.184 226.738 216.311 226.915 215.345 226.915C214.181 226.915 213.145 226.667 212.236 226.17C211.328 225.673 210.618 224.963 210.107 224.041C209.596 223.118 209.34 222.039 209.34 220.804C209.34 219.569 209.589 218.49 210.086 217.567C210.597 216.644 211.307 215.934 212.215 215.438C213.124 214.941 214.167 214.692 215.345 214.692C216.495 214.692 217.517 214.934 218.412 215.416C219.306 215.899 220.002 216.588 220.499 217.482C221.01 218.376 221.265 219.42 221.265 220.612ZM217.539 219.654C217.539 219.029 217.326 218.532 216.9 218.163C216.474 217.794 215.942 217.61 215.303 217.61C214.692 217.61 214.174 217.787 213.748 218.142C213.337 218.497 213.081 219.001 212.982 219.654H217.539ZM222.462 220.804C222.462 219.569 222.711 218.49 223.208 217.567C223.719 216.644 224.421 215.934 225.316 215.438C226.224 214.941 227.261 214.692 228.425 214.692C229.915 214.692 231.157 215.083 232.151 215.864C233.159 216.644 233.819 217.745 234.132 219.164H230.256C229.929 218.256 229.298 217.801 228.361 217.801C227.694 217.801 227.161 218.064 226.764 218.589C226.366 219.1 226.167 219.838 226.167 220.804C226.167 221.769 226.366 222.514 226.764 223.04C227.161 223.551 227.694 223.806 228.361 223.806C229.298 223.806 229.929 223.352 230.256 222.444H234.132C233.819 223.835 233.159 224.928 232.151 225.723C231.143 226.518 229.901 226.915 228.425 226.915C227.261 226.915 226.224 226.667 225.316 226.17C224.421 225.673 223.719 224.963 223.208 224.041C222.711 223.118 222.462 222.039 222.462 220.804ZM243.383 214.735C244.746 214.735 245.839 215.189 246.663 216.098C247.486 216.992 247.898 218.227 247.898 219.803V226.745H244.278V220.293C244.278 219.498 244.072 218.88 243.66 218.44C243.249 218 242.695 217.78 241.999 217.78C241.304 217.78 240.75 218 240.338 218.44C239.927 218.88 239.721 219.498 239.721 220.293V226.745H236.079V210.987H239.721V216.46C240.09 215.934 240.594 215.516 241.233 215.203C241.871 214.891 242.588 214.735 243.383 214.735ZM249.704 220.783C249.704 219.562 249.931 218.49 250.386 217.567C250.854 216.644 251.486 215.934 252.281 215.438C253.076 214.941 253.963 214.692 254.943 214.692C255.78 214.692 256.511 214.863 257.136 215.203C257.775 215.544 258.265 215.991 258.605 216.545V214.863H262.247V226.745H258.605V225.063C258.25 225.616 257.753 226.064 257.115 226.404C256.49 226.745 255.759 226.915 254.921 226.915C253.956 226.915 253.076 226.667 252.281 226.17C251.486 225.659 250.854 224.942 250.386 224.019C249.931 223.082 249.704 222.003 249.704 220.783ZM258.605 220.804C258.605 219.895 258.35 219.178 257.839 218.653C257.342 218.128 256.731 217.865 256.007 217.865C255.283 217.865 254.666 218.128 254.155 218.653C253.658 219.164 253.409 219.874 253.409 220.783C253.409 221.691 253.658 222.415 254.155 222.955C254.666 223.48 255.283 223.742 256.007 223.742C256.731 223.742 257.342 223.48 257.839 222.955C258.35 222.429 258.605 221.712 258.605 220.804ZM264.157 220.783C264.157 219.562 264.384 218.49 264.838 217.567C265.307 216.644 265.939 215.934 266.734 215.438C267.529 214.941 268.416 214.692 269.395 214.692C270.176 214.692 270.886 214.856 271.525 215.182C272.178 215.509 272.689 215.949 273.058 216.502V210.987H276.699V226.745H273.058V225.041C272.717 225.609 272.228 226.064 271.589 226.404C270.964 226.745 270.233 226.915 269.395 226.915C268.416 226.915 267.529 226.667 266.734 226.17C265.939 225.659 265.307 224.942 264.838 224.019C264.384 223.082 264.157 222.003 264.157 220.783ZM273.058 220.804C273.058 219.895 272.803 219.178 272.291 218.653C271.795 218.128 271.184 217.865 270.46 217.865C269.736 217.865 269.119 218.128 268.608 218.653C268.111 219.164 267.862 219.874 267.862 220.783C267.862 221.691 268.111 222.415 268.608 222.955C269.119 223.48 269.736 223.742 270.46 223.742C271.184 223.742 271.795 223.48 272.291 222.955C272.803 222.429 273.058 221.712 273.058 220.804ZM284.743 226.915C283.578 226.915 282.528 226.667 281.591 226.17C280.668 225.673 279.937 224.963 279.398 224.041C278.872 223.118 278.61 222.039 278.61 220.804C278.61 219.583 278.879 218.511 279.419 217.588C279.958 216.651 280.697 215.934 281.634 215.438C282.571 214.941 283.621 214.692 284.785 214.692C285.949 214.692 287 214.941 287.937 215.438C288.874 215.934 289.612 216.651 290.151 217.588C290.691 218.511 290.961 219.583 290.961 220.804C290.961 222.025 290.684 223.104 290.13 224.041C289.591 224.963 288.845 225.673 287.894 226.17C286.957 226.667 285.907 226.915 284.743 226.915ZM284.743 223.764C285.438 223.764 286.027 223.508 286.51 222.997C287.007 222.486 287.255 221.755 287.255 220.804C287.255 219.853 287.014 219.122 286.531 218.611C286.063 218.099 285.481 217.844 284.785 217.844C284.075 217.844 283.486 218.099 283.018 218.611C282.549 219.107 282.315 219.838 282.315 220.804C282.315 221.755 282.542 222.486 282.996 222.997C283.465 223.508 284.047 223.764 284.743 223.764ZM297.726 226.915C296.69 226.915 295.767 226.738 294.958 226.383C294.149 226.028 293.51 225.545 293.041 224.935C292.573 224.31 292.31 223.615 292.254 222.848H295.852C295.895 223.26 296.087 223.593 296.427 223.849C296.768 224.104 297.187 224.232 297.684 224.232C298.138 224.232 298.486 224.147 298.727 223.977C298.983 223.792 299.11 223.558 299.11 223.274C299.11 222.933 298.933 222.685 298.578 222.529C298.223 222.358 297.648 222.174 296.853 221.975C296.001 221.776 295.292 221.57 294.724 221.357C294.156 221.13 293.666 220.783 293.254 220.314C292.843 219.831 292.637 219.185 292.637 218.376C292.637 217.695 292.821 217.077 293.19 216.524C293.574 215.956 294.127 215.509 294.851 215.182C295.59 214.856 296.463 214.692 297.471 214.692C298.961 214.692 300.132 215.061 300.984 215.8C301.85 216.538 302.347 217.517 302.475 218.738H299.11C299.054 218.327 298.869 218 298.557 217.759C298.259 217.517 297.861 217.397 297.364 217.397C296.938 217.397 296.612 217.482 296.385 217.652C296.158 217.808 296.044 218.028 296.044 218.312C296.044 218.653 296.221 218.909 296.576 219.079C296.945 219.249 297.513 219.42 298.28 219.59C299.16 219.817 299.877 220.044 300.431 220.271C300.984 220.484 301.467 220.839 301.879 221.336C302.305 221.819 302.525 222.472 302.539 223.295C302.539 223.991 302.34 224.616 301.943 225.169C301.559 225.709 300.998 226.135 300.26 226.447C299.536 226.759 298.692 226.915 297.726 226.915ZM320.48 220.612C320.48 220.953 320.459 221.308 320.416 221.677H312.175C312.232 222.415 312.466 222.983 312.878 223.38C313.304 223.764 313.822 223.955 314.432 223.955C315.341 223.955 315.973 223.572 316.328 222.806H320.203C320.004 223.586 319.642 224.289 319.117 224.914C318.606 225.538 317.96 226.028 317.179 226.383C316.399 226.738 315.526 226.915 314.56 226.915C313.396 226.915 312.36 226.667 311.451 226.17C310.543 225.673 309.833 224.963 309.322 224.041C308.811 223.118 308.555 222.039 308.555 220.804C308.555 219.569 308.804 218.49 309.3 217.567C309.812 216.644 310.521 215.934 311.43 215.438C312.338 214.941 313.382 214.692 314.56 214.692C315.71 214.692 316.732 214.934 317.627 215.416C318.521 215.899 319.217 216.588 319.713 217.482C320.225 218.376 320.48 219.42 320.48 220.612ZM316.754 219.654C316.754 219.029 316.541 218.532 316.115 218.163C315.689 217.794 315.156 217.61 314.518 217.61C313.907 217.61 313.389 217.787 312.963 218.142C312.551 218.497 312.296 219.001 312.196 219.654H316.754ZM337.71 220.932H334.005V224.722H330.555V220.932H326.85V217.674H330.555V213.862H334.005V217.674H337.71V220.932ZM340.008 223.977V221.038L346.737 211.413H350.805V220.825H352.551V223.977H350.805V226.745H347.163V223.977H340.008ZM347.419 215.416L343.841 220.825H347.419V215.416ZM353.951 214.586V211.2H359.85V226.745H356.059V214.586H353.951ZM366.491 220.804C366.491 219.569 366.74 218.49 367.236 217.567C367.747 216.644 368.45 215.934 369.345 215.438C370.253 214.941 371.289 214.692 372.454 214.692C373.944 214.692 375.186 215.083 376.18 215.864C377.188 216.644 377.848 217.745 378.16 219.164H374.285C373.958 218.256 373.327 217.801 372.39 217.801C371.722 217.801 371.19 218.064 370.793 218.589C370.395 219.1 370.196 219.838 370.196 220.804C370.196 221.769 370.395 222.514 370.793 223.04C371.19 223.551 371.722 223.806 372.39 223.806C373.327 223.806 373.958 223.352 374.285 222.444H378.16C377.848 223.835 377.188 224.928 376.18 225.723C375.172 226.518 373.93 226.915 372.454 226.915C371.289 226.915 370.253 226.667 369.345 226.17C368.45 225.673 367.747 224.963 367.236 224.041C366.74 223.118 366.491 222.039 366.491 220.804ZM379.384 220.783C379.384 219.562 379.611 218.49 380.066 217.567C380.534 216.644 381.166 215.934 381.961 215.438C382.756 214.941 383.643 214.692 384.623 214.692C385.46 214.692 386.191 214.863 386.816 215.203C387.455 215.544 387.945 215.991 388.285 216.545V214.863H391.927V226.745H388.285V225.063C387.93 225.616 387.434 226.064 386.795 226.404C386.17 226.745 385.439 226.915 384.601 226.915C383.636 226.915 382.756 226.667 381.961 226.17C381.166 225.659 380.534 224.942 380.066 224.019C379.611 223.082 379.384 222.003 379.384 220.783ZM388.285 220.804C388.285 219.895 388.03 219.178 387.519 218.653C387.022 218.128 386.411 217.865 385.687 217.865C384.963 217.865 384.346 218.128 383.835 218.653C383.338 219.164 383.089 219.874 383.089 220.783C383.089 221.691 383.338 222.415 383.835 222.955C384.346 223.48 384.963 223.742 385.687 223.742C386.411 223.742 387.022 223.48 387.519 222.955C388.03 222.429 388.285 221.712 388.285 220.804ZM401.801 214.735C403.192 214.735 404.3 215.189 405.123 216.098C405.961 216.992 406.379 218.227 406.379 219.803V226.745H402.759V220.293C402.759 219.498 402.554 218.88 402.142 218.44C401.73 218 401.176 217.78 400.481 217.78C399.785 217.78 399.232 218 398.82 218.44C398.408 218.88 398.202 219.498 398.202 220.293V226.745H394.561V214.863H398.202V216.438C398.571 215.913 399.068 215.502 399.693 215.203C400.318 214.891 401.02 214.735 401.801 214.735ZM408.186 220.783C408.186 219.562 408.413 218.49 408.867 217.567C409.336 216.644 409.967 215.934 410.762 215.438C411.557 214.941 412.445 214.692 413.424 214.692C414.262 214.692 414.993 214.863 415.618 215.203C416.256 215.544 416.746 215.991 417.087 216.545V214.863H420.728V226.745H417.087V225.063C416.732 225.616 416.235 226.064 415.596 226.404C414.972 226.745 414.241 226.915 413.403 226.915C412.438 226.915 411.557 226.667 410.762 226.17C409.967 225.659 409.336 224.942 408.867 224.019C408.413 223.082 408.186 222.003 408.186 220.783ZM417.087 220.804C417.087 219.895 416.831 219.178 416.32 218.653C415.823 218.128 415.213 217.865 414.489 217.865C413.765 217.865 413.147 218.128 412.636 218.653C412.139 219.164 411.891 219.874 411.891 220.783C411.891 221.691 412.139 222.415 412.636 222.955C413.147 223.48 413.765 223.742 414.489 223.742C415.213 223.742 415.823 223.48 416.32 222.955C416.831 222.429 417.087 221.712 417.087 220.804ZM425.194 213.628C424.555 213.628 424.03 213.443 423.618 213.074C423.221 212.691 423.022 212.222 423.022 211.669C423.022 211.101 423.221 210.632 423.618 210.263C424.03 209.88 424.555 209.688 425.194 209.688C425.819 209.688 426.33 209.88 426.727 210.263C427.139 210.632 427.345 211.101 427.345 211.669C427.345 212.222 427.139 212.691 426.727 213.074C426.33 213.443 425.819 213.628 425.194 213.628ZM427.004 214.863V226.745H423.363V214.863H427.004ZM434.477 226.915C433.44 226.915 432.518 226.738 431.708 226.383C430.899 226.028 430.26 225.545 429.792 224.935C429.323 224.31 429.061 223.615 429.004 222.848H432.603C432.645 223.26 432.837 223.593 433.178 223.849C433.518 224.104 433.937 224.232 434.434 224.232C434.888 224.232 435.236 224.147 435.478 223.977C435.733 223.792 435.861 223.558 435.861 223.274C435.861 222.933 435.683 222.685 435.328 222.529C434.974 222.358 434.399 222.174 433.604 221.975C432.752 221.776 432.042 221.57 431.474 221.357C430.906 221.13 430.417 220.783 430.005 220.314C429.593 219.831 429.387 219.185 429.387 218.376C429.387 217.695 429.572 217.077 429.941 216.524C430.324 215.956 430.878 215.509 431.602 215.182C432.34 214.856 433.213 214.692 434.221 214.692C435.712 214.692 436.883 215.061 437.735 215.8C438.601 216.538 439.098 217.517 439.225 218.738H435.861C435.804 218.327 435.619 218 435.307 217.759C435.009 217.517 434.612 217.397 434.115 217.397C433.689 217.397 433.362 217.482 433.135 217.652C432.908 217.808 432.794 218.028 432.794 218.312C432.794 218.653 432.972 218.909 433.327 219.079C433.696 219.249 434.264 219.42 435.03 219.59C435.911 219.817 436.627 220.044 437.181 220.271C437.735 220.484 438.217 220.839 438.629 221.336C439.055 221.819 439.275 222.472 439.289 223.295C439.289 223.991 439.09 224.616 438.693 225.169C438.31 225.709 437.749 226.135 437.011 226.447C436.287 226.759 435.442 226.915 434.477 226.915ZM445.306 220.783C445.306 219.562 445.533 218.49 445.987 217.567C446.455 216.644 447.087 215.934 447.882 215.438C448.677 214.941 449.564 214.692 450.544 214.692C451.382 214.692 452.113 214.863 452.737 215.203C453.376 215.544 453.866 215.991 454.207 216.545V214.863H457.848V226.745H454.207V225.063C453.852 225.616 453.355 226.064 452.716 226.404C452.091 226.745 451.36 226.915 450.523 226.915C449.557 226.915 448.677 226.667 447.882 226.17C447.087 225.659 446.455 224.942 445.987 224.019C445.533 223.082 445.306 222.003 445.306 220.783ZM454.207 220.804C454.207 219.895 453.951 219.178 453.44 218.653C452.943 218.128 452.333 217.865 451.609 217.865C450.885 217.865 450.267 218.128 449.756 218.653C449.259 219.164 449.011 219.874 449.011 220.783C449.011 221.691 449.259 222.415 449.756 222.955C450.267 223.48 450.885 223.742 451.609 223.742C452.333 223.742 452.943 223.48 453.44 222.955C453.951 222.429 454.207 221.712 454.207 220.804ZM464.124 216.545C464.464 215.991 464.954 215.544 465.593 215.203C466.232 214.863 466.963 214.692 467.786 214.692C468.766 214.692 469.653 214.941 470.448 215.438C471.243 215.934 471.868 216.644 472.322 217.567C472.791 218.49 473.025 219.562 473.025 220.783C473.025 222.003 472.791 223.082 472.322 224.019C471.868 224.942 471.243 225.659 470.448 226.17C469.653 226.667 468.766 226.915 467.786 226.915C466.949 226.915 466.218 226.752 465.593 226.426C464.968 226.085 464.479 225.638 464.124 225.084V226.745H460.482V210.987H464.124V216.545ZM469.32 220.783C469.32 219.874 469.064 219.164 468.553 218.653C468.056 218.128 467.439 217.865 466.7 217.865C465.976 217.865 465.359 218.128 464.848 218.653C464.351 219.178 464.102 219.895 464.102 220.804C464.102 221.712 464.351 222.429 464.848 222.955C465.359 223.48 465.976 223.742 466.7 223.742C467.424 223.742 468.042 223.48 468.553 222.955C469.064 222.415 469.32 221.691 469.32 220.783ZM486.136 220.612C486.136 220.953 486.115 221.308 486.072 221.677H477.831C477.888 222.415 478.122 222.983 478.534 223.38C478.96 223.764 479.478 223.955 480.088 223.955C480.997 223.955 481.629 223.572 481.984 222.806H485.859C485.661 223.586 485.298 224.289 484.773 224.914C484.262 225.538 483.616 226.028 482.835 226.383C482.055 226.738 481.182 226.915 480.216 226.915C479.052 226.915 478.016 226.667 477.107 226.17C476.199 225.673 475.489 224.963 474.978 224.041C474.467 223.118 474.211 222.039 474.211 220.804C474.211 219.569 474.46 218.49 474.956 217.567C475.468 216.644 476.177 215.934 477.086 215.438C477.994 214.941 479.038 214.692 480.216 214.692C481.366 214.692 482.388 214.934 483.283 215.416C484.177 215.899 484.873 216.588 485.369 217.482C485.881 218.376 486.136 219.42 486.136 220.612ZM482.41 219.654C482.41 219.029 482.197 218.532 481.771 218.163C481.345 217.794 480.812 217.61 480.174 217.61C479.563 217.61 479.045 217.787 478.619 218.142C478.207 218.497 477.952 219.001 477.853 219.654H482.41ZM491.698 216.843C492.124 216.19 492.657 215.679 493.296 215.31C493.934 214.927 494.644 214.735 495.425 214.735V218.589H494.424C493.516 218.589 492.834 218.788 492.38 219.185C491.926 219.569 491.698 220.25 491.698 221.23V226.745H488.057V214.863H491.698V216.843ZM503.788 223.657V226.745H501.935C500.615 226.745 499.586 226.426 498.848 225.787C498.11 225.134 497.74 224.076 497.74 222.614V217.886H496.292V214.863H497.74V211.967H501.382V214.863H503.767V217.886H501.382V222.656C501.382 223.011 501.467 223.267 501.637 223.423C501.808 223.579 502.092 223.657 502.489 223.657H503.788ZM511.225 226.915C510.061 226.915 509.011 226.667 508.074 226.17C507.151 225.673 506.42 224.963 505.88 224.041C505.355 223.118 505.092 222.039 505.092 220.804C505.092 219.583 505.362 218.511 505.902 217.588C506.441 216.651 507.179 215.934 508.116 215.438C509.053 214.941 510.104 214.692 511.268 214.692C512.432 214.692 513.482 214.941 514.419 215.438C515.356 215.934 516.094 216.651 516.634 217.588C517.173 218.511 517.443 219.583 517.443 220.804C517.443 222.025 517.166 223.104 516.613 224.041C516.073 224.963 515.328 225.673 514.377 226.17C513.44 226.667 512.389 226.915 511.225 226.915ZM511.225 223.764C511.921 223.764 512.51 223.508 512.993 222.997C513.489 222.486 513.738 221.755 513.738 220.804C513.738 219.853 513.497 219.122 513.014 218.611C512.545 218.099 511.963 217.844 511.268 217.844C510.558 217.844 509.969 218.099 509.5 218.611C509.032 219.107 508.798 219.838 508.798 220.804C508.798 221.755 509.025 222.486 509.479 222.997C509.947 223.508 510.53 223.764 511.225 223.764ZM524.209 226.915C523.172 226.915 522.25 226.738 521.441 226.383C520.631 226.028 519.992 225.545 519.524 224.935C519.056 224.31 518.793 223.615 518.736 222.848H522.335C522.377 223.26 522.569 223.593 522.91 223.849C523.251 224.104 523.669 224.232 524.166 224.232C524.62 224.232 524.968 224.147 525.21 223.977C525.465 223.792 525.593 223.558 525.593 223.274C525.593 222.933 525.415 222.685 525.061 222.529C524.706 222.358 524.131 222.174 523.336 221.975C522.484 221.776 521.774 221.57 521.206 221.357C520.638 221.13 520.149 220.783 519.737 220.314C519.325 219.831 519.119 219.185 519.119 218.376C519.119 217.695 519.304 217.077 519.673 216.524C520.056 215.956 520.61 215.509 521.334 215.182C522.072 214.856 522.945 214.692 523.953 214.692C525.444 214.692 526.615 215.061 527.467 215.8C528.333 216.538 528.83 217.517 528.957 218.738H525.593C525.536 218.327 525.352 218 525.039 217.759C524.741 217.517 524.344 217.397 523.847 217.397C523.421 217.397 523.094 217.482 522.867 217.652C522.64 217.808 522.527 218.028 522.527 218.312C522.527 218.653 522.704 218.909 523.059 219.079C523.428 219.249 523.996 219.42 524.762 219.59C525.643 219.817 526.36 220.044 526.913 220.271C527.467 220.484 527.95 220.839 528.361 221.336C528.787 221.819 529.007 222.472 529.021 223.295C529.021 223.991 528.823 224.616 528.425 225.169C528.042 225.709 527.481 226.135 526.743 226.447C526.019 226.759 525.174 226.915 524.209 226.915Z" fill="#022162"/>
<path d="M79.781 48.0735L55.6289 106H38.7898L63.2306 49.9017H33.3051V35.8531H79.781V48.0735ZM86.4354 69.9162C86.4354 58.8826 88.5524 50.1904 92.7862 43.8397C97.0842 37.4889 103.98 34.3135 113.474 34.3135C122.968 34.3135 129.832 37.4889 134.066 43.8397C138.364 50.1904 140.513 58.8826 140.513 69.9162C140.513 81.0781 138.364 89.8345 134.066 96.1852C129.832 102.536 122.968 105.711 113.474 105.711C103.98 105.711 97.0842 102.536 92.7862 96.1852C88.5524 89.8345 86.4354 81.0781 86.4354 69.9162ZM124.347 69.9162C124.347 63.4372 123.642 58.4656 122.231 55.0016C120.819 51.4734 117.901 49.7093 113.474 49.7093C109.048 49.7093 106.129 51.4734 104.718 55.0016C103.307 58.4656 102.601 63.4372 102.601 69.9162C102.601 74.2783 102.858 77.9028 103.371 80.7895C103.884 83.612 104.91 85.9214 106.45 87.7175C108.054 89.4496 110.395 90.3156 113.474 90.3156C116.553 90.3156 118.863 89.4496 120.402 87.7175C122.006 85.9214 123.064 83.612 123.578 80.7895C124.091 77.9028 124.347 74.2783 124.347 69.9162ZM149.206 69.9162C149.206 58.8826 151.323 50.1904 155.557 43.8397C159.855 37.4889 166.751 34.3135 176.245 34.3135C185.739 34.3135 192.603 37.4889 196.837 43.8397C201.135 50.1904 203.284 58.8826 203.284 69.9162C203.284 81.0781 201.135 89.8345 196.837 96.1852C192.603 102.536 185.739 105.711 176.245 105.711C166.751 105.711 159.855 102.536 155.557 96.1852C151.323 89.8345 149.206 81.0781 149.206 69.9162ZM187.118 69.9162C187.118 63.4372 186.413 58.4656 185.001 55.0016C183.59 51.4734 180.671 49.7093 176.245 49.7093C171.819 49.7093 168.9 51.4734 167.489 55.0016C166.077 58.4656 165.372 63.4372 165.372 69.9162C165.372 74.2783 165.628 77.9028 166.142 80.7895C166.655 83.612 167.681 85.9214 169.221 87.7175C170.824 89.4496 173.166 90.3156 176.245 90.3156C179.324 90.3156 181.634 89.4496 183.173 87.7175C184.777 85.9214 185.835 83.612 186.348 80.7895C186.862 77.9028 187.118 74.2783 187.118 69.9162Z" fill="#022162"/>
<path d="M247.468 61.7716V82.4197H242.439V70.0367L237.821 82.4197H233.762L229.114 70.0073V82.4197H224.085V61.7716H230.026L235.821 76.0664L241.556 61.7716H247.468ZM263.586 71.8309C264.782 72.0858 265.743 72.6839 266.468 73.6251C267.194 74.5467 267.557 75.6056 267.557 76.8017C267.557 78.5273 266.949 79.8999 265.733 80.9196C264.537 81.9197 262.86 82.4197 260.703 82.4197H251.085V61.7716H260.38C262.478 61.7716 264.115 62.252 265.292 63.2128C266.488 64.1736 267.086 65.4776 267.086 67.1248C267.086 68.3405 266.762 69.3504 266.115 70.1543C265.488 70.9583 264.645 71.5172 263.586 71.8309ZM256.115 70.1249H259.409C260.233 70.1249 260.86 69.9484 261.292 69.5955C261.743 69.2229 261.968 68.6837 261.968 67.9778C261.968 67.2718 261.743 66.7326 261.292 66.36C260.86 65.9875 260.233 65.8012 259.409 65.8012H256.115V70.1249ZM259.821 78.3606C260.664 78.3606 261.311 78.1744 261.762 77.8018C262.233 77.4096 262.468 76.8508 262.468 76.1252C262.468 75.3997 262.223 74.8311 261.733 74.4193C261.262 74.0075 260.605 73.8016 259.762 73.8016H256.115V78.3606H259.821Z" fill="#022162"/>
<path d="M300.74 101.915L295.204 91.8663H293.649V101.915H287.165V75.2952H298.048C300.146 75.2952 301.928 75.6618 303.394 76.3949C304.886 77.128 305.998 78.1393 306.731 79.4285C307.465 80.6925 307.831 82.1082 307.831 83.6756C307.831 85.4452 307.326 87.0252 306.314 88.4156C305.328 89.806 303.862 90.7919 301.916 91.3734L308.059 101.915H300.74ZM293.649 87.278H297.669C298.857 87.278 299.741 86.9873 300.323 86.4058C300.93 85.8244 301.233 85.0028 301.233 83.941C301.233 82.9298 300.93 82.1335 300.323 81.5521C299.741 80.9706 298.857 80.6799 297.669 80.6799H293.649V87.278ZM332.037 94.1795C332.037 95.5699 331.671 96.8591 330.937 98.0473C330.23 99.2102 329.168 100.171 327.752 100.929C326.362 101.662 324.706 102.067 322.785 102.143V105.214H320.358V102.105C317.678 101.877 315.517 101.081 313.873 99.7158C312.23 98.3254 311.358 96.442 311.257 94.0657H318.158C318.31 95.5825 319.043 96.5558 320.358 96.9855V90.9942C318.386 90.4886 316.806 89.9956 315.618 89.5153C314.455 89.035 313.431 88.2639 312.546 87.2022C311.661 86.1404 311.219 84.6868 311.219 82.8413C311.219 80.5409 312.066 78.6954 313.76 77.305C315.479 75.9146 317.678 75.1309 320.358 74.954V71.8824H322.785V74.954C325.439 75.1562 327.537 75.9272 329.079 77.2671C330.621 78.6069 331.481 80.465 331.658 82.8413H324.719C324.567 81.4762 323.922 80.5914 322.785 80.1869V86.0646C324.883 86.646 326.501 87.1642 327.638 87.6193C328.776 88.0743 329.787 88.8327 330.672 89.8945C331.582 90.931 332.037 92.3593 332.037 94.1795ZM318.083 82.538C318.083 83.17 318.272 83.7009 318.651 84.1306C319.056 84.5604 319.625 84.9396 320.358 85.2682V79.9973C319.65 80.1237 319.094 80.4018 318.689 80.8316C318.285 81.2361 318.083 81.8049 318.083 82.538ZM322.785 97.0993C323.543 96.9729 324.137 96.6695 324.567 96.1892C325.022 95.7089 325.249 95.1148 325.249 94.407C325.249 93.7497 325.035 93.2188 324.605 92.8143C324.2 92.3846 323.594 92.018 322.785 91.7147V97.0993ZM336.823 52.9948V39.3725H360.555V101.915H345.305V52.9948H336.823ZM369.035 52.9948V39.3725H392.767V101.915H377.516V52.9948H369.035ZM418.553 83.5807C419.409 88.0929 422.037 90.3491 426.435 90.3491C429.462 90.3491 431.604 89.0068 432.86 86.3223C434.117 83.6379 434.745 79.2684 434.745 73.2141C433.489 74.9847 431.775 76.3555 429.605 77.3265C427.434 78.2975 425.007 78.7829 422.322 78.7829C418.667 78.7829 415.411 78.0404 412.555 76.5554C409.7 75.0132 407.444 72.7571 405.787 69.7871C404.188 66.7599 403.388 63.1044 403.388 58.8207C403.388 54.5941 404.245 50.91 405.959 47.7686C407.729 44.6272 410.214 42.1998 413.412 40.4863C416.668 38.7728 420.495 37.916 424.893 37.916C433.346 37.916 439.257 40.5434 442.627 45.7981C445.997 51.0528 447.682 58.7921 447.682 69.016C447.682 76.4412 446.997 82.5812 445.626 87.4361C444.312 92.2339 442.056 95.8894 438.858 98.4025C435.716 100.916 431.404 102.172 425.921 102.172C421.58 102.172 417.867 101.315 414.783 99.6019C411.756 97.8884 409.414 95.6323 407.758 92.8336C406.158 90.0349 405.245 86.9506 405.016 83.5807H418.553ZM425.664 67.2168C428.063 67.2168 429.976 66.5029 431.404 65.075C432.832 63.5899 433.546 61.5908 433.546 59.0777C433.546 56.3361 432.803 54.2228 431.318 52.7378C429.833 51.2527 427.834 50.5102 425.321 50.5102C422.808 50.5102 420.809 51.2813 419.324 52.8235C417.896 54.3085 417.182 56.3647 417.182 58.992C417.182 61.4481 417.896 63.4471 419.324 64.9893C420.809 66.4743 422.922 67.2168 425.664 67.2168ZM460.972 95.9238L456.763 106.807H452.629L454.829 95.9238H460.972ZM471.214 93.8003C471.593 95.7974 472.756 96.7959 474.703 96.7959C476.043 96.7959 476.991 96.2019 477.547 95.0137C478.103 93.8255 478.381 91.8916 478.381 89.2119C477.825 89.9956 477.067 90.6023 476.106 91.0321C475.145 91.4619 474.071 91.6767 472.883 91.6767C471.265 91.6767 469.824 91.3481 468.56 90.6908C467.296 90.0082 466.297 89.0097 465.564 87.6951C464.856 86.3553 464.502 84.7374 464.502 82.8413C464.502 80.9706 464.882 79.3401 465.64 77.9497C466.424 76.5592 467.523 75.4848 468.939 74.7264C470.38 73.968 472.074 73.5888 474.02 73.5888C477.762 73.5888 480.378 74.7517 481.87 77.0775C483.361 79.4033 484.107 82.8287 484.107 87.3538C484.107 90.6402 483.804 93.3579 483.197 95.5067C482.616 97.6302 481.617 99.2481 480.201 100.36C478.811 101.473 476.902 102.029 474.475 102.029C472.554 102.029 470.911 101.65 469.546 100.891C468.206 100.133 467.169 99.1344 466.436 97.8956C465.728 96.6569 465.324 95.2918 465.223 93.8003H471.214ZM474.362 86.5575C475.423 86.5575 476.27 86.2415 476.902 85.6095C477.534 84.9522 477.85 84.0674 477.85 82.9551C477.85 81.7417 477.522 80.8063 476.864 80.149C476.207 79.4917 475.322 79.1631 474.21 79.1631C473.098 79.1631 472.213 79.5044 471.556 80.1869C470.924 80.8442 470.608 81.7543 470.608 82.9172C470.608 84.0042 470.924 84.889 471.556 85.5716C472.213 86.2289 473.148 86.5575 474.362 86.5575ZM487.567 87.6951C487.567 83.3469 488.401 79.9215 490.069 77.4188C491.763 74.916 494.481 73.6647 498.222 73.6647C501.964 73.6647 504.669 74.916 506.337 77.4188C508.031 79.9215 508.878 83.3469 508.878 87.6951C508.878 92.0939 508.031 95.5446 506.337 98.0473C504.669 100.55 501.964 101.801 498.222 101.801C494.481 101.801 491.763 100.55 490.069 98.0473C488.401 95.5446 487.567 92.0939 487.567 87.6951ZM502.507 87.6951C502.507 85.1418 502.229 83.1826 501.673 81.8175C501.117 80.4271 499.967 79.7319 498.222 79.7319C496.478 79.7319 495.328 80.4271 494.772 81.8175C494.215 83.1826 493.937 85.1418 493.937 87.6951C493.937 89.4142 494.038 90.8425 494.241 91.9801C494.443 93.0924 494.847 94.0025 495.454 94.7103C496.086 95.3929 497.009 95.7342 498.222 95.7342C499.436 95.7342 500.346 95.3929 500.952 94.7103C501.584 94.0025 502.002 93.0924 502.204 91.9801C502.406 90.8425 502.507 89.4142 502.507 87.6951Z" fill="white"/>
<path d="M359.205 18.4008C359.205 17.3235 359.405 16.3778 359.806 15.5636C360.22 14.7494 360.777 14.1231 361.478 13.6847C362.18 13.2462 362.963 13.027 363.827 13.027C364.566 13.027 365.211 13.1773 365.762 13.478C366.326 13.7786 366.758 14.1732 367.059 14.6617V13.1773H370.272V23.6617H367.059V22.1774C366.746 22.6659 366.307 23.0605 365.744 23.3611C365.192 23.6617 364.547 23.8121 363.808 23.8121C362.957 23.8121 362.18 23.5928 361.478 23.1544C360.777 22.7035 360.22 22.0709 359.806 21.2567C359.405 20.43 359.205 19.478 359.205 18.4008ZM367.059 18.4195C367.059 17.6179 366.833 16.9853 366.382 16.5218C365.944 16.0584 365.405 15.8266 364.767 15.8266C364.128 15.8266 363.583 16.0584 363.132 16.5218C362.693 16.9728 362.474 17.5991 362.474 18.4008C362.474 19.2024 362.693 19.8413 363.132 20.3173C363.583 20.7807 364.128 21.0125 364.767 21.0125C365.405 21.0125 365.944 20.7807 366.382 20.3173C366.833 19.8538 367.059 19.2212 367.059 18.4195ZM375.809 14.6617C376.122 14.1732 376.554 13.7786 377.106 13.478C377.657 13.1773 378.302 13.027 379.041 13.027C379.905 13.027 380.688 13.2462 381.39 13.6847C382.091 14.1231 382.642 14.7494 383.043 15.5636C383.456 16.3778 383.663 17.3235 383.663 18.4008C383.663 19.478 383.456 20.43 383.043 21.2567C382.642 22.0709 382.091 22.7035 381.39 23.1544C380.688 23.5928 379.905 23.8121 379.041 23.8121C378.314 23.8121 377.669 23.6617 377.106 23.3611C376.554 23.0605 376.122 22.6722 375.809 22.1962V28.6597H372.596V13.1773H375.809V14.6617ZM380.394 18.4008C380.394 17.5991 380.168 16.9728 379.717 16.5218C379.279 16.0584 378.734 15.8266 378.083 15.8266C377.444 15.8266 376.899 16.0584 376.448 16.5218C376.01 16.9853 375.79 17.6179 375.79 18.4195C375.79 19.2212 376.01 19.8538 376.448 20.3173C376.899 20.7807 377.444 21.0125 378.083 21.0125C378.722 21.0125 379.266 20.7807 379.717 20.3173C380.168 19.8413 380.394 19.2024 380.394 18.4008ZM395.232 18.2504C395.232 18.5511 395.213 18.8642 395.175 19.1899H387.904C387.954 19.8413 388.161 20.3423 388.524 20.693C388.9 21.0312 389.357 21.2004 389.896 21.2004C390.697 21.2004 391.255 20.8621 391.568 20.1857H394.988C394.812 20.8747 394.493 21.4947 394.029 22.0459C393.578 22.597 393.008 23.0292 392.32 23.3423C391.631 23.6555 390.86 23.8121 390.008 23.8121C388.981 23.8121 388.067 23.5928 387.265 23.1544C386.464 22.716 385.837 22.0897 385.386 21.2755C384.935 20.4613 384.71 19.5093 384.71 18.4195C384.71 17.3298 384.929 16.3778 385.367 15.5636C385.818 14.7494 386.445 14.1231 387.246 13.6847C388.048 13.2462 388.969 13.027 390.008 13.027C391.023 13.027 391.925 13.24 392.714 13.6659C393.503 14.0918 394.117 14.6993 394.555 15.4884C395.006 16.2776 395.232 17.1982 395.232 18.2504ZM391.944 17.4049C391.944 16.8538 391.756 16.4154 391.38 16.0897C391.004 15.764 390.535 15.6012 389.971 15.6012C389.432 15.6012 388.975 15.7577 388.599 16.0709C388.236 16.384 388.011 16.8287 387.923 17.4049H391.944ZM403.315 13.0646C404.543 13.0646 405.52 13.4654 406.246 14.2671C406.985 15.0563 407.355 16.146 407.355 17.5365V23.6617H404.161V17.9686C404.161 17.2671 403.979 16.7222 403.616 16.3339C403.253 15.9456 402.764 15.7515 402.15 15.7515C401.536 15.7515 401.048 15.9456 400.685 16.3339C400.321 16.7222 400.14 17.2671 400.14 17.9686V23.6617H396.927V13.1773H400.14V14.5677C400.465 14.1043 400.904 13.741 401.455 13.478C402.006 13.2024 402.626 13.0646 403.315 13.0646ZM408.949 18.4008C408.949 17.3235 409.149 16.3778 409.55 15.5636C409.963 14.7494 410.521 14.1231 411.222 13.6847C411.924 13.2462 412.707 13.027 413.571 13.027C414.31 13.027 414.955 13.1773 415.506 13.478C416.07 13.7786 416.502 14.1732 416.803 14.6617V13.1773H420.016V23.6617H416.803V22.1774C416.489 22.6659 416.051 23.0605 415.487 23.3611C414.936 23.6617 414.291 23.8121 413.552 23.8121C412.7 23.8121 411.924 23.5928 411.222 23.1544C410.521 22.7035 409.963 22.0709 409.55 21.2567C409.149 20.43 408.949 19.478 408.949 18.4008ZM416.803 18.4195C416.803 17.6179 416.577 16.9853 416.126 16.5218C415.688 16.0584 415.149 15.8266 414.51 15.8266C413.871 15.8266 413.327 16.0584 412.876 16.5218C412.437 16.9728 412.218 17.5991 412.218 18.4008C412.218 19.2024 412.437 19.8413 412.876 20.3173C413.327 20.7807 413.871 21.0125 414.51 21.0125C415.149 21.0125 415.688 20.7807 416.126 20.3173C416.577 19.8538 416.803 19.2212 416.803 18.4195ZM426.605 23.8121C425.691 23.8121 424.877 23.6555 424.163 23.3423C423.449 23.0292 422.885 22.6033 422.472 22.0647C422.058 21.5135 421.826 20.8997 421.776 20.2233H424.952C424.989 20.5866 425.158 20.8809 425.459 21.1064C425.76 21.3319 426.129 21.4446 426.568 21.4446C426.968 21.4446 427.275 21.3695 427.488 21.2191C427.714 21.0563 427.826 20.8496 427.826 20.5991C427.826 20.2985 427.67 20.0793 427.357 19.9415C427.044 19.7912 426.536 19.6283 425.835 19.453C425.083 19.2776 424.457 19.096 423.956 18.9081C423.455 18.7076 423.023 18.4008 422.659 17.9874C422.296 17.5615 422.115 16.9916 422.115 16.2776C422.115 15.6763 422.277 15.1314 422.603 14.6429C422.941 14.1419 423.43 13.7473 424.069 13.4592C424.72 13.1711 425.49 13.027 426.38 13.027C427.695 13.027 428.728 13.3527 429.48 14.0041C430.244 14.6554 430.682 15.5197 430.795 16.597H427.826C427.776 16.2337 427.614 15.9456 427.338 15.7327C427.075 15.5197 426.724 15.4133 426.286 15.4133C425.91 15.4133 425.622 15.4884 425.421 15.6387C425.221 15.7765 425.121 15.9707 425.121 16.2212C425.121 16.5218 425.277 16.7473 425.591 16.8976C425.916 17.0479 426.417 17.1982 427.094 17.3486C427.87 17.549 428.503 17.7494 428.991 17.9498C429.48 18.1377 429.906 18.4509 430.269 18.8893C430.645 19.3152 430.839 19.8914 430.852 20.6179C430.852 21.2317 430.676 21.7828 430.325 22.2713C429.987 22.7473 429.492 23.1231 428.841 23.3987C428.202 23.6743 427.457 23.8121 426.605 23.8121Z" fill="white"/>
<path d="M368.38 117.807C368.693 117.318 369.126 116.924 369.677 116.623C370.228 116.322 370.873 116.172 371.612 116.172C372.476 116.172 373.259 116.391 373.961 116.83C374.662 117.268 375.213 117.895 375.614 118.709C376.028 119.523 376.234 120.469 376.234 121.546C376.234 122.623 376.028 123.575 375.614 124.402C375.213 125.216 374.662 125.849 373.961 126.3C373.259 126.738 372.476 126.957 371.612 126.957C370.886 126.957 370.24 126.807 369.677 126.506C369.126 126.206 368.693 125.817 368.38 125.341V131.805H365.167V116.322H368.38V117.807ZM372.965 121.546C372.965 120.744 372.739 120.118 372.288 119.667C371.85 119.204 371.305 118.972 370.654 118.972C370.015 118.972 369.47 119.204 369.019 119.667C368.581 120.13 368.362 120.763 368.362 121.565C368.362 122.366 368.581 122.999 369.019 123.462C369.47 123.926 370.015 124.158 370.654 124.158C371.293 124.158 371.838 123.926 372.288 123.462C372.739 122.986 372.965 122.348 372.965 121.546ZM385.079 108.957L380.043 130.32H376.943L381.978 108.957H385.079ZM399.812 116.21C401.114 116.21 402.148 116.604 402.912 117.393C403.689 118.183 404.077 119.279 404.077 120.682V126.807H400.883V121.114C400.883 120.437 400.701 119.917 400.338 119.554C399.987 119.178 399.498 118.991 398.872 118.991C398.246 118.991 397.751 119.178 397.388 119.554C397.037 119.917 396.862 120.437 396.862 121.114V126.807H393.668V121.114C393.668 120.437 393.486 119.917 393.123 119.554C392.772 119.178 392.283 118.991 391.657 118.991C391.031 118.991 390.536 119.178 390.173 119.554C389.822 119.917 389.647 120.437 389.647 121.114V126.807H386.434V116.322H389.647V117.638C389.972 117.199 390.398 116.855 390.924 116.604C391.45 116.341 392.045 116.21 392.709 116.21C393.498 116.21 394.2 116.379 394.814 116.717C395.44 117.055 395.929 117.538 396.279 118.164C396.643 117.588 397.137 117.118 397.764 116.755C398.39 116.391 399.073 116.21 399.812 116.21ZM416.207 121.396C416.207 121.696 416.188 122.009 416.151 122.335H408.879C408.929 122.986 409.136 123.487 409.499 123.838C409.875 124.176 410.332 124.345 410.871 124.345C411.673 124.345 412.23 124.007 412.543 123.331H415.963C415.787 124.02 415.468 124.64 415.005 125.191C414.554 125.742 413.984 126.174 413.295 126.487C412.606 126.801 411.835 126.957 410.984 126.957C409.956 126.957 409.042 126.738 408.24 126.3C407.439 125.861 406.812 125.235 406.361 124.421C405.911 123.606 405.685 122.654 405.685 121.565C405.685 120.475 405.904 119.523 406.343 118.709C406.794 117.895 407.42 117.268 408.222 116.83C409.023 116.391 409.944 116.172 410.984 116.172C411.998 116.172 412.9 116.385 413.689 116.811C414.478 117.237 415.092 117.844 415.531 118.634C415.982 119.423 416.207 120.343 416.207 121.396ZM412.919 120.55C412.919 119.999 412.731 119.561 412.355 119.235C411.979 118.909 411.51 118.746 410.946 118.746C410.407 118.746 409.95 118.903 409.574 119.216C409.211 119.529 408.986 119.974 408.898 120.55H412.919ZM410.946 113.993L408.034 115.533V113.316L410.946 111.832L413.858 113.316V115.533L410.946 113.993ZM422.167 126.957C421.253 126.957 420.439 126.801 419.725 126.487C419.011 126.174 418.447 125.748 418.034 125.21C417.62 124.659 417.388 124.045 417.338 123.368H420.514C420.551 123.732 420.72 124.026 421.021 124.252C421.322 124.477 421.691 124.59 422.13 124.59C422.53 124.59 422.837 124.515 423.05 124.364C423.276 124.201 423.388 123.995 423.388 123.744C423.388 123.444 423.232 123.224 422.919 123.087C422.606 122.936 422.098 122.773 421.397 122.598C420.645 122.423 420.019 122.241 419.518 122.053C419.017 121.853 418.585 121.546 418.221 121.133C417.858 120.707 417.677 120.137 417.677 119.423C417.677 118.821 417.839 118.277 418.165 117.788C418.503 117.287 418.992 116.892 419.631 116.604C420.282 116.316 421.052 116.172 421.942 116.172C423.257 116.172 424.29 116.498 425.042 117.149C425.806 117.801 426.244 118.665 426.357 119.742H423.388C423.338 119.379 423.176 119.091 422.9 118.878C422.637 118.665 422.286 118.558 421.848 118.558C421.472 118.558 421.184 118.634 420.983 118.784C420.783 118.922 420.683 119.116 420.683 119.366C420.683 119.667 420.839 119.892 421.153 120.043C421.478 120.193 421.979 120.343 422.656 120.494C423.432 120.694 424.065 120.895 424.553 121.095C425.042 121.283 425.468 121.596 425.831 122.034C426.207 122.46 426.401 123.037 426.414 123.763C426.414 124.377 426.238 124.928 425.887 125.416C425.549 125.892 425.054 126.268 424.403 126.544C423.764 126.819 423.019 126.957 422.167 126.957Z" fill="white"/>
</svg>
