<svg width="550" height="236" viewBox="0 0 550 236" fill="none" xmlns="http://www.w3.org/2000/svg">
<rect y="11.3126" width="307.439" height="117.12" rx="21.9599" fill="#74A9D7"/>
<rect x="240.894" width="308.77" height="139.745" rx="21.9599" fill="#0B64B9"/>
<circle cx="246.217" cy="72.5342" r="33.2726" fill="#84F4F8"/>
<path d="M9.89124 150.586V147.2H15.7898V162.745H11.9994V150.586H9.89124ZM18.2808 154.76C18.2808 152.318 18.7492 150.394 19.6862 148.989C20.6373 147.583 22.1635 146.881 24.2645 146.881C26.3656 146.881 27.8846 147.583 28.8215 148.989C29.7727 150.394 30.2483 152.318 30.2483 154.76C30.2483 157.23 29.7727 159.168 28.8215 160.573C27.8846 161.978 26.3656 162.681 24.2645 162.681C22.1635 162.681 20.6373 161.978 19.6862 160.573C18.7492 159.168 18.2808 157.23 18.2808 154.76ZM26.6708 154.76C26.6708 153.326 26.5146 152.226 26.2023 151.459C25.89 150.678 25.2441 150.288 24.2645 150.288C23.285 150.288 22.639 150.678 22.3267 151.459C22.0144 152.226 21.8582 153.326 21.8582 154.76C21.8582 155.725 21.915 156.527 22.0286 157.166C22.1422 157.79 22.3693 158.302 22.71 158.699C23.0649 159.082 23.5831 159.274 24.2645 159.274C24.9459 159.274 25.457 159.082 25.7977 158.699C26.1526 158.302 26.3869 157.79 26.5004 157.166C26.614 156.527 26.6708 155.725 26.6708 154.76ZM32.1721 154.76C32.1721 152.318 32.6406 150.394 33.5775 148.989C34.5287 147.583 36.0548 146.881 38.1558 146.881C40.2569 146.881 41.7759 147.583 42.7128 148.989C43.664 150.394 44.1396 152.318 44.1396 154.76C44.1396 157.23 43.664 159.168 42.7128 160.573C41.7759 161.978 40.2569 162.681 38.1558 162.681C36.0548 162.681 34.5287 161.978 33.5775 160.573C32.6406 159.168 32.1721 157.23 32.1721 154.76ZM40.5621 154.76C40.5621 153.326 40.4059 152.226 40.0936 151.459C39.7813 150.678 39.1354 150.288 38.1558 150.288C37.1763 150.288 36.5303 150.678 36.218 151.459C35.9057 152.226 35.7495 153.326 35.7495 154.76C35.7495 155.725 35.8063 156.527 35.9199 157.166C36.0335 157.79 36.2606 158.302 36.6013 158.699C36.9562 159.082 37.4744 159.274 38.1558 159.274C38.8372 159.274 39.3483 159.082 39.689 158.699C40.0439 158.302 40.2782 157.79 40.3917 157.166C40.5053 156.527 40.5621 155.725 40.5621 154.76ZM45.7653 151.118C45.7653 149.968 46.0918 149.081 46.7448 148.456C47.412 147.832 48.2709 147.519 49.3215 147.519C50.372 147.519 51.2238 147.832 51.8768 148.456C52.5298 149.081 52.8563 149.968 52.8563 151.118C52.8563 152.268 52.5298 153.155 51.8768 153.78C51.2238 154.405 50.372 154.717 49.3215 154.717C48.2709 154.717 47.412 154.405 46.7448 153.78C46.0918 153.155 45.7653 152.268 45.7653 151.118ZM60.2242 147.754L52.0258 162.745H48.5123L56.7106 147.754H60.2242ZM49.3002 149.649C48.6187 149.649 48.278 150.139 48.278 151.118C48.278 152.084 48.6187 152.566 49.3002 152.566C49.6267 152.566 49.8822 152.446 50.0668 152.204C50.2513 151.963 50.3436 151.601 50.3436 151.118C50.3436 150.139 49.9958 149.649 49.3002 149.649ZM55.9014 159.38C55.9014 158.231 56.228 157.343 56.881 156.719C57.534 156.094 58.3858 155.782 59.4363 155.782C60.4869 155.782 61.3386 156.094 61.9917 156.719C62.6447 157.343 62.9712 158.231 62.9712 159.38C62.9712 160.53 62.6447 161.418 61.9917 162.042C61.3386 162.667 60.4869 162.979 59.4363 162.979C58.3858 162.979 57.534 162.667 56.881 162.042C56.228 161.418 55.9014 160.53 55.9014 159.38ZM59.415 157.911C59.0885 157.911 58.833 158.032 58.6484 158.273C58.4781 158.514 58.3929 158.884 58.3929 159.38C58.3929 160.346 58.7336 160.828 59.415 160.828C59.7415 160.828 59.9971 160.708 60.1816 160.466C60.3662 160.225 60.4585 159.863 60.4585 159.38C60.4585 158.898 60.3662 158.536 60.1816 158.294C59.9971 158.039 59.7415 157.911 59.415 157.911ZM75.4291 153.886H73.47V162.745H69.8287V153.886H68.5084V150.863H69.8287V150.522C69.8287 149.06 70.2475 147.952 71.0851 147.2C71.9227 146.433 73.1506 146.05 74.769 146.05C75.0387 146.05 75.2375 146.057 75.3653 146.071V149.159C74.6696 149.117 74.1799 149.216 73.8959 149.457C73.612 149.699 73.47 150.132 73.47 150.756V150.863H75.4291V153.886ZM78.9715 149.628C78.3327 149.628 77.8074 149.443 77.3957 149.074C76.9982 148.691 76.7995 148.222 76.7995 147.669C76.7995 147.101 76.9982 146.632 77.3957 146.263C77.8074 145.88 78.3327 145.688 78.9715 145.688C79.5962 145.688 80.1072 145.88 80.5047 146.263C80.9164 146.632 81.1223 147.101 81.1223 147.669C81.1223 148.222 80.9164 148.691 80.5047 149.074C80.1072 149.443 79.5962 149.628 78.9715 149.628ZM80.7815 150.863V162.745H77.1402V150.863H80.7815ZM87.0617 152.545C87.4025 151.991 87.8922 151.544 88.5311 151.203C89.1699 150.863 89.901 150.692 90.7244 150.692C91.7039 150.692 92.5912 150.941 93.3862 151.438C94.1812 151.934 94.8058 152.644 95.2601 153.567C95.7286 154.49 95.9628 155.562 95.9628 156.783C95.9628 158.003 95.7286 159.082 95.2601 160.019C94.8058 160.942 94.1812 161.659 93.3862 162.17C92.5912 162.667 91.7039 162.915 90.7244 162.915C89.8868 162.915 89.1557 162.752 88.5311 162.426C87.9064 162.085 87.4167 161.638 87.0617 161.084V162.745H83.4204V146.987H87.0617V152.545ZM92.2576 156.783C92.2576 155.874 92.0021 155.164 91.491 154.653C90.9941 154.128 90.3766 153.865 89.6384 153.865C88.9144 153.865 88.2968 154.128 87.7858 154.653C87.2889 155.178 87.0405 155.895 87.0405 156.804C87.0405 157.712 87.2889 158.429 87.7858 158.955C88.2968 159.48 88.9144 159.742 89.6384 159.742C90.3624 159.742 90.9799 159.48 91.491 158.955C92.0021 158.415 92.2576 157.691 92.2576 156.783ZM101.515 152.843C101.94 152.19 102.473 151.679 103.112 151.31C103.75 150.927 104.46 150.735 105.241 150.735V154.589H104.24C103.332 154.589 102.65 154.788 102.196 155.185C101.742 155.569 101.515 156.25 101.515 157.23V162.745H97.8732V150.863H101.515V152.843ZM106.258 156.783C106.258 155.562 106.485 154.49 106.939 153.567C107.407 152.644 108.039 151.934 108.834 151.438C109.629 150.941 110.516 150.692 111.496 150.692C112.334 150.692 113.065 150.863 113.689 151.203C114.328 151.544 114.818 151.991 115.159 152.545V150.863H118.8V162.745H115.159V161.063C114.804 161.616 114.307 162.064 113.668 162.404C113.043 162.745 112.312 162.915 111.475 162.915C110.509 162.915 109.629 162.667 108.834 162.17C108.039 161.659 107.407 160.942 106.939 160.019C106.485 159.082 106.258 158.003 106.258 156.783ZM115.159 156.804C115.159 155.895 114.903 155.178 114.392 154.653C113.895 154.128 113.285 153.865 112.561 153.865C111.837 153.865 111.219 154.128 110.708 154.653C110.211 155.164 109.963 155.874 109.963 156.783C109.963 157.691 110.211 158.415 110.708 158.955C111.219 159.48 111.837 159.742 112.561 159.742C113.285 159.742 113.895 159.48 114.392 158.955C114.903 158.429 115.159 157.712 115.159 156.804ZM131.356 162.915C130.192 162.915 129.141 162.667 128.204 162.17C127.281 161.673 126.55 160.963 126.011 160.041C125.486 159.118 125.223 158.039 125.223 156.804C125.223 155.583 125.493 154.511 126.032 153.588C126.572 152.651 127.31 151.934 128.247 151.438C129.184 150.941 130.234 150.692 131.398 150.692C132.562 150.692 133.613 150.941 134.55 151.438C135.487 151.934 136.225 152.651 136.765 153.588C137.304 154.511 137.574 155.583 137.574 156.804C137.574 158.025 137.297 159.104 136.743 160.041C136.204 160.963 135.458 161.673 134.507 162.17C133.57 162.667 132.52 162.915 131.356 162.915ZM131.356 159.764C132.051 159.764 132.641 159.508 133.123 158.997C133.62 158.486 133.869 157.755 133.869 156.804C133.869 155.853 133.627 155.122 133.144 154.611C132.676 154.099 132.094 153.844 131.398 153.844C130.689 153.844 130.099 154.099 129.631 154.611C129.162 155.107 128.928 155.838 128.928 156.804C128.928 157.755 129.155 158.486 129.61 158.997C130.078 159.508 130.66 159.764 131.356 159.764ZM134.167 147.818L129.035 149.968V147.456L134.167 144.985V147.818ZM143.147 152.545C143.502 151.991 143.992 151.544 144.616 151.203C145.241 150.863 145.972 150.692 146.81 150.692C147.789 150.692 148.676 150.941 149.471 151.438C150.266 151.934 150.891 152.644 151.345 153.567C151.814 154.49 152.048 155.562 152.048 156.783C152.048 158.003 151.814 159.082 151.345 160.019C150.891 160.942 150.266 161.659 149.471 162.17C148.676 162.667 147.789 162.915 146.81 162.915C145.986 162.915 145.255 162.745 144.616 162.404C143.992 162.064 143.502 161.623 143.147 161.084V168.409H139.506V150.863H143.147V152.545ZM148.343 156.783C148.343 155.874 148.087 155.164 147.576 154.653C147.079 154.128 146.462 153.865 145.724 153.865C145 153.865 144.382 154.128 143.871 154.653C143.374 155.178 143.126 155.895 143.126 156.804C143.126 157.712 143.374 158.429 143.871 158.955C144.382 159.48 145 159.742 145.724 159.742C146.448 159.742 147.065 159.48 147.576 158.955C148.087 158.415 148.343 157.691 148.343 156.783ZM160.581 159.657V162.745H158.728C157.408 162.745 156.379 162.426 155.641 161.787C154.902 161.134 154.533 160.076 154.533 158.614V153.886H153.085V150.863H154.533V147.967H158.175V150.863H160.56V153.886H158.175V158.656C158.175 159.011 158.26 159.267 158.43 159.423C158.601 159.579 158.884 159.657 159.282 159.657H160.581ZM164.441 149.628C163.802 149.628 163.276 149.443 162.865 149.074C162.467 148.691 162.269 148.222 162.269 147.669C162.269 147.101 162.467 146.632 162.865 146.263C163.276 145.88 163.802 145.688 164.441 145.688C165.065 145.688 165.576 145.88 165.974 146.263C166.385 146.632 166.591 147.101 166.591 147.669C166.591 148.222 166.385 148.691 165.974 149.074C165.576 149.443 165.065 149.628 164.441 149.628ZM166.251 150.863V162.745H162.609V150.863H166.251ZM168.165 156.804C168.165 155.569 168.414 154.49 168.911 153.567C169.422 152.644 170.125 151.934 171.019 151.438C171.927 150.941 172.964 150.692 174.128 150.692C175.618 150.692 176.861 151.083 177.854 151.864C178.862 152.644 179.522 153.745 179.835 155.164H175.959C175.633 154.256 175.001 153.801 174.064 153.801C173.397 153.801 172.864 154.064 172.467 154.589C172.069 155.1 171.871 155.838 171.871 156.804C171.871 157.769 172.069 158.514 172.467 159.04C172.864 159.551 173.397 159.806 174.064 159.806C175.001 159.806 175.633 159.352 175.959 158.444H179.835C179.522 159.835 178.862 160.928 177.854 161.723C176.846 162.518 175.604 162.915 174.128 162.915C172.964 162.915 171.927 162.667 171.019 162.17C170.125 161.673 169.422 160.963 168.911 160.041C168.414 159.118 168.165 158.039 168.165 156.804ZM181.059 156.783C181.059 155.562 181.286 154.49 181.74 153.567C182.208 152.644 182.84 151.934 183.635 151.438C184.43 150.941 185.317 150.692 186.297 150.692C187.135 150.692 187.866 150.863 188.49 151.203C189.129 151.544 189.619 151.991 189.96 152.545V150.863H193.601V162.745H189.96V161.063C189.605 161.616 189.108 162.064 188.469 162.404C187.844 162.745 187.113 162.915 186.276 162.915C185.31 162.915 184.43 162.667 183.635 162.17C182.84 161.659 182.208 160.942 181.74 160.019C181.286 159.082 181.059 158.003 181.059 156.783ZM189.96 156.804C189.96 155.895 189.704 155.178 189.193 154.653C188.696 154.128 188.086 153.865 187.362 153.865C186.638 153.865 186.02 154.128 185.509 154.653C185.012 155.164 184.764 155.874 184.764 156.783C184.764 157.691 185.012 158.415 185.509 158.955C186.02 159.48 186.638 159.742 187.362 159.742C188.086 159.742 188.696 159.48 189.193 158.955C189.704 158.429 189.96 157.712 189.96 156.804ZM10.1468 191.828C10.6294 191.444 10.8495 191.267 10.8069 191.295C12.1981 190.145 13.2913 189.201 14.0862 188.463C14.8954 187.725 15.5769 186.951 16.1305 186.142C16.6842 185.333 16.961 184.545 16.961 183.778C16.961 183.196 16.8261 182.742 16.5564 182.415C16.2867 182.089 15.8821 181.926 15.3426 181.926C14.8032 181.926 14.3773 182.132 14.065 182.543C13.7668 182.941 13.6178 183.509 13.6178 184.247H10.1042C10.1326 183.04 10.3881 182.032 10.8708 181.223C11.3677 180.414 12.0136 179.818 12.8086 179.434C13.6178 179.051 14.5121 178.859 15.4917 178.859C17.181 178.859 18.4516 179.292 19.3034 180.158C20.1694 181.024 20.6024 182.153 20.6024 183.544C20.6024 185.063 20.0842 186.476 19.0479 187.782C18.0115 189.074 16.6913 190.337 15.0871 191.572H20.8366V194.532H10.1468V191.828ZM30.9558 184.545C31.3107 183.991 31.8005 183.544 32.4251 183.203C33.0498 182.863 33.7809 182.692 34.6184 182.692C35.598 182.692 36.4853 182.941 37.2803 183.438C38.0753 183.934 38.6999 184.644 39.1542 185.567C39.6226 186.49 39.8569 187.562 39.8569 188.783C39.8569 190.003 39.6226 191.082 39.1542 192.019C38.6999 192.942 38.0753 193.659 37.2803 194.17C36.4853 194.667 35.598 194.915 34.6184 194.915C33.7951 194.915 33.064 194.745 32.4251 194.404C31.8005 194.064 31.3107 193.623 30.9558 193.084V200.409H27.3144V182.863H30.9558V184.545ZM36.1516 188.783C36.1516 187.874 35.8961 187.164 35.385 186.653C34.8882 186.128 34.2706 185.865 33.5324 185.865C32.8084 185.865 32.1909 186.128 31.6798 186.653C31.1829 187.178 30.9345 187.895 30.9345 188.804C30.9345 189.712 31.1829 190.429 31.6798 190.955C32.1909 191.48 32.8084 191.742 33.5324 191.742C34.2564 191.742 34.874 191.48 35.385 190.955C35.8961 190.415 36.1516 189.691 36.1516 188.783ZM47.176 194.915C46.0119 194.915 44.9614 194.667 44.0244 194.17C43.1017 193.673 42.3706 192.963 41.8311 192.041C41.3059 191.118 41.0432 190.039 41.0432 188.804C41.0432 187.583 41.313 186.511 41.8524 185.588C42.3919 184.651 43.1301 183.934 44.067 183.438C45.004 182.941 46.0545 182.692 47.2186 182.692C48.3827 182.692 49.4332 182.941 50.3702 183.438C51.3072 183.934 52.0454 184.651 52.5848 185.588C53.1243 186.511 53.394 187.583 53.394 188.804C53.394 190.025 53.1172 191.104 52.5635 192.041C52.0241 192.963 51.2788 193.673 50.3276 194.17C49.3907 194.667 48.3401 194.915 47.176 194.915ZM47.176 191.764C47.8717 191.764 48.4608 191.508 48.9435 190.997C49.4403 190.486 49.6888 189.755 49.6888 188.804C49.6888 187.853 49.4474 187.122 48.9648 186.611C48.4963 186.099 47.9142 185.844 47.2186 185.844C46.5088 185.844 45.9197 186.099 45.4512 186.611C44.9827 187.107 44.7485 187.838 44.7485 188.804C44.7485 189.755 44.9756 190.486 45.4299 190.997C45.8984 191.508 46.4804 191.764 47.176 191.764ZM62.5659 182.735C63.9572 182.735 65.0645 183.189 65.8879 184.098C66.7255 184.992 67.1443 186.227 67.1443 187.803V194.745H63.5242V188.293C63.5242 187.498 63.3184 186.88 62.9067 186.44C62.495 186 61.9413 185.78 61.2457 185.78C60.5501 185.78 59.9964 186 59.5847 186.44C59.173 186.88 58.9672 187.498 58.9672 188.293V194.745H55.3258V182.863H58.9672V184.438C59.3363 183.913 59.8332 183.502 60.4578 183.203C61.0824 182.891 61.7852 182.735 62.5659 182.735ZM76.2972 191.657V194.745H74.4446C73.1243 194.745 72.0951 194.426 71.3569 193.787C70.6187 193.134 70.2496 192.076 70.2496 190.614V185.886H68.8016V182.863H70.2496V179.967H73.8909V182.863H76.2759V185.886H73.8909V190.656C73.8909 191.011 73.9761 191.267 74.1465 191.423C74.3168 191.579 74.6008 191.657 74.9983 191.657H76.2972ZM83.7343 194.915C82.5702 194.915 81.5197 194.667 80.5827 194.17C79.66 193.673 78.9289 192.963 78.3894 192.041C77.8641 191.118 77.6015 190.039 77.6015 188.804C77.6015 187.583 77.8712 186.511 78.4107 185.588C78.9502 184.651 79.6884 183.934 80.6253 183.438C81.5623 182.941 82.6128 182.692 83.7769 182.692C84.941 182.692 85.9915 182.941 86.9285 183.438C87.8654 183.934 88.6037 184.651 89.1431 185.588C89.6826 186.511 89.9523 187.583 89.9523 188.804C89.9523 190.025 89.6755 191.104 89.1218 192.041C88.5824 192.963 87.8371 193.673 86.8859 194.17C85.9489 194.667 84.8984 194.915 83.7343 194.915ZM83.7343 191.764C84.4299 191.764 85.0191 191.508 85.5018 190.997C85.9986 190.486 86.2471 189.755 86.2471 188.804C86.2471 187.853 86.0057 187.122 85.5231 186.611C85.0546 186.099 84.4725 185.844 83.7769 185.844C83.0671 185.844 82.4779 186.099 82.0095 186.611C81.541 187.107 81.3067 187.838 81.3067 188.804C81.3067 189.755 81.5339 190.486 81.9882 190.997C82.4567 191.508 83.0387 191.764 83.7343 191.764ZM96.718 194.915C95.6816 194.915 94.7589 194.738 93.9497 194.383C93.1405 194.028 92.5017 193.545 92.0332 192.935C91.5647 192.31 91.3021 191.615 91.2453 190.848H94.844C94.8866 191.26 95.0783 191.593 95.419 191.849C95.7597 192.104 96.1785 192.232 96.6754 192.232C97.1297 192.232 97.4775 192.147 97.7188 191.977C97.9743 191.792 98.1021 191.558 98.1021 191.274C98.1021 190.933 97.9246 190.685 97.5697 190.529C97.2148 190.358 96.6399 190.174 95.8449 189.975C94.9931 189.776 94.2833 189.57 93.7154 189.357C93.1476 189.13 92.6578 188.783 92.2461 188.314C91.8344 187.831 91.6286 187.185 91.6286 186.376C91.6286 185.695 91.8131 185.077 92.1822 184.524C92.5655 183.956 93.1192 183.509 93.8432 183.182C94.5814 182.856 95.4545 182.692 96.4624 182.692C97.953 182.692 99.1242 183.061 99.976 183.8C100.842 184.538 101.339 185.517 101.467 186.738H98.1021C98.0453 186.327 97.8608 186 97.5484 185.759C97.2503 185.517 96.8528 185.397 96.356 185.397C95.9301 185.397 95.6036 185.482 95.3764 185.652C95.1493 185.808 95.0357 186.028 95.0357 186.312C95.0357 186.653 95.2132 186.909 95.5681 187.079C95.9372 187.249 96.505 187.42 97.2716 187.59C98.1518 187.817 98.8687 188.044 99.4224 188.271C99.976 188.484 100.459 188.839 100.87 189.336C101.296 189.819 101.516 190.472 101.531 191.295C101.531 191.991 101.332 192.616 100.934 193.169C100.551 193.709 99.9902 194.135 99.252 194.447C98.528 194.759 97.6833 194.915 96.718 194.915ZM107.547 188.783C107.547 187.562 107.774 186.49 108.228 185.567C108.697 184.644 109.329 183.934 110.123 183.438C110.918 182.941 111.806 182.692 112.785 182.692C113.566 182.692 114.276 182.856 114.915 183.182C115.568 183.509 116.079 183.949 116.448 184.502V178.987H120.089V194.745H116.448V193.041C116.107 193.609 115.617 194.064 114.979 194.404C114.354 194.745 113.623 194.915 112.785 194.915C111.806 194.915 110.918 194.667 110.123 194.17C109.329 193.659 108.697 192.942 108.228 192.019C107.774 191.082 107.547 190.003 107.547 188.783ZM116.448 188.804C116.448 187.895 116.192 187.178 115.681 186.653C115.184 186.128 114.574 185.865 113.85 185.865C113.126 185.865 112.508 186.128 111.997 186.653C111.501 187.164 111.252 187.874 111.252 188.783C111.252 189.691 111.501 190.415 111.997 190.955C112.508 191.48 113.126 191.742 113.85 191.742C114.574 191.742 115.184 191.48 115.681 190.955C116.192 190.429 116.448 189.712 116.448 188.804ZM133.925 188.612C133.925 188.953 133.903 189.308 133.861 189.677H125.62C125.677 190.415 125.911 190.983 126.322 191.38C126.748 191.764 127.266 191.955 127.877 191.955C128.786 191.955 129.417 191.572 129.772 190.806H133.648C133.449 191.586 133.087 192.289 132.562 192.914C132.051 193.538 131.405 194.028 130.624 194.383C129.843 194.738 128.97 194.915 128.005 194.915C126.841 194.915 125.804 194.667 124.896 194.17C123.987 193.673 123.277 192.963 122.766 192.041C122.255 191.118 122 190.039 122 188.804C122 187.569 122.248 186.49 122.745 185.567C123.256 184.644 123.966 183.934 124.874 183.438C125.783 182.941 126.826 182.692 128.005 182.692C129.155 182.692 130.177 182.934 131.071 183.416C131.965 183.899 132.661 184.588 133.158 185.482C133.669 186.376 133.925 187.42 133.925 188.612ZM130.198 187.654C130.198 187.029 129.985 186.532 129.559 186.163C129.133 185.794 128.601 185.61 127.962 185.61C127.352 185.61 126.834 185.787 126.408 186.142C125.996 186.497 125.74 187.001 125.641 187.654H130.198ZM160.929 179.796L157.032 194.745H152.624L150.239 184.907L147.769 194.745H143.361L139.57 179.796H143.467L145.618 190.678L148.28 179.796H152.283L154.838 190.678L157.01 179.796H160.929ZM164.586 181.628C163.947 181.628 163.422 181.443 163.01 181.074C162.613 180.691 162.414 180.222 162.414 179.669C162.414 179.101 162.613 178.632 163.01 178.263C163.422 177.88 163.947 177.688 164.586 177.688C165.211 177.688 165.722 177.88 166.119 178.263C166.531 178.632 166.737 179.101 166.737 179.669C166.737 180.222 166.531 180.691 166.119 181.074C165.722 181.443 165.211 181.628 164.586 181.628ZM166.396 182.863V194.745H162.755V182.863H166.396ZM178.192 185.759V188.783H168.822V185.759H178.192ZM191.119 179.796V182.714H185.029V185.865H189.586V188.697H185.029V194.745H181.387V179.796H191.119ZM194.864 181.628C194.225 181.628 193.7 181.443 193.288 181.074C192.891 180.691 192.692 180.222 192.692 179.669C192.692 179.101 192.891 178.632 193.288 178.263C193.7 177.88 194.225 177.688 194.864 177.688C195.489 177.688 196 177.88 196.397 178.263C196.809 178.632 197.015 179.101 197.015 179.669C197.015 180.222 196.809 180.691 196.397 181.074C196 181.443 195.489 181.628 194.864 181.628ZM196.674 182.863V194.745H193.033V182.863H196.674ZM211.151 183.395C211.037 182.87 210.839 182.479 210.555 182.224C210.271 181.954 209.866 181.819 209.341 181.819C208.532 181.819 207.95 182.174 207.595 182.884C207.24 183.58 207.055 184.687 207.041 186.206C207.353 185.709 207.801 185.319 208.383 185.035C208.979 184.751 209.632 184.609 210.342 184.609C211.733 184.609 212.847 185.049 213.685 185.929C214.537 186.809 214.963 188.037 214.963 189.613C214.963 190.649 214.75 191.558 214.324 192.339C213.912 193.12 213.302 193.73 212.493 194.17C211.698 194.61 210.753 194.83 209.66 194.83C207.474 194.83 205.955 194.149 205.103 192.786C204.252 191.409 203.826 189.436 203.826 186.866C203.826 184.169 204.273 182.167 205.167 180.861C206.076 179.541 207.524 178.881 209.511 178.881C210.576 178.881 211.47 179.094 212.194 179.519C212.933 179.931 213.486 180.478 213.855 181.159C214.239 181.841 214.466 182.586 214.537 183.395H211.151ZM209.469 187.484C208.858 187.484 208.347 187.668 207.936 188.037C207.538 188.392 207.339 188.903 207.339 189.57C207.339 190.252 207.524 190.784 207.893 191.168C208.276 191.551 208.816 191.742 209.511 191.742C210.136 191.742 210.626 191.558 210.981 191.189C211.35 190.806 211.534 190.287 211.534 189.634C211.534 188.967 211.357 188.442 211.002 188.059C210.647 187.675 210.136 187.484 209.469 187.484ZM221.173 188.804C221.173 187.569 221.421 186.49 221.918 185.567C222.429 184.644 223.132 183.934 224.026 183.438C224.935 182.941 225.971 182.692 227.135 182.692C228.626 182.692 229.868 183.083 230.862 183.864C231.87 184.644 232.53 185.745 232.842 187.164H228.967C228.64 186.256 228.008 185.801 227.071 185.801C226.404 185.801 225.872 186.064 225.474 186.589C225.077 187.1 224.878 187.838 224.878 188.804C224.878 189.769 225.077 190.514 225.474 191.04C225.872 191.551 226.404 191.806 227.071 191.806C228.008 191.806 228.64 191.352 228.967 190.444H232.842C232.53 191.835 231.87 192.928 230.862 193.723C229.854 194.518 228.612 194.915 227.135 194.915C225.971 194.915 224.935 194.667 224.026 194.17C223.132 193.673 222.429 192.963 221.918 192.041C221.421 191.118 221.173 190.039 221.173 188.804ZM240.199 194.915C239.035 194.915 237.984 194.667 237.047 194.17C236.124 193.673 235.393 192.963 234.854 192.041C234.329 191.118 234.066 190.039 234.066 188.804C234.066 187.583 234.336 186.511 234.875 185.588C235.415 184.651 236.153 183.934 237.09 183.438C238.027 182.941 239.077 182.692 240.241 182.692C241.405 182.692 242.456 182.941 243.393 183.438C244.33 183.934 245.068 184.651 245.608 185.588C246.147 186.511 246.417 187.583 246.417 188.804C246.417 190.025 246.14 191.104 245.586 192.041C245.047 192.963 244.302 193.673 243.35 194.17C242.413 194.667 241.363 194.915 240.199 194.915ZM240.199 191.764C240.894 191.764 241.484 191.508 241.966 190.997C242.463 190.486 242.712 189.755 242.712 188.804C242.712 187.853 242.47 187.122 241.988 186.611C241.519 186.099 240.937 185.844 240.241 185.844C239.532 185.844 238.942 186.099 238.474 186.611C238.005 187.107 237.771 187.838 237.771 188.804C237.771 189.755 237.998 190.486 238.453 190.997C238.921 191.508 239.503 191.764 240.199 191.764ZM263.51 182.735C264.987 182.735 266.158 183.182 267.024 184.076C267.904 184.971 268.344 186.213 268.344 187.803V194.745H264.724V188.293C264.724 187.526 264.518 186.937 264.107 186.525C263.709 186.099 263.155 185.886 262.446 185.886C261.736 185.886 261.175 186.099 260.763 186.525C260.366 186.937 260.167 187.526 260.167 188.293V194.745H256.547V188.293C256.547 187.526 256.341 186.937 255.929 186.525C255.532 186.099 254.978 185.886 254.268 185.886C253.559 185.886 252.998 186.099 252.586 186.525C252.189 186.937 251.99 187.526 251.99 188.293V194.745H248.349V182.863H251.99V184.353C252.359 183.856 252.842 183.466 253.438 183.182C254.034 182.884 254.709 182.735 255.461 182.735C256.355 182.735 257.15 182.927 257.846 183.31C258.556 183.693 259.109 184.24 259.507 184.95C259.919 184.297 260.479 183.764 261.189 183.352C261.899 182.941 262.673 182.735 263.51 182.735ZM282.026 191.657V194.745H280.173C278.853 194.745 277.824 194.426 277.086 193.787C276.347 193.134 275.978 192.076 275.978 190.614V185.886H274.53V182.863H275.978V179.967H279.62V182.863H282.005V185.886H279.62V190.656C279.62 191.011 279.705 191.267 279.875 191.423C280.046 191.579 280.33 191.657 280.727 191.657H282.026ZM295.255 188.612C295.255 188.953 295.234 189.308 295.191 189.677H286.95C287.007 190.415 287.241 190.983 287.653 191.38C288.079 191.764 288.597 191.955 289.208 191.955C290.116 191.955 290.748 191.572 291.103 190.806H294.978C294.78 191.586 294.418 192.289 293.892 192.914C293.381 193.538 292.735 194.028 291.955 194.383C291.174 194.738 290.301 194.915 289.335 194.915C288.171 194.915 287.135 194.667 286.226 194.17C285.318 193.673 284.608 192.963 284.097 192.041C283.586 191.118 283.33 190.039 283.33 188.804C283.33 187.569 283.579 186.49 284.076 185.567C284.587 184.644 285.296 183.934 286.205 183.438C287.114 182.941 288.157 182.692 289.335 182.692C290.485 182.692 291.507 182.934 292.402 183.416C293.296 183.899 293.992 184.588 294.489 185.482C295 186.376 295.255 187.42 295.255 188.612ZM291.529 187.654C291.529 187.029 291.316 186.532 290.89 186.163C290.464 185.794 289.932 185.61 289.293 185.61C288.682 185.61 288.164 185.787 287.738 186.142C287.327 186.497 287.071 187.001 286.972 187.654H291.529ZM296.452 188.804C296.452 187.569 296.701 186.49 297.197 185.567C297.709 184.644 298.411 183.934 299.306 183.438C300.214 182.941 301.251 182.692 302.415 182.692C303.905 182.692 305.147 183.083 306.141 183.864C307.149 184.644 307.809 185.745 308.122 187.164H304.246C303.919 186.256 303.288 185.801 302.351 185.801C301.684 185.801 301.151 186.064 300.754 186.589C300.356 187.1 300.157 187.838 300.157 188.804C300.157 189.769 300.356 190.514 300.754 191.04C301.151 191.551 301.684 191.806 302.351 191.806C303.288 191.806 303.919 191.352 304.246 190.444H308.122C307.809 191.835 307.149 192.928 306.141 193.723C305.133 194.518 303.891 194.915 302.415 194.915C301.251 194.915 300.214 194.667 299.306 194.17C298.411 193.673 297.709 192.963 297.197 192.041C296.701 191.118 296.452 190.039 296.452 188.804ZM317.309 182.735C318.701 182.735 319.808 183.189 320.631 184.098C321.469 184.992 321.888 186.227 321.888 187.803V194.745H318.268V188.293C318.268 187.498 318.062 186.88 317.65 186.44C317.238 186 316.685 185.78 315.989 185.78C315.294 185.78 314.74 186 314.328 186.44C313.917 186.88 313.711 187.498 313.711 188.293V194.745H310.069V182.863H313.711V184.438C314.08 183.913 314.577 183.502 315.201 183.203C315.826 182.891 316.529 182.735 317.309 182.735ZM329.827 194.915C328.663 194.915 327.612 194.667 326.675 194.17C325.753 193.673 325.021 192.963 324.482 192.041C323.957 191.118 323.694 190.039 323.694 188.804C323.694 187.583 323.964 186.511 324.503 185.588C325.043 184.651 325.781 183.934 326.718 183.438C327.655 182.941 328.705 182.692 329.87 182.692C331.034 182.692 332.084 182.941 333.021 183.438C333.958 183.934 334.696 184.651 335.236 185.588C335.775 186.511 336.045 187.583 336.045 188.804C336.045 190.025 335.768 191.104 335.214 192.041C334.675 192.963 333.93 193.673 332.979 194.17C332.042 194.667 330.991 194.915 329.827 194.915ZM329.827 191.764C330.523 191.764 331.112 191.508 331.594 190.997C332.091 190.486 332.34 189.755 332.34 188.804C332.34 187.853 332.098 187.122 331.616 186.611C331.147 186.099 330.565 185.844 329.87 185.844C329.16 185.844 328.571 186.099 328.102 186.611C327.634 187.107 327.399 187.838 327.399 188.804C327.399 189.755 327.626 190.486 328.081 190.997C328.549 191.508 329.131 191.764 329.827 191.764ZM341.618 178.987V194.745H337.977V178.987H341.618ZM349.666 194.915C348.502 194.915 347.451 194.667 346.514 194.17C345.591 193.673 344.86 192.963 344.321 192.041C343.796 191.118 343.533 190.039 343.533 188.804C343.533 187.583 343.803 186.511 344.342 185.588C344.882 184.651 345.62 183.934 346.557 183.438C347.494 182.941 348.544 182.692 349.708 182.692C350.872 182.692 351.923 182.941 352.86 183.438C353.797 183.934 354.535 184.651 355.075 185.588C355.614 186.511 355.884 187.583 355.884 188.804C355.884 190.025 355.607 191.104 355.053 192.041C354.514 192.963 353.768 193.673 352.817 194.17C351.88 194.667 350.83 194.915 349.666 194.915ZM349.666 191.764C350.361 191.764 350.95 191.508 351.433 190.997C351.93 190.486 352.178 189.755 352.178 188.804C352.178 187.853 351.937 187.122 351.454 186.611C350.986 186.099 350.404 185.844 349.708 185.844C348.999 185.844 348.409 186.099 347.941 186.611C347.472 187.107 347.238 187.838 347.238 188.804C347.238 189.755 347.465 190.486 347.92 190.997C348.388 191.508 348.97 191.764 349.666 191.764ZM362.33 182.692C363.168 182.692 363.899 182.863 364.523 183.203C365.162 183.544 365.652 183.991 365.993 184.545V182.863H369.634V194.724C369.634 195.817 369.414 196.803 368.974 197.684C368.548 198.578 367.888 199.288 366.993 199.813C366.113 200.338 365.013 200.601 363.693 200.601C361.932 200.601 360.506 200.182 359.413 199.345C358.319 198.521 357.695 197.4 357.539 195.98H361.137C361.251 196.434 361.521 196.789 361.947 197.045C362.373 197.315 362.898 197.449 363.522 197.449C364.275 197.449 364.871 197.229 365.311 196.789C365.765 196.363 365.993 195.675 365.993 194.724V193.041C365.638 193.595 365.148 194.049 364.523 194.404C363.899 194.745 363.168 194.915 362.33 194.915C361.35 194.915 360.463 194.667 359.668 194.17C358.873 193.659 358.241 192.942 357.773 192.019C357.319 191.082 357.092 190.003 357.092 188.783C357.092 187.562 357.319 186.49 357.773 185.567C358.241 184.644 358.873 183.934 359.668 183.438C360.463 182.941 361.35 182.692 362.33 182.692ZM365.993 188.804C365.993 187.895 365.737 187.178 365.226 186.653C364.729 186.128 364.119 185.865 363.395 185.865C362.671 185.865 362.053 186.128 361.542 186.653C361.045 187.164 360.797 187.874 360.797 188.783C360.797 189.691 361.045 190.415 361.542 190.955C362.053 191.48 362.671 191.742 363.395 191.742C364.119 191.742 364.729 191.48 365.226 190.955C365.737 190.429 365.993 189.712 365.993 188.804ZM374.1 181.628C373.461 181.628 372.936 181.443 372.524 181.074C372.126 180.691 371.928 180.222 371.928 179.669C371.928 179.101 372.126 178.632 372.524 178.263C372.936 177.88 373.461 177.688 374.1 177.688C374.724 177.688 375.235 177.88 375.633 178.263C376.045 178.632 376.25 179.101 376.25 179.669C376.25 180.222 376.045 180.691 375.633 181.074C375.235 181.443 374.724 181.628 374.1 181.628ZM375.91 182.863V194.745H372.268V182.863H375.91ZM377.825 188.783C377.825 187.562 378.052 186.49 378.506 185.567C378.974 184.644 379.606 183.934 380.401 183.438C381.196 182.941 382.083 182.692 383.063 182.692C383.901 182.692 384.632 182.863 385.256 183.203C385.895 183.544 386.385 183.991 386.726 184.545V182.863H390.367V194.745H386.726V193.063C386.371 193.616 385.874 194.064 385.235 194.404C384.61 194.745 383.879 194.915 383.042 194.915C382.076 194.915 381.196 194.667 380.401 194.17C379.606 193.659 378.974 192.942 378.506 192.019C378.052 191.082 377.825 190.003 377.825 188.783ZM386.726 188.804C386.726 187.895 386.47 187.178 385.959 186.653C385.462 186.128 384.852 185.865 384.128 185.865C383.404 185.865 382.786 186.128 382.275 186.653C381.778 187.164 381.53 187.874 381.53 188.783C381.53 189.691 381.778 190.415 382.275 190.955C382.786 191.48 383.404 191.742 384.128 191.742C384.852 191.742 385.462 191.48 385.959 190.955C386.47 190.429 386.726 189.712 386.726 188.804ZM414.443 179.796V194.745H410.802V185.78L407.458 194.745H404.52L401.155 185.759V194.745H397.514V179.796H401.815L406.01 190.145L410.163 179.796H414.443ZM422.47 194.894C421.377 194.894 420.398 194.717 419.532 194.362C418.666 194.007 417.97 193.482 417.445 192.786C416.934 192.09 416.664 191.253 416.636 190.273H420.511C420.568 190.827 420.76 191.253 421.086 191.551C421.413 191.835 421.839 191.977 422.364 191.977C422.903 191.977 423.329 191.856 423.642 191.615C423.954 191.359 424.11 191.011 424.11 190.571C424.11 190.202 423.982 189.897 423.727 189.656C423.485 189.414 423.18 189.216 422.811 189.059C422.456 188.903 421.945 188.726 421.278 188.527C420.313 188.229 419.525 187.931 418.914 187.633C418.304 187.335 417.778 186.894 417.338 186.312C416.898 185.73 416.678 184.971 416.678 184.034C416.678 182.643 417.182 181.557 418.19 180.776C419.198 179.981 420.511 179.583 422.13 179.583C423.776 179.583 425.104 179.981 426.112 180.776C427.12 181.557 427.659 182.65 427.73 184.055H423.791C423.762 183.572 423.585 183.196 423.258 182.927C422.932 182.643 422.513 182.501 422.002 182.501C421.562 182.501 421.207 182.621 420.937 182.863C420.667 183.09 420.533 183.423 420.533 183.864C420.533 184.346 420.76 184.722 421.214 184.992C421.668 185.262 422.378 185.553 423.343 185.865C424.309 186.192 425.09 186.504 425.686 186.802C426.296 187.1 426.822 187.533 427.262 188.101C427.702 188.669 427.922 189.4 427.922 190.294C427.922 191.146 427.702 191.92 427.262 192.616C426.836 193.311 426.211 193.865 425.388 194.277C424.564 194.688 423.592 194.894 422.47 194.894ZM443.11 179.796V194.745H439.468V188.591H433.804V194.745H430.163V179.796H433.804V185.652H439.468V179.796H443.11ZM21.3903 211.796V214.714H17.4295V226.745H13.7881V214.714H9.82735V211.796H21.3903ZM37.2508 211.796L31.9485 226.745H27.3915L22.0891 211.796H25.9647L29.67 223.082L33.3965 211.796H37.2508ZM42.5613 220.804C42.5613 219.569 42.8097 218.49 43.3066 217.567C43.8177 216.644 44.5204 215.934 45.4147 215.438C46.3233 214.941 47.3596 214.692 48.5237 214.692C50.0144 214.692 51.2565 215.083 52.2503 215.864C53.2582 216.644 53.9183 217.745 54.2307 219.164H50.3551C50.0286 218.256 49.3968 217.801 48.4599 217.801C47.7926 217.801 47.2603 218.064 46.8628 218.589C46.4653 219.1 46.2665 219.838 46.2665 220.804C46.2665 221.769 46.4653 222.514 46.8628 223.04C47.2603 223.551 47.7926 223.806 48.4599 223.806C49.3968 223.806 50.0286 223.352 50.3551 222.444H54.2307C53.9183 223.835 53.2582 224.928 52.2503 225.723C51.2423 226.518 50.0002 226.915 48.5237 226.915C47.3596 226.915 46.3233 226.667 45.4147 226.17C44.5204 225.673 43.8177 224.963 43.3066 224.041C42.8097 223.118 42.5613 222.039 42.5613 220.804ZM61.5872 226.915C60.4231 226.915 59.3726 226.667 58.4357 226.17C57.5129 225.673 56.7818 224.963 56.2423 224.041C55.7171 223.118 55.4544 222.039 55.4544 220.804C55.4544 219.583 55.7242 218.511 56.2636 217.588C56.8031 216.651 57.5413 215.934 58.4782 215.438C59.4152 214.941 60.4657 214.692 61.6298 214.692C62.7939 214.692 63.8444 214.941 64.7814 215.438C65.7184 215.934 66.4566 216.651 66.996 217.588C67.5355 218.511 67.8052 219.583 67.8052 220.804C67.8052 222.025 67.5284 223.104 66.9747 224.041C66.4353 224.963 65.69 225.673 64.7388 226.17C63.8019 226.667 62.7513 226.915 61.5872 226.915ZM61.5872 223.764C62.2829 223.764 62.872 223.508 63.3547 222.997C63.8515 222.486 64.1 221.755 64.1 220.804C64.1 219.853 63.8586 219.122 63.376 218.611C62.9075 218.099 62.3254 217.844 61.6298 217.844C60.92 217.844 60.3309 218.099 59.8624 218.611C59.3939 219.107 59.1597 219.838 59.1597 220.804C59.1597 221.755 59.3868 222.486 59.8411 222.997C60.3096 223.508 60.8916 223.764 61.5872 223.764ZM84.8987 214.735C86.3751 214.735 87.5463 215.182 88.4123 216.076C89.2925 216.971 89.7325 218.213 89.7325 219.803V226.745H86.1125V220.293C86.1125 219.526 85.9066 218.937 85.4949 218.525C85.0974 218.099 84.5438 217.886 83.834 217.886C83.1242 217.886 82.5634 218.099 82.1517 218.525C81.7542 218.937 81.5555 219.526 81.5555 220.293V226.745H77.9354V220.293C77.9354 219.526 77.7296 218.937 77.3179 218.525C76.9204 218.099 76.3667 217.886 75.6569 217.886C74.9471 217.886 74.3863 218.099 73.9746 218.525C73.5771 218.937 73.3784 219.526 73.3784 220.293V226.745H69.737V214.863H73.3784V216.353C73.7475 215.856 74.2302 215.466 74.8264 215.182C75.4227 214.884 76.097 214.735 76.8494 214.735C77.7438 214.735 78.5387 214.927 79.2344 215.31C79.9442 215.693 80.4978 216.24 80.8953 216.95C81.307 216.297 81.8678 215.764 82.5776 215.352C83.2874 214.941 84.0611 214.735 84.8987 214.735ZM96.515 223.977V221.038L103.244 211.413H107.311V220.825H109.057V223.977H107.311V226.745H103.67V223.977H96.515ZM103.925 215.416L100.348 220.825H103.925V215.416ZM110.458 214.586V211.2H116.356V226.745H112.566V214.586H110.458ZM122.998 220.804C122.998 219.569 123.246 218.49 123.743 217.567C124.254 216.644 124.957 215.934 125.851 215.438C126.76 214.941 127.796 214.692 128.96 214.692C130.451 214.692 131.693 215.083 132.687 215.864C133.695 216.644 134.355 217.745 134.667 219.164H130.792C130.465 218.256 129.833 217.801 128.896 217.801C128.229 217.801 127.697 218.064 127.299 218.589C126.902 219.1 126.703 219.838 126.703 220.804C126.703 221.769 126.902 222.514 127.299 223.04C127.697 223.551 128.229 223.806 128.896 223.806C129.833 223.806 130.465 223.352 130.792 222.444H134.667C134.355 223.835 133.695 224.928 132.687 225.723C131.679 226.518 130.437 226.915 128.96 226.915C127.796 226.915 126.76 226.667 125.851 226.17C124.957 225.673 124.254 224.963 123.743 224.041C123.246 223.118 122.998 222.039 122.998 220.804ZM135.891 220.783C135.891 219.562 136.118 218.49 136.572 217.567C137.041 216.644 137.673 215.934 138.468 215.438C139.263 214.941 140.15 214.692 141.129 214.692C141.967 214.692 142.698 214.863 143.323 215.203C143.962 215.544 144.451 215.991 144.792 216.545V214.863H148.433V226.745H144.792V225.063C144.437 225.616 143.94 226.064 143.301 226.404C142.677 226.745 141.946 226.915 141.108 226.915C140.143 226.915 139.263 226.667 138.468 226.17C137.673 225.659 137.041 224.942 136.572 224.019C136.118 223.082 135.891 222.003 135.891 220.783ZM144.792 220.804C144.792 219.895 144.537 219.178 144.025 218.653C143.529 218.128 142.918 217.865 142.194 217.865C141.47 217.865 140.853 218.128 140.342 218.653C139.845 219.164 139.596 219.874 139.596 220.783C139.596 221.691 139.845 222.415 140.342 222.955C140.853 223.48 141.47 223.742 142.194 223.742C142.918 223.742 143.529 223.48 144.025 222.955C144.537 222.429 144.792 221.712 144.792 220.804ZM158.308 214.735C159.699 214.735 160.806 215.189 161.63 216.098C162.467 216.992 162.886 218.227 162.886 219.803V226.745H159.266V220.293C159.266 219.498 159.06 218.88 158.649 218.44C158.237 218 157.683 217.78 156.988 217.78C156.292 217.78 155.738 218 155.327 218.44C154.915 218.88 154.709 219.498 154.709 220.293V226.745H151.068V214.863H154.709V216.438C155.078 215.913 155.575 215.502 156.2 215.203C156.824 214.891 157.527 214.735 158.308 214.735ZM164.693 220.783C164.693 219.562 164.92 218.49 165.374 217.567C165.842 216.644 166.474 215.934 167.269 215.438C168.064 214.941 168.951 214.692 169.931 214.692C170.769 214.692 171.5 214.863 172.124 215.203C172.763 215.544 173.253 215.991 173.594 216.545V214.863H177.235V226.745H173.594V225.063C173.239 225.616 172.742 226.064 172.103 226.404C171.478 226.745 170.747 226.915 169.91 226.915C168.944 226.915 168.064 226.667 167.269 226.17C166.474 225.659 165.842 224.942 165.374 224.019C164.92 223.082 164.693 222.003 164.693 220.783ZM173.594 220.804C173.594 219.895 173.338 219.178 172.827 218.653C172.33 218.128 171.72 217.865 170.996 217.865C170.272 217.865 169.654 218.128 169.143 218.653C168.646 219.164 168.398 219.874 168.398 220.783C168.398 221.691 168.646 222.415 169.143 222.955C169.654 223.48 170.272 223.742 170.996 223.742C171.72 223.742 172.33 223.48 172.827 222.955C173.338 222.429 173.594 221.712 173.594 220.804ZM181.701 213.628C181.062 213.628 180.537 213.443 180.125 213.074C179.727 212.691 179.529 212.222 179.529 211.669C179.529 211.101 179.727 210.632 180.125 210.263C180.537 209.88 181.062 209.688 181.701 209.688C182.325 209.688 182.836 209.88 183.234 210.263C183.646 210.632 183.851 211.101 183.851 211.669C183.851 212.222 183.646 212.691 183.234 213.074C182.836 213.443 182.325 213.628 181.701 213.628ZM183.511 214.863V226.745H179.869V214.863H183.511ZM190.983 226.915C189.947 226.915 189.024 226.738 188.215 226.383C187.406 226.028 186.767 225.545 186.299 224.935C185.83 224.31 185.568 223.615 185.511 222.848H189.11C189.152 223.26 189.344 223.593 189.684 223.849C190.025 224.104 190.444 224.232 190.941 224.232C191.395 224.232 191.743 224.147 191.984 223.977C192.24 223.792 192.368 223.558 192.368 223.274C192.368 222.933 192.19 222.685 191.835 222.529C191.48 222.358 190.905 222.174 190.11 221.975C189.259 221.776 188.549 221.57 187.981 221.357C187.413 221.13 186.923 220.783 186.512 220.314C186.1 219.831 185.894 219.185 185.894 218.376C185.894 217.695 186.079 217.077 186.448 216.524C186.831 215.956 187.385 215.509 188.109 215.182C188.847 214.856 189.72 214.692 190.728 214.692C192.219 214.692 193.39 215.061 194.242 215.8C195.107 216.538 195.604 217.517 195.732 218.738H192.368C192.311 218.327 192.126 218 191.814 217.759C191.516 217.517 191.118 217.397 190.621 217.397C190.196 217.397 189.869 217.482 189.642 217.652C189.415 217.808 189.301 218.028 189.301 218.312C189.301 218.653 189.479 218.909 189.834 219.079C190.203 219.249 190.771 219.42 191.537 219.59C192.417 219.817 193.134 220.044 193.688 220.271C194.242 220.484 194.724 220.839 195.136 221.336C195.562 221.819 195.782 222.472 195.796 223.295C195.796 223.991 195.597 224.616 195.2 225.169C194.816 225.709 194.256 226.135 193.517 226.447C192.793 226.759 191.949 226.915 190.983 226.915ZM201.812 220.783C201.812 219.562 202.039 218.49 202.494 217.567C202.962 216.644 203.594 215.934 204.389 215.438C205.184 214.941 206.071 214.692 207.051 214.692C207.888 214.692 208.619 214.863 209.244 215.203C209.883 215.544 210.373 215.991 210.713 216.545V214.863H214.355V226.745H210.713V225.063C210.359 225.616 209.862 226.064 209.223 226.404C208.598 226.745 207.867 226.915 207.03 226.915C206.064 226.915 205.184 226.667 204.389 226.17C203.594 225.659 202.962 224.942 202.494 224.019C202.039 223.082 201.812 222.003 201.812 220.783ZM210.713 220.804C210.713 219.895 210.458 219.178 209.947 218.653C209.45 218.128 208.84 217.865 208.116 217.865C207.392 217.865 206.774 218.128 206.263 218.653C205.766 219.164 205.518 219.874 205.518 220.783C205.518 221.691 205.766 222.415 206.263 222.955C206.774 223.48 207.392 223.742 208.116 223.742C208.84 223.742 209.45 223.48 209.947 222.955C210.458 222.429 210.713 221.712 210.713 220.804ZM220.631 216.545C220.971 215.991 221.461 215.544 222.1 215.203C222.739 214.863 223.47 214.692 224.293 214.692C225.273 214.692 226.16 214.941 226.955 215.438C227.75 215.934 228.375 216.644 228.829 217.567C229.297 218.49 229.532 219.562 229.532 220.783C229.532 222.003 229.297 223.082 228.829 224.019C228.375 224.942 227.75 225.659 226.955 226.17C226.16 226.667 225.273 226.915 224.293 226.915C223.456 226.915 222.724 226.752 222.1 226.426C221.475 226.085 220.985 225.638 220.631 225.084V226.745H216.989V210.987H220.631V216.545ZM225.826 220.783C225.826 219.874 225.571 219.164 225.06 218.653C224.563 218.128 223.945 217.865 223.207 217.865C222.483 217.865 221.866 218.128 221.355 218.653C220.858 219.178 220.609 219.895 220.609 220.804C220.609 221.712 220.858 222.429 221.355 222.955C221.866 223.48 222.483 223.742 223.207 223.742C223.931 223.742 224.549 223.48 225.06 222.955C225.571 222.415 225.826 221.691 225.826 220.783ZM242.643 220.612C242.643 220.953 242.622 221.308 242.579 221.677H234.338C234.395 222.415 234.629 222.983 235.041 223.38C235.467 223.764 235.985 223.955 236.595 223.955C237.504 223.955 238.136 223.572 238.49 222.806H242.366C242.167 223.586 241.805 224.289 241.28 224.914C240.769 225.538 240.123 226.028 239.342 226.383C238.561 226.738 237.688 226.915 236.723 226.915C235.559 226.915 234.523 226.667 233.614 226.17C232.705 225.673 231.996 224.963 231.485 224.041C230.973 223.118 230.718 222.039 230.718 220.804C230.718 219.569 230.966 218.49 231.463 217.567C231.974 216.644 232.684 215.934 233.593 215.438C234.501 214.941 235.545 214.692 236.723 214.692C237.873 214.692 238.895 214.934 239.789 215.416C240.684 215.899 241.379 216.588 241.876 217.482C242.387 218.376 242.643 219.42 242.643 220.612ZM238.916 219.654C238.916 219.029 238.703 218.532 238.277 218.163C237.852 217.794 237.319 217.61 236.68 217.61C236.07 217.61 235.552 217.787 235.126 218.142C234.714 218.497 234.459 219.001 234.359 219.654H238.916ZM248.205 216.843C248.631 216.19 249.163 215.679 249.802 215.31C250.441 214.927 251.151 214.735 251.932 214.735V218.589H250.931C250.022 218.589 249.341 218.788 248.887 219.185C248.432 219.569 248.205 220.25 248.205 221.23V226.745H244.564V214.863H248.205V216.843ZM260.295 223.657V226.745H258.442C257.122 226.745 256.093 226.426 255.354 225.787C254.616 225.134 254.247 224.076 254.247 222.614V217.886H252.799V214.863H254.247V211.967H257.889V214.863H260.274V217.886H257.889V222.656C257.889 223.011 257.974 223.267 258.144 223.423C258.314 223.579 258.598 223.657 258.996 223.657H260.295ZM267.732 226.915C266.568 226.915 265.517 226.667 264.58 226.17C263.658 225.673 262.926 224.963 262.387 224.041C261.862 223.118 261.599 222.039 261.599 220.804C261.599 219.583 261.869 218.511 262.408 217.588C262.948 216.651 263.686 215.934 264.623 215.438C265.56 214.941 266.61 214.692 267.774 214.692C268.939 214.692 269.989 214.941 270.926 215.438C271.863 215.934 272.601 216.651 273.141 217.588C273.68 218.511 273.95 219.583 273.95 220.804C273.95 222.025 273.673 223.104 273.119 224.041C272.58 224.963 271.835 225.673 270.883 226.17C269.947 226.667 268.896 226.915 267.732 226.915ZM267.732 223.764C268.428 223.764 269.017 223.508 269.499 222.997C269.996 222.486 270.245 221.755 270.245 220.804C270.245 219.853 270.003 219.122 269.521 218.611C269.052 218.099 268.47 217.844 267.774 217.844C267.065 217.844 266.476 218.099 266.007 218.611C265.539 219.107 265.304 219.838 265.304 220.804C265.304 221.755 265.531 222.486 265.986 222.997C266.454 223.508 267.036 223.764 267.732 223.764ZM280.716 226.915C279.679 226.915 278.756 226.738 277.947 226.383C277.138 226.028 276.499 225.545 276.031 224.935C275.562 224.31 275.3 223.615 275.243 222.848H278.842C278.884 223.26 279.076 223.593 279.417 223.849C279.757 224.104 280.176 224.232 280.673 224.232C281.127 224.232 281.475 224.147 281.716 223.977C281.972 223.792 282.1 223.558 282.1 223.274C282.1 222.933 281.922 222.685 281.567 222.529C281.212 222.358 280.637 222.174 279.842 221.975C278.991 221.776 278.281 221.57 277.713 221.357C277.145 221.13 276.655 220.783 276.244 220.314C275.832 219.831 275.626 219.185 275.626 218.376C275.626 217.695 275.811 217.077 276.18 216.524C276.563 215.956 277.117 215.509 277.841 215.182C278.579 214.856 279.452 214.692 280.46 214.692C281.951 214.692 283.122 215.061 283.974 215.8C284.84 216.538 285.336 217.517 285.464 218.738H282.1C282.043 218.327 281.858 218 281.546 217.759C281.248 217.517 280.85 217.397 280.354 217.397C279.928 217.397 279.601 217.482 279.374 217.652C279.147 217.808 279.033 218.028 279.033 218.312C279.033 218.653 279.211 218.909 279.566 219.079C279.935 219.249 280.503 219.42 281.269 219.59C282.149 219.817 282.866 220.044 283.42 220.271C283.974 220.484 284.456 220.839 284.868 221.336C285.294 221.819 285.514 222.472 285.528 223.295C285.528 223.991 285.329 224.616 284.932 225.169C284.549 225.709 283.988 226.135 283.25 226.447C282.526 226.759 281.681 226.915 280.716 226.915Z" fill="#022162"/>
<path d="M73.087 50.0942H43.0653V63.373C44.3483 61.9617 46.1444 60.8071 48.4538 59.909C50.7632 59.0109 53.265 58.5618 55.9592 58.5618C60.7704 58.5618 64.7476 59.6524 67.8909 61.8334C71.0984 64.0145 73.4398 66.8371 74.9152 70.3011C76.3907 73.7651 77.1284 77.5179 77.1284 81.5592C77.1284 89.0647 75.0115 95.0305 70.7776 99.4568C66.5438 103.819 60.578 106 52.8801 106C47.7482 106 43.2898 105.134 39.505 103.402C35.7202 101.606 32.8015 99.1361 30.7487 95.9928C28.6959 92.8495 27.5733 89.225 27.3809 85.1195H43.4502C43.8351 87.1081 44.7652 88.776 46.2407 90.1231C47.7161 91.4061 49.7368 92.0476 52.3027 92.0476C55.3177 92.0476 57.563 91.0854 59.0384 89.1609C60.5138 87.2364 61.2515 84.6705 61.2515 81.463C61.2515 78.3197 60.4817 75.9141 58.9422 74.2463C57.4026 72.5784 55.1574 71.7445 52.2065 71.7445C50.0255 71.7445 48.2293 72.2897 46.818 73.3803C45.4067 74.4066 44.4766 75.7858 44.0275 77.5179H28.1507V35.6607H73.087V50.0942ZM86.211 69.9162C86.211 58.8826 88.3279 50.1904 92.5617 43.8397C96.8597 37.4889 103.756 34.3135 113.25 34.3135C122.744 34.3135 129.608 37.4889 133.842 43.8397C138.14 50.1904 140.289 58.8826 140.289 69.9162C140.289 81.0781 138.14 89.8345 133.842 96.1852C129.608 102.536 122.744 105.711 113.25 105.711C103.756 105.711 96.8597 102.536 92.5617 96.1852C88.3279 89.8345 86.211 81.0781 86.211 69.9162ZM124.123 69.9162C124.123 63.4372 123.417 58.4656 122.006 55.0016C120.595 51.4734 117.676 49.7093 113.25 49.7093C108.823 49.7093 105.905 51.4734 104.493 55.0016C103.082 58.4656 102.377 63.4372 102.377 69.9162C102.377 74.2783 102.633 77.9028 103.146 80.7895C103.659 83.612 104.686 85.9214 106.225 87.7175C107.829 89.4496 110.171 90.3156 113.25 90.3156C116.329 90.3156 118.638 89.4496 120.178 87.7175C121.782 85.9214 122.84 83.612 123.353 80.7895C123.866 77.9028 124.123 74.2783 124.123 69.9162ZM148.982 69.9162C148.982 58.8826 151.099 50.1904 155.332 43.8397C159.63 37.4889 166.526 34.3135 176.021 34.3135C185.515 34.3135 192.379 37.4889 196.612 43.8397C200.91 50.1904 203.059 58.8826 203.059 69.9162C203.059 81.0781 200.91 89.8345 196.612 96.1852C192.379 102.536 185.515 105.711 176.021 105.711C166.526 105.711 159.63 102.536 155.332 96.1852C151.099 89.8345 148.982 81.0781 148.982 69.9162ZM186.894 69.9162C186.894 63.4372 186.188 58.4656 184.777 55.0016C183.366 51.4734 180.447 49.7093 176.021 49.7093C171.594 49.7093 168.675 51.4734 167.264 55.0016C165.853 58.4656 165.147 63.4372 165.147 69.9162C165.147 74.2783 165.404 77.9028 165.917 80.7895C166.43 83.612 167.457 85.9214 168.996 87.7175C170.6 89.4496 172.941 90.3156 176.021 90.3156C179.1 90.3156 181.409 89.4496 182.949 87.7175C184.552 85.9214 185.611 83.612 186.124 80.7895C186.637 77.9028 186.894 74.2783 186.894 69.9162Z" fill="#022162"/>
<path d="M247.468 61.7716V82.4197H242.439V70.0367L237.821 82.4197H233.762L229.114 70.0073V82.4197H224.085V61.7716H230.026L235.821 76.0664L241.556 61.7716H247.468ZM263.586 71.8309C264.782 72.0858 265.743 72.6839 266.468 73.6251C267.194 74.5467 267.557 75.6056 267.557 76.8017C267.557 78.5273 266.949 79.8999 265.733 80.9196C264.537 81.9197 262.86 82.4197 260.703 82.4197H251.085V61.7716H260.38C262.478 61.7716 264.115 62.252 265.292 63.2128C266.488 64.1736 267.086 65.4776 267.086 67.1248C267.086 68.3405 266.762 69.3504 266.115 70.1543C265.488 70.9583 264.645 71.5172 263.586 71.8309ZM256.115 70.1249H259.409C260.233 70.1249 260.86 69.9484 261.292 69.5955C261.743 69.2229 261.968 68.6837 261.968 67.9778C261.968 67.2718 261.743 66.7326 261.292 66.36C260.86 65.9875 260.233 65.8012 259.409 65.8012H256.115V70.1249ZM259.821 78.3606C260.664 78.3606 261.311 78.1744 261.762 77.8018C262.233 77.4096 262.468 76.8508 262.468 76.1252C262.468 75.3997 262.223 74.8311 261.733 74.4193C261.262 74.0075 260.605 73.8016 259.762 73.8016H256.115V78.3606H259.821Z" fill="#022162"/>
<path d="M300.74 101.915L295.204 91.8663H293.649V101.915H287.165V75.2952H298.048C300.146 75.2952 301.928 75.6618 303.394 76.3949C304.886 77.128 305.998 78.1393 306.731 79.4285C307.465 80.6925 307.831 82.1082 307.831 83.6756C307.831 85.4452 307.326 87.0252 306.314 88.4156C305.328 89.806 303.862 90.7919 301.916 91.3734L308.059 101.915H300.74ZM293.649 87.278H297.669C298.857 87.278 299.741 86.9873 300.323 86.4058C300.93 85.8244 301.233 85.0028 301.233 83.941C301.233 82.9298 300.93 82.1335 300.323 81.5521C299.741 80.9706 298.857 80.6799 297.669 80.6799H293.649V87.278ZM332.037 94.1795C332.037 95.5699 331.671 96.8591 330.937 98.0473C330.23 99.2102 329.168 100.171 327.752 100.929C326.362 101.662 324.706 102.067 322.785 102.143V105.214H320.358V102.105C317.678 101.877 315.517 101.081 313.873 99.7158C312.23 98.3254 311.358 96.442 311.257 94.0657H318.158C318.31 95.5825 319.043 96.5558 320.358 96.9855V90.9942C318.386 90.4886 316.806 89.9956 315.618 89.5153C314.455 89.035 313.431 88.2639 312.546 87.2022C311.661 86.1404 311.219 84.6868 311.219 82.8413C311.219 80.5409 312.066 78.6954 313.76 77.305C315.479 75.9146 317.678 75.1309 320.358 74.954V71.8824H322.785V74.954C325.439 75.1562 327.537 75.9272 329.079 77.2671C330.621 78.6069 331.481 80.465 331.658 82.8413H324.719C324.567 81.4762 323.922 80.5914 322.785 80.1869V86.0646C324.883 86.646 326.501 87.1642 327.638 87.6193C328.776 88.0743 329.787 88.8327 330.672 89.8945C331.582 90.931 332.037 92.3593 332.037 94.1795ZM318.083 82.538C318.083 83.17 318.272 83.7009 318.651 84.1306C319.056 84.5604 319.625 84.9396 320.358 85.2682V79.9973C319.65 80.1237 319.094 80.4018 318.689 80.8316C318.285 81.2361 318.083 81.8049 318.083 82.538ZM322.785 97.0993C323.543 96.9729 324.137 96.6695 324.567 96.1892C325.022 95.7089 325.249 95.1148 325.249 94.407C325.249 93.7497 325.035 93.2188 324.605 92.8143C324.2 92.3846 323.594 92.018 322.785 91.7147V97.0993ZM348.646 68.3306C343.277 65.4748 340.593 60.9911 340.593 54.8796C340.593 51.7954 341.392 48.9966 342.991 46.4835C344.591 43.9133 347.018 41.8856 350.274 40.4006C353.53 38.8584 357.528 38.0874 362.268 38.0874C367.009 38.0874 370.979 38.8584 374.177 40.4006C377.433 41.8856 379.86 43.9133 381.46 46.4835C383.059 48.9966 383.858 51.7954 383.858 54.8796C383.858 57.9639 383.116 60.6484 381.631 62.9331C380.203 65.2178 378.261 67.0169 375.805 68.3306C378.889 69.8156 381.26 71.8718 382.916 74.4992C384.572 77.0694 385.401 80.0966 385.401 83.5807C385.401 87.636 384.372 91.1487 382.316 94.1187C380.26 97.0317 377.461 99.2592 373.92 100.801C370.436 102.344 366.552 103.115 362.268 103.115C357.985 103.115 354.072 102.344 350.531 100.801C347.047 99.2592 344.277 97.0317 342.22 94.1187C340.164 91.1487 339.136 87.636 339.136 83.5807C339.136 80.0395 339.964 76.9838 341.621 74.4135C343.277 71.7862 345.619 69.7585 348.646 68.3306ZM369.636 57.1072C369.636 54.7654 368.951 52.9662 367.58 51.7097C366.267 50.396 364.496 49.7392 362.268 49.7392C360.041 49.7392 358.242 50.396 356.871 51.7097C355.557 53.0234 354.9 54.8511 354.9 57.1929C354.9 59.4204 355.586 61.191 356.957 62.5047C358.327 63.7613 360.098 64.3896 362.268 64.3896C364.439 64.3896 366.209 63.7327 367.58 62.419C368.951 61.1054 369.636 59.3347 369.636 57.1072ZM362.268 74.6705C359.584 74.6705 357.413 75.4131 355.757 76.8981C354.101 78.326 353.272 80.3251 353.272 82.8953C353.272 85.2942 354.072 87.2648 355.671 88.8069C357.328 90.3491 359.527 91.1201 362.268 91.1201C365.01 91.1201 367.152 90.3491 368.694 88.8069C370.293 87.2648 371.093 85.2942 371.093 82.8953C371.093 80.3822 370.265 78.3831 368.608 76.8981C367.009 75.4131 364.896 74.6705 362.268 74.6705ZM394.263 90.7774V78.9543L421.336 40.2292H437.7V78.0975H444.725V90.7774H437.7V101.915H423.049V90.7774H394.263ZM424.077 56.3361L409.684 78.0975H424.077V56.3361ZM457.374 95.9238L453.165 106.807H449.032L451.231 95.9238H457.374ZM467.617 93.8003C467.996 95.7974 469.159 96.7959 471.105 96.7959C472.445 96.7959 473.393 96.2019 473.949 95.0137C474.505 93.8255 474.783 91.8916 474.783 89.2119C474.227 89.9956 473.469 90.6023 472.508 91.0321C471.548 91.4619 470.473 91.6767 469.285 91.6767C467.667 91.6767 466.226 91.3481 464.962 90.6908C463.698 90.0082 462.7 89.0097 461.966 87.6951C461.259 86.3553 460.905 84.7374 460.905 82.8413C460.905 80.9706 461.284 79.3401 462.042 77.9497C462.826 76.5592 463.926 75.4848 465.341 74.7264C466.782 73.968 468.476 73.5888 470.423 73.5888C474.164 73.5888 476.781 74.7517 478.272 77.0775C479.764 79.4033 480.509 82.8287 480.509 87.3538C480.509 90.6402 480.206 93.3579 479.599 95.5067C479.018 97.6302 478.019 99.2481 476.604 100.36C475.213 101.473 473.305 102.029 470.878 102.029C468.956 102.029 467.313 101.65 465.948 100.891C464.608 100.133 463.572 99.1344 462.839 97.8956C462.131 96.6569 461.726 95.2918 461.625 93.8003H467.617ZM470.764 86.5575C471.826 86.5575 472.673 86.2415 473.305 85.6095C473.937 84.9522 474.253 84.0674 474.253 82.9551C474.253 81.7417 473.924 80.8063 473.267 80.149C472.609 79.4917 471.725 79.1631 470.612 79.1631C469.5 79.1631 468.615 79.5044 467.958 80.1869C467.326 80.8442 467.01 81.7543 467.01 82.9172C467.01 84.0042 467.326 84.889 467.958 85.5716C468.615 86.2289 469.55 86.5575 470.764 86.5575ZM483.969 87.6951C483.969 83.3469 484.803 79.9215 486.472 77.4188C488.166 74.916 490.883 73.6647 494.625 73.6647C498.366 73.6647 501.071 74.916 502.739 77.4188C504.433 79.9215 505.28 83.3469 505.28 87.6951C505.28 92.0939 504.433 95.5446 502.739 98.0473C501.071 100.55 498.366 101.801 494.625 101.801C490.883 101.801 488.166 100.55 486.472 98.0473C484.803 95.5446 483.969 92.0939 483.969 87.6951ZM498.91 87.6951C498.91 85.1418 498.631 83.1826 498.075 81.8175C497.519 80.4271 496.369 79.7319 494.625 79.7319C492.88 79.7319 491.73 80.4271 491.174 81.8175C490.618 83.1826 490.34 85.1418 490.34 87.6951C490.34 89.4142 490.441 90.8425 490.643 91.9801C490.845 93.0924 491.25 94.0025 491.856 94.7103C492.488 95.3929 493.411 95.7342 494.625 95.7342C495.838 95.7342 496.748 95.3929 497.355 94.7103C497.987 94.0025 498.404 93.0924 498.606 91.9801C498.808 90.8425 498.91 89.4142 498.91 87.6951Z" fill="white"/>
<path d="M359.205 18.4008C359.205 17.3235 359.405 16.3778 359.806 15.5636C360.22 14.7494 360.777 14.1231 361.478 13.6847C362.18 13.2462 362.963 13.027 363.827 13.027C364.566 13.027 365.211 13.1773 365.762 13.478C366.326 13.7786 366.758 14.1732 367.059 14.6617V13.1773H370.272V23.6617H367.059V22.1774C366.746 22.6659 366.307 23.0605 365.744 23.3611C365.192 23.6617 364.547 23.8121 363.808 23.8121C362.957 23.8121 362.18 23.5928 361.478 23.1544C360.777 22.7035 360.22 22.0709 359.806 21.2567C359.405 20.43 359.205 19.478 359.205 18.4008ZM367.059 18.4195C367.059 17.6179 366.833 16.9853 366.382 16.5218C365.944 16.0584 365.405 15.8266 364.767 15.8266C364.128 15.8266 363.583 16.0584 363.132 16.5218C362.693 16.9728 362.474 17.5991 362.474 18.4008C362.474 19.2024 362.693 19.8413 363.132 20.3173C363.583 20.7807 364.128 21.0125 364.767 21.0125C365.405 21.0125 365.944 20.7807 366.382 20.3173C366.833 19.8538 367.059 19.2212 367.059 18.4195ZM375.809 14.6617C376.122 14.1732 376.554 13.7786 377.106 13.478C377.657 13.1773 378.302 13.027 379.041 13.027C379.905 13.027 380.688 13.2462 381.39 13.6847C382.091 14.1231 382.642 14.7494 383.043 15.5636C383.456 16.3778 383.663 17.3235 383.663 18.4008C383.663 19.478 383.456 20.43 383.043 21.2567C382.642 22.0709 382.091 22.7035 381.39 23.1544C380.688 23.5928 379.905 23.8121 379.041 23.8121C378.314 23.8121 377.669 23.6617 377.106 23.3611C376.554 23.0605 376.122 22.6722 375.809 22.1962V28.6597H372.596V13.1773H375.809V14.6617ZM380.394 18.4008C380.394 17.5991 380.168 16.9728 379.717 16.5218C379.279 16.0584 378.734 15.8266 378.083 15.8266C377.444 15.8266 376.899 16.0584 376.448 16.5218C376.01 16.9853 375.79 17.6179 375.79 18.4195C375.79 19.2212 376.01 19.8538 376.448 20.3173C376.899 20.7807 377.444 21.0125 378.083 21.0125C378.722 21.0125 379.266 20.7807 379.717 20.3173C380.168 19.8413 380.394 19.2024 380.394 18.4008ZM395.232 18.2504C395.232 18.5511 395.213 18.8642 395.175 19.1899H387.904C387.954 19.8413 388.161 20.3423 388.524 20.693C388.9 21.0312 389.357 21.2004 389.896 21.2004C390.697 21.2004 391.255 20.8621 391.568 20.1857H394.988C394.812 20.8747 394.493 21.4947 394.029 22.0459C393.578 22.597 393.008 23.0292 392.32 23.3423C391.631 23.6555 390.86 23.8121 390.008 23.8121C388.981 23.8121 388.067 23.5928 387.265 23.1544C386.464 22.716 385.837 22.0897 385.386 21.2755C384.935 20.4613 384.71 19.5093 384.71 18.4195C384.71 17.3298 384.929 16.3778 385.367 15.5636C385.818 14.7494 386.445 14.1231 387.246 13.6847C388.048 13.2462 388.969 13.027 390.008 13.027C391.023 13.027 391.925 13.24 392.714 13.6659C393.503 14.0918 394.117 14.6993 394.555 15.4884C395.006 16.2776 395.232 17.1982 395.232 18.2504ZM391.944 17.4049C391.944 16.8538 391.756 16.4154 391.38 16.0897C391.004 15.764 390.535 15.6012 389.971 15.6012C389.432 15.6012 388.975 15.7577 388.599 16.0709C388.236 16.384 388.011 16.8287 387.923 17.4049H391.944ZM403.315 13.0646C404.543 13.0646 405.52 13.4654 406.246 14.2671C406.985 15.0563 407.355 16.146 407.355 17.5365V23.6617H404.161V17.9686C404.161 17.2671 403.979 16.7222 403.616 16.3339C403.253 15.9456 402.764 15.7515 402.15 15.7515C401.536 15.7515 401.048 15.9456 400.685 16.3339C400.321 16.7222 400.14 17.2671 400.14 17.9686V23.6617H396.927V13.1773H400.14V14.5677C400.465 14.1043 400.904 13.741 401.455 13.478C402.006 13.2024 402.626 13.0646 403.315 13.0646ZM408.949 18.4008C408.949 17.3235 409.149 16.3778 409.55 15.5636C409.963 14.7494 410.521 14.1231 411.222 13.6847C411.924 13.2462 412.707 13.027 413.571 13.027C414.31 13.027 414.955 13.1773 415.506 13.478C416.07 13.7786 416.502 14.1732 416.803 14.6617V13.1773H420.016V23.6617H416.803V22.1774C416.489 22.6659 416.051 23.0605 415.487 23.3611C414.936 23.6617 414.291 23.8121 413.552 23.8121C412.7 23.8121 411.924 23.5928 411.222 23.1544C410.521 22.7035 409.963 22.0709 409.55 21.2567C409.149 20.43 408.949 19.478 408.949 18.4008ZM416.803 18.4195C416.803 17.6179 416.577 16.9853 416.126 16.5218C415.688 16.0584 415.149 15.8266 414.51 15.8266C413.871 15.8266 413.327 16.0584 412.876 16.5218C412.437 16.9728 412.218 17.5991 412.218 18.4008C412.218 19.2024 412.437 19.8413 412.876 20.3173C413.327 20.7807 413.871 21.0125 414.51 21.0125C415.149 21.0125 415.688 20.7807 416.126 20.3173C416.577 19.8538 416.803 19.2212 416.803 18.4195ZM426.605 23.8121C425.691 23.8121 424.877 23.6555 424.163 23.3423C423.449 23.0292 422.885 22.6033 422.472 22.0647C422.058 21.5135 421.826 20.8997 421.776 20.2233H424.952C424.989 20.5866 425.158 20.8809 425.459 21.1064C425.76 21.3319 426.129 21.4446 426.568 21.4446C426.968 21.4446 427.275 21.3695 427.488 21.2191C427.714 21.0563 427.826 20.8496 427.826 20.5991C427.826 20.2985 427.67 20.0793 427.357 19.9415C427.044 19.7912 426.536 19.6283 425.835 19.453C425.083 19.2776 424.457 19.096 423.956 18.9081C423.455 18.7076 423.023 18.4008 422.659 17.9874C422.296 17.5615 422.115 16.9916 422.115 16.2776C422.115 15.6763 422.277 15.1314 422.603 14.6429C422.941 14.1419 423.43 13.7473 424.069 13.4592C424.72 13.1711 425.49 13.027 426.38 13.027C427.695 13.027 428.728 13.3527 429.48 14.0041C430.244 14.6554 430.682 15.5197 430.795 16.597H427.826C427.776 16.2337 427.614 15.9456 427.338 15.7327C427.075 15.5197 426.724 15.4133 426.286 15.4133C425.91 15.4133 425.622 15.4884 425.421 15.6387C425.221 15.7765 425.121 15.9707 425.121 16.2212C425.121 16.5218 425.277 16.7473 425.591 16.8976C425.916 17.0479 426.417 17.1982 427.094 17.3486C427.87 17.549 428.503 17.7494 428.991 17.9498C429.48 18.1377 429.906 18.4509 430.269 18.8893C430.645 19.3152 430.839 19.8914 430.852 20.6179C430.852 21.2317 430.676 21.7828 430.325 22.2713C429.987 22.7473 429.492 23.1231 428.841 23.3987C428.202 23.6743 427.457 23.8121 426.605 23.8121Z" fill="white"/>
<path d="M368.38 117.807C368.693 117.318 369.126 116.924 369.677 116.623C370.228 116.322 370.873 116.172 371.612 116.172C372.476 116.172 373.259 116.391 373.961 116.83C374.662 117.268 375.213 117.895 375.614 118.709C376.028 119.523 376.234 120.469 376.234 121.546C376.234 122.623 376.028 123.575 375.614 124.402C375.213 125.216 374.662 125.849 373.961 126.3C373.259 126.738 372.476 126.957 371.612 126.957C370.886 126.957 370.24 126.807 369.677 126.506C369.126 126.206 368.693 125.817 368.38 125.341V131.805H365.167V116.322H368.38V117.807ZM372.965 121.546C372.965 120.744 372.739 120.118 372.288 119.667C371.85 119.204 371.305 118.972 370.654 118.972C370.015 118.972 369.47 119.204 369.019 119.667C368.581 120.13 368.362 120.763 368.362 121.565C368.362 122.366 368.581 122.999 369.019 123.462C369.47 123.926 370.015 124.158 370.654 124.158C371.293 124.158 371.838 123.926 372.288 123.462C372.739 122.986 372.965 122.348 372.965 121.546ZM385.079 108.957L380.043 130.32H376.943L381.978 108.957H385.079ZM399.812 116.21C401.114 116.21 402.148 116.604 402.912 117.393C403.689 118.183 404.077 119.279 404.077 120.682V126.807H400.883V121.114C400.883 120.437 400.701 119.917 400.338 119.554C399.987 119.178 399.498 118.991 398.872 118.991C398.246 118.991 397.751 119.178 397.388 119.554C397.037 119.917 396.862 120.437 396.862 121.114V126.807H393.668V121.114C393.668 120.437 393.486 119.917 393.123 119.554C392.772 119.178 392.283 118.991 391.657 118.991C391.031 118.991 390.536 119.178 390.173 119.554C389.822 119.917 389.647 120.437 389.647 121.114V126.807H386.434V116.322H389.647V117.638C389.972 117.199 390.398 116.855 390.924 116.604C391.45 116.341 392.045 116.21 392.709 116.21C393.498 116.21 394.2 116.379 394.814 116.717C395.44 117.055 395.929 117.538 396.279 118.164C396.643 117.588 397.137 117.118 397.764 116.755C398.39 116.391 399.073 116.21 399.812 116.21ZM416.207 121.396C416.207 121.696 416.188 122.009 416.151 122.335H408.879C408.929 122.986 409.136 123.487 409.499 123.838C409.875 124.176 410.332 124.345 410.871 124.345C411.673 124.345 412.23 124.007 412.543 123.331H415.963C415.787 124.02 415.468 124.64 415.005 125.191C414.554 125.742 413.984 126.174 413.295 126.487C412.606 126.801 411.835 126.957 410.984 126.957C409.956 126.957 409.042 126.738 408.24 126.3C407.439 125.861 406.812 125.235 406.361 124.421C405.911 123.606 405.685 122.654 405.685 121.565C405.685 120.475 405.904 119.523 406.343 118.709C406.794 117.895 407.42 117.268 408.222 116.83C409.023 116.391 409.944 116.172 410.984 116.172C411.998 116.172 412.9 116.385 413.689 116.811C414.478 117.237 415.092 117.844 415.531 118.634C415.982 119.423 416.207 120.343 416.207 121.396ZM412.919 120.55C412.919 119.999 412.731 119.561 412.355 119.235C411.979 118.909 411.51 118.746 410.946 118.746C410.407 118.746 409.95 118.903 409.574 119.216C409.211 119.529 408.986 119.974 408.898 120.55H412.919ZM410.946 113.993L408.034 115.533V113.316L410.946 111.832L413.858 113.316V115.533L410.946 113.993ZM422.167 126.957C421.253 126.957 420.439 126.801 419.725 126.487C419.011 126.174 418.447 125.748 418.034 125.21C417.62 124.659 417.388 124.045 417.338 123.368H420.514C420.551 123.732 420.72 124.026 421.021 124.252C421.322 124.477 421.691 124.59 422.13 124.59C422.53 124.59 422.837 124.515 423.05 124.364C423.276 124.201 423.388 123.995 423.388 123.744C423.388 123.444 423.232 123.224 422.919 123.087C422.606 122.936 422.098 122.773 421.397 122.598C420.645 122.423 420.019 122.241 419.518 122.053C419.017 121.853 418.585 121.546 418.221 121.133C417.858 120.707 417.677 120.137 417.677 119.423C417.677 118.821 417.839 118.277 418.165 117.788C418.503 117.287 418.992 116.892 419.631 116.604C420.282 116.316 421.052 116.172 421.942 116.172C423.257 116.172 424.29 116.498 425.042 117.149C425.806 117.801 426.244 118.665 426.357 119.742H423.388C423.338 119.379 423.176 119.091 422.9 118.878C422.637 118.665 422.286 118.558 421.848 118.558C421.472 118.558 421.184 118.634 420.983 118.784C420.783 118.922 420.683 119.116 420.683 119.366C420.683 119.667 420.839 119.892 421.153 120.043C421.478 120.193 421.979 120.343 422.656 120.494C423.432 120.694 424.065 120.895 424.553 121.095C425.042 121.283 425.468 121.596 425.831 122.034C426.207 122.46 426.401 123.037 426.414 123.763C426.414 124.377 426.238 124.928 425.887 125.416C425.549 125.892 425.054 126.268 424.403 126.544C423.764 126.819 423.019 126.957 422.167 126.957Z" fill="white"/>
</svg>
