<svg width="550" height="233" viewBox="0 0 550 233" fill="none" xmlns="http://www.w3.org/2000/svg">
<rect y="11.3127" width="307.439" height="117.12" rx="21.9599" fill="#74A9D7"/>
<rect x="240.894" width="308.77" height="139.745" rx="21.9599" fill="#0B64B9"/>
<circle cx="246.217" cy="72.5343" r="33.2726" fill="#84F4F8"/>
<path d="M3.90222 147.259V143.873H9.80079V159.418H6.01037V147.259H3.90222ZM12.2917 151.432C12.2917 148.991 12.7602 147.067 13.6972 145.661C14.6483 144.256 16.1744 143.553 18.2755 143.553C20.3765 143.553 21.8956 144.256 22.8325 145.661C23.7837 147.067 24.2592 148.991 24.2592 151.432C24.2592 153.902 23.7837 155.84 22.8325 157.246C21.8956 158.651 20.3765 159.354 18.2755 159.354C16.1744 159.354 14.6483 158.651 13.6972 157.246C12.7602 155.84 12.2917 153.902 12.2917 151.432ZM20.6818 151.432C20.6818 149.998 20.5256 148.898 20.2133 148.132C19.901 147.351 19.255 146.96 18.2755 146.96C17.2959 146.96 16.65 147.351 16.3377 148.132C16.0254 148.898 15.8692 149.998 15.8692 151.432C15.8692 152.398 15.926 153.2 16.0396 153.839C16.1531 154.463 16.3803 154.974 16.721 155.372C17.0759 155.755 17.5941 155.947 18.2755 155.947C18.9569 155.947 19.468 155.755 19.8087 155.372C20.1636 154.974 20.3978 154.463 20.5114 153.839C20.625 153.2 20.6818 152.398 20.6818 151.432ZM26.1831 151.432C26.1831 148.991 26.6515 147.067 27.5885 145.661C28.5397 144.256 30.0658 143.553 32.1668 143.553C34.2679 143.553 35.7869 144.256 36.7238 145.661C37.675 147.067 38.1506 148.991 38.1506 151.432C38.1506 153.902 37.675 155.84 36.7238 157.246C35.7869 158.651 34.2679 159.354 32.1668 159.354C30.0658 159.354 28.5397 158.651 27.5885 157.246C26.6515 155.84 26.1831 153.902 26.1831 151.432ZM34.5731 151.432C34.5731 149.998 34.4169 148.898 34.1046 148.132C33.7923 147.351 33.1464 146.96 32.1668 146.96C31.1873 146.96 30.5413 147.351 30.229 148.132C29.9167 148.898 29.7605 149.998 29.7605 151.432C29.7605 152.398 29.8173 153.2 29.9309 153.839C30.0445 154.463 30.2716 154.974 30.6123 155.372C30.9672 155.755 31.4854 155.947 32.1668 155.947C32.8482 155.947 33.3593 155.755 33.7 155.372C34.0549 154.974 34.2892 154.463 34.4027 153.839C34.5163 153.2 34.5731 152.398 34.5731 151.432ZM39.7763 147.791C39.7763 146.641 40.1028 145.754 40.7558 145.129C41.423 144.504 42.2819 144.192 43.3324 144.192C44.383 144.192 45.2347 144.504 45.8878 145.129C46.5408 145.754 46.8673 146.641 46.8673 147.791C46.8673 148.941 46.5408 149.828 45.8878 150.453C45.2347 151.077 44.383 151.39 43.3324 151.39C42.2819 151.39 41.423 151.077 40.7558 150.453C40.1028 149.828 39.7763 148.941 39.7763 147.791ZM54.2352 144.426L46.0368 159.418H42.5232L50.7216 144.426H54.2352ZM43.3111 146.322C42.6297 146.322 42.289 146.811 42.289 147.791C42.289 148.756 42.6297 149.239 43.3111 149.239C43.6377 149.239 43.8932 149.118 44.0777 148.877C44.2623 148.636 44.3546 148.274 44.3546 147.791C44.3546 146.811 44.0068 146.322 43.3111 146.322ZM49.9124 156.053C49.9124 154.903 50.2389 154.016 50.892 153.391C51.545 152.767 52.3968 152.454 53.4473 152.454C54.4978 152.454 55.3496 152.767 56.0027 153.391C56.6557 154.016 56.9822 154.903 56.9822 156.053C56.9822 157.203 56.6557 158.09 56.0027 158.715C55.3496 159.34 54.4978 159.652 53.4473 159.652C52.3968 159.652 51.545 159.34 50.892 158.715C50.2389 158.09 49.9124 157.203 49.9124 156.053ZM53.426 154.584C53.0995 154.584 52.844 154.705 52.6594 154.946C52.4891 155.187 52.4039 155.556 52.4039 156.053C52.4039 157.019 52.7446 157.501 53.426 157.501C53.7525 157.501 54.0081 157.381 54.1926 157.139C54.3772 156.898 54.4694 156.536 54.4694 156.053C54.4694 155.571 54.3772 155.209 54.1926 154.967C54.0081 154.712 53.7525 154.584 53.426 154.584ZM69.4401 150.559H67.481V159.418H63.8397V150.559H62.5194V147.535H63.8397V147.195C63.8397 145.732 64.2585 144.625 65.0961 143.873C65.9336 143.106 67.1616 142.723 68.78 142.723C69.0497 142.723 69.2485 142.73 69.3762 142.744V145.832C68.6806 145.789 68.1909 145.889 67.9069 146.13C67.623 146.371 67.481 146.804 67.481 147.429V147.535H69.4401V150.559ZM72.9825 146.3C72.3437 146.3 71.8184 146.116 71.4067 145.747C71.0092 145.363 70.8105 144.895 70.8105 144.341C70.8105 143.773 71.0092 143.305 71.4067 142.936C71.8184 142.552 72.3437 142.361 72.9825 142.361C73.6071 142.361 74.1182 142.552 74.5157 142.936C74.9274 143.305 75.1332 143.773 75.1332 144.341C75.1332 144.895 74.9274 145.363 74.5157 145.747C74.1182 146.116 73.6071 146.3 72.9825 146.3ZM74.7925 147.535V159.418H71.1512V147.535H74.7925ZM81.0727 149.218C81.4134 148.664 81.9032 148.217 82.5421 147.876C83.1809 147.535 83.912 147.365 84.7354 147.365C85.7149 147.365 86.6022 147.613 87.3972 148.11C88.1922 148.607 88.8168 149.317 89.2711 150.24C89.7396 151.163 89.9738 152.234 89.9738 153.455C89.9738 154.676 89.7396 155.755 89.2711 156.692C88.8168 157.615 88.1922 158.332 87.3972 158.843C86.6022 159.34 85.7149 159.588 84.7354 159.588C83.8978 159.588 83.1667 159.425 82.5421 159.098C81.9174 158.758 81.4276 158.31 81.0727 157.757V159.418H77.4314V143.66H81.0727V149.218ZM86.2686 153.455C86.2686 152.547 86.0131 151.837 85.502 151.326C85.0051 150.801 84.3876 150.538 83.6494 150.538C82.9254 150.538 82.3078 150.801 81.7967 151.326C81.2999 151.851 81.0514 152.568 81.0514 153.477C81.0514 154.385 81.2999 155.102 81.7967 155.627C82.3078 156.153 82.9254 156.415 83.6494 156.415C84.3734 156.415 84.9909 156.153 85.502 155.627C86.0131 155.088 86.2686 154.364 86.2686 153.455ZM95.5255 149.516C95.9514 148.863 96.4838 148.352 97.1226 147.983C97.7615 147.599 98.4713 147.408 99.2521 147.408V151.262H98.2512C97.3427 151.262 96.6612 151.461 96.207 151.858C95.7527 152.241 95.5255 152.923 95.5255 153.902V159.418H91.8842V147.535H95.5255V149.516ZM100.269 153.455C100.269 152.234 100.496 151.163 100.95 150.24C101.418 149.317 102.05 148.607 102.845 148.11C103.64 147.613 104.527 147.365 105.507 147.365C106.345 147.365 107.076 147.535 107.7 147.876C108.339 148.217 108.829 148.664 109.17 149.218V147.535H112.811V159.418H109.17V157.735C108.815 158.289 108.318 158.736 107.679 159.077C107.054 159.418 106.323 159.588 105.486 159.588C104.52 159.588 103.64 159.34 102.845 158.843C102.05 158.332 101.418 157.615 100.95 156.692C100.496 155.755 100.269 154.676 100.269 153.455ZM109.17 153.477C109.17 152.568 108.914 151.851 108.403 151.326C107.906 150.801 107.296 150.538 106.572 150.538C105.848 150.538 105.23 150.801 104.719 151.326C104.222 151.837 103.974 152.547 103.974 153.455C103.974 154.364 104.222 155.088 104.719 155.627C105.23 156.153 105.848 156.415 106.572 156.415C107.296 156.415 107.906 156.153 108.403 155.627C108.914 155.102 109.17 154.385 109.17 153.477ZM125.367 159.588C124.203 159.588 123.152 159.34 122.215 158.843C121.292 158.346 120.561 157.636 120.022 156.713C119.497 155.791 119.234 154.712 119.234 153.477C119.234 152.256 119.504 151.184 120.043 150.261C120.583 149.324 121.321 148.607 122.258 148.11C123.195 147.613 124.245 147.365 125.409 147.365C126.573 147.365 127.624 147.613 128.561 148.11C129.498 148.607 130.236 149.324 130.776 150.261C131.315 151.184 131.585 152.256 131.585 153.477C131.585 154.697 131.308 155.776 130.754 156.713C130.215 157.636 129.469 158.346 128.518 158.843C127.581 159.34 126.531 159.588 125.367 159.588ZM125.367 156.436C126.062 156.436 126.652 156.181 127.134 155.67C127.631 155.159 127.879 154.428 127.879 153.477C127.879 152.525 127.638 151.794 127.155 151.283C126.687 150.772 126.105 150.517 125.409 150.517C124.7 150.517 124.11 150.772 123.642 151.283C123.173 151.78 122.939 152.511 122.939 153.477C122.939 154.428 123.166 155.159 123.621 155.67C124.089 156.181 124.671 156.436 125.367 156.436ZM128.178 144.49L123.046 146.641V144.128L128.178 141.658V144.49ZM137.158 149.218C137.513 148.664 138.003 148.217 138.627 147.876C139.252 147.535 139.983 147.365 140.821 147.365C141.8 147.365 142.687 147.613 143.482 148.11C144.277 148.607 144.902 149.317 145.356 150.24C145.825 151.163 146.059 152.234 146.059 153.455C146.059 154.676 145.825 155.755 145.356 156.692C144.902 157.615 144.277 158.332 143.482 158.843C142.687 159.34 141.8 159.588 140.821 159.588C139.997 159.588 139.266 159.418 138.627 159.077C138.003 158.736 137.513 158.296 137.158 157.757V165.082H133.517V147.535H137.158V149.218ZM142.354 153.455C142.354 152.547 142.098 151.837 141.587 151.326C141.09 150.801 140.473 150.538 139.735 150.538C139.011 150.538 138.393 150.801 137.882 151.326C137.385 151.851 137.137 152.568 137.137 153.477C137.137 154.385 137.385 155.102 137.882 155.627C138.393 156.153 139.011 156.415 139.735 156.415C140.459 156.415 141.076 156.153 141.587 155.627C142.098 155.088 142.354 154.364 142.354 153.455ZM154.592 156.33V159.418H152.739C151.419 159.418 150.39 159.098 149.652 158.459C148.913 157.806 148.544 156.749 148.544 155.287V150.559H147.096V147.535H148.544V144.639H152.186V147.535H154.571V150.559H152.186V155.329C152.186 155.684 152.271 155.94 152.441 156.096C152.612 156.252 152.895 156.33 153.293 156.33H154.592ZM158.452 146.3C157.813 146.3 157.287 146.116 156.876 145.747C156.478 145.363 156.28 144.895 156.28 144.341C156.28 143.773 156.478 143.305 156.876 142.936C157.287 142.552 157.813 142.361 158.452 142.361C159.076 142.361 159.587 142.552 159.985 142.936C160.396 143.305 160.602 143.773 160.602 144.341C160.602 144.895 160.396 145.363 159.985 145.747C159.587 146.116 159.076 146.3 158.452 146.3ZM160.262 147.535V159.418H156.62V147.535H160.262ZM162.176 153.477C162.176 152.241 162.425 151.163 162.922 150.24C163.433 149.317 164.135 148.607 165.03 148.11C165.938 147.613 166.975 147.365 168.139 147.365C169.629 147.365 170.872 147.755 171.865 148.536C172.873 149.317 173.533 150.417 173.846 151.837H169.97C169.644 150.928 169.012 150.474 168.075 150.474C167.408 150.474 166.875 150.737 166.478 151.262C166.08 151.773 165.882 152.511 165.882 153.477C165.882 154.442 166.08 155.187 166.478 155.712C166.875 156.224 167.408 156.479 168.075 156.479C169.012 156.479 169.644 156.025 169.97 155.116H173.846C173.533 156.507 172.873 157.601 171.865 158.396C170.857 159.191 169.615 159.588 168.139 159.588C166.975 159.588 165.938 159.34 165.03 158.843C164.135 158.346 163.433 157.636 162.922 156.713C162.425 155.791 162.176 154.712 162.176 153.477ZM175.07 153.455C175.07 152.234 175.297 151.163 175.751 150.24C176.219 149.317 176.851 148.607 177.646 148.11C178.441 147.613 179.328 147.365 180.308 147.365C181.146 147.365 181.877 147.535 182.501 147.876C183.14 148.217 183.63 148.664 183.971 149.218V147.535H187.612V159.418H183.971V157.735C183.616 158.289 183.119 158.736 182.48 159.077C181.855 159.418 181.124 159.588 180.287 159.588C179.321 159.588 178.441 159.34 177.646 158.843C176.851 158.332 176.219 157.615 175.751 156.692C175.297 155.755 175.07 154.676 175.07 153.455ZM183.971 153.477C183.971 152.568 183.715 151.851 183.204 151.326C182.707 150.801 182.097 150.538 181.373 150.538C180.649 150.538 180.031 150.801 179.52 151.326C179.023 151.837 178.775 152.547 178.775 153.455C178.775 154.364 179.023 155.088 179.52 155.627C180.031 156.153 180.649 156.415 181.373 156.415C182.097 156.415 182.707 156.153 183.204 155.627C183.715 155.102 183.971 154.385 183.971 153.477ZM25.218 176.469L21.3211 191.418H16.9131L14.5282 181.58L12.058 191.418H7.65005L3.85963 176.469H7.75652L9.90726 187.35L12.5691 176.469H16.5724L19.1278 187.35L21.2998 176.469H25.218ZM28.8755 178.3C28.2366 178.3 27.7114 178.116 27.2997 177.747C26.9022 177.363 26.7034 176.895 26.7034 176.341C26.7034 175.773 26.9022 175.305 27.2997 174.936C27.7114 174.552 28.2366 174.361 28.8755 174.361C29.5001 174.361 30.0112 174.552 30.4087 174.936C30.8204 175.305 31.0262 175.773 31.0262 176.341C31.0262 176.895 30.8204 177.363 30.4087 177.747C30.0112 178.116 29.5001 178.3 28.8755 178.3ZM30.6855 179.535V191.418H27.0442V179.535H30.6855ZM42.481 182.431V185.455H33.1114V182.431H42.481ZM55.4084 176.469V179.386H49.3182V182.538H53.8752V185.37H49.3182V191.418H45.6768V176.469H55.4084ZM59.1536 178.3C58.5147 178.3 57.9895 178.116 57.5778 177.747C57.1803 177.363 56.9815 176.895 56.9815 176.341C56.9815 175.773 57.1803 175.305 57.5778 174.936C57.9895 174.552 58.5147 174.361 59.1536 174.361C59.7782 174.361 60.2893 174.552 60.6868 174.936C61.0985 175.305 61.3043 175.773 61.3043 176.341C61.3043 176.895 61.0985 177.363 60.6868 177.747C60.2893 178.116 59.7782 178.3 59.1536 178.3ZM60.9636 179.535V191.418H57.3222V179.535H60.9636ZM75.4403 180.068C75.3268 179.543 75.128 179.152 74.8441 178.897C74.5602 178.627 74.1556 178.492 73.6303 178.492C72.8211 178.492 72.2391 178.847 71.8842 179.557C71.5293 180.252 71.3447 181.36 71.3305 182.879C71.6428 182.382 72.09 181.991 72.6721 181.707C73.2683 181.424 73.9213 181.282 74.6312 181.282C76.0224 181.282 77.1368 181.722 77.9744 182.602C78.8262 183.482 79.2521 184.71 79.2521 186.286C79.2521 187.322 79.0391 188.231 78.6132 189.011C78.2015 189.792 77.5911 190.403 76.7819 190.843C75.9869 191.283 75.0429 191.503 73.9497 191.503C71.7635 191.503 70.2445 190.821 69.3927 189.459C68.5409 188.082 68.115 186.108 68.115 183.539C68.115 180.841 68.5622 178.84 69.4566 177.534C70.3652 176.213 71.8132 175.553 73.8007 175.553C74.8654 175.553 75.7598 175.766 76.4838 176.192C77.222 176.604 77.7756 177.15 78.1447 177.832C78.528 178.513 78.7552 179.259 78.8262 180.068H75.4403ZM73.7581 184.156C73.1476 184.156 72.6366 184.341 72.2249 184.71C71.8274 185.065 71.6286 185.576 71.6286 186.243C71.6286 186.925 71.8132 187.457 72.1823 187.84C72.5656 188.224 73.1051 188.415 73.8007 188.415C74.4253 188.415 74.9151 188.231 75.27 187.862C75.6391 187.478 75.8237 186.96 75.8237 186.307C75.8237 185.64 75.6462 185.115 75.2913 184.731C74.9364 184.348 74.4253 184.156 73.7581 184.156ZM15.4012 208.469V211.386H11.4405V223.418H7.79911V211.386H3.83834V208.469H15.4012ZM31.2618 208.469L25.9595 223.418H21.4025L16.1001 208.469H19.9757L23.681 219.755L27.4075 208.469H31.2618ZM36.5723 217.477C36.5723 216.241 36.8207 215.163 37.3176 214.24C37.8286 213.317 38.5314 212.607 39.4257 212.11C40.3343 211.613 41.3706 211.365 42.5347 211.365C44.0253 211.365 45.2675 211.755 46.2613 212.536C47.2692 213.317 47.9293 214.417 48.2416 215.837H44.3661C44.0395 214.928 43.4078 214.474 42.4708 214.474C41.8036 214.474 41.2713 214.737 40.8738 215.262C40.4763 215.773 40.2775 216.511 40.2775 217.477C40.2775 218.442 40.4763 219.187 40.8738 219.712C41.2713 220.224 41.8036 220.479 42.4708 220.479C43.4078 220.479 44.0395 220.025 44.3661 219.116H48.2416C47.9293 220.507 47.2692 221.601 46.2613 222.396C45.2533 223.191 44.0111 223.588 42.5347 223.588C41.3706 223.588 40.3343 223.34 39.4257 222.843C38.5314 222.346 37.8286 221.636 37.3176 220.713C36.8207 219.791 36.5723 218.712 36.5723 217.477ZM55.5982 223.588C54.4341 223.588 53.3836 223.34 52.4466 222.843C51.5239 222.346 50.7928 221.636 50.2533 220.713C49.728 219.791 49.4654 218.712 49.4654 217.477C49.4654 216.256 49.7351 215.184 50.2746 214.261C50.8141 213.324 51.5523 212.607 52.4892 212.11C53.4262 211.613 54.4767 211.365 55.6408 211.365C56.8049 211.365 57.8554 211.613 58.7924 212.11C59.7294 212.607 60.4676 213.324 61.007 214.261C61.5465 215.184 61.8162 216.256 61.8162 217.477C61.8162 218.697 61.5394 219.776 60.9857 220.713C60.4463 221.636 59.701 222.346 58.7498 222.843C57.8128 223.34 56.7623 223.588 55.5982 223.588ZM55.5982 220.436C56.2938 220.436 56.883 220.181 57.3657 219.67C57.8625 219.159 58.111 218.428 58.111 217.477C58.111 216.525 57.8696 215.794 57.387 215.283C56.9185 214.772 56.3364 214.517 55.6408 214.517C54.931 214.517 54.3418 214.772 53.8734 215.283C53.4049 215.78 53.1707 216.511 53.1707 217.477C53.1707 218.428 53.3978 219.159 53.8521 219.67C54.3206 220.181 54.9026 220.436 55.5982 220.436ZM78.9097 211.408C80.3861 211.408 81.5573 211.855 82.4233 212.749C83.3034 213.644 83.7435 214.886 83.7435 216.476V223.418H80.1235V216.965C80.1235 216.199 79.9176 215.61 79.5059 215.198C79.1084 214.772 78.5548 214.559 77.845 214.559C77.1351 214.559 76.5744 214.772 76.1627 215.198C75.7652 215.61 75.5664 216.199 75.5664 216.965V223.418H71.9464V216.965C71.9464 216.199 71.7405 215.61 71.3288 215.198C70.9314 214.772 70.3777 214.559 69.6679 214.559C68.9581 214.559 68.3973 214.772 67.9856 215.198C67.5881 215.61 67.3894 216.199 67.3894 216.965V223.418H63.748V211.535H67.3894V213.026C67.7585 212.529 68.2411 212.139 68.8374 211.855C69.4336 211.557 70.108 211.408 70.8604 211.408C71.7547 211.408 72.5497 211.599 73.2454 211.983C73.9552 212.366 74.5088 212.912 74.9063 213.622C75.318 212.969 75.8788 212.437 76.5886 212.025C77.2984 211.613 78.0721 211.408 78.9097 211.408ZM90.526 220.649V217.711L97.255 208.086H101.322V217.498H103.068V220.649H101.322V223.418H97.6809V220.649H90.526ZM97.9365 212.089L94.359 217.498H97.9365V212.089ZM104.469 211.259V207.873H110.367V223.418H106.577V211.259H104.469ZM117.009 217.477C117.009 216.241 117.257 215.163 117.754 214.24C118.265 213.317 118.968 212.607 119.862 212.11C120.771 211.613 121.807 211.365 122.971 211.365C124.462 211.365 125.704 211.755 126.698 212.536C127.706 213.317 128.366 214.417 128.678 215.837H124.803C124.476 214.928 123.844 214.474 122.907 214.474C122.24 214.474 121.708 214.737 121.31 215.262C120.913 215.773 120.714 216.511 120.714 217.477C120.714 218.442 120.913 219.187 121.31 219.712C121.708 220.224 122.24 220.479 122.907 220.479C123.844 220.479 124.476 220.025 124.803 219.116H128.678C128.366 220.507 127.706 221.601 126.698 222.396C125.69 223.191 124.448 223.588 122.971 223.588C121.807 223.588 120.771 223.34 119.862 222.843C118.968 222.346 118.265 221.636 117.754 220.713C117.257 219.791 117.009 218.712 117.009 217.477ZM129.902 217.455C129.902 216.234 130.129 215.163 130.583 214.24C131.052 213.317 131.684 212.607 132.479 212.11C133.274 211.613 134.161 211.365 135.14 211.365C135.978 211.365 136.709 211.535 137.334 211.876C137.973 212.217 138.462 212.664 138.803 213.218V211.535H142.444V223.418H138.803V221.735C138.448 222.289 137.951 222.736 137.312 223.077C136.688 223.418 135.957 223.588 135.119 223.588C134.154 223.588 133.274 223.34 132.479 222.843C131.684 222.332 131.052 221.615 130.583 220.692C130.129 219.755 129.902 218.676 129.902 217.455ZM138.803 217.477C138.803 216.568 138.548 215.851 138.036 215.326C137.54 214.801 136.929 214.538 136.205 214.538C135.481 214.538 134.864 214.801 134.353 215.326C133.856 215.837 133.607 216.547 133.607 217.455C133.607 218.364 133.856 219.088 134.353 219.627C134.864 220.153 135.481 220.415 136.205 220.415C136.929 220.415 137.54 220.153 138.036 219.627C138.548 219.102 138.803 218.385 138.803 217.477ZM152.319 211.408C153.71 211.408 154.817 211.862 155.641 212.77C156.478 213.665 156.897 214.9 156.897 216.476V223.418H153.277V216.965C153.277 216.171 153.071 215.553 152.66 215.113C152.248 214.673 151.694 214.453 150.999 214.453C150.303 214.453 149.749 214.673 149.338 215.113C148.926 215.553 148.72 216.171 148.72 216.965V223.418H145.079V211.535H148.72V213.111C149.089 212.586 149.586 212.174 150.211 211.876C150.835 211.564 151.538 211.408 152.319 211.408ZM158.704 217.455C158.704 216.234 158.931 215.163 159.385 214.24C159.853 213.317 160.485 212.607 161.28 212.11C162.075 211.613 162.962 211.365 163.942 211.365C164.78 211.365 165.511 211.535 166.135 211.876C166.774 212.217 167.264 212.664 167.605 213.218V211.535H171.246V223.418H167.605V221.735C167.25 222.289 166.753 222.736 166.114 223.077C165.489 223.418 164.758 223.588 163.921 223.588C162.955 223.588 162.075 223.34 161.28 222.843C160.485 222.332 159.853 221.615 159.385 220.692C158.931 219.755 158.704 218.676 158.704 217.455ZM167.605 217.477C167.605 216.568 167.349 215.851 166.838 215.326C166.341 214.801 165.731 214.538 165.007 214.538C164.283 214.538 163.665 214.801 163.154 215.326C162.657 215.837 162.409 216.547 162.409 217.455C162.409 218.364 162.657 219.088 163.154 219.627C163.665 220.153 164.283 220.415 165.007 220.415C165.731 220.415 166.341 220.153 166.838 219.627C167.349 219.102 167.605 218.385 167.605 217.477ZM175.712 210.3C175.073 210.3 174.548 210.116 174.136 209.747C173.738 209.363 173.54 208.895 173.54 208.341C173.54 207.773 173.738 207.305 174.136 206.936C174.548 206.552 175.073 206.361 175.712 206.361C176.336 206.361 176.847 206.552 177.245 206.936C177.657 207.305 177.862 207.773 177.862 208.341C177.862 208.895 177.657 209.363 177.245 209.747C176.847 210.116 176.336 210.3 175.712 210.3ZM177.522 211.535V223.418H173.88V211.535H177.522ZM184.994 223.588C183.958 223.588 183.035 223.411 182.226 223.056C181.417 222.701 180.778 222.218 180.31 221.608C179.841 220.983 179.579 220.287 179.522 219.521H183.121C183.163 219.933 183.355 220.266 183.695 220.522C184.036 220.777 184.455 220.905 184.952 220.905C185.406 220.905 185.754 220.82 185.995 220.649C186.251 220.465 186.379 220.231 186.379 219.947C186.379 219.606 186.201 219.358 185.846 219.201C185.491 219.031 184.916 218.847 184.121 218.648C183.27 218.449 182.56 218.243 181.992 218.03C181.424 217.803 180.934 217.455 180.523 216.987C180.111 216.504 179.905 215.858 179.905 215.049C179.905 214.368 180.09 213.75 180.459 213.196C180.842 212.629 181.396 212.181 182.12 211.855C182.858 211.528 183.731 211.365 184.739 211.365C186.23 211.365 187.401 211.734 188.252 212.472C189.118 213.211 189.615 214.19 189.743 215.411H186.379C186.322 214.999 186.137 214.673 185.825 214.431C185.527 214.19 185.129 214.069 184.632 214.069C184.207 214.069 183.88 214.155 183.653 214.325C183.426 214.481 183.312 214.701 183.312 214.985C183.312 215.326 183.49 215.581 183.845 215.752C184.214 215.922 184.781 216.092 185.548 216.263C186.428 216.49 187.145 216.717 187.699 216.944C188.252 217.157 188.735 217.512 189.147 218.009C189.573 218.492 189.793 219.145 189.807 219.968C189.807 220.664 189.608 221.288 189.211 221.842C188.827 222.381 188.267 222.807 187.528 223.12C186.804 223.432 185.96 223.588 184.994 223.588ZM195.823 217.455C195.823 216.234 196.05 215.163 196.505 214.24C196.973 213.317 197.605 212.607 198.4 212.11C199.195 211.613 200.082 211.365 201.062 211.365C201.899 211.365 202.63 211.535 203.255 211.876C203.894 212.217 204.384 212.664 204.724 213.218V211.535H208.366V223.418H204.724V221.735C204.37 222.289 203.873 222.736 203.234 223.077C202.609 223.418 201.878 223.588 201.04 223.588C200.075 223.588 199.195 223.34 198.4 222.843C197.605 222.332 196.973 221.615 196.505 220.692C196.05 219.755 195.823 218.676 195.823 217.455ZM204.724 217.477C204.724 216.568 204.469 215.851 203.958 215.326C203.461 214.801 202.851 214.538 202.127 214.538C201.402 214.538 200.785 214.801 200.274 215.326C199.777 215.837 199.529 216.547 199.529 217.455C199.529 218.364 199.777 219.088 200.274 219.627C200.785 220.153 201.402 220.415 202.127 220.415C202.851 220.415 203.461 220.153 203.958 219.627C204.469 219.102 204.724 218.385 204.724 217.477ZM214.641 213.218C214.982 212.664 215.472 212.217 216.111 211.876C216.75 211.535 217.481 211.365 218.304 211.365C219.284 211.365 220.171 211.613 220.966 212.11C221.761 212.607 222.386 213.317 222.84 214.24C223.308 215.163 223.543 216.234 223.543 217.455C223.543 218.676 223.308 219.755 222.84 220.692C222.386 221.615 221.761 222.332 220.966 222.843C220.171 223.34 219.284 223.588 218.304 223.588C217.467 223.588 216.735 223.425 216.111 223.098C215.486 222.758 214.996 222.31 214.641 221.757V223.418H211V207.66H214.641V213.218ZM219.837 217.455C219.837 216.547 219.582 215.837 219.071 215.326C218.574 214.801 217.956 214.538 217.218 214.538C216.494 214.538 215.877 214.801 215.366 215.326C214.869 215.851 214.62 216.568 214.62 217.477C214.62 218.385 214.869 219.102 215.366 219.627C215.877 220.153 216.494 220.415 217.218 220.415C217.942 220.415 218.56 220.153 219.071 219.627C219.582 219.088 219.837 218.364 219.837 217.455ZM236.654 217.285C236.654 217.626 236.633 217.981 236.59 218.35H228.349C228.406 219.088 228.64 219.656 229.052 220.053C229.478 220.436 229.996 220.628 230.606 220.628C231.515 220.628 232.146 220.245 232.501 219.478H236.377C236.178 220.259 235.816 220.962 235.291 221.586C234.78 222.211 234.134 222.701 233.353 223.056C232.572 223.411 231.699 223.588 230.734 223.588C229.57 223.588 228.534 223.34 227.625 222.843C226.716 222.346 226.007 221.636 225.496 220.713C224.984 219.791 224.729 218.712 224.729 217.477C224.729 216.241 224.977 215.163 225.474 214.24C225.985 213.317 226.695 212.607 227.604 212.11C228.512 211.613 229.556 211.365 230.734 211.365C231.884 211.365 232.906 211.606 233.8 212.089C234.695 212.572 235.39 213.26 235.887 214.155C236.398 215.049 236.654 216.092 236.654 217.285ZM232.927 216.327C232.927 215.702 232.714 215.205 232.288 214.836C231.863 214.467 231.33 214.282 230.691 214.282C230.081 214.282 229.563 214.46 229.137 214.815C228.725 215.17 228.47 215.674 228.37 216.327H232.927ZM242.216 213.516C242.642 212.863 243.174 212.352 243.813 211.983C244.452 211.599 245.162 211.408 245.943 211.408V215.262H244.942C244.033 215.262 243.352 215.461 242.898 215.858C242.443 216.241 242.216 216.923 242.216 217.902V223.418H238.575V211.535H242.216V213.516ZM254.306 220.33V223.418H252.453C251.133 223.418 250.104 223.098 249.365 222.459C248.627 221.806 248.258 220.749 248.258 219.287V214.559H246.81V211.535H248.258V208.639H251.9V211.535H254.284V214.559H251.9V219.329C251.9 219.684 251.985 219.94 252.155 220.096C252.325 220.252 252.609 220.33 253.007 220.33H254.306ZM261.743 223.588C260.579 223.588 259.528 223.34 258.591 222.843C257.669 222.346 256.937 221.636 256.398 220.713C255.873 219.791 255.61 218.712 255.61 217.477C255.61 216.256 255.88 215.184 256.419 214.261C256.959 213.324 257.697 212.607 258.634 212.11C259.571 211.613 260.621 211.365 261.785 211.365C262.95 211.365 264 211.613 264.937 212.11C265.874 212.607 266.612 213.324 267.152 214.261C267.691 215.184 267.961 216.256 267.961 217.477C267.961 218.697 267.684 219.776 267.13 220.713C266.591 221.636 265.846 222.346 264.894 222.843C263.958 223.34 262.907 223.588 261.743 223.588ZM261.743 220.436C262.438 220.436 263.028 220.181 263.51 219.67C264.007 219.159 264.256 218.428 264.256 217.477C264.256 216.525 264.014 215.794 263.532 215.283C263.063 214.772 262.481 214.517 261.785 214.517C261.076 214.517 260.487 214.772 260.018 215.283C259.55 215.78 259.315 216.511 259.315 217.477C259.315 218.428 259.542 219.159 259.997 219.67C260.465 220.181 261.047 220.436 261.743 220.436ZM274.727 223.588C273.69 223.588 272.767 223.411 271.958 223.056C271.149 222.701 270.51 222.218 270.042 221.608C269.573 220.983 269.311 220.287 269.254 219.521H272.853C272.895 219.933 273.087 220.266 273.428 220.522C273.768 220.777 274.187 220.905 274.684 220.905C275.138 220.905 275.486 220.82 275.727 220.649C275.983 220.465 276.111 220.231 276.111 219.947C276.111 219.606 275.933 219.358 275.578 219.201C275.223 219.031 274.648 218.847 273.853 218.648C273.002 218.449 272.292 218.243 271.724 218.03C271.156 217.803 270.666 217.455 270.255 216.987C269.843 216.504 269.637 215.858 269.637 215.049C269.637 214.368 269.822 213.75 270.191 213.196C270.574 212.629 271.128 212.181 271.852 211.855C272.59 211.528 273.463 211.365 274.471 211.365C275.962 211.365 277.133 211.734 277.985 212.472C278.851 213.211 279.347 214.19 279.475 215.411H276.111C276.054 214.999 275.869 214.673 275.557 214.431C275.259 214.19 274.861 214.069 274.365 214.069C273.939 214.069 273.612 214.155 273.385 214.325C273.158 214.481 273.044 214.701 273.044 214.985C273.044 215.326 273.222 215.581 273.577 215.752C273.946 215.922 274.514 216.092 275.28 216.263C276.16 216.49 276.877 216.717 277.431 216.944C277.985 217.157 278.467 217.512 278.879 218.009C279.305 218.492 279.525 219.145 279.539 219.968C279.539 220.664 279.34 221.288 278.943 221.842C278.56 222.381 277.999 222.807 277.261 223.12C276.537 223.432 275.692 223.588 274.727 223.588Z" fill="#022162"/>
<path d="M34.3635 92.8174C36.5446 91.0854 37.5389 90.2835 37.3464 90.4118C43.633 85.2157 48.5725 80.9498 52.1648 77.6141C55.8213 74.2783 58.9005 70.7822 61.4023 67.1257C63.9041 63.4692 65.155 59.909 65.155 56.4449C65.155 53.8148 64.5456 51.762 63.3267 50.2866C62.1079 48.8112 60.2797 48.0735 57.842 48.0735C55.4044 48.0735 53.4799 49.0036 52.0686 50.864C50.7215 52.6601 50.0479 55.2261 50.0479 58.5618H34.171C34.2993 53.1092 35.454 48.5546 37.6351 44.8981C39.8803 41.2416 42.7991 38.5474 46.3914 36.8153C50.0479 35.0833 54.0893 34.2173 58.5156 34.2173C66.1493 34.2173 71.8906 36.1739 75.7396 40.0869C79.6527 44 81.6092 49.0999 81.6092 55.3865C81.6092 62.2504 79.2678 68.6332 74.5849 74.5349C69.902 80.3725 63.9362 86.0817 56.6873 91.6627H82.6677V105.038H34.3635V92.8174ZM89.9122 69.9162C89.9122 58.8826 92.0292 50.1904 96.263 43.8397C100.561 37.4889 107.457 34.3135 116.951 34.3135C126.445 34.3135 133.309 37.4889 137.543 43.8397C141.841 50.1904 143.99 58.8826 143.99 69.9162C143.99 81.0781 141.841 89.8345 137.543 96.1852C133.309 102.536 126.445 105.711 116.951 105.711C107.457 105.711 100.561 102.536 96.263 96.1852C92.0292 89.8345 89.9122 81.0781 89.9122 69.9162ZM127.824 69.9162C127.824 63.4372 127.119 58.4656 125.707 55.0016C124.296 51.4734 121.377 49.7093 116.951 49.7093C112.525 49.7093 109.606 51.4734 108.195 55.0016C106.783 58.4656 106.078 63.4372 106.078 69.9162C106.078 74.2783 106.334 77.9028 106.848 80.7895C107.361 83.612 108.387 85.9214 109.927 87.7175C111.53 89.4496 113.872 90.3156 116.951 90.3156C120.03 90.3156 122.34 89.4496 123.879 87.7175C125.483 85.9214 126.541 83.612 127.054 80.7895C127.568 77.9028 127.824 74.2783 127.824 69.9162ZM152.683 69.9162C152.683 58.8826 154.8 50.1904 159.034 43.8397C163.332 37.4889 170.228 34.3135 179.722 34.3135C189.216 34.3135 196.08 37.4889 200.314 43.8397C204.612 50.1904 206.761 58.8826 206.761 69.9162C206.761 81.0781 204.612 89.8345 200.314 96.1852C196.08 102.536 189.216 105.711 179.722 105.711C170.228 105.711 163.332 102.536 159.034 96.1852C154.8 89.8345 152.683 81.0781 152.683 69.9162ZM190.595 69.9162C190.595 63.4372 189.889 58.4656 188.478 55.0016C187.067 51.4734 184.148 49.7093 179.722 49.7093C175.295 49.7093 172.377 51.4734 170.965 55.0016C169.554 58.4656 168.849 63.4372 168.849 69.9162C168.849 74.2783 169.105 77.9028 169.618 80.7895C170.132 83.612 171.158 85.9214 172.697 87.7175C174.301 89.4496 176.643 90.3156 179.722 90.3156C182.801 90.3156 185.11 89.4496 186.65 87.7175C188.254 85.9214 189.312 83.612 189.825 80.7895C190.338 77.9028 190.595 74.2783 190.595 69.9162Z" fill="#022162"/>
<path d="M247.468 61.7717V82.4198H242.439V70.0368L237.821 82.4198H233.762L229.114 70.0074V82.4198H224.085V61.7717H230.026L235.821 76.0665L241.556 61.7717H247.468ZM263.586 71.831C264.782 72.0859 265.743 72.684 266.468 73.6252C267.194 74.5468 267.557 75.6057 267.557 76.8019C267.557 78.5274 266.949 79.9001 265.733 80.9197C264.537 81.9198 262.86 82.4198 260.703 82.4198H251.085V61.7717H260.38C262.478 61.7717 264.115 62.2521 265.292 63.2129C266.488 64.1738 267.086 65.4778 267.086 67.1249C267.086 68.3406 266.762 69.3505 266.115 70.1545C265.488 70.9584 264.645 71.5173 263.586 71.831ZM256.115 70.125H259.409C260.233 70.125 260.86 69.9486 261.292 69.5956C261.743 69.223 261.968 68.6838 261.968 67.9779C261.968 67.272 261.743 66.7327 261.292 66.3601C260.86 65.9876 260.233 65.8013 259.409 65.8013H256.115V70.125ZM259.821 78.3608C260.664 78.3608 261.311 78.1745 261.762 77.8019C262.233 77.4097 262.468 76.8509 262.468 76.1254C262.468 75.3998 262.223 74.8312 261.733 74.4194C261.262 74.0076 260.605 73.8017 259.762 73.8017H256.115V78.3608H259.821Z" fill="#022162"/>
<path d="M300.74 101.915L295.204 91.8663H293.649V101.915H287.165V75.2952H298.048C300.146 75.2952 301.928 75.6618 303.394 76.3949C304.886 77.128 305.998 78.1393 306.731 79.4285C307.465 80.6925 307.831 82.1082 307.831 83.6756C307.831 85.4452 307.326 87.0252 306.314 88.4156C305.328 89.806 303.862 90.7919 301.916 91.3734L308.059 101.915H300.74ZM293.649 87.278H297.669C298.857 87.278 299.741 86.9873 300.323 86.4058C300.93 85.8244 301.233 85.0028 301.233 83.941C301.233 82.9298 300.93 82.1335 300.323 81.5521C299.741 80.9706 298.857 80.6799 297.669 80.6799H293.649V87.278ZM332.037 94.1795C332.037 95.5699 331.671 96.8591 330.937 98.0473C330.23 99.2102 329.168 100.171 327.752 100.929C326.362 101.662 324.706 102.067 322.785 102.143V105.214H320.358V102.105C317.678 101.877 315.517 101.081 313.873 99.7158C312.23 98.3254 311.358 96.442 311.257 94.0657H318.158C318.31 95.5825 319.043 96.5558 320.358 96.9855V90.9942C318.386 90.4886 316.806 89.9956 315.618 89.5153C314.455 89.035 313.431 88.2639 312.546 87.2022C311.661 86.1404 311.219 84.6868 311.219 82.8413C311.219 80.5409 312.066 78.6954 313.76 77.305C315.479 75.9146 317.678 75.1309 320.358 74.954V71.8824H322.785V74.954C325.439 75.1562 327.537 75.9272 329.079 77.2671C330.621 78.6069 331.481 80.465 331.658 82.8413H324.719C324.567 81.4762 323.922 80.5914 322.785 80.1869V86.0646C324.883 86.646 326.501 87.1642 327.638 87.6193C328.776 88.0743 329.787 88.8327 330.672 89.8945C331.582 90.931 332.037 92.3593 332.037 94.1795ZM318.083 82.538C318.083 83.17 318.272 83.7009 318.651 84.1306C319.056 84.5604 319.625 84.9396 320.358 85.2682V79.9973C319.65 80.1237 319.094 80.4018 318.689 80.8316C318.285 81.2361 318.083 81.8049 318.083 82.538ZM322.785 97.0993C323.543 96.9729 324.137 96.6695 324.567 96.1892C325.022 95.7089 325.249 95.1148 325.249 94.407C325.249 93.7497 325.035 93.2188 324.605 92.8143C324.2 92.3846 323.594 92.018 322.785 91.7147V97.0993ZM369.294 56.2504C368.837 54.1371 368.037 52.5664 366.895 51.5383C365.752 50.4531 364.125 49.9105 362.011 49.9105C358.756 49.9105 356.414 51.3384 354.986 54.1942C353.558 56.993 352.816 61.4481 352.758 67.5595C354.015 65.5605 355.814 63.9897 358.156 62.8474C360.555 61.7051 363.182 61.1339 366.038 61.1339C371.635 61.1339 376.119 62.9045 379.489 66.4458C382.916 69.987 384.629 74.9276 384.629 81.2675C384.629 85.437 383.773 89.0925 382.059 92.2339C380.403 95.3753 377.947 97.8313 374.691 99.6019C371.493 101.373 367.694 102.258 363.296 102.258C354.5 102.258 348.389 99.5163 344.962 94.0331C341.535 88.4928 339.822 80.5536 339.822 70.2155C339.822 59.3633 341.621 51.3099 345.219 46.0551C348.875 40.7433 354.7 38.0874 362.697 38.0874C366.98 38.0874 370.579 38.9441 373.492 40.6576C376.462 42.314 378.689 44.513 380.174 47.2546C381.717 49.9962 382.63 52.9948 382.916 56.2504H369.294ZM362.525 72.7C360.069 72.7 358.013 73.4425 356.357 74.9276C354.758 76.3555 353.958 78.4117 353.958 81.0962C353.958 83.8378 354.7 85.9796 356.185 87.5218C357.728 89.0639 359.898 89.835 362.697 89.835C365.21 89.835 367.18 89.0925 368.608 87.6075C370.093 86.0653 370.836 83.9806 370.836 81.3532C370.836 78.6687 370.122 76.5554 368.694 75.0132C367.266 73.4711 365.21 72.7 362.525 72.7ZM408.68 83.5807C409.537 88.0929 412.164 90.3491 416.562 90.3491C419.589 90.3491 421.731 89.0068 422.988 86.3223C424.244 83.6379 424.873 79.2684 424.873 73.2141C423.616 74.9847 421.903 76.3555 419.732 77.3265C417.562 78.2975 415.134 78.7829 412.45 78.7829C408.794 78.7829 405.539 78.0404 402.683 76.5554C399.827 75.0132 397.571 72.7571 395.914 69.7871C394.315 66.7599 393.516 63.1044 393.516 58.8207C393.516 54.5941 394.372 50.91 396.086 47.7686C397.856 44.6272 400.341 42.1998 403.54 40.4863C406.795 38.7728 410.622 37.916 415.02 37.916C423.473 37.916 429.385 40.5434 432.755 45.7981C436.125 51.0528 437.809 58.7921 437.809 69.016C437.809 76.4412 437.124 82.5812 435.753 87.4361C434.44 92.2339 432.184 95.8894 428.985 98.4025C425.844 100.916 421.531 102.172 416.048 102.172C411.707 102.172 407.995 101.315 404.91 99.6019C401.883 97.8884 399.541 95.6323 397.885 92.8336C396.286 90.0349 395.372 86.9506 395.143 83.5807H408.68ZM415.791 67.2168C418.19 67.2168 420.103 66.5029 421.531 65.075C422.959 63.5899 423.673 61.5908 423.673 59.0777C423.673 56.3361 422.931 54.2228 421.446 52.7378C419.961 51.2527 417.961 50.5102 415.448 50.5102C412.935 50.5102 410.936 51.2813 409.451 52.8235C408.023 54.3085 407.309 56.3647 407.309 58.992C407.309 61.4481 408.023 63.4471 409.451 64.9893C410.936 66.4743 413.049 67.2168 415.791 67.2168ZM451.099 95.9238L446.89 106.807H442.757L444.956 95.9238H451.099ZM461.342 93.8003C461.721 95.7974 462.884 96.7959 464.83 96.7959C466.17 96.7959 467.118 96.2019 467.674 95.0137C468.23 93.8255 468.508 91.8916 468.508 89.2119C467.952 89.9956 467.194 90.6023 466.233 91.0321C465.273 91.4619 464.198 91.6767 463.01 91.6767C461.392 91.6767 459.951 91.3481 458.687 90.6908C457.423 90.0082 456.425 89.0097 455.691 87.6951C454.984 86.3553 454.63 84.7374 454.63 82.8413C454.63 80.9706 455.009 79.3401 455.767 77.9497C456.551 76.5592 457.651 75.4848 459.066 74.7264C460.507 73.968 462.201 73.5888 464.148 73.5888C467.889 73.5888 470.506 74.7517 471.997 77.0775C473.489 79.4033 474.234 82.8287 474.234 87.3538C474.234 90.6402 473.931 93.3579 473.324 95.5067C472.743 97.6302 471.744 99.2481 470.329 100.36C468.938 101.473 467.03 102.029 464.603 102.029C462.681 102.029 461.038 101.65 459.673 100.891C458.333 100.133 457.297 99.1344 456.564 97.8956C455.856 96.6569 455.451 95.2918 455.35 93.8003H461.342ZM464.489 86.5575C465.551 86.5575 466.398 86.2415 467.03 85.6095C467.662 84.9522 467.978 84.0674 467.978 82.9551C467.978 81.7417 467.649 80.8063 466.992 80.149C466.334 79.4917 465.45 79.1631 464.337 79.1631C463.225 79.1631 462.34 79.5044 461.683 80.1869C461.051 80.8442 460.735 81.7543 460.735 82.9172C460.735 84.0042 461.051 84.889 461.683 85.5716C462.34 86.2289 463.275 86.5575 464.489 86.5575ZM477.694 87.6951C477.694 83.3469 478.528 79.9215 480.197 77.4188C481.89 74.916 484.608 73.6647 488.35 73.6647C492.091 73.6647 494.796 74.916 496.464 77.4188C498.158 79.9215 499.005 83.3469 499.005 87.6951C499.005 92.0939 498.158 95.5446 496.464 98.0473C494.796 100.55 492.091 101.801 488.35 101.801C484.608 101.801 481.89 100.55 480.197 98.0473C478.528 95.5446 477.694 92.0939 477.694 87.6951ZM492.635 87.6951C492.635 85.1418 492.356 83.1826 491.8 81.8175C491.244 80.4271 490.094 79.7319 488.35 79.7319C486.605 79.7319 485.455 80.4271 484.899 81.8175C484.343 83.1826 484.065 85.1418 484.065 87.6951C484.065 89.4142 484.166 90.8425 484.368 91.9801C484.57 93.0924 484.975 94.0025 485.581 94.7103C486.213 95.3929 487.136 95.7342 488.35 95.7342C489.563 95.7342 490.473 95.3929 491.08 94.7103C491.712 94.0025 492.129 93.0924 492.331 91.9801C492.533 90.8425 492.635 89.4142 492.635 87.6951Z" fill="white"/>
<path d="M359.205 18.4009C359.205 17.3236 359.405 16.3779 359.806 15.5637C360.22 14.7495 360.777 14.1232 361.478 13.6848C362.18 13.2464 362.963 13.0272 363.827 13.0272C364.566 13.0272 365.211 13.1775 365.762 13.4781C366.326 13.7787 366.758 14.1733 367.059 14.6618V13.1775H370.272V23.6619H367.059V22.1775C366.746 22.666 366.307 23.0606 365.744 23.3612C365.192 23.6619 364.547 23.8122 363.808 23.8122C362.957 23.8122 362.18 23.593 361.478 23.1546C360.777 22.7036 360.22 22.071 359.806 21.2568C359.405 20.4301 359.205 19.4781 359.205 18.4009ZM367.059 18.4197C367.059 17.618 366.833 16.9854 366.382 16.522C365.944 16.0585 365.405 15.8268 364.767 15.8268C364.128 15.8268 363.583 16.0585 363.132 16.522C362.693 16.9729 362.474 17.5992 362.474 18.4009C362.474 19.2026 362.693 19.8414 363.132 20.3174C363.583 20.7808 364.128 21.0126 364.767 21.0126C365.405 21.0126 365.944 20.7808 366.382 20.3174C366.833 19.8539 367.059 19.2213 367.059 18.4197ZM375.809 14.6618C376.122 14.1733 376.554 13.7787 377.106 13.4781C377.657 13.1775 378.302 13.0272 379.041 13.0272C379.905 13.0272 380.688 13.2464 381.39 13.6848C382.091 14.1232 382.642 14.7495 383.043 15.5637C383.456 16.3779 383.663 17.3236 383.663 18.4009C383.663 19.4781 383.456 20.4301 383.043 21.2568C382.642 22.071 382.091 22.7036 381.39 23.1546C380.688 23.593 379.905 23.8122 379.041 23.8122C378.314 23.8122 377.669 23.6619 377.106 23.3612C376.554 23.0606 376.122 22.6723 375.809 22.1963V28.6598H372.596V13.1775H375.809V14.6618ZM380.394 18.4009C380.394 17.5992 380.168 16.9729 379.717 16.522C379.279 16.0585 378.734 15.8268 378.083 15.8268C377.444 15.8268 376.899 16.0585 376.448 16.522C376.01 16.9854 375.79 17.618 375.79 18.4197C375.79 19.2213 376.01 19.8539 376.448 20.3174C376.899 20.7808 377.444 21.0126 378.083 21.0126C378.722 21.0126 379.266 20.7808 379.717 20.3174C380.168 19.8414 380.394 19.2026 380.394 18.4009ZM395.232 18.2506C395.232 18.5512 395.213 18.8643 395.175 19.19H387.904C387.954 19.8414 388.161 20.3424 388.524 20.6932C388.9 21.0314 389.357 21.2005 389.896 21.2005C390.697 21.2005 391.255 20.8623 391.568 20.1859H394.988C394.812 20.8748 394.493 21.4948 394.029 22.046C393.578 22.5971 393.008 23.0293 392.32 23.3424C391.631 23.6556 390.86 23.8122 390.008 23.8122C388.981 23.8122 388.067 23.593 387.265 23.1546C386.464 22.7161 385.837 22.0898 385.386 21.2756C384.935 20.4614 384.71 19.5094 384.71 18.4197C384.71 17.3299 384.929 16.3779 385.367 15.5637C385.818 14.7495 386.445 14.1232 387.246 13.6848C388.048 13.2464 388.969 13.0272 390.008 13.0272C391.023 13.0272 391.925 13.2401 392.714 13.666C393.503 14.0919 394.117 14.6994 394.555 15.4885C395.006 16.2777 395.232 17.1984 395.232 18.2506ZM391.944 17.405C391.944 16.8539 391.756 16.4155 391.38 16.0898C391.004 15.7641 390.535 15.6013 389.971 15.6013C389.432 15.6013 388.975 15.7579 388.599 16.071C388.236 16.3842 388.011 16.8288 387.923 17.405H391.944ZM403.315 13.0647C404.543 13.0647 405.52 13.4656 406.246 14.2672C406.985 15.0564 407.355 16.1462 407.355 17.5366V23.6619H404.161V17.9687C404.161 17.2673 403.979 16.7224 403.616 16.3341C403.253 15.9457 402.764 15.7516 402.15 15.7516C401.536 15.7516 401.048 15.9457 400.685 16.3341C400.321 16.7224 400.14 17.2673 400.14 17.9687V23.6619H396.927V13.1775H400.14V14.5679C400.465 14.1044 400.904 13.7411 401.455 13.4781C402.006 13.2025 402.626 13.0647 403.315 13.0647ZM408.949 18.4009C408.949 17.3236 409.149 16.3779 409.55 15.5637C409.963 14.7495 410.521 14.1232 411.222 13.6848C411.924 13.2464 412.707 13.0272 413.571 13.0272C414.31 13.0272 414.955 13.1775 415.506 13.4781C416.07 13.7787 416.502 14.1733 416.803 14.6618V13.1775H420.016V23.6619H416.803V22.1775C416.489 22.666 416.051 23.0606 415.487 23.3612C414.936 23.6619 414.291 23.8122 413.552 23.8122C412.7 23.8122 411.924 23.593 411.222 23.1546C410.521 22.7036 409.963 22.071 409.55 21.2568C409.149 20.4301 408.949 19.4781 408.949 18.4009ZM416.803 18.4197C416.803 17.618 416.577 16.9854 416.126 16.522C415.688 16.0585 415.149 15.8268 414.51 15.8268C413.871 15.8268 413.327 16.0585 412.876 16.522C412.437 16.9729 412.218 17.5992 412.218 18.4009C412.218 19.2026 412.437 19.8414 412.876 20.3174C413.327 20.7808 413.871 21.0126 414.51 21.0126C415.149 21.0126 415.688 20.7808 416.126 20.3174C416.577 19.8539 416.803 19.2213 416.803 18.4197ZM426.605 23.8122C425.691 23.8122 424.877 23.6556 424.163 23.3424C423.449 23.0293 422.885 22.6034 422.472 22.0648C422.058 21.5136 421.826 20.8998 421.776 20.2234H424.952C424.989 20.5867 425.158 20.8811 425.459 21.1065C425.76 21.332 426.129 21.4447 426.568 21.4447C426.968 21.4447 427.275 21.3696 427.488 21.2193C427.714 21.0564 427.826 20.8497 427.826 20.5992C427.826 20.2986 427.67 20.0794 427.357 19.9416C427.044 19.7913 426.536 19.6284 425.835 19.4531C425.083 19.2777 424.457 19.0961 423.956 18.9082C423.455 18.7078 423.023 18.4009 422.659 17.9875C422.296 17.5616 422.115 16.9917 422.115 16.2777C422.115 15.6764 422.277 15.1315 422.603 14.643C422.941 14.142 423.43 13.7474 424.069 13.4593C424.72 13.1712 425.49 13.0272 426.38 13.0272C427.695 13.0272 428.728 13.3528 429.48 14.0042C430.244 14.6556 430.682 15.5199 430.795 16.5971H427.826C427.776 16.2339 427.614 15.9457 427.338 15.7328C427.075 15.5199 426.724 15.4134 426.286 15.4134C425.91 15.4134 425.622 15.4885 425.421 15.6389C425.221 15.7766 425.121 15.9708 425.121 16.2213C425.121 16.522 425.277 16.7474 425.591 16.8977C425.916 17.0481 426.417 17.1984 427.094 17.3487C427.87 17.5491 428.503 17.7495 428.991 17.9499C429.48 18.1378 429.906 18.451 430.269 18.8894C430.645 19.3153 430.839 19.8915 430.852 20.618C430.852 21.2318 430.676 21.7829 430.325 22.2715C429.987 22.7475 429.492 23.1232 428.841 23.3988C428.202 23.6744 427.457 23.8122 426.605 23.8122Z" fill="white"/>
<path d="M368.38 117.807C368.693 117.318 369.126 116.924 369.677 116.623C370.228 116.323 370.873 116.172 371.612 116.172C372.476 116.172 373.259 116.392 373.961 116.83C374.662 117.268 375.213 117.895 375.614 118.709C376.028 119.523 376.234 120.469 376.234 121.546C376.234 122.623 376.028 123.575 375.614 124.402C375.213 125.216 374.662 125.849 373.961 126.3C373.259 126.738 372.476 126.957 371.612 126.957C370.886 126.957 370.24 126.807 369.677 126.506C369.126 126.206 368.693 125.817 368.38 125.341V131.805H365.167V116.323H368.38V117.807ZM372.965 121.546C372.965 120.744 372.739 120.118 372.288 119.667C371.85 119.204 371.305 118.972 370.654 118.972C370.015 118.972 369.47 119.204 369.019 119.667C368.581 120.131 368.362 120.763 368.362 121.565C368.362 122.366 368.581 122.999 369.019 123.463C369.47 123.926 370.015 124.158 370.654 124.158C371.293 124.158 371.838 123.926 372.288 123.463C372.739 122.987 372.965 122.348 372.965 121.546ZM385.079 108.957L380.043 130.321H376.943L381.978 108.957H385.079ZM399.812 116.21C401.114 116.21 402.148 116.604 402.912 117.394C403.689 118.183 404.077 119.279 404.077 120.682V126.807H400.883V121.114C400.883 120.437 400.701 119.918 400.338 119.554C399.987 119.179 399.498 118.991 398.872 118.991C398.246 118.991 397.751 119.179 397.388 119.554C397.037 119.918 396.862 120.437 396.862 121.114V126.807H393.668V121.114C393.668 120.437 393.486 119.918 393.123 119.554C392.772 119.179 392.283 118.991 391.657 118.991C391.031 118.991 390.536 119.179 390.173 119.554C389.822 119.918 389.647 120.437 389.647 121.114V126.807H386.434V116.323H389.647V117.638C389.972 117.199 390.398 116.855 390.924 116.604C391.45 116.341 392.045 116.21 392.709 116.21C393.498 116.21 394.2 116.379 394.814 116.717C395.44 117.055 395.929 117.538 396.279 118.164C396.643 117.588 397.137 117.118 397.764 116.755C398.39 116.392 399.073 116.21 399.812 116.21ZM416.207 121.396C416.207 121.696 416.188 122.009 416.151 122.335H408.879C408.929 122.987 409.136 123.488 409.499 123.838C409.875 124.177 410.332 124.346 410.871 124.346C411.673 124.346 412.23 124.007 412.543 123.331H415.963C415.787 124.02 415.468 124.64 415.005 125.191C414.554 125.742 413.984 126.174 413.295 126.488C412.606 126.801 411.835 126.957 410.984 126.957C409.956 126.957 409.042 126.738 408.24 126.3C407.439 125.861 406.812 125.235 406.361 124.421C405.911 123.607 405.685 122.655 405.685 121.565C405.685 120.475 405.904 119.523 406.343 118.709C406.794 117.895 407.42 117.268 408.222 116.83C409.023 116.392 409.944 116.172 410.984 116.172C411.998 116.172 412.9 116.385 413.689 116.811C414.478 117.237 415.092 117.845 415.531 118.634C415.982 119.423 416.207 120.344 416.207 121.396ZM412.919 120.55C412.919 119.999 412.731 119.561 412.355 119.235C411.979 118.909 411.51 118.746 410.946 118.746C410.407 118.746 409.95 118.903 409.574 119.216C409.211 119.529 408.986 119.974 408.898 120.55H412.919ZM410.946 113.993L408.034 115.533V113.316L410.946 111.832L413.858 113.316V115.533L410.946 113.993ZM422.167 126.957C421.253 126.957 420.439 126.801 419.725 126.488C419.011 126.174 418.447 125.749 418.034 125.21C417.62 124.659 417.388 124.045 417.338 123.369H420.514C420.551 123.732 420.72 124.026 421.021 124.252C421.322 124.477 421.691 124.59 422.13 124.59C422.53 124.59 422.837 124.515 423.05 124.364C423.276 124.202 423.388 123.995 423.388 123.744C423.388 123.444 423.232 123.225 422.919 123.087C422.606 122.936 422.098 122.774 421.397 122.598C420.645 122.423 420.019 122.241 419.518 122.053C419.017 121.853 418.585 121.546 418.221 121.133C417.858 120.707 417.677 120.137 417.677 119.423C417.677 118.822 417.839 118.277 418.165 117.788C418.503 117.287 418.992 116.893 419.631 116.604C420.282 116.316 421.052 116.172 421.942 116.172C423.257 116.172 424.29 116.498 425.042 117.149C425.806 117.801 426.244 118.665 426.357 119.742H423.388C423.338 119.379 423.176 119.091 422.9 118.878C422.637 118.665 422.286 118.559 421.848 118.559C421.472 118.559 421.184 118.634 420.983 118.784C420.783 118.922 420.683 119.116 420.683 119.366C420.683 119.667 420.839 119.893 421.153 120.043C421.478 120.193 421.979 120.344 422.656 120.494C423.432 120.694 424.065 120.895 424.553 121.095C425.042 121.283 425.468 121.596 425.831 122.035C426.207 122.46 426.401 123.037 426.414 123.763C426.414 124.377 426.238 124.928 425.887 125.417C425.549 125.893 425.054 126.268 424.403 126.544C423.764 126.82 423.019 126.957 422.167 126.957Z" fill="white"/>
</svg>
