<svg width="70" height="70" viewBox="0 0 70 70" fill="none" xmlns="http://www.w3.org/2000/svg">
<g clip-path="url(#clip0_4021_112)">
<path d="M43.75 21.8773C43.75 21.012 44.0066 20.1661 44.4873 19.4467C44.9681 18.7272 45.6513 18.1664 46.4508 17.8353C47.2502 17.5042 48.1299 17.4175 48.9785 17.5863C49.8272 17.7551 50.6067 18.1718 51.2186 18.7837C51.8304 19.3955 52.2471 20.1751 52.4159 21.0238C52.5847 21.8724 52.4981 22.7521 52.167 23.5515C51.8358 24.3509 51.2751 25.0342 50.5556 25.515C49.8362 25.9957 48.9903 26.2523 48.125 26.2523C46.9647 26.2523 45.8519 25.7913 45.0314 24.9709C44.2109 24.1504 43.75 23.0376 43.75 21.8773ZM39.375 35.0023C40.2403 35.0023 41.0862 34.7457 41.8056 34.265C42.5251 33.7842 43.0858 33.1009 43.417 32.3015C43.7481 31.5021 43.8347 30.6224 43.6659 29.7738C43.4971 28.9251 43.0804 28.1455 42.4686 27.5337C41.8567 26.9218 41.0772 26.5051 40.2285 26.3363C39.3799 26.1675 38.5002 26.2542 37.7008 26.5853C36.9013 26.9164 36.2181 27.4772 35.7373 28.1967C35.2566 28.9161 35 29.762 35 30.6273C35 31.7876 35.4609 32.9004 36.2814 33.7209C37.1019 34.5413 38.2147 35.0023 39.375 35.0023ZM30.625 43.7523C31.4903 43.7523 32.3362 43.4957 33.0556 43.015C33.7751 42.5342 34.3358 41.8509 34.667 41.0515C34.9981 40.2521 35.0847 39.3724 34.9159 38.5238C34.7471 37.6751 34.3304 36.8955 33.7186 36.2837C33.1067 35.6718 32.3272 35.2551 31.4785 35.0863C30.6299 34.9175 29.7502 35.0042 28.9508 35.3353C28.1513 35.6664 27.4681 36.2272 26.9873 36.9467C26.5066 37.6661 26.25 38.512 26.25 39.3773C26.25 40.5376 26.7109 41.6504 27.5314 42.4709C28.3519 43.2913 29.4647 43.7523 30.625 43.7523ZM69.5362 10.3652L69.3175 10.9748C64.4933 24.3594 59.885 37.006 49.2654 47.9902C48.4764 55.5128 45.0698 62.5192 39.6404 67.7856C38.1525 69.2018 36.1791 69.995 34.125 70.0023C32.0364 70.0023 30.0334 69.1726 28.5565 67.6957C27.0797 66.2189 26.25 64.2159 26.25 62.1273V57.3702C24.5368 56.7414 22.9496 55.812 21.5629 54.6256L16.2196 59.9719C15.3988 60.7926 14.2857 61.2537 13.125 61.2537C11.9643 61.2537 10.8512 60.7926 10.0304 59.9719C9.20968 59.1511 8.7486 58.038 8.7486 56.8773C8.7486 55.7166 9.20968 54.6034 10.0304 53.7827L15.3796 48.4335C13.5923 46.2541 12.4372 43.6261 12.04 40.8356H7.875C5.78642 40.8356 3.78338 40.0059 2.30653 38.5291C0.829685 37.0522 0 35.0492 0 32.9606C0.00805918 30.9075 0.801137 28.9352 2.21667 27.4481C5.25364 24.3452 8.87435 21.8737 12.8704 20.1758C16.8664 18.4779 21.1588 17.5871 25.5004 17.5548C35.6388 9.11686 47.0429 5.01311 59.0421 0.684775L59.6488 0.466025C61.03 -0.0316923 62.5244 -0.126028 63.9572 0.194042C65.3901 0.514113 66.7023 1.23537 67.7404 2.27353C68.7786 3.31168 69.4998 4.62386 69.8199 6.05673C70.14 7.48959 70.0456 8.98395 69.5479 10.3652H69.5362ZM60.5733 9.42894C47.8683 14.0169 36.8521 18.2023 27.4167 27.6289C25.4084 29.8961 23.5374 32.2814 21.8138 34.7719C20.8956 36.0773 20.4684 37.6653 20.6077 39.2552C20.747 40.8452 21.4438 42.3347 22.575 43.4606L26.7283 47.6023C27.8548 48.7299 29.3432 49.4237 30.9311 49.5614C32.519 49.699 34.1046 49.2717 35.4083 48.3548C37.8957 46.641 40.2265 44.7104 42.3733 42.5856C51.8 33.1502 56 22.1339 60.5733 9.42894Z" fill="#0B64B9"/>
</g>
<defs>
<clipPath id="clip0_4021_112">
<rect width="70" height="70" fill="white"/>
</clipPath>
</defs>
</svg>
