<svg width="69" height="69" viewBox="0 0 69 69" fill="none" xmlns="http://www.w3.org/2000/svg">
<g clip-path="url(#clip0_4021_96)">
<path d="M53.1875 0H15.8125C11.6202 0.00456599 7.60085 1.67199 4.63642 4.63642C1.67199 7.60085 0.00456599 11.6202 0 15.8125L0 38.8125C0.00456599 43.0048 1.67199 47.0242 4.63642 49.9886C7.60085 52.953 11.6202 54.6204 15.8125 54.625H30.1875V60.375H23C21.8563 60.375 20.7594 60.8294 19.9506 61.6381C19.1419 62.4469 18.6875 63.5438 18.6875 64.6875C18.6875 65.8312 19.1419 66.9281 19.9506 67.7369C20.7594 68.5456 21.8563 69 23 69H46C47.1437 69 48.2406 68.5456 49.0494 67.7369C49.8581 66.9281 50.3125 65.8312 50.3125 64.6875C50.3125 63.5438 49.8581 62.4469 49.0494 61.6381C48.2406 60.8294 47.1437 60.375 46 60.375H38.8125V54.625H53.1875C57.3798 54.6204 61.3992 52.953 64.3636 49.9886C67.328 47.0242 68.9954 43.0048 69 38.8125V15.8125C68.9954 11.6202 67.328 7.60085 64.3636 4.63642C61.3992 1.67199 57.3798 0.00456599 53.1875 0V0ZM15.8125 8.625H53.1875C55.0937 8.625 56.9219 9.38225 58.2698 10.7302C59.6177 12.0781 60.375 13.9063 60.375 15.8125V37.375H8.625V15.8125C8.625 13.9063 9.38225 12.0781 10.7302 10.7302C12.0781 9.38225 13.9063 8.625 15.8125 8.625Z" fill="#0B64B9"/>
</g>
<defs>
<clipPath id="clip0_4021_96">
<rect width="69" height="69" fill="white"/>
</clipPath>
</defs>
</svg>
