<svg width="30" height="30" viewBox="0 0 30 30" fill="none" xmlns="http://www.w3.org/2000/svg">
<path d="M28.4402 10.0115C27.1424 8.4034 25.1855 7.47047 23.119 7.4748H20.5811L20.6931 6.81727C21.1501 4.13859 19.349 1.59674 16.6703 1.13982C16.3756 1.08955 16.0769 1.06623 15.7779 1.07021C13.8997 1.06043 12.1765 2.1109 11.3248 3.78498L9.44186 7.4748H6.84914C3.0682 7.47897 0.00410156 10.543 0 14.324V20.5505C0.00410156 24.3315 3.0682 27.3956 6.84914 27.3997H21.8027C25.0346 27.388 27.8228 25.1283 28.5037 21.9689L29.82 15.7424C30.2519 13.7217 29.7445 11.6142 28.4402 10.0115ZM3.73588 20.5505V14.324C3.73588 12.6046 5.12971 11.2107 6.84914 11.2107H8.71711V23.6637H6.84914C5.12977 23.6637 3.73588 22.2699 3.73588 20.5505ZM26.165 14.9691L24.8474 21.1956C24.5385 22.6315 23.2714 23.6586 21.8027 23.6638H12.453V9.79231L14.6522 5.48232C14.8853 5.04604 15.3486 4.78289 15.8427 4.80615C16.4974 4.80656 17.0279 5.33772 17.0275 5.99244C17.0274 6.05854 17.0218 6.12451 17.0108 6.18967L16.1553 11.2107H23.119C24.8384 11.2106 26.2324 12.6043 26.2325 14.3237C26.2326 14.5406 26.2099 14.7568 26.165 14.9691Z" fill="#0B64B9"/>
</svg>
